<svg xmlns="http://www.w3.org/2000/svg" width="72" height="72" viewBox="0 0 72 72">
  <g id="_31" data-name="31" transform="translate(-1055 -687.216)">
    <g id="Grupo_1099511" data-name="Grupo 1099511" transform="translate(636 -433.784)">
      <path id="Trazado_824488" data-name="Trazado 824488" d="M36,0A36,36,0,1,1,0,36,36,36,0,0,1,36,0Z" transform="translate(419 1121)" fill="#869a8a"/>
    </g>
    <g id="reshot-icon-cleaning-Q8V5HMUCD7" transform="translate(1067 699)">
      <path id="Trazado_873717" data-name="Trazado 873717" d="M113.916,8.084v3.095l-7.27,1.616a2.572,2.572,0,0,0-2.014,2.511h0V18.4H94.316V12.21a4.126,4.126,0,0,1,4.126-4.126Z" transform="translate(-85.29 -7.31)" fill="#d83c39"/>
      <path id="Trazado_873718" data-name="Trazado 873718" d="M109.79,12.1l-3.144.7a2.572,2.572,0,0,0-2.014,2.511h0V18.4H94.316V12.21a4.126,4.126,0,0,1,4.126-4.126H109.79Z" transform="translate(-85.29 -7.31)" fill="#ff7a66"/>
      <path id="Trazado_873719" data-name="Trazado 873719" d="M33.934,118.748a8.253,8.253,0,0,1,.971,3.884v16.505a4.126,4.126,0,0,1-4.126,4.126H12.21a4.126,4.126,0,0,1-4.126-4.126V122.632a8.252,8.252,0,0,1,.971-3.884L16.337,105.1H26.652Z" transform="translate(-7.31 -95.037)" fill="#aeef66"/>
      <path id="Trazado_873720" data-name="Trazado 873720" d="M171.369,122.632v16.505a4.126,4.126,0,0,1-4.126,4.126h-4.126a4.126,4.126,0,0,0,4.126-4.126V122.632a8.252,8.252,0,0,0-.971-3.884L158.99,105.1h4.126l7.282,13.653A8.252,8.252,0,0,1,171.369,122.632Z" transform="translate(-143.774 -95.037)" fill="#8ec155"/>
      <path id="Trazado_873721" data-name="Trazado 873721" d="M34.905,289.937H8.084V277.558H34.905v12.379Z" transform="translate(-7.31 -250.995)" fill="#c3fff9"/>
      <path id="Trazado_873722" data-name="Trazado 873722" d="M249.347,289.937h-4.126V277.558h4.126Z" transform="translate(-221.753 -250.995)" fill="#a1e2cd"/>
      <path id="Trazado_873723" data-name="Trazado 873723" d="M413.095,237.537A3.095,3.095,0,1,1,410,234.442,3.095,3.095,0,0,1,413.095,237.537Z" transform="translate(-367.963 -212.005)" fill="#c3fff9"/>
      <g id="Grupo_1099512" data-name="Grupo 1099512" transform="translate(32.753 0.774)">
        <path id="Trazado_873724" data-name="Trazado 873724" d="M432.589,237.537a3.1,3.1,0,0,1-4.126,2.918,3.095,3.095,0,0,0,0-5.836,3.1,3.1,0,0,1,4.126,2.918Z" transform="translate(-420.21 -212.779)" fill="#aff2d8"/>
        <path id="Trazado_873725" data-name="Trazado 873725" d="M357.706,15.821a7.737,7.737,0,1,1-7.737-7.737A7.737,7.737,0,0,1,357.706,15.821Z" transform="translate(-342.232 -8.084)" fill="#aff2d8"/>
      </g>
      <path id="Trazado_873726" data-name="Trazado 873726" d="M416.19,15.821a7.742,7.742,0,0,1-9.284,7.582,7.738,7.738,0,0,0,0-15.164,7.742,7.742,0,0,1,9.284,7.582Z" transform="translate(-367.964 -7.31)" fill="#a1e2cd"/>
      <path id="Trazado_873727" data-name="Trazado 873727" d="M328.926,120a4.126,4.126,0,1,1-4.126-4.126A4.126,4.126,0,0,1,328.926,120Z" transform="translate(-289.984 -104.784)" fill="#c3fff9"/>
      <path id="Trazado_873728" data-name="Trazado 873728" d="M325.832,122.845a2.782,2.782,0,1,1-2.579-3.825A4.127,4.127,0,0,1,325.832,122.845Z" transform="translate(-289.984 -107.629)" fill="#dcfff9"/>
      <path id="Trazado_873729" data-name="Trazado 873729" d="M163.115,342.232h23.726a4.126,4.126,0,0,1,4.126,4.126v7.221a4.126,4.126,0,0,1-4.126,4.126H163.115a4.126,4.126,0,0,1-4.126-4.126v-7.221A4.126,4.126,0,0,1,163.115,342.232Z" transform="translate(-143.773 -309.479)" fill="#ffd327"/>
      <path id="Trazado_873730" data-name="Trazado 873730" d="M180.652,357.7H163.115a4.126,4.126,0,0,1-4.126-4.126v-7.221a4.126,4.126,0,0,1,4.126-4.126h17.537a4.126,4.126,0,0,1,4.126,4.126v7.221A4.126,4.126,0,0,1,180.652,357.7Z" transform="translate(-143.773 -309.478)" fill="#ffe44c"/>
      <path id="Trazado_873731" data-name="Trazado 873731" d="M158.526,337.642a2.063,2.063,0,1,1-2.063-2.063A2.063,2.063,0,0,1,158.526,337.642Zm21.663-4.126a2.063,2.063,0,1,0,2.063,2.063A2.063,2.063,0,0,0,180.189,333.516Zm-29.916,8.253a2.063,2.063,0,1,0,2.063,2.063A2.063,2.063,0,0,0,150.273,341.769ZM174,339.706a2.063,2.063,0,1,0,2.063,2.063A2.063,2.063,0,0,0,174,339.706Zm-9.284,0a2.063,2.063,0,1,0,2.063,2.063A2.063,2.063,0,0,0,164.715,339.706Zm3.095-8.253a2.063,2.063,0,1,0,2.063,2.063A2.063,2.063,0,0,0,167.81,331.453Z" transform="translate(-134.026 -299.732)" fill="#ffc200"/>
      <path id="Trazado_873732" data-name="Trazado 873732" d="M168.273,337.642a2.061,2.061,0,0,1-3.095,1.785,2.06,2.06,0,0,0,0-3.57,2.061,2.061,0,0,1,3.095,1.785Zm-8.253,4.126a2.05,2.05,0,0,0-1.032.278,2.06,2.06,0,0,1,0,3.57,2.062,2.062,0,1,0,1.032-3.848Zm14.442-2.063a2.05,2.05,0,0,0-1.032.278,2.06,2.06,0,0,1,0,3.57,2.062,2.062,0,1,0,1.032-3.848Zm3.095-8.253a2.05,2.05,0,0,0-1.032.278,2.06,2.06,0,0,1,0,3.57,2.062,2.062,0,1,0,1.032-3.848Zm6.189,8.253a2.05,2.05,0,0,0-1.032.278,2.06,2.06,0,0,1,0,3.57,2.062,2.062,0,1,0,1.032-3.848Zm6.19-6.19a2.05,2.05,0,0,0-1.032.278,2.06,2.06,0,0,1,0,3.57,2.062,2.062,0,1,0,1.032-3.848Z" transform="translate(-143.773 -299.732)" fill="#ffa000"/>
      <path id="Trazado_873733" data-name="Trazado 873733" d="M44.358,25.532A2.321,2.321,0,0,0,40.49,23.8a.774.774,0,1,1-1.032-1.153,3.869,3.869,0,1,1-1.289,2.883.774.774,0,1,1,1.547,0,2.321,2.321,0,1,0,4.642,0ZM32.753,9.284a.773.773,0,0,0,.774-.774,6.963,6.963,0,1,1,8.357,6.824.774.774,0,1,0,.308,1.516A8.511,8.511,0,1,0,31.979,8.51.774.774,0,0,0,32.753,9.284ZM44.358,8.51a.774.774,0,1,0,1.547,0A5.422,5.422,0,0,0,40.49,3.095a.774.774,0,0,0,0,1.547A3.873,3.873,0,0,1,44.358,8.51ZM34.816,20.116a.774.774,0,0,0,0-1.547,3.353,3.353,0,1,1,2.217-.838.774.774,0,1,0,1.024,1.16,4.9,4.9,0,1,0-3.241,1.225ZM13.153,47.453H4.9A3.356,3.356,0,0,1,1.547,44.1V39.716h9.542a.774.774,0,1,0,0-1.547H1.547V27.595a7.506,7.506,0,0,1,.88-3.52L9.49,10.832h4.823a.774.774,0,1,0,0-1.547H9.8V4.9a3.356,3.356,0,0,1,3.353-3.353h14.7v1.7L21.188,4.729a3.326,3.326,0,0,0-2.62,3.266v1.29H17.253a.774.774,0,0,0,0,1.547h1.625l1.982,3.717a.774.774,0,0,0,1.365-.728l-2.11-3.956V7.995a1.788,1.788,0,0,1,1.408-1.756l7.27-1.616a.773.773,0,0,0,.606-.755V.774A.774.774,0,0,0,28.626,0H13.153a4.906,4.906,0,0,0-4.9,4.9V9.865L1.062,23.347A9.059,9.059,0,0,0,0,27.595V44.1A4.906,4.906,0,0,0,4.9,49h8.253a.774.774,0,0,0,0-1.547ZM27.595,30.535a.774.774,0,0,0,.774-.774V27.595a9.057,9.057,0,0,0-1.062-4.248L23.6,16.393a.774.774,0,0,0-1.365.728l3.709,6.954a7.489,7.489,0,0,1,.658,1.714H5.932a.774.774,0,1,0,0,1.547H26.816c0,.086,0,.172,0,.258v2.166A.774.774,0,0,0,27.595,30.535Zm-5.158,4.539A2.837,2.837,0,1,1,19.6,37.91,2.84,2.84,0,0,1,22.437,35.074Zm0,1.547a1.29,1.29,0,1,0,1.29,1.29A1.291,1.291,0,0,0,22.437,36.621ZM49,35.847a2.832,2.832,0,0,1-1.032,2.187V44.1a4.906,4.906,0,0,1-4.9,4.9H38.942a.774.774,0,1,1,0-1.547h4.126A3.356,3.356,0,0,0,46.421,44.1V38.672c-.085.008-.171.012-.258.012a2.835,2.835,0,0,1-1.9-4.939,3.353,3.353,0,0,0-1.192-.219h-6.46c.008.085.012.171.012.258a2.837,2.837,0,1,1-5.674,0c0-.087,0-.173.012-.258H19.342a3.356,3.356,0,0,0-3.353,3.353v4.4c.085-.008.171-.012.258-.012a2.836,2.836,0,0,1,1.033,5.478,3.359,3.359,0,0,0,2.061.711H35.847a.774.774,0,1,1,0,1.547H19.342a4.917,4.917,0,0,1-4.124-2.257,2.835,2.835,0,0,1-.776-4.829V36.879a4.906,4.906,0,0,1,4.9-4.9H31.6a2.833,2.833,0,0,1,4.373,0h7.1a4.894,4.894,0,0,1,3.009,1.034l.086,0A2.84,2.84,0,0,1,49,35.847ZM16.247,42.81a1.29,1.29,0,1,0,1.29,1.29A1.291,1.291,0,0,0,16.247,42.81Zm18.826-9.026a1.29,1.29,0,1,0-1.29,1.29A1.291,1.291,0,0,0,35.074,33.784Zm11.09,3.353a1.29,1.29,0,1,0-1.29-1.29A1.291,1.291,0,0,0,46.163,37.137Zm-6.19,7.737a2.837,2.837,0,1,1,2.837-2.837A2.84,2.84,0,0,1,39.974,44.874Zm0-1.547a1.29,1.29,0,1,0-1.29-1.29A1.291,1.291,0,0,0,39.974,43.326ZM30.69,39.2a2.837,2.837,0,1,1-2.837,2.837A2.84,2.84,0,0,1,30.69,39.2Zm0,1.547a1.29,1.29,0,1,0,1.29,1.29A1.291,1.291,0,0,0,30.69,40.747Z"/>
    </g>
  </g>
</svg>
