<svg xmlns="http://www.w3.org/2000/svg" xmlns:xlink="http://www.w3.org/1999/xlink" width="59" height="59" viewBox="0 0 59 59">
  <defs>
    <clipPath id="clip-path">
      <rect id="Rectángulo_401591" data-name="Rectángulo 401591" width="49" height="49" transform="translate(0 -0.476)" fill="#fff"/>
    </clipPath>
  </defs>
  <g id="_33" data-name="33" transform="translate(-889 -1122)">
    <circle id="Elipse_11587" data-name="Elipse 11587" cx="29.5" cy="29.5" r="29.5" transform="translate(889 1122)" fill="#5f6e62"/>
    <g id="Grupo_1099652" data-name="Grupo 1099652" transform="translate(899 1127.948)">
      <g id="Grupo_1099651" data-name="Grupo 1099651" transform="translate(0 -0.471)" clip-path="url(#clip-path)">
        <path id="Trazado_874057" data-name="Trazado 874057" d="M53.368,77.49H46.623A2.626,2.626,0,0,1,44,74.867V66.623a2.623,2.623,0,1,1,5.246,0v5.621h4.122a2.623,2.623,0,1,1,0,5.246M46.623,65.5A1.125,1.125,0,0,0,45.5,66.623v8.244a1.125,1.125,0,0,0,1.124,1.124h6.745a1.124,1.124,0,0,0,0-2.248H48.5a.749.749,0,0,1-.749-.749v-6.37A1.125,1.125,0,0,0,46.623,65.5" transform="translate(-35.756 -51.621)" fill="#fff"/>
        <path id="Trazado_874058" data-name="Trazado 874058" d="M70.03,24.432a.75.75,0,0,1-.738-.883l1.034-5.7A2.244,2.244,0,0,1,72.54,16h4.744a2.251,2.251,0,0,1,2.248,2.248v3a.749.749,0,1,1-1.5,0v-3a.75.75,0,0,0-.749-.749H72.54a.747.747,0,0,0-.739.612l-1.034,5.705a.75.75,0,0,1-.737.616" transform="translate(-56.299 -12.614)" fill="#fff"/>
        <path id="Trazado_874059" data-name="Trazado 874059" d="M98.745,35.495h-6A.749.749,0,0,1,92,34.745V31a.749.749,0,0,1,.749-.749h4.5a.749.749,0,1,1,0,1.5H93.5V34h5.246a1.5,1.5,0,0,0,1.5-1.5V31a1.5,1.5,0,0,0-1.5-1.5h-1.5a.749.749,0,1,1,0-1.5h1.5a3,3,0,0,1,3,3v1.5a3,3,0,0,1-3,3" transform="translate(-74.762 -22.366)" fill="#fff"/>
        <path id="Trazado_874060" data-name="Trazado 874060" d="M128.372,73.49a2.85,2.85,0,0,1-2.029-.84l-6.124-6.124a.749.749,0,1,1,1.06-1.06L127.4,71.59a1.37,1.37,0,0,0,1.938-1.938l-8.373-8.373a.749.749,0,1,1,1.06-1.06l8.373,8.373a2.869,2.869,0,0,1-2.029,4.9" transform="translate(-97.516 -48.37)" fill="#fff"/>
        <path id="Trazado_874061" data-name="Trazado 874061" d="M60.122,148.985A4.127,4.127,0,0,1,56,144.863V128.749a.749.749,0,0,1,1.5,0v16.113a2.623,2.623,0,0,0,5.246,0V132.5a.749.749,0,0,1,1.5,0v12.366a4.127,4.127,0,0,1-4.122,4.122" transform="translate(-45.508 -103.63)" fill="#fff"/>
        <path id="Trazado_874062" data-name="Trazado 874062" d="M96.122,142.484A4.127,4.127,0,0,1,92,138.362V126a.749.749,0,0,1,1.5,0v12.366a2.623,2.623,0,0,0,5.246,0V120.749a.749.749,0,0,1,1.5,0v17.612a4.127,4.127,0,0,1-4.122,4.122" transform="translate(-74.762 -97.129)" fill="#fff"/>
        <path id="Trazado_874063" data-name="Trazado 874063" d="M87.747,149.5h-3a.749.749,0,1,1,0-1.5h3a.749.749,0,1,1,0,1.5" transform="translate(-68.261 -119.882)" fill="#fff"/>
        <path id="Trazado_874064" data-name="Trazado 874064" d="M14.492,64.985H7.747A3.752,3.752,0,0,1,4,61.238V47.747A3.752,3.752,0,0,1,7.747,44h6.745a.749.749,0,1,1,0,1.5H7.747A2.251,2.251,0,0,0,5.5,47.747v13.49a2.251,2.251,0,0,0,2.248,2.248h6.745a.749.749,0,1,1,0,1.5" transform="translate(-3.251 -35.368)" fill="#fff"/>
        <path id="Trazado_874065" data-name="Trazado 874065" d="M20.749,89.743A.749.749,0,0,1,20,88.993V80.749a.749.749,0,0,1,1.5,0v8.244a.749.749,0,0,1-.749.749" transform="translate(-16.253 -64.623)" fill="#fff"/>
        <path id="Trazado_874066" data-name="Trazado 874066" d="M162,130.745a.747.747,0,0,1-.53-.22l-5.246-5.246a.749.749,0,0,1,1.06-1.06l5.246,5.246a.749.749,0,0,1-.53,1.279" transform="translate(-126.771 -100.379)" fill="#fff"/>
        <path id="Trazado_874067" data-name="Trazado 874067" d="M181.933,154.429h-1.5a.749.749,0,0,1-.6-.3c-.913-1.217-2.072-4.084.07-6.226s5.009-.982,6.226-.07a.75.75,0,0,1,.3.6v1.5a.749.749,0,0,1-.22.53l-3.747,3.747a.75.75,0,0,1-.53.22m-1.1-1.5h.785l3.308-3.308v-.785c-.715-.427-2.554-1.287-3.967.126s-.554,3.25-.126,3.967" transform="translate(-145.209 -118.817)" fill="#fff"/>
        <path id="Trazado_874068" data-name="Trazado 874068" d="M201.5,198.248a.747.747,0,0,1-.53-.22l-.749-.749a.749.749,0,1,1,1.06-1.06l.749.749a.749.749,0,0,1-.53,1.279" transform="translate(-162.527 -158.889)" fill="#fff"/>
        <path id="Trazado_874069" data-name="Trazado 874069" d="M217.5,214.248a.747.747,0,0,1-.53-.22l-.749-.749a.749.749,0,1,1,1.06-1.06l.749.749a.749.749,0,0,1-.53,1.279" transform="translate(-175.529 -171.891)" fill="#fff"/>
        <path id="Trazado_874070" data-name="Trazado 874070" d="M215.5,184.248a.747.747,0,0,1-.53-.22l-.749-.749a.749.749,0,0,1,1.06-1.06l.749.749a.749.749,0,0,1-.53,1.279" transform="translate(-173.904 -147.512)" fill="#fff"/>
        <path id="Trazado_874071" data-name="Trazado 874071" d="M231.5,200.248a.747.747,0,0,1-.53-.22l-.749-.749a.749.749,0,1,1,1.06-1.06l.749.749a.749.749,0,0,1-.53,1.279" transform="translate(-186.906 -160.514)" fill="#fff"/>
        <path id="Trazado_874072" data-name="Trazado 874072" d="M229.5,170.248a.747.747,0,0,1-.53-.22l-.749-.749a.749.749,0,1,1,1.06-1.06l.749.749a.749.749,0,0,1-.53,1.279" transform="translate(-185.281 -136.135)" fill="#fff"/>
        <path id="Trazado_874073" data-name="Trazado 874073" d="M245.5,186.248a.747.747,0,0,1-.53-.22l-.749-.749a.749.749,0,1,1,1.06-1.06l.749.749a.749.749,0,0,1-.53,1.279" transform="translate(-198.283 -149.137)" fill="#fff"/>
      </g>
    </g>
  </g>
</svg>
