<svg xmlns="http://www.w3.org/2000/svg" xmlns:xlink="http://www.w3.org/1999/xlink" width="74" height="74" viewBox="0 0 74 74">
  <defs>
    <clipPath id="clip-path">
      <rect id="Rectángulo_401597" data-name="Rectángulo 401597" width="50" height="50" fill="#f1e7c2"/>
    </clipPath>
  </defs>
  <g id="_40" data-name="40" transform="translate(-316 -2672)">
    <circle id="Elipse_11557" data-name="Elipse 11557" cx="37" cy="37" r="37" transform="translate(316 2672)" fill="#5f6e62"/>
    <g id="Grupo_1099672" data-name="Grupo 1099672" transform="translate(328 2681.77)">
      <g id="Grupo_1099671" data-name="Grupo 1099671" transform="translate(0 0.23)" clip-path="url(#clip-path)">
        <path id="Trazado_874126" data-name="Trazado 874126" d="M50.2,59.758H12.688a.781.781,0,0,1-.781-.781V39.442H8.781A.781.781,0,0,1,8,38.66V33.972a.781.781,0,0,1,.309-.623l4.852-3.68a.781.781,0,0,1,.944,1.245L9.563,34.36v3.519h3.126a.781.781,0,0,1,.781.781V58.2H49.414V38.66a.781.781,0,0,1,.781-.781h3.126V34.36l-7.5-5.7a.781.781,0,0,1-.309-.622V19.907H41.6v3.985a.782.782,0,0,1-1.254.623l-8.9-6.753L25.069,22.6a.781.781,0,1,1-.945-1.245l6.845-5.2a.781.781,0,0,1,.945,0l8.123,6.16V19.125a.781.781,0,0,1,.781-.781h5.47a.781.781,0,0,1,.781.781v8.528l7.5,5.7a.782.782,0,0,1,.309.623V38.66a.781.781,0,0,1-.781.781H50.977V58.977a.781.781,0,0,1-.781.781" transform="translate(-6.437 -13.087)" fill="#f1e7c2"/>
        <path id="Trazado_874127" data-name="Trazado 874127" d="M75.924,68.609a.778.778,0,0,1-.472-.159L60.261,56.923,45.069,68.45a.781.781,0,1,1-.945-1.245L59.789,55.32a.782.782,0,0,1,.945,0L76.4,67.2a.781.781,0,0,1-.473,1.4" transform="translate(-35.256 -44.598)" fill="#f1e7c2"/>
        <path id="Trazado_874128" data-name="Trazado 874128" d="M26.251,36.5a.781.781,0,0,1-.762-.609c-.807-3.571-1.308-4.073-4.88-4.88a.781.781,0,0,1,0-1.524c3.571-.807,4.073-1.309,4.88-4.88a.782.782,0,0,1,1.525,0c.807,3.571,1.308,4.073,4.88,4.88a.781.781,0,0,1,0,1.524c-3.571.807-4.073,1.309-4.88,4.88a.782.782,0,0,1-.762.609m-2.72-6.251a4.584,4.584,0,0,1,2.72,2.72,4.584,4.584,0,0,1,2.72-2.72,4.584,4.584,0,0,1-2.72-2.72,4.584,4.584,0,0,1-2.72,2.72" transform="translate(-16.093 -19.524)" fill="#f1e7c2"/>
        <path id="Trazado_874129" data-name="Trazado 874129" d="M73.47,171.34a.781.781,0,0,1-.762-.609c-.685-3.031-1.068-3.414-4.1-4.1a.781.781,0,0,1,0-1.524c3.031-.685,3.414-1.068,4.1-4.1a.781.781,0,0,1,1.524,0c.685,3.031,1.068,3.414,4.1,4.1a.781.781,0,0,1,0,1.524c-3.031.685-3.414,1.068-4.1,4.1a.781.781,0,0,1-.762.609m-2.047-5.47a3.882,3.882,0,0,1,2.047,2.047,3.882,3.882,0,0,1,2.048-2.047,3.883,3.883,0,0,1-2.048-2.047,3.883,3.883,0,0,1-2.047,2.047" transform="translate(-54.716 -129.279)" fill="#f1e7c2"/>
        <path id="Trazado_874130" data-name="Trazado 874130" d="M119.814,120.028a.781.781,0,0,1-.762-.609c-1.065-4.715-1.728-5.378-6.443-6.443a.781.781,0,0,1,0-1.524c4.715-1.065,5.377-1.728,6.443-6.443a.782.782,0,0,1,1.524,0c1.065,4.715,1.727,5.377,6.442,6.443a.781.781,0,0,1,0,1.524c-4.715,1.065-5.377,1.727-6.442,6.443a.782.782,0,0,1-.762.609m-4.1-7.814a5.923,5.923,0,0,1,4.1,4.1,5.923,5.923,0,0,1,4.1-4.1,5.924,5.924,0,0,1-4.1-4.1,5.924,5.924,0,0,1-4.1,4.1" transform="translate(-90.121 -84.218)" fill="#f1e7c2"/>
      </g>
    </g>
  </g>
</svg>
