<svg xmlns="http://www.w3.org/2000/svg" xmlns:xlink="http://www.w3.org/1999/xlink" width="74" height="74" viewBox="0 0 74 74">
  <defs>
    <clipPath id="clip-path">
      <rect id="Rectángulo_401595" data-name="Rectángulo 401595" width="54" height="54" fill="#f1e7c2"/>
    </clipPath>
  </defs>
  <g id="_44" data-name="44" transform="translate(-1156 -2672)">
    <circle id="Elipse_11591" data-name="Elipse 11591" cx="37" cy="37" r="37" transform="translate(1156 2672)" fill="#5f6e62"/>
    <g id="Grupo_1099665" data-name="Grupo 1099665" transform="translate(1166 2683)">
      <g id="Grupo_1099664" data-name="Grupo 1099664" clip-path="url(#clip-path)">
        <path id="Trazado_874101" data-name="Trazado 874101" d="M22.75,189.5a.844.844,0,0,1-.823-.658c-.871-3.856-1.413-4.4-5.269-5.269a.844.844,0,1,1,.372-1.646c3.362.759,4.789,1.533,5.72,3.76a4.95,4.95,0,0,1,2.937-2.937,4.947,4.947,0,0,1-2.932-2.925,5.806,5.806,0,0,1-.8,1.4.844.844,0,0,1-1.321-1.05,9.055,9.055,0,0,0,1.295-3.517.844.844,0,0,1,1.646,0c.871,3.856,1.413,4.4,5.269,5.269a.844.844,0,0,1,0,1.646c-3.856.871-4.4,1.413-5.269,5.269a.844.844,0,0,1-.823.658" transform="translate(-12.625 -138.875)" fill="#f1e7c2"/>
        <path id="Trazado_874102" data-name="Trazado 874102" d="M168.438,24.875a.844.844,0,0,1-.823-.658c-1.15-5.091-1.866-5.807-6.957-6.957a.844.844,0,0,1,0-1.646c5.091-1.15,5.807-1.866,6.957-6.957a.844.844,0,0,1,1.646,0c1.15,5.091,1.865,5.807,6.957,6.957a.844.844,0,0,1,0,1.646c-5.091,1.15-5.806,1.866-6.957,6.957a.844.844,0,0,1-.823.658m-4.427-8.437a6.4,6.4,0,0,1,4.427,4.427,6.4,6.4,0,0,1,4.428-4.427,6.4,6.4,0,0,1-4.428-4.427,6.4,6.4,0,0,1-4.427,4.427" transform="translate(-126.25 -6.313)" fill="#f1e7c2"/>
        <path id="Trazado_874103" data-name="Trazado 874103" d="M218.8,90.578a.856.856,0,0,1-.856-.856V88.8a.856.856,0,1,1,1.712,0v.924a.856.856,0,0,1-.856.856" transform="translate(-171.97 -69.392)" fill="#f1e7c2"/>
        <path id="Trazado_874104" data-name="Trazado 874104" d="M218.8,114.2a.856.856,0,0,1-.856-.856v-.924a.856.856,0,1,1,1.712,0v.924a.856.856,0,0,1-.856.856" transform="translate(-171.97 -88.028)" fill="#f1e7c2"/>
        <path id="Trazado_874105" data-name="Trazado 874105" d="M229.34,103.655h-.925a.856.856,0,0,1,0-1.712h.925a.856.856,0,1,1,0,1.712" transform="translate(-179.559 -80.439)" fill="#f1e7c2"/>
        <path id="Trazado_874106" data-name="Trazado 874106" d="M205.723,103.655H204.8a.856.856,0,0,1,0-1.712h.925a.856.856,0,1,1,0,1.712" transform="translate(-160.924 -80.439)" fill="#f1e7c2"/>
        <path id="Trazado_874107" data-name="Trazado 874107" d="M114.343,66.794a3.814,3.814,0,0,1-2.706-1.119l-2.393-2.393a6.812,6.812,0,0,1-9-.56.844.844,0,0,1,1.193-1.193,5.128,5.128,0,0,0,7.244,0,.844.844,0,0,1,1.193,0l2.953,2.953a2.139,2.139,0,0,0,3.026-3.026l-3.171-3.171a10.972,10.972,0,0,0-5.1-2.885l-6.951-1.738a.844.844,0,0,1,.409-1.637L108,53.763a12.655,12.655,0,0,1,5.88,3.329l3.171,3.171a3.825,3.825,0,0,1-2.706,6.531" transform="translate(-78.905 -41.031)" fill="#f1e7c2"/>
        <path id="Trazado_874108" data-name="Trazado 874108" d="M21.062,45.094a.841.841,0,0,1-.6-.247l-4.219-4.219a.843.843,0,0,1,0-1.193L31.435,24.247a.843.843,0,0,1,1.193,0l4.219,4.219a.844.844,0,0,1,0,1.193L21.659,44.846a.841.841,0,0,1-.6.247m-3.025-5.062,3.025,3.025L35.057,29.062l-3.025-3.025Z" transform="translate(-12.625 -18.937)" fill="#f1e7c2"/>
        <path id="Trazado_874109" data-name="Trazado 874109" d="M177.281,126.065a3.854,3.854,0,0,1-2.706-1.125l-6.328-6.328a.844.844,0,0,1,1.193-1.193l6.328,6.328a2.139,2.139,0,1,0,3.026-3.026l-9.281-9.281a.844.844,0,0,1,1.193-1.193l9.281,9.281a3.831,3.831,0,0,1-2.706,6.537" transform="translate(-132.562 -86.797)" fill="#f1e7c2"/>
        <path id="Trazado_874110" data-name="Trazado 874110" d="M137.281,177.107a3.814,3.814,0,0,1-2.706-1.119l-6.328-6.328a.844.844,0,1,1,1.193-1.193l6.328,6.328a2.139,2.139,0,0,0,3.026-3.026l-6.328-6.328a.844.844,0,1,1,1.193-1.193l6.328,6.328a3.825,3.825,0,0,1-2.706,6.531" transform="translate(-101 -129.407)" fill="#f1e7c2"/>
        <path id="Trazado_874111" data-name="Trazado 874111" d="M65.484,135.843a3.8,3.8,0,0,1-2.706-1.121L51,122.945a21.2,21.2,0,0,1-5.1-8.245l-1.863-5.59a.844.844,0,1,1,1.6-.534l1.863,5.59a19.506,19.506,0,0,0,4.688,7.586l11.777,11.777A2.139,2.139,0,1,0,67,130.5l-5.033-5.033a.844.844,0,0,1,1.193-1.193l5.032,5.032a3.827,3.827,0,0,1-2.706,6.533" transform="translate(-34.718 -85.218)" fill="#f1e7c2"/>
        <path id="Trazado_874112" data-name="Trazado 874112" d="M158.125,157.951a3.814,3.814,0,0,1-2.706-1.119l-7.172-7.172a.844.844,0,0,1,1.193-1.193l7.172,7.172a2.139,2.139,0,0,0,3.026-3.026l-7.172-7.172a.844.844,0,0,1,1.193-1.193l7.172,7.172a3.825,3.825,0,0,1-2.706,6.531" transform="translate(-116.781 -113.625)" fill="#f1e7c2"/>
      </g>
    </g>
  </g>
</svg>
