<svg xmlns="http://www.w3.org/2000/svg" xmlns:xlink="http://www.w3.org/1999/xlink" width="97" height="97" viewBox="0 0 97 97">
  <defs>
    <clipPath id="clip-path">
      <rect id="Rectángulo_401612" data-name="Rectángulo 401612" width="56" height="56" transform="translate(0 0.086)" fill="#5f6e62"/>
    </clipPath>
  </defs>
  <g id="_79" data-name="79" transform="translate(3230 2053)">
    <g id="Grupo_1099727" data-name="Grupo 1099727" transform="translate(-3672 -10706)">
      <circle id="Elipse_11579" data-name="Elipse 11579" cx="48.5" cy="48.5" r="48.5" transform="translate(442 8653)" fill="#fddbb4"/>
    </g>
    <g id="Grupo_1099744" data-name="Grupo 1099744" transform="translate(-3207 -2033.276)">
      <g id="Grupo_1099743" data-name="Grupo 1099743" transform="translate(0 0.19)" clip-path="url(#clip-path)">
        <path id="Trazado_874342" data-name="Trazado 874342" d="M172.712,57.424a12.712,12.712,0,1,1,12.675-13.689.908.908,0,1,1-1.811.138,10.9,10.9,0,1,0-10.864,11.735.908.908,0,1,1,0,1.816" transform="translate(-141.84 -28.577)" fill="#5f6e62"/>
        <path id="Trazado_874343" data-name="Trazado 874343" d="M30.872,1.816H.908A.908.908,0,0,1,.908,0H30.872a.908.908,0,1,1,0,1.816" transform="translate(0 -0.209)" fill="#5f6e62"/>
        <path id="Trazado_874344" data-name="Trazado 874344" d="M30.872,32.687H.908a.908.908,0,0,1,0-1.816h22.48A16.332,16.332,0,1,1,46.962,19.227a.908.908,0,0,1-1.788-.319,14.529,14.529,0,1,0-14.3,11.963.908.908,0,0,1,0,1.816" transform="translate(0 -0.209)" fill="#5f6e62"/>
        <path id="Trazado_874345" data-name="Trazado 874345" d="M55.387,396.54a6.89,6.89,0,0,1-3.909-1.514,5.239,5.239,0,0,0-2.9-1.209,5.239,5.239,0,0,0-2.9,1.209,6.889,6.889,0,0,1-3.909,1.514,6.889,6.889,0,0,1-3.909-1.514,5.239,5.239,0,0,0-2.9-1.209,5.239,5.239,0,0,0-2.9,1.209,6.89,6.89,0,0,1-3.909,1.514,6.889,6.889,0,0,1-3.909-1.514,5.239,5.239,0,0,0-2.9-1.209,5.239,5.239,0,0,0-2.9,1.209,6.89,6.89,0,0,1-3.909,1.514,6.889,6.889,0,0,1-3.909-1.514,5.239,5.239,0,0,0-2.9-1.209,5.239,5.239,0,0,0-2.9,1.209A6.89,6.89,0,0,1,.908,396.54a.908.908,0,1,1,0-1.816,5.24,5.24,0,0,0,2.9-1.209A6.889,6.889,0,0,1,7.718,392a6.89,6.89,0,0,1,3.909,1.515,5.239,5.239,0,0,0,2.9,1.209,5.24,5.24,0,0,0,2.9-1.209A6.889,6.889,0,0,1,21.338,392a6.89,6.89,0,0,1,3.909,1.515,5.239,5.239,0,0,0,2.9,1.209,5.24,5.24,0,0,0,2.9-1.209A6.889,6.889,0,0,1,34.957,392a6.89,6.89,0,0,1,3.909,1.515,5.239,5.239,0,0,0,2.9,1.209,5.239,5.239,0,0,0,2.9-1.209A6.89,6.89,0,0,1,48.577,392a6.89,6.89,0,0,1,3.909,1.515,5.239,5.239,0,0,0,2.9,1.209.908.908,0,1,1,0,1.816" transform="translate(0 -347.718)" fill="#5f6e62"/>
        <path id="Trazado_874346" data-name="Trazado 874346" d="M55.387,460.54a6.89,6.89,0,0,1-3.909-1.515,5.239,5.239,0,0,0-2.9-1.209,5.239,5.239,0,0,0-2.9,1.209,6.889,6.889,0,0,1-3.909,1.515,6.889,6.889,0,0,1-3.909-1.515,5.239,5.239,0,0,0-2.9-1.209,5.239,5.239,0,0,0-2.9,1.209,6.89,6.89,0,0,1-3.909,1.515,6.889,6.889,0,0,1-3.909-1.515,5.239,5.239,0,0,0-2.9-1.209,5.239,5.239,0,0,0-2.9,1.209,6.89,6.89,0,0,1-3.909,1.515,6.889,6.889,0,0,1-3.909-1.515,5.239,5.239,0,0,0-2.9-1.209,5.239,5.239,0,0,0-2.9,1.209A6.89,6.89,0,0,1,.908,460.54a.908.908,0,0,1,0-1.816,5.24,5.24,0,0,0,2.9-1.209A6.889,6.889,0,0,1,7.718,456a6.89,6.89,0,0,1,3.909,1.514,5.239,5.239,0,0,0,2.9,1.209,5.24,5.24,0,0,0,2.9-1.209A6.889,6.889,0,0,1,21.338,456a6.89,6.89,0,0,1,3.909,1.514,5.239,5.239,0,0,0,2.9,1.209,5.24,5.24,0,0,0,2.9-1.209A6.889,6.889,0,0,1,34.957,456a6.89,6.89,0,0,1,3.909,1.514,5.239,5.239,0,0,0,2.9,1.209,5.239,5.239,0,0,0,2.9-1.209A6.89,6.89,0,0,1,48.577,456a6.89,6.89,0,0,1,3.909,1.514,5.239,5.239,0,0,0,2.9,1.209.908.908,0,0,1,0,1.816" transform="translate(0 -404.454)" fill="#5f6e62"/>
        <path id="Trazado_874347" data-name="Trazado 874347" d="M269.448,255.436a.908.908,0,0,1-.908-.908v-6.356c0-1.911-.354-6.356-3.632-6.356a.908.908,0,1,1,0-1.816c3.411,0,5.448,3.055,5.448,8.172v6.356a.908.908,0,0,1-.908.908" transform="translate(-234.036 -212.97)" fill="#5f6e62"/>
        <path id="Trazado_874348" data-name="Trazado 874348" d="M336.3,296.171a.908.908,0,0,1-.908-.908v-4.54c0-.6-.025-1.183-.074-1.736a.908.908,0,1,1,1.809-.16c.054.606.081,1.244.081,1.9v4.54a.908.908,0,0,1-.908.908" transform="translate(-297.259 -255.521)" fill="#5f6e62"/>
        <path id="Trazado_874349" data-name="Trazado 874349" d="M227.239,141.964a.908.908,0,0,1-.9-.833c-.809-9.7-3.293-17.014-7.385-21.726a15.149,15.149,0,0,0-11.686-5.589h-6.356a.908.908,0,1,1,0-1.816h6.356a17.206,17.206,0,0,1,13.057,6.215c4.35,5.009,6.982,12.668,7.824,22.766a.908.908,0,0,1-.829.98c-.026,0-.051,0-.076,0" transform="translate(-177.3 -99.497)" fill="#5f6e62"/>
        <path id="Trazado_874350" data-name="Trazado 874350" d="M228.54,153.816h-3.632a.908.908,0,0,1,0-1.816h3.632a.908.908,0,1,1,0,1.816" transform="translate(-198.576 -134.957)" fill="#5f6e62"/>
        <path id="Trazado_874351" data-name="Trazado 874351" d="M334.783,194.9a.908.908,0,0,1-.864-.628,22.074,22.074,0,0,0-4.853-8.725.908.908,0,1,1,1.3-1.269,23.842,23.842,0,0,1,5.281,9.435.909.909,0,0,1-.864,1.188" transform="translate(-291.489 -163.325)" fill="#5f6e62"/>
      </g>
    </g>
  </g>
</svg>
