<svg xmlns="http://www.w3.org/2000/svg" xmlns:xlink="http://www.w3.org/1999/xlink" width="97" height="97" viewBox="0 0 97 97">
  <defs>
    <clipPath id="clip-path">
      <rect id="Rectángulo_401615" data-name="Rectángulo 401615" width="65.746" height="69.208" fill="#5f6e62"/>
    </clipPath>
  </defs>
  <g id="_82" data-name="82" transform="translate(3230 1718)">
    <g id="Grupo_1099730" data-name="Grupo 1099730" transform="translate(-3672 -10371)">
      <circle id="Elipse_11579" data-name="Elipse 11579" cx="48.5" cy="48.5" r="48.5" transform="translate(442 8653)" fill="#fddbb4"/>
    </g>
    <g id="Grupo_1099750" data-name="Grupo 1099750" transform="translate(-3214 -1703)">
      <g id="Grupo_1099749" data-name="Grupo 1099749" clip-path="url(#clip-path)">
        <path id="Trazado_874370" data-name="Trazado 874370" d="M197.186,153.262h-2.168a.962.962,0,1,1,0-1.925h2.168a1.35,1.35,0,0,0,1.336-1.235l2.23-27.668a.962.962,0,1,1,1.918.155l-2.23,27.669a3.286,3.286,0,0,1-3.255,3" transform="translate(-140.694 -88.125)" fill="#5f6e62"/>
        <path id="Trazado_874371" data-name="Trazado 874371" d="M24.066,148.491H21.9a3.286,3.286,0,0,1-3.255-3l-2.375-29.479a.962.962,0,1,1,1.918-.155l2.376,29.478a1.35,1.35,0,0,0,1.336,1.234h2.168a.962.962,0,1,1,0,1.925" transform="translate(-11.792 -83.355)" fill="#5f6e62"/>
        <path id="Trazado_874372" data-name="Trazado 874372" d="M103.173,231.8H84.085a.962.962,0,1,1,0-1.925h19.087a.962.962,0,1,1,0,1.925" transform="translate(-60.266 -166.665)" fill="#5f6e62"/>
        <path id="Trazado_874373" data-name="Trazado 874373" d="M62.727,91.888H3.019A3.023,3.023,0,0,1,0,88.869v-2.4a3.023,3.023,0,0,1,3.019-3.019H62.727a3.023,3.023,0,0,1,3.019,3.019v2.4a3.023,3.023,0,0,1-3.019,3.019M3.019,85.37a1.1,1.1,0,0,0-1.094,1.094v2.4a1.1,1.1,0,0,0,1.094,1.094H62.727a1.1,1.1,0,0,0,1.094-1.094v-2.4a1.1,1.1,0,0,0-1.094-1.094Z" transform="translate(0 -60.499)" fill="#5f6e62"/>
        <path id="Trazado_874374" data-name="Trazado 874374" d="M46.166,225.136A5.035,5.035,0,1,1,51.2,220.1a5.04,5.04,0,0,1-5.035,5.034m0-8.144a3.11,3.11,0,1,0,3.11,3.11,3.114,3.114,0,0,0-3.11-3.11" transform="translate(-29.821 -155.928)" fill="#5f6e62"/>
        <path id="Trazado_874375" data-name="Trazado 874375" d="M169.473,225.136a5.035,5.035,0,1,1,5.035-5.034,5.04,5.04,0,0,1-5.035,5.034m0-8.144a3.11,3.11,0,1,0,3.11,3.11,3.114,3.114,0,0,0-3.11-3.11" transform="translate(-119.221 -155.928)" fill="#5f6e62"/>
        <path id="Trazado_874376" data-name="Trazado 874376" d="M33.807,48.277a.82.82,0,0,1-.492-.164,10.915,10.915,0,0,1-3.757-5.066c-.108-.3-.2-.609-.287-.921l-.052-.2a8.817,8.817,0,0,0-4.267-5.461,10.112,10.112,0,0,0-1.743-.725s-.448-.131-.881-.211c-2.2-.4-7.668,1.911-8.813,3.446a10.041,10.041,0,0,0-.8,1.285s-.185.367-.33.734a8.746,8.746,0,0,0-.4,5.167.825.825,0,0,1-1.61.363,10.391,10.391,0,0,1,.478-6.137c.174-.439.383-.853.392-.871a11.744,11.744,0,0,1,.947-1.527c1.5-2.005,7.563-4.61,10.434-4.081.52.1,1.027.244,1.048.251a11.666,11.666,0,0,1,2.071.861,10.474,10.474,0,0,1,5.069,6.487l.052.2c.07.266.152.529.244.783a9.273,9.273,0,0,0,3.191,4.3.825.825,0,0,1-.494,1.486" transform="translate(-7.336 -24.535)" fill="#5f6e62"/>
        <path id="Trazado_874377" data-name="Trazado 874377" d="M19.561,21.464a.828.828,0,0,1-.3-.058l-1.813-.718a3.931,3.931,0,0,1-2.3-2.347l-.293-.813a1.7,1.7,0,0,1,1.025-2.181.82.82,0,0,1,.431-.035l.873.163.711-.821a1.553,1.553,0,0,1,1.51-.5l.988.216.609-.744a.827.827,0,0,1,.359-.254A1.706,1.706,0,0,1,23.536,14.4l.293.813a3.944,3.944,0,0,1,.179,1.994.825.825,0,1,1-1.627-.276,2.289,2.289,0,0,0-.1-1.158L22,15l-.373.456a1.556,1.556,0,0,1-1.535.536l-.993-.217-.711.821a1.561,1.561,0,0,1-1.463.51l-.51-.1.277.77a2.292,2.292,0,0,0,1.347,1.368l1.825.723a.825.825,0,0,1-.3,1.592m-.425-5.731h0Z" transform="translate(-10.691 -9.62)" fill="#5f6e62"/>
        <path id="Trazado_874378" data-name="Trazado 874378" d="M31.283,44.956a.825.825,0,0,1-.736-.451,6.147,6.147,0,0,1-.282-4.846.825.825,0,0,1,1.547.573,4.472,4.472,0,0,0,.205,3.524.826.826,0,0,1-.734,1.2" transform="translate(-21.676 -28.364)" fill="#5f6e62"/>
        <path id="Trazado_874379" data-name="Trazado 874379" d="M46.509,46.271a.825.825,0,0,1-.8-.645,4.339,4.339,0,0,0-.541-1.323.825.825,0,0,1,1.406-.864,6,6,0,0,1,.745,1.825.826.826,0,0,1-.806,1.006" transform="translate(-32.656 -31.21)" fill="#5f6e62"/>
        <path id="Trazado_874380" data-name="Trazado 874380" d="M141.767,47.3a.825.825,0,0,1-.494-1.486,9.276,9.276,0,0,0,3.191-4.3c.092-.256.174-.52.244-.784l.052-.2a10.473,10.473,0,0,1,5.068-6.486,11.683,11.683,0,0,1,2.072-.861c.02-.006.527-.155,1.047-.25,2.869-.529,8.937,2.076,10.434,4.081a11.756,11.756,0,0,1,.947,1.527c.009.018.218.432.392.871a10.426,10.426,0,0,1,.573,5.661.825.825,0,0,1-1.625-.288,8.773,8.773,0,0,0-.482-4.766c-.146-.367-.329-.731-.331-.735a10.226,10.226,0,0,0-.8-1.284c-1.145-1.534-6.6-3.852-8.813-3.445-.433.08-.876.21-.881.211a10.113,10.113,0,0,0-1.743.725,8.817,8.817,0,0,0-4.267,5.461l-.052.2c-.082.31-.179.62-.287.921a10.916,10.916,0,0,1-3.757,5.067.82.82,0,0,1-.492.164" transform="translate(-102.185 -23.825)" fill="#5f6e62"/>
        <path id="Trazado_874381" data-name="Trazado 874381" d="M196.079,20.482a.825.825,0,0,1-.3-1.592l1.813-.718a2.3,2.3,0,0,0,1.359-1.373l.278-.77-.511.1a1.562,1.562,0,0,1-1.463-.51l-.711-.82-.99.216a1.552,1.552,0,0,1-1.538-.535l-.373-.456-.277.767a2.29,2.29,0,0,0-.1,1.158.825.825,0,0,1-1.627.277,3.947,3.947,0,0,1,.179-1.994l.293-.813a1.7,1.7,0,0,1,2.183-1.025.827.827,0,0,1,.358.254l.609.744.988-.216a1.555,1.555,0,0,1,1.511.5l.71.82.873-.163a.825.825,0,0,1,.431.035,1.7,1.7,0,0,1,1.026,2.181l-.293.813a3.939,3.939,0,0,1-2.316,2.351l-1.8.714a.822.822,0,0,1-.3.058m.426-5.73h0Z" transform="translate(-138.897 -8.908)" fill="#5f6e62"/>
        <path id="Trazado_874382" data-name="Trazado 874382" d="M200.42,42.993a.825.825,0,0,1-.747-1.174,4.472,4.472,0,0,0,.084-3.529.825.825,0,1,1,1.526-.626,6.15,6.15,0,0,1-.115,4.853.826.826,0,0,1-.748.476" transform="translate(-144.711 -26.935)" fill="#5f6e62"/>
        <path id="Trazado_874383" data-name="Trazado 874383" d="M187.652,45.291a.826.826,0,0,1-.806-1.006,6,6,0,0,1,.745-1.825.825.825,0,0,1,1.406.863,4.351,4.351,0,0,0-.541,1.323.825.825,0,0,1-.8.645" transform="translate(-135.453 -30.499)" fill="#5f6e62"/>
        <path id="Trazado_874384" data-name="Trazado 874384" d="M106.053,33.26h-.033a.825.825,0,0,1-.792-.857,8.818,8.818,0,0,0-2.482-6.471c-.278-.285-.585-.549-.588-.551a10.215,10.215,0,0,0-1.229-.879c-1.646-.975-7.578-1.014-9.46.209-.369.24-.728.531-.732.533a10.122,10.122,0,0,0-1.33,1.339,8.778,8.778,0,0,0-1.27,2.165.825.825,0,0,1-1.528-.623,10.418,10.418,0,0,1,1.509-2.571A11.648,11.648,0,0,1,89.7,23.962c.016-.013.427-.346.87-.634,2.444-1.589,9.049-1.521,11.2-.246a11.733,11.733,0,0,1,1.461,1.045c.015.013.367.315.7.653a10.478,10.478,0,0,1,2.949,7.687.825.825,0,0,1-.824.793" transform="translate(-62.749 -16.045)" fill="#5f6e62"/>
        <path id="Trazado_874385" data-name="Trazado 874385" d="M109.01,7.157a.825.825,0,0,1-.576-1.416l1.4-1.361a2.3,2.3,0,0,0,.727-1.79l-.04-.818-.434.284a1.562,1.562,0,0,1-1.547.092l-.971-.484-.831.581a1.554,1.554,0,0,1-1.625.1l-.52-.277.039.815a2.3,2.3,0,0,0,.35,1.11.825.825,0,0,1-1.4.88,3.946,3.946,0,0,1-.6-1.91l-.042-.863A1.7,1.7,0,0,1,104.56.312a.8.8,0,0,1,.429.1l.848.452.829-.579a1.557,1.557,0,0,1,1.588-.117l.971.484.743-.486a.825.825,0,0,1,.412-.134,1.676,1.676,0,0,1,1.228.439,1.693,1.693,0,0,1,.557,1.18l.042.863a3.94,3.94,0,0,1-1.233,3.061l-1.388,1.352a.822.822,0,0,1-.576.234" transform="translate(-74.632 0)" fill="#5f6e62"/>
        <path id="Trazado_874386" data-name="Trazado 874386" d="M123.366,28.215l-.064,0a.825.825,0,0,1-.76-.885A4.47,4.47,0,0,0,121.377,24a.825.825,0,0,1,1.208-1.124,6.146,6.146,0,0,1,1.6,4.581.825.825,0,0,1-.822.762" transform="translate(-87.84 -16.392)" fill="#5f6e62"/>
        <path id="Trazado_874387" data-name="Trazado 874387" d="M110.415,34.965a.825.825,0,0,1-.811-.682,6,6,0,0,1-.014-1.971.825.825,0,0,1,1.63.255,4.345,4.345,0,0,0,.009,1.43.825.825,0,0,1-.67.955.846.846,0,0,1-.144.013" transform="translate(-79.401 -22.921)" fill="#5f6e62"/>
      </g>
    </g>
  </g>
</svg>
