<svg xmlns="http://www.w3.org/2000/svg" width="87" height="87" viewBox="0 0 87 87">
  <g id="a3" transform="translate(-1190.333 -464)">
    <g id="Grupo_1099416" data-name="Grupo 1099416" transform="translate(-25 35)">
      <g id="Elipse_11502" data-name="Elipse 11502" transform="translate(1215.333 429)" fill="#f9a545" stroke="#fff" stroke-width="5">
        <circle cx="43.5" cy="43.5" r="43.5" stroke="none"/>
        <circle cx="43.5" cy="43.5" r="41" fill="none"/>
      </g>
    </g>
    <g id="Layer_x0020_1" transform="translate(1212.722 480.32)">
      <g id="_443098032">
        <path id="_443098248" d="M1.487,7.06a1.043,1.043,0,0,0,2.086,0V3.466H9.727V7.06a1.043,1.043,0,0,0,2.086,0V2.423A1.043,1.043,0,0,0,10.77,1.38H2.53A1.043,1.043,0,0,0,1.487,2.423V7.06Z" transform="translate(4.642 3.77)" fill="#333"/>
        <path id="_443097936" d="M3.8,6H5.55V2.94H3.8ZM6.593,8.09H2.755A1.043,1.043,0,0,1,1.712,7.047V1.9A1.043,1.043,0,0,1,2.755.853H6.593A1.043,1.043,0,0,1,7.636,1.9v5.15A1.043,1.043,0,0,1,6.593,8.09Z" transform="translate(6.618 -0.853)" fill="#333"/>
        <path id="_443098176" d="M2.6.853a1.043,1.043,0,0,0,0,2.086H9.517a1.043,1.043,0,0,0,0-2.086Z" transform="translate(5.235 -0.853)" fill="#333"/>
        <path id="_443098080" d="M6.378,40.518H17.925q.173,0,.314-.011A3.909,3.909,0,0,0,20.5,39.6a2.284,2.284,0,0,0,.856-1.7c0-.058,0-.107,0-.146-.029-.385-.169-1.543-.361-3.141-.761-6.325-2.327-19.346-1.211-21.343l0,0c2.3-3.75,1.28-6.337-1.082-7.788a12.845,12.845,0,0,0-6.542-1.6v0A12.849,12.849,0,0,0,5.609,5.481C3.248,6.932,2.223,9.519,4.528,13.269l0,0h0l.005,0a1.04,1.04,0,0,1,.141.378c.818,2.893-.633,14.952-1.357,20.966-.192,1.6-.332,2.758-.361,3.144,0,.039,0,.087,0,.146A2.284,2.284,0,0,0,3.8,39.6a3.909,3.909,0,0,0,2.262.91q.141.011.314.011ZM17.925,42.6H6.378c-.147,0-.3-.006-.469-.019a6.019,6.019,0,0,1-3.476-1.423A4.33,4.33,0,0,1,.86,37.9q0-.134.013-.3c.034-.445.175-1.617.369-3.234C1.984,28.2,3.527,15.376,2.836,14.48a1.049,1.049,0,0,1-.085-.119h0C-.345,9.322,1.17,5.761,4.517,3.7a14.952,14.952,0,0,1,7.634-1.9v0a14.957,14.957,0,0,1,7.634,1.9c3.338,2.051,4.854,5.6,1.79,10.618a1.047,1.047,0,0,1-.1.154h0c-.7.858.848,13.718,1.591,19.9.194,1.615.335,2.787.369,3.231q.013.166.013.3a4.33,4.33,0,0,1-1.573,3.26,6.019,6.019,0,0,1-3.476,1.423c-.165.012-.321.019-.469.019Z" transform="translate(-0.86 7.469)" fill="#333"/>
        <path id="_443097888" d="M3.4,4.906A1.039,1.039,0,1,0,4.492,6.675a17.221,17.221,0,1,1,.254,29.454,1.041,1.041,0,0,0-1.059,1.793A19.3,19.3,0,1,0,3.4,4.906Z" transform="translate(17.109 9.448)" fill="#333"/>
        <path id="_443098392" d="M2.887,9.515a1.041,1.041,0,0,0,1.8,1.043A11.849,11.849,0,1,1,5.913,24.193a1.04,1.04,0,0,0-1.581,1.353A13.928,13.928,0,1,0,2.887,9.515Z" transform="translate(15.707 14.265)" fill="#333"/>
        <path id="_443098128" d="M2.4,2.954H8.656a.782.782,0,0,1,.782.782V20.427a.782.782,0,0,1-.782.782H2.4a.782.782,0,0,1-.782-.782V3.736A.782.782,0,0,1,2.4,2.954ZM7.874,4.519H3.179V19.645H7.874V4.519Z" transform="translate(5.765 17.59)" fill="#333"/>
      </g>
      <path id="Trazado_873734" data-name="Trazado 873734" d="M6.469,3.114H1.775V18.24H6.469Z" transform="translate(7.17 18.995)" fill="#feca5f" fill-rule="evenodd"/>
      <path id="Trazado_873735" data-name="Trazado 873735" d="M7.149,11.205h6.259a.782.782,0,0,1,.782.782V28.679a.782.782,0,0,1-.782.782H7.149a.782.782,0,0,1-.782-.782V11.988a.782.782,0,0,1,.782-.782ZM4.505,38.648H16.052q.173,0,.314-.011a3.909,3.909,0,0,0,2.262-.91,2.284,2.284,0,0,0,.856-1.7c0-.058,0-.107,0-.146-.029-.385-.169-1.543-.361-3.141-.544-4.526-1.5-12.481-1.593-17.372a1.04,1.04,0,0,1-.007-.807,8.2,8.2,0,0,1,.388-3.165l0,0c2.3-3.75,1.28-6.337-1.082-7.788a10.048,10.048,0,0,0-2.606-1.093,1.034,1.034,0,0,1-.168-.045,15.2,15.2,0,0,0-3.768-.46v0a15.234,15.234,0,0,0-3.792.464,1.038,1.038,0,0,1-.121.032,10.035,10.035,0,0,0-2.629,1.1C1.375,5.063.35,7.65,2.655,11.4h0a1.04,1.04,0,0,1,.141.378c.818,2.893-.633,14.952-1.357,20.966-.192,1.6-.332,2.758-.361,3.144,0,.039,0,.087,0,.146a2.284,2.284,0,0,0,.856,1.7,3.909,3.909,0,0,0,2.262.91q.141.011.314.011Z" transform="translate(1.013 9.339)" fill="#c1ddc7" fill-rule="evenodd"/>
      <path id="Trazado_873736" data-name="Trazado 873736" d="M7.215,4.365a11.839,11.839,0,0,0-4.262,4.2c.154,3.446.818,9.4,1.359,13.991a11.845,11.845,0,1,0,2.9-18.19Z" transform="translate(17.514 16.138)" fill="#ebe5df" fill-rule="evenodd"/>
      <path id="Trazado_873737" data-name="Trazado 873737" d="M12.156,5.518a13.934,13.934,0,1,1-8.439,25.02c.193,1.6.333,2.768.366,3.21q.013.166.013.3a3.969,3.969,0,0,1-.044.591A17.211,17.211,0,1,0,3.806,4.4a7.775,7.775,0,0,1-.742,4.5,13.965,13.965,0,0,1,9.093-3.381Z" transform="translate(18.487 11.322)" fill="#ebe5df" fill-rule="evenodd"/>
      <path id="Trazado_873738" data-name="Trazado 873738" d="M7.854,3.9v-2.3H1.7v2.3a17.8,17.8,0,0,1,3.077-.265v0A17.856,17.856,0,0,1,7.854,3.9Z" transform="translate(6.515 5.643)" fill="#ebe5df" fill-rule="evenodd"/>
      <path id="Trazado_873739" data-name="Trazado 873739" d="M3.676,4.13V1.067H1.925V4.13Z" transform="translate(8.491 1.02)" fill="#ebe5df" fill-rule="evenodd"/>
    </g>
  </g>
</svg>
