<svg xmlns="http://www.w3.org/2000/svg" width="72" height="72" viewBox="0 0 72 72">
  <g id="_29" data-name="29" transform="translate(-215 -687.216)">
    <g id="Grupo_1099509" data-name="Grupo 1099509" transform="translate(-204 -433.784)">
      <path id="Trazado_824488" data-name="Trazado 824488" d="M36,0A36,36,0,1,1,0,36,36,36,0,0,1,36,0Z" transform="translate(419 1121)" fill="#5f6e62"/>
    </g>
    <g id="Layer_x0020_1" transform="translate(230.657 700.322)">
      <g id="_443098032">
        <path id="_443098248" d="M1.487,6.347a.912.912,0,0,0,1.825,0V3.2H8.693V6.347a.912.912,0,1,0,1.825,0V2.292A.912.912,0,0,0,9.6,1.38H2.4a.912.912,0,0,0-.912.912V6.347Z" transform="translate(3.872 3.124)" fill="#333"/>
        <path id="_443097936" d="M3.536,5.357H5.068V2.678H3.536ZM5.98,7.182H2.624a.912.912,0,0,1-.912-.912v-4.5A.912.912,0,0,1,2.624.853H5.98a.912.912,0,0,1,.912.912v4.5A.912.912,0,0,1,5.98,7.182Z" transform="translate(5.572 -0.853)" fill="#333"/>
        <path id="_443098176" d="M2.466.853a.912.912,0,0,0,0,1.825H8.517a.912.912,0,1,0,0-1.825Z" transform="translate(4.382 -0.853)" fill="#333"/>
        <path id="_443098080" d="M5.686,35.658h10.1q.152,0,.274-.009a3.419,3.419,0,0,0,1.978-.8,2,2,0,0,0,.749-1.483c0-.051,0-.094,0-.127-.025-.337-.147-1.35-.315-2.747-.665-5.531-2.035-16.917-1.059-18.664l0,0c2.015-3.279,1.119-5.541-.946-6.81a11.232,11.232,0,0,0-5.721-1.4v0A11.236,11.236,0,0,0,5.013,5.019c-2.065,1.269-2.961,3.531-.946,6.81l0,0h0l0,0a.91.91,0,0,1,.123.33C4.906,14.689,3.637,25.235,3,30.494c-.168,1.4-.29,2.412-.316,2.749,0,.034,0,.076,0,.127a2,2,0,0,0,.749,1.483,3.419,3.419,0,0,0,1.978.8q.123.009.274.009Zm10.1,1.825H5.686c-.129,0-.266-.006-.41-.017a5.263,5.263,0,0,1-3.04-1.244A3.787,3.787,0,0,1,.86,33.371q0-.117.011-.263c.029-.389.153-1.414.323-2.828.649-5.395,2-16.608,1.394-17.391a.918.918,0,0,1-.075-.1h0C-.194,8.378,1.131,5.264,4.058,3.465A13.076,13.076,0,0,1,10.734,1.8v0a13.079,13.079,0,0,1,6.676,1.661c2.919,1.794,4.245,4.9,1.565,9.285a.915.915,0,0,1-.092.135h0c-.611.751.742,12,1.392,17.4.17,1.413.293,2.437.323,2.825q.011.145.011.263a3.787,3.787,0,0,1-1.376,2.851,5.263,5.263,0,0,1-3.04,1.244c-.144.011-.281.016-.41.016Z" transform="translate(-0.86 6.305)" fill="#333"/>
        <path id="_443097888" d="M3.338,4.545a.909.909,0,1,0,.955,1.547,15.059,15.059,0,1,1,.222,25.757.911.911,0,1,0-.926,1.568A16.878,16.878,0,1,0,3.338,4.545Z" transform="translate(14.597 8.008)" fill="#333"/>
        <path id="_443098392" d="M2.87,8.644a.91.91,0,0,0,1.575.912A10.362,10.362,0,1,1,5.516,21.479a.91.91,0,0,0-1.383,1.183A12.179,12.179,0,1,0,2.87,8.644Z" transform="translate(13.391 12.151)" fill="#333"/>
        <path id="_443098128" d="M2.3,2.954H7.772a.684.684,0,0,1,.684.684v14.6a.684.684,0,0,1-.684.684H2.3a.684.684,0,0,1-.684-.684V3.638A.684.684,0,0,1,2.3,2.954ZM7.088,4.322H2.983V17.55H7.088V4.322Z" transform="translate(4.839 15.011)" fill="#333"/>
      </g>
      <path id="Trazado_873734" data-name="Trazado 873734" d="M5.88,3.114H1.775V16.342H5.88Z" transform="translate(6.047 16.22)" fill="#feca5f" fill-rule="evenodd"/>
      <path id="Trazado_873735" data-name="Trazado 873735" d="M6.387,10.052H11.86a.684.684,0,0,1,.684.684v14.6a.684.684,0,0,1-.684.684H6.387a.684.684,0,0,1-.684-.684v-14.6a.684.684,0,0,1,.684-.684Zm-2.312,24h10.1q.152,0,.274-.009a3.419,3.419,0,0,0,1.978-.8,2,2,0,0,0,.749-1.483c0-.051,0-.094,0-.127-.025-.337-.147-1.35-.315-2.747-.476-3.958-1.313-10.914-1.393-15.191a.91.91,0,0,1-.006-.706,7.172,7.172,0,0,1,.34-2.767l0,0c2.015-3.279,1.119-5.541-.946-6.81a8.786,8.786,0,0,0-2.279-.956.9.9,0,0,1-.147-.039,13.291,13.291,0,0,0-3.3-.4v0a13.322,13.322,0,0,0-3.316.406.907.907,0,0,1-.106.028,8.775,8.775,0,0,0-2.3.96C1.337,4.68.441,6.942,2.456,10.221h0a.91.91,0,0,1,.123.33c.715,2.53-.554,13.075-1.187,18.334-.168,1.4-.29,2.412-.316,2.749,0,.034,0,.076,0,.127a2,2,0,0,0,.749,1.483,3.419,3.419,0,0,0,1.978.8q.123.009.274.009Z" transform="translate(0.751 7.914)" fill="#c1ddc7" fill-rule="evenodd"/>
      <path id="Trazado_873736" data-name="Trazado 873736" d="M6.68,4.167A10.353,10.353,0,0,0,2.953,7.839c.135,3.013.715,8.221,1.189,12.235A10.358,10.358,0,1,0,6.68,4.167Z" transform="translate(14.945 13.762)" fill="#ebe5df" fill-rule="evenodd"/>
      <path id="Trazado_873737" data-name="Trazado 873737" d="M11.015,5.107a12.185,12.185,0,1,1-7.38,21.88c.169,1.4.291,2.421.32,2.807q.011.145.011.263a3.471,3.471,0,0,1-.039.517A15.051,15.051,0,1,0,3.712,4.126a6.8,6.8,0,0,1-.649,3.937,12.212,12.212,0,0,1,7.952-2.956Z" transform="translate(15.782 9.619)" fill="#ebe5df" fill-rule="evenodd"/>
      <path id="Trazado_873738" data-name="Trazado 873738" d="M7.081,3.606V1.593H1.7V3.6a15.563,15.563,0,0,1,2.691-.232v0A15.615,15.615,0,0,1,7.081,3.606Z" transform="translate(5.484 4.735)" fill="#ebe5df" fill-rule="evenodd"/>
      <path id="Trazado_873739" data-name="Trazado 873739" d="M3.457,3.746V1.067H1.925V3.746Z" transform="translate(7.184 0.758)" fill="#ebe5df" fill-rule="evenodd"/>
    </g>
  </g>
</svg>
