<svg xmlns="http://www.w3.org/2000/svg" width="162" height="154" viewBox="0 0 162 154">
  <g id="_3" data-name="3" transform="translate(-208 -1006)">
    <rect id="Rect치ngulo_401376" data-name="Rect치ngulo 401376" width="162" height="154" rx="9" transform="translate(208 1006)" fill="#869a8a"/>
    <g id="reshot-icon-cleaner-7XT2S8GPY4" transform="translate(235.969 1031.205)">
      <path id="Trazado_873675" data-name="Trazado 873675" d="M209.215,41.369a4.735,4.735,0,0,0,1.048,3.322s-6.488,13.069-.276,19.8a2.279,2.279,0,0,0,3.28.03,11.976,11.976,0,0,0,.916-1.032,7.219,7.219,0,0,0,10.789.365l.9-.946a5.793,5.793,0,0,0,3.984,3.55A3.527,3.527,0,0,0,234.217,64a8.08,8.08,0,0,0,3.18,2.293,2.659,2.659,0,0,0,3.345-3.606c-2.3-3.89-3.246-9.412-1.793-17.24a3.9,3.9,0,0,1,.574-1.379c1.46-2.019,1.056-5.061-2.015-5.257H212.049A2.832,2.832,0,0,0,209.215,41.369Z" transform="translate(-143.864 -23.591)" fill="#f7f5fc"/>
      <path id="Trazado_873676" data-name="Trazado 873676" d="M234.036,75.148a.435.435,0,0,0-.8.161,7.908,7.908,0,0,1-.608,2.135,2.05,2.05,0,0,1-3.893-.74L227.8,61.421h4.134a11.486,11.486,0,0,0,4.039-.739c.374-.139.288-.784-.106-.784H213.777c-.375,0-.454.616-.1.743a11.709,11.709,0,0,0,4.161.781h7.34L224.9,72.614c-.044-.116-.067-.183-.067-.183.094.444,0,2.753-.01,3.248a3.769,3.769,0,0,1-2.856,2.6c-4.814.965-7.262-3.3-8.134-5.322a.426.426,0,0,0-.793.033,14.625,14.625,0,0,0-.633,3.073,1.146,1.146,0,0,1-1.659.895,6.987,6.987,0,0,1-3.431-4.577c-.147,3.435,3.023,11.6,6.877,6.318a7.219,7.219,0,0,0,10.789.365l.9-.946a5.793,5.793,0,0,0,3.984,3.55,3.527,3.527,0,0,0,4.359-2.461,8.079,8.079,0,0,0,3.18,2.294,2.672,2.672,0,0,0,3.6-2.338C237.955,80.672,235.243,77.111,234.036,75.148Z" transform="translate(-143.876 -38.798)" fill="#d0cde2"/>
      <rect id="Rect치ngulo_401378" data-name="Rect치ngulo 401378" width="3.891" height="75.271" transform="translate(78.797 21.1)" fill="#ffc998"/>
      <path id="Trazado_873677" data-name="Trazado 873677" d="M164.626,214.293l3.269,5.836a2.486,2.486,0,0,0,2.892,1.163l4.328-1.318V227.3L170,230.2a4.929,4.929,0,0,1-6.348-1.291l-8.424-11.01Z" transform="translate(-106.313 -150.15)" fill="#ffd1bd"/>
      <path id="Trazado_873678" data-name="Trazado 873678" d="M20.441,201.936,12.781,213.1a5.341,5.341,0,0,0,.955,7.1l4.483,3.792,5.272-5.659-.983-1.417a2.947,2.947,0,0,1,.241-3.658l5.431-5.982Z" transform="translate(-2.901 -141.238)" fill="#ffd1bd"/>
      <path id="Trazado_873679" data-name="Trazado 873679" d="M37.111,201.936l-2.153,3.137,5.925,6.572,3.97-4.373Z" transform="translate(-19.572 -141.238)" fill="#fca490"/>
      <path id="Trazado_873680" data-name="Trazado 873680" d="M262.409,231.137l3.891,1.585V215.043l-1.945-.324-1.946.987Z" transform="translate(-183.612 -150.457)" fill="#f49d70"/>
      <path id="Trazado_873681" data-name="Trazado 873681" d="M164.626,214.293l-9.4,3.606,4.823,6.3a5.671,5.671,0,0,0,1.715-3.815l4.693-2.82Z" transform="translate(-106.313 -150.15)" fill="#fca490"/>
      <path id="Trazado_873682" data-name="Trazado 873682" d="M23.932,260.259a23.391,23.391,0,0,1,6.477-5.694,3.544,3.544,0,0,1,4.129.568,55.216,55.216,0,0,1,6.6,7.569v12.56H36.3a4.759,4.759,0,0,1-4.269-6.785l.884-1.841a27.158,27.158,0,0,1-8.427-3.231,2.093,2.093,0,0,1-.557-3.146Z" transform="translate(-11.272 -178.892)" fill="#238aa4"/>
      <path id="Trazado_873683" data-name="Trazado 873683" d="M75.489,159.75c-3.443-4.926-8.377-3.679-13.5-3.829H53.173A8.818,8.818,0,0,0,45.9,159.75L38.61,170.376l12.246,8.579H71.913l11.7-7.521Z" transform="translate(-22.206 -108.024)" fill="#fcfcfc"/>
      <path id="Trazado_873684" data-name="Trazado 873684" d="M66.275,287.062V274.5a47.263,47.263,0,0,0-3.178-4v11.008s0,4.643-4.788,4.359a4.723,4.723,0,0,0,3.132,1.189Z" transform="translate(-36.413 -190.691)" fill="#79a8e2"/>
      <path id="Trazado_873685" data-name="Trazado 873685" d="M111.819,139.519A4.118,4.118,0,0,1,107.7,135.4v-7.623h8.236V135.4A4.118,4.118,0,0,1,111.819,139.519Z" transform="translate(-72.034 -87.754)" fill="#ffd1bd"/>
      <path id="Trazado_873686" data-name="Trazado 873686" d="M98.012,164.662V153.309a1.926,1.926,0,0,0-1.926-1.926H92.7v9.161a4.118,4.118,0,0,1-8.236,0v-9.161H81.082a1.925,1.925,0,0,0-1.925,1.926v11.354s-6.97,6.7-1.706,13.749v22.738H99.718V178.411C104.982,171.361,98.012,164.662,98.012,164.662Z" transform="translate(-48.799 -104.778)" fill="#f1e7c2"/>
      <path id="Trazado_873687" data-name="Trazado 873687" d="M216.073,215.939l1.046,7.846a1.738,1.738,0,0,0,2.8,1.131l11.57-9.2-.925-8.049a55.449,55.449,0,0,1-12.091,4.747A3.183,3.183,0,0,0,216.073,215.939Z" transform="translate(-150.173 -145.375)" fill="#238aa4"/>
      <path id="Trazado_873688" data-name="Trazado 873688" d="M241.521,210.977c-.219,1.722.6,3.555,2.358,3.76a6.682,6.682,0,0,0,2.049,4.1l3.916-3.112-.925-8.049A52.4,52.4,0,0,1,241.521,210.977Z" transform="translate(-168.522 -145.376)" fill="#79a8e2"/>
      <path id="Trazado_873689" data-name="Trazado 873689" d="M107.7,134.53l8.236-1.482v-5.27H107.7Z" transform="translate(-72.037 -87.754)" fill="#fca490"/>
      <path id="Trazado_873690" data-name="Trazado 873690" d="M77.189,94.088H74.225a3.776,3.776,0,0,0,0,7.552h2.964Z" transform="translate(-45.168 -63.456)" fill="#fca490"/>
      <path id="Trazado_873691" data-name="Trazado 873691" d="M150.324,94.088h2.964a3.776,3.776,0,1,1,0,7.552h-2.964Z" transform="translate(-102.775 -63.456)" fill="#fca490"/>
      <path id="Trazado_873692" data-name="Trazado 873692" d="M44.966,16.825a8.1,8.1,0,0,0-13.978,0,18.769,18.769,0,0,0-2.3,8.244l-.644,8.974a4.877,4.877,0,0,1-1.132,2.882.526.526,0,0,0,.337.9c3.106.181,9.848-.745,12.622-11.463Z" transform="translate(-13.654 -4.841)" fill="#f9a545"/>
      <path id="Trazado_873693" data-name="Trazado 873693" d="M67.866,34.261a4.033,4.033,0,1,1-4.033-4.033,4.033,4.033,0,0,1,4.033,4.033Z" transform="translate(-37.509 -17.4)" fill="#565e68"/>
      <path id="Trazado_873694" data-name="Trazado 873694" d="M100.566,24.08A13.971,13.971,0,0,1,86.595,38.051c-18.5-.639-18.491-27.307,0-27.943a13.972,13.972,0,0,1,13.971,13.971Z" transform="translate(-46.81 -2.889)" fill="#f9a545"/>
      <path id="Trazado_873695" data-name="Trazado 873695" d="M94.086,44.694s2.2,10.519,10.427,12.157a2.712,2.712,0,0,1,2.215,2.646v1.917c-.454,13.135-19.393,13.132-19.845,0V54.89A12.017,12.017,0,0,1,94.086,44.694Z" transform="translate(-57.02 -27.833)" fill="#ffd1bd"/>
      <path id="Trazado_873696" data-name="Trazado 873696" d="M252.168,195.967a4.18,4.18,0,0,0-3.4,1.747,2.8,2.8,0,0,0-5.016,1.695v1.684a2.81,2.81,0,0,0,4.226,2.4v2.05a4.189,4.189,0,0,0,8.378,0v-5.386A4.189,4.189,0,0,0,252.168,195.967Z" transform="translate(-170.157 -136.933)" fill="#238aa4"/>
      <path id="Trazado_873697" data-name="Trazado 873697" d="M266.3,67.8V59.9h-3.891V66.36Z" transform="translate(-183.612 -38.797)" fill="#f49d70"/>
      <path id="Trazado_873698" data-name="Trazado 873698" d="M238.507,58.7c-1.728-2.581-3.129-10.859-.967-16.9a5.8,5.8,0,0,0,1.022-2.942A3.955,3.955,0,0,0,234.6,34.8h-25.46c-3.756.094-4.982,4.213-3.064,7.1-1.238,2.747-5.758,14.017.183,20.457a3.424,3.424,0,0,0,5.049-.1,8.113,8.113,0,0,0,4.588,2.037,1.115,1.115,0,0,0,.237-2.218,5.951,5.951,0,0,1-3.892-2.052,14.7,14.7,0,0,1-1.225-4.995,1.115,1.115,0,1,0-2.225.156,17.037,17.037,0,0,0,1.188,5.224c-.476.68-1.419,1.146-2.08.437-4.892-5.3-.963-15.346.172-17.931h3.393a1.115,1.115,0,0,0,0-2.23h-3.513c-.9-1.358-.768-3.586,1.189-3.649H234.6c2.19.167,1.985,2.37,1.011,3.649h-2.163a1.115,1.115,0,0,0,0,2.23h1.384c-1.308,7.828-.362,13.366,1.994,17.359a1.544,1.544,0,0,1-1.94,2.086,6.977,6.977,0,0,1-2.71-1.952,14.25,14.25,0,0,1-2.664-7.707,1.115,1.115,0,0,0-2.221.21,17.062,17.062,0,0,0,2.722,8.325c-1.2,2.5-4.169.981-5.255-.332V42.915h3.02c-.174,1.006-.392,2.5-.519,4.252a1.115,1.115,0,1,0,2.224.161,38.77,38.77,0,0,1,.736-5.277,1.123,1.123,0,0,0-1.087-1.366h-5.49a1.115,1.115,0,0,0-1.115,1.115V76.688a1.115,1.115,0,0,0,2.23,0v-12.9c2.2,1.464,5.147,1.488,6.828-.841,1.814,1.572,4.6,2.688,6.61.519A3.819,3.819,0,0,0,238.507,58.7Z" transform="translate(-140.957 -20.7)" fill="#2f313f"/>
      <path id="Trazado_873699" data-name="Trazado 873699" d="M10.114,79.811l1.431,1.21a3.218,3.218,0,0,0,1.118,4.461,30.524,30.524,0,0,0,7.366,3.049,5.9,5.9,0,0,0,4.424,8.928,1.115,1.115,0,1,0,.218-2.22,3.639,3.639,0,0,1-2.907-5.169l.884-1.842a1.122,1.122,0,0,0-.836-1.585,26.2,26.2,0,0,1-8.042-3.1c-.878-.6-.4-1.4.164-1.963a21.265,21.265,0,0,1,5.724-4.924,2.429,2.429,0,0,1,2.832.385,57.981,57.981,0,0,1,5.044,5.522v13.8a1.115,1.115,0,0,0,1.115,1.115H50.918a1.115,1.115,0,0,0,1.115-1.115V73.994c4.1-5.844.869-11.862-1.706-14.569V50.336a7.7,7.7,0,0,1,2.04,2.028L59.835,63.1l-4.05,2.6a1.12,1.12,0,0,0,.6,2.053c.457.068,1.61-.873,2.047-1.106l2.172,3.878a3.64,3.64,0,0,0,4.377,1.628l.728,5.464-2.577,1.464a3.829,3.829,0,0,1-4.911-1l-2.682-3.5a1.115,1.115,0,0,0-1.771,1.355l2.682,3.5a6.069,6.069,0,0,0,7.784,1.583l2.1-1.192a2.863,2.863,0,0,0,4.105.588l5.4-4.289a1.115,1.115,0,0,0-1.388-1.746L69.057,78.67a.623.623,0,0,1-1.006-.406l-1.046-7.846a2.059,2.059,0,0,1,1.559-2.288,43.671,43.671,0,0,0,4.816-1.478,3.909,3.909,0,0,0,3.327,1.406,5.6,5.6,0,0,0,.976,3.606V96.372A1.115,1.115,0,0,0,78.8,97.487h3.891A1.115,1.115,0,0,0,83.8,96.372V73.6a5.309,5.309,0,0,0,3.513-4.986V63.223a5.332,5.332,0,0,0-7.4-4.869V21.1A1.115,1.115,0,0,0,78.8,19.985H75.083a1.115,1.115,0,0,0-1.039.709c-.086.221-2.105,5.48-.605,10.572a1.115,1.115,0,1,0,2.139-.63,15.658,15.658,0,0,1,.307-8.419h1.8V58.783a3.931,3.931,0,0,0-5.2,3.693c.008.323-.022,1.824.026,2.119a41.227,41.227,0,0,1-4.461,1.364,4.277,4.277,0,0,0-3.283,3.929l-.613.187a1.379,1.379,0,0,1-1.595-.641l-2.238-4,1.7-1.091a1.122,1.122,0,0,0,.313-1.575L54.2,51.1a9.887,9.887,0,0,0-3.987-3.377,3.044,3.044,0,0,0-2.927-2.229H45.019V43.3c4.271-2.345,6.149-6.571,5.8-11.53a2.66,2.66,0,0,1,.725,5.093,1.115,1.115,0,1,0,.869,2.054,4.9,4.9,0,0,0-2.272-9.4,3.888,3.888,0,0,0-2.435-1.593c-7.4-1.471-9.532-11.194-9.552-11.291a1.115,1.115,0,0,0-1.543-.791,13.044,13.044,0,0,0-7.868,11.215v.732C23.6,19.44,29.946,8.2,39.785,8.334c9-.184,15.484,9.631,11.856,17.836a1.115,1.115,0,1,0,2.056.864,14.993,14.993,0,0,0,1.174-5.844C54.986,8.765,40.2,1.6,30.559,9.266a9.273,9.273,0,0,0-14.188,2.156,20.029,20.029,0,0,0-2.451,8.726c.006.049-.651,8.967-.646,9.009,0,.022-.129,2.246-1.5,2.5a1.115,1.115,0,0,0-.911,1.049c.06,1.32,1.235,1.287,3.329,1.391A12.1,12.1,0,0,0,24.863,27.81a1.115,1.115,0,0,0-1.909-1.154,9.93,9.93,0,0,1-8.172,5.229,6.238,6.238,0,0,0,.72-2.621l.643-8.957A17.862,17.862,0,0,1,18.3,12.546a7.029,7.029,0,0,1,10.594-1.778,15.212,15.212,0,0,0-1.021,1.183,5.148,5.148,0,0,0-3.158,9.8A14.967,14.967,0,0,0,27.4,29.81,4.894,4.894,0,0,0,29.057,39.3h1.29a11.119,11.119,0,0,0,4.2,4V45.49c-1.791.044-3.671-.379-4.808,1.371A10,10,0,0,0,22.776,51.1L15.485,61.72,8.962,71.226a6.437,6.437,0,0,0,1.153,8.585ZM81.573,95.256H79.912V73.478a5.262,5.262,0,0,0,1.661.413ZM78.937,63.223a3.074,3.074,0,0,1,6.148,0v5.386a3.074,3.074,0,1,1-6.148,0Zm-4.226-.747A1.689,1.689,0,0,1,77.2,61c-.681,1.213-.463,3.443-.493,4.8a1.681,1.681,0,0,1-2-1.647Zm-49.9-43.12a2.921,2.921,0,0,1,1.736-5.4,14.973,14.973,0,0,0-1.736,5.4Zm4.243,17.713a2.661,2.661,0,0,1-.309-5.3,15.061,15.061,0,0,0,.568,5.3ZM27.536,79.094c-1.308-1.484-2.553-2.745-3.5-3.655a4.635,4.635,0,0,0-3.829-1.258,1.823,1.823,0,0,1,.464-1.414l3.366-3.706,1.815,1.273a10.667,10.667,0,0,0,1.68,3.66ZM30.977,33.58v-6.5a10.809,10.809,0,0,1,5.367-8.605c.943,3.071,3.869,10.231,10.931,11.635a1.589,1.589,0,0,1,1.317,1.552V33.58C48.18,45.236,31.389,45.235,30.977,33.58ZM39.785,50.65a3.006,3.006,0,0,1-3-3V44.2a11.055,11.055,0,0,0,6.006,0v3.447a3.006,3.006,0,0,1-3,3Zm3,1.276v3.84a3,3,0,1,1-6.006,0v-3.84A5.257,5.257,0,0,0,42.788,51.926ZM31.129,60.688a1.115,1.115,0,0,0,.342-.8V48.53a.812.812,0,0,1,.811-.81h2.268v8.046a5.233,5.233,0,1,0,10.467,0V47.72h2.269a.812.812,0,0,1,.81.81V59.884a1.12,1.12,0,0,0,.341.8c.255.247,6.186,6.116,1.587,12.279a3.345,3.345,0,0,1-2.477,1.175,1.115,1.115,0,0,0-1.115,1.115c.086,1.727,2.495,1.035,3.37.609V95.256H29.766V75.791a8.374,8.374,0,0,0,3.245.579,1.115,1.115,0,0,0,0-2.23c-2.617,0-3.391-1.065-3.423-1.111l.02.031,0,0C24.922,66.989,30.838,60.9,31.129,60.688Zm-6.514-8.331a7.762,7.762,0,0,1,4.626-3.146V59.424A13.34,13.34,0,0,0,25.6,67.433l-7.654-5.361ZM10.8,72.49l5.889-8.579,5.511,3.86-3.174,3.5a4.046,4.046,0,0,0-.933,3.713,23,23,0,0,0-5.119,4.326l-1.417-1.2A4.214,4.214,0,0,1,10.8,72.49Z" fill="#2f313f"/>
      <path id="Trazado_873700" data-name="Trazado 873700" d="M116.478,252.379h.877a1.115,1.115,0,1,0,0-2.23h-.877A1.115,1.115,0,0,0,116.478,252.379Z" transform="translate(-77.569 -176.01)" fill="#2f313f"/>
      <path id="Trazado_873701" data-name="Trazado 873701" d="M108.116,96.052a1.115,1.115,0,0,0-2.06.853A1.115,1.115,0,0,0,108.116,96.052Z" transform="translate(-70.782 -64.382)" fill="#2f313f"/>
      <path id="Trazado_873702" data-name="Trazado 873702" d="M132.119,97.572a1.115,1.115,0,0,0,0-2.23A1.115,1.115,0,0,0,132.119,97.572Z" transform="translate(-88.853 -64.361)" fill="#2f313f"/>
      <path id="Trazado_873703" data-name="Trazado 873703" d="M224.191,87.146a1.215,1.215,0,0,0,.77,1.736,1.117,1.117,0,0,0,1.318-.867A1.137,1.137,0,1,0,224.191,87.146Z" transform="translate(-155.969 -57.855)" fill="#2f313f"/>
    </g>
  </g>
</svg>
