<svg xmlns="http://www.w3.org/2000/svg" width="72" height="72" viewBox="0 0 72 72">
  <g id="_30" data-name="30" transform="translate(-635 -687.216)">
    <path id="Trazado_824488" data-name="Trazado 824488" d="M36,0A36,36,0,1,1,0,36,36,36,0,0,1,36,0Z" transform="translate(635 687.216)" fill="#869a8a"/>
    <g id="reshot-icon-cleaner-7XT2S8GPY4" transform="translate(638.769 690.421)">
      <path id="Trazado_873675" data-name="Trazado 873675" d="M208.417,40.306a2.766,2.766,0,0,0,.612,1.941s-3.79,7.634-.161,11.568a1.331,1.331,0,0,0,1.916.018,6.993,6.993,0,0,0,.535-.6,4.217,4.217,0,0,0,6.3.213l.528-.553a3.384,3.384,0,0,0,2.327,2.074,2.06,2.06,0,0,0,2.546-1.438,4.72,4.72,0,0,0,1.858,1.34,1.553,1.553,0,0,0,1.954-2.107c-1.345-2.272-1.9-5.5-1.047-10.071a2.278,2.278,0,0,1,.335-.805c.853-1.18.617-2.957-1.177-3.071H210.072A1.654,1.654,0,0,0,208.417,40.306Z" transform="translate(-166.988 -27.382)" fill="#f7f5fc"/>
      <path id="Trazado_873676" data-name="Trazado 873676" d="M222.924,68.807a.254.254,0,0,0-.467.094,4.619,4.619,0,0,1-.355,1.247,1.2,1.2,0,0,1-2.274-.432l-.544-8.928H221.7a6.71,6.71,0,0,0,2.359-.431c.219-.081.168-.458-.062-.458H211.089c-.219,0-.265.36-.056.434a6.84,6.84,0,0,0,2.431.456h4.288l-.165,6.538c-.026-.068-.039-.107-.039-.107.055.259,0,1.608-.006,1.9a2.2,2.2,0,0,1-1.668,1.518c-2.812.564-4.242-1.929-4.752-3.109a.249.249,0,0,0-.463.02,8.544,8.544,0,0,0-.37,1.8.669.669,0,0,1-.969.523,4.082,4.082,0,0,1-2-2.674c-.086,2.007,1.766,6.778,4.017,3.691a4.217,4.217,0,0,0,6.3.214l.528-.553a3.384,3.384,0,0,0,2.327,2.074,2.06,2.06,0,0,0,2.546-1.438,4.72,4.72,0,0,0,1.858,1.34,1.561,1.561,0,0,0,2.1-1.366C225.213,72.034,223.629,69.953,222.924,68.807Z" transform="translate(-167.002 -45.035)" fill="#d0cde2"/>
      <rect id="Rectángulo_401378" data-name="Rectángulo 401378" width="2.273" height="43.972" transform="translate(49.283 14.863)" fill="#ffc998"/>
      <path id="Trazado_873677" data-name="Trazado 873677" d="M160.718,214.293l1.909,3.409a1.452,1.452,0,0,0,1.69.68l2.529-.77v4.277l-2.987,1.7a2.879,2.879,0,0,1-3.708-.754l-4.921-6.432Z" transform="translate(-123.401 -174.285)" fill="#ffd1bd"/>
      <path id="Trazado_873678" data-name="Trazado 873678" d="M16.866,201.936l-4.475,6.52a3.12,3.12,0,0,0,.558,4.148l2.619,2.215,3.08-3.306-.574-.827a1.722,1.722,0,0,1,.141-2.137l3.173-3.495Z" transform="translate(-3.368 -163.94)" fill="#ffd1bd"/>
      <path id="Trazado_873679" data-name="Trazado 873679" d="M36.216,201.936l-1.258,1.833,3.461,3.839,2.319-2.554Z" transform="translate(-22.718 -163.94)" fill="#fca490"/>
      <path id="Trazado_873680" data-name="Trazado 873680" d="M262.409,224.31l2.273.926V214.908l-1.136-.189-1.137.576Z" transform="translate(-213.126 -174.641)" fill="#f49d70"/>
      <path id="Trazado_873681" data-name="Trazado 873681" d="M160.718,214.293l-5.489,2.106,2.817,3.683a3.313,3.313,0,0,0,1-2.228l2.741-1.648Z" transform="translate(-123.401 -174.285)" fill="#fca490"/>
      <path id="Trazado_873682" data-name="Trazado 873682" d="M23.731,257.717a13.665,13.665,0,0,1,3.783-3.326,2.07,2.07,0,0,1,2.412.332,32.254,32.254,0,0,1,3.853,4.422v7.337H30.956a2.78,2.78,0,0,1-2.494-3.964l.517-1.076a15.865,15.865,0,0,1-4.923-1.888,1.223,1.223,0,0,1-.325-1.838Z" transform="translate(-13.083 -207.647)" fill="#238aa4"/>
      <path id="Trazado_873683" data-name="Trazado 873683" d="M60.154,158.143c-2.011-2.878-4.894-2.149-7.885-2.237H47.117a5.151,5.151,0,0,0-4.247,2.237l-4.26,6.207,7.154,5.011h12.3l6.838-4.393Z" transform="translate(-25.775 -125.388)" fill="#fcfcfc"/>
      <path id="Trazado_873684" data-name="Trazado 873684" d="M62.962,280.178V272.84a27.612,27.612,0,0,0-1.857-2.334v6.431a2.507,2.507,0,0,1-2.8,2.546,2.759,2.759,0,0,0,1.829.695Z" transform="translate(-42.266 -221.343)" fill="#79a8e2"/>
      <path id="Trazado_873685" data-name="Trazado 873685" d="M110.106,134.637a2.406,2.406,0,0,1-2.406-2.406v-4.453h4.811v4.453A2.406,2.406,0,0,1,110.106,134.637Z" transform="translate(-83.613 -101.86)" fill="#ffd1bd"/>
      <path id="Trazado_873686" data-name="Trazado 873686" d="M88.644,159.14v-6.632a1.125,1.125,0,0,0-1.125-1.125H85.542v5.352a2.406,2.406,0,0,1-4.811,0v-5.352H78.754a1.125,1.125,0,0,0-1.125,1.125v6.632s-4.072,3.913-1,8.032v13.283H89.641V167.172C92.716,163.053,88.644,159.14,88.644,159.14Z" transform="translate(-56.643 -121.62)" fill="#f1e7c2"/>
      <path id="Trazado_873687" data-name="Trazado 873687" d="M216.061,212.5l.611,4.584a1.015,1.015,0,0,0,1.638.661l6.759-5.372-.54-4.7a32.391,32.391,0,0,1-7.063,2.773A1.859,1.859,0,0,0,216.061,212.5Z" transform="translate(-174.312 -168.742)" fill="#238aa4"/>
      <path id="Trazado_873688" data-name="Trazado 873688" d="M241.506,209.6a1.815,1.815,0,0,0,1.377,2.2,3.9,3.9,0,0,0,1.2,2.394l2.288-1.818-.54-4.7A30.612,30.612,0,0,1,241.506,209.6Z" transform="translate(-195.61 -168.744)" fill="#79a8e2"/>
      <path id="Trazado_873689" data-name="Trazado 873689" d="M107.7,131.722l4.811-.866v-3.079H107.7Z" transform="translate(-83.616 -101.86)" fill="#fca490"/>
      <path id="Trazado_873690" data-name="Trazado 873690" d="M74.386,94.088H72.655a2.206,2.206,0,1,0,0,4.412h1.732Z" transform="translate(-52.429 -73.656)" fill="#fca490"/>
      <path id="Trazado_873691" data-name="Trazado 873691" d="M150.324,94.088h1.732a2.206,2.206,0,0,1,0,4.412h-1.732Z" transform="translate(-119.295 -73.656)" fill="#fca490"/>
      <path id="Trazado_873692" data-name="Trazado 873692" d="M37.392,15.157a4.729,4.729,0,0,0-8.165,0,10.964,10.964,0,0,0-1.345,4.816l-.376,5.242a2.849,2.849,0,0,1-.662,1.683.307.307,0,0,0,.2.526c1.815.106,5.753-.435,7.374-6.7Z" transform="translate(-15.848 -5.619)" fill="#f9a545"/>
      <path id="Trazado_873693" data-name="Trazado 873693" d="M64.524,32.584a2.356,2.356,0,1,1-2.356-2.356,2.356,2.356,0,0,1,2.356,2.356Z" transform="translate(-43.539 -20.197)" fill="#565e68"/>
      <path id="Trazado_873694" data-name="Trazado 873694" d="M88.989,18.27a8.162,8.162,0,0,1-8.162,8.162c-10.8-.373-10.8-15.952,0-16.324a8.162,8.162,0,0,1,8.162,8.162Z" transform="translate(-54.334 -3.353)" fill="#f9a545"/>
      <path id="Trazado_873695" data-name="Trazado 873695" d="M91.09,44.694s1.283,6.145,6.091,7.1a1.584,1.584,0,0,1,1.294,1.546v1.12c-.265,7.673-11.329,7.672-11.593,0V50.65A7.02,7.02,0,0,1,91.09,44.694Z" transform="translate(-66.185 -32.307)" fill="#ffd1bd"/>
      <path id="Trazado_873696" data-name="Trazado 873696" d="M248.668,195.967a2.442,2.442,0,0,0-1.986,1.021,1.636,1.636,0,0,0-2.93.99v.984a1.642,1.642,0,0,0,2.468,1.4v1.2a2.447,2.447,0,0,0,4.894,0v-3.146A2.447,2.447,0,0,0,248.668,195.967Z" transform="translate(-197.508 -158.943)" fill="#238aa4"/>
      <path id="Trazado_873697" data-name="Trazado 873697" d="M264.682,64.513V59.9h-2.273v3.776Z" transform="translate(-213.126 -45.033)" fill="#f49d70"/>
      <path id="Trazado_873698" data-name="Trazado 873698" d="M223.852,48.762c-1.01-1.508-1.828-6.343-.565-9.871a3.385,3.385,0,0,0,.6-1.719,2.31,2.31,0,0,0-2.314-2.369H206.7c-2.194.055-2.91,2.461-1.79,4.146-.723,1.6-3.364,8.188.107,11.95a2,2,0,0,0,2.949-.059,4.739,4.739,0,0,0,2.68,1.19.652.652,0,0,0,.138-1.3,3.476,3.476,0,0,1-2.274-1.2,8.587,8.587,0,0,1-.715-2.918.651.651,0,1,0-1.3.091,9.953,9.953,0,0,0,.694,3.052c-.278.4-.829.669-1.215.255-2.858-3.1-.563-8.965.1-10.475h1.982a.651.651,0,1,0,0-1.3H206c-.527-.793-.449-2.095.695-2.132h14.873c1.279.1,1.159,1.384.591,2.132H220.9a.651.651,0,0,0,0,1.3h.809c-.764,4.573-.212,7.808,1.165,10.141a.9.9,0,0,1-1.133,1.219,4.076,4.076,0,0,1-1.583-1.14,8.324,8.324,0,0,1-1.556-4.5.652.652,0,0,0-1.3.123,9.967,9.967,0,0,0,1.59,4.863c-.7,1.459-2.435.573-3.07-.194V39.542h1.764c-.1.587-.229,1.46-.3,2.484a.651.651,0,1,0,1.3.094,22.649,22.649,0,0,1,.43-3.083.656.656,0,0,0-.635-.8H215.17a.651.651,0,0,0-.651.651V59.272a.651.651,0,0,0,1.3,0V51.737a2.826,2.826,0,0,0,3.988-.492c1.06.918,2.689,1.57,3.861.3A2.231,2.231,0,0,0,223.852,48.762Z" transform="translate(-163.614 -24.027)" fill="#2f313f"/>
      <path id="Trazado_873699" data-name="Trazado 873699" d="M9.161,49.161l.836.707a1.88,1.88,0,0,0,.653,2.606,17.832,17.832,0,0,0,4.3,1.781,3.446,3.446,0,0,0,2.584,5.215.651.651,0,1,0,.127-1.3,2.126,2.126,0,0,1-1.7-3.02l.517-1.076a.656.656,0,0,0-.489-.926,15.308,15.308,0,0,1-4.7-1.809c-.513-.353-.231-.818.1-1.147a12.422,12.422,0,0,1,3.344-2.876,1.419,1.419,0,0,1,1.654.225,33.872,33.872,0,0,1,2.947,3.226v8.064a.651.651,0,0,0,.651.651H33a.651.651,0,0,0,.651-.651V45.763c2.394-3.414.508-6.93-1-8.511V31.943a4.5,4.5,0,0,1,1.191,1.185l4.363,6.27-2.366,1.52a.654.654,0,0,0,.353,1.2c.267.04.941-.51,1.2-.646l1.269,2.265a2.126,2.126,0,0,0,2.557.951l.426,3.192-1.505.855a2.237,2.237,0,0,1-2.869-.583L35.7,46.1a.652.652,0,0,0-1.035.792l1.567,2.047a3.545,3.545,0,0,0,4.547.925l1.227-.7a1.673,1.673,0,0,0,2.4.343l3.153-2.505a.651.651,0,0,0-.811-1.02l-3.152,2.505a.364.364,0,0,1-.587-.237l-.611-4.584a1.2,1.2,0,0,1,.911-1.337,25.511,25.511,0,0,0,2.813-.863,2.283,2.283,0,0,0,1.943.821,3.27,3.27,0,0,0,.57,2.107V58.836a.651.651,0,0,0,.651.651h2.273a.651.651,0,0,0,.651-.651V45.53a3.1,3.1,0,0,0,2.052-2.913V39.471a3.115,3.115,0,0,0-4.325-2.844V14.864a.651.651,0,0,0-.651-.651h-2.17a.651.651,0,0,0-.607.414,10.641,10.641,0,0,0-.354,6.176.651.651,0,1,0,1.25-.368,9.147,9.147,0,0,1,.179-4.918h1.049V36.877a2.3,2.3,0,0,0-3.038,2.157c0,.188-.013,1.066.015,1.238a24.083,24.083,0,0,1-2.606.8,2.5,2.5,0,0,0-1.918,2.3l-.358.109a.805.805,0,0,1-.932-.375l-1.307-2.334.992-.637a.655.655,0,0,0,.183-.92l-4.747-6.821a5.776,5.776,0,0,0-2.329-1.973,1.778,1.778,0,0,0-1.71-1.3H29.551V27.83a6.7,6.7,0,0,0,3.391-6.735,1.554,1.554,0,0,1,.423,2.975.651.651,0,1,0,.508,1.2,2.862,2.862,0,0,0-1.327-5.49,2.271,2.271,0,0,0-1.422-.93c-4.321-.859-5.568-6.539-5.58-6.6a.651.651,0,0,0-.9-.462,7.62,7.62,0,0,0-4.6,6.551v.428a7.512,7.512,0,1,1,13.374-.945.652.652,0,1,0,1.2.5A8.812,8.812,0,0,0,21.1,7.95,5.417,5.417,0,0,0,12.816,9.21a11.7,11.7,0,0,0-1.432,5.1c0,.028-.38,5.238-.378,5.263s-.075,1.312-.877,1.461a.651.651,0,0,0-.532.613c.035.771.722.752,1.945.813a7.065,7.065,0,0,0,6.234-3.673.652.652,0,0,0-1.115-.674,5.8,5.8,0,0,1-4.774,3.055,3.644,3.644,0,0,0,.421-1.531l.376-5.233a10.434,10.434,0,0,1,1.257-4.534,4.106,4.106,0,0,1,6.189-1.038,8.886,8.886,0,0,0-.6.691,3.008,3.008,0,0,0-1.845,5.725,8.743,8.743,0,0,0,1.573,4.708,2.859,2.859,0,0,0,.966,5.543h.754a6.5,6.5,0,0,0,2.456,2.335v1.281c-1.046.026-2.144-.221-2.809.8a5.845,5.845,0,0,0-4.07,2.474L12.3,38.593,8.487,44.146a3.761,3.761,0,0,0,.673,5.015ZM50.9,58.184h-.97V45.461a3.074,3.074,0,0,0,.97.241Zm-1.54-18.713a1.8,1.8,0,0,1,3.592,0v3.146a1.8,1.8,0,1,1-3.592,0ZM46.9,39.034a.987.987,0,0,1,1.454-.86,6.917,6.917,0,0,0-.288,2.806.982.982,0,0,1-1.166-.962ZM17.748,13.844a1.706,1.706,0,0,1,1.014-3.154,8.747,8.747,0,0,0-1.014,3.154Zm2.479,10.347a1.555,1.555,0,0,1-.181-3.1,8.8,8.8,0,0,0,.332,3.1Zm-.889,24.55c-.764-.867-1.491-1.6-2.042-2.135a2.708,2.708,0,0,0-2.237-.735,1.065,1.065,0,0,1,.271-.826L17.3,42.881l1.06.744a6.232,6.232,0,0,0,.982,2.138Zm2.011-26.588v-3.8a6.314,6.314,0,0,1,3.136-5.027c.551,1.794,2.26,5.977,6.385,6.8a.928.928,0,0,1,.769.907v1.12A5.145,5.145,0,0,1,21.348,22.154Zm5.145,9.971a1.756,1.756,0,0,1-1.755-1.754V28.358a6.458,6.458,0,0,0,3.509,0v2.014a1.756,1.756,0,0,1-1.754,1.754Zm1.754.746v2.243a1.754,1.754,0,1,1-3.509,0V32.871A3.071,3.071,0,0,0,28.248,32.871ZM21.437,37.99a.651.651,0,0,0,.2-.47V30.888a.474.474,0,0,1,.474-.473h1.325v4.7a3.057,3.057,0,1,0,6.114,0v-4.7h1.326a.474.474,0,0,1,.473.473V37.52a.654.654,0,0,0,.2.469c.149.144,3.614,3.573.927,7.173a1.954,1.954,0,0,1-1.447.686.651.651,0,0,0-.651.651c.05,1.009,1.457.6,1.969.356V58.183H20.64V46.812a4.892,4.892,0,0,0,1.9.338.651.651,0,0,0,0-1.3c-1.529,0-1.981-.622-2-.649l.011.018h0C17.811,41.671,21.267,38.116,21.437,37.99Zm-3.805-4.867a4.534,4.534,0,0,1,2.7-1.838v5.967a7.793,7.793,0,0,0-2.126,4.678L13.737,38.8ZM9.56,44.885,13,39.873l3.219,2.255L14.365,44.17a2.363,2.363,0,0,0-.545,2.169,13.433,13.433,0,0,0-2.99,2.527l-.827-.7A2.462,2.462,0,0,1,9.56,44.885Z" transform="translate(0 0)" fill="#2f313f"/>
      <path id="Trazado_873700" data-name="Trazado 873700" d="M116.019,251.452h.512a.651.651,0,1,0,0-1.3h-.512A.651.651,0,0,0,116.019,251.452Z" transform="translate(-90.038 -204.301)" fill="#2f313f"/>
      <path id="Trazado_873701" data-name="Trazado 873701" d="M107.221,95.769a.651.651,0,0,0-1.2.5A.651.651,0,0,0,107.221,95.769Z" transform="translate(-82.16 -74.73)" fill="#2f313f"/>
      <path id="Trazado_873702" data-name="Trazado 873702" d="M131.662,96.645a.652.652,0,0,0,0-1.3A.652.652,0,0,0,131.662,96.645Z" transform="translate(-103.135 -74.706)" fill="#2f313f"/>
      <path id="Trazado_873703" data-name="Trazado 873703" d="M224.145,86.8a.71.71,0,0,0,.45,1.014.653.653,0,0,0,.77-.506A.664.664,0,1,0,224.145,86.8Z" transform="translate(-181.04 -67.154)" fill="#2f313f"/>
    </g>
  </g>
</svg>
