<svg xmlns="http://www.w3.org/2000/svg" xmlns:xlink="http://www.w3.org/1999/xlink" width="59" height="59" viewBox="0 0 59 59">
  <defs>
    <clipPath id="clip-path">
      <rect id="Rectángulo_401592" data-name="Rectángulo 401592" width="41" height="41" transform="translate(0 -0.387)" fill="#fff"/>
    </clipPath>
  </defs>
  <g id="_32" data-name="32" transform="translate(-412 -1122)">
    <circle id="Elipse_11586" data-name="Elipse 11586" cx="29.5" cy="29.5" r="29.5" transform="translate(412 1122)" fill="#5f6e62"/>
    <g id="Grupo_1099654" data-name="Grupo 1099654" transform="translate(421 1131.387)">
      <g id="Grupo_1099653" data-name="Grupo 1099653" clip-path="url(#clip-path)">
        <path id="Trazado_874074" data-name="Trazado 874074" d="M133.768,206.346H117.9a1.906,1.906,0,0,1-1.9-1.9V201.9a1.906,1.906,0,0,1,1.9-1.9h15.865a1.906,1.906,0,0,1,1.9,1.9v2.538a1.906,1.906,0,0,1-1.9,1.9M117.9,201.269a.635.635,0,0,0-.635.635v2.538a.635.635,0,0,0,.635.635h15.865a.635.635,0,0,0,.635-.635V201.9a.635.635,0,0,0-.635-.635Z" transform="translate(-97.597 -168.271)" fill="#fff"/>
        <path id="Trazado_874075" data-name="Trazado 874075" d="M140.5,185.269H124.635a.635.635,0,1,1,0-1.269H140.5a.635.635,0,1,1,0,1.269" transform="translate(-104.328 -154.809)" fill="#fff"/>
        <path id="Trazado_874076" data-name="Trazado 874076" d="M171.173,43.922a.635.635,0,0,1-.635-.635V17.9a.635.635,0,1,0-1.269,0V43.287a.635.635,0,0,1-1.269,0V17.9a1.9,1.9,0,1,1,3.807,0V43.287a.635.635,0,0,1-.635.635" transform="translate(-141.348 -13.462)" fill="#fff"/>
        <path id="Trazado_874077" data-name="Trazado 874077" d="M140.635,223.173a.635.635,0,0,1-.635-.635v-1.9a.635.635,0,0,1,1.269,0v1.9a.635.635,0,0,1-.635.635" transform="translate(-117.79 -185.098)" fill="#fff"/>
        <path id="Trazado_874078" data-name="Trazado 874078" d="M18.221,24.442a2.221,2.221,0,1,1,2.221-2.221,2.223,2.223,0,0,1-2.221,2.221m0-3.173a.952.952,0,1,0,.952.952.953.953,0,0,0-.952-.952" transform="translate(-13.462 -16.827)" fill="#fff"/>
        <path id="Trazado_874079" data-name="Trazado 874079" d="M93.9,131.807a1.9,1.9,0,1,1,1.9-1.9,1.906,1.906,0,0,1-1.9,1.9m0-2.538a.635.635,0,1,0,.635.635.635.635,0,0,0-.635-.635" transform="translate(-77.405 -107.693)" fill="#fff"/>
        <path id="Trazado_874080" data-name="Trazado 874080" d="M122.538,149.077a2.538,2.538,0,1,1,2.538-2.538,2.541,2.541,0,0,1-2.538,2.538m0-3.807a1.269,1.269,0,1,0,1.269,1.269,1.271,1.271,0,0,0-1.269-1.269" transform="translate(-100.963 -121.155)" fill="#fff"/>
        <path id="Trazado_874081" data-name="Trazado 874081" d="M38.153,88.442H30.221a2.221,2.221,0,0,1,0-4.442h7.3a.635.635,0,0,1,0,1.269h-7.3a.952.952,0,0,0,0,1.9h7.932a.635.635,0,0,1,0,1.269" transform="translate(-23.558 -70.674)" fill="#fff"/>
        <path id="Trazado_874082" data-name="Trazado 874082" d="M82.346,71.615h-1.9a.635.635,0,0,1,0-1.269h1.9a2.538,2.538,0,0,0,0-5.077H76.635a.635.635,0,0,1,0-1.269h5.711a3.807,3.807,0,0,1,0,7.615" transform="translate(-63.943 -53.847)" fill="#fff"/>
        <path id="Trazado_874083" data-name="Trazado 874083" d="M46.98,38.153H43.807a3.807,3.807,0,0,1,0-7.615h1.9a1.906,1.906,0,0,0,1.9-1.9A.635.635,0,0,1,48.25,28a3.812,3.812,0,0,1,3.807,3.807.635.635,0,0,1-1.269,0,2.543,2.543,0,0,0-1.981-2.477,3.178,3.178,0,0,1-3.1,2.477h-1.9a2.538,2.538,0,0,0,0,5.077H46.98a.635.635,0,0,1,0,1.269" transform="translate(-33.654 -23.558)" fill="#fff"/>
        <path id="Trazado_874084" data-name="Trazado 874084" d="M21.268,114.153a.634.634,0,0,1-.632-.589L20,104.68a.634.634,0,0,1,.633-.68H39.672a.634.634,0,0,1,.633.679l-.463,6.524a.635.635,0,0,1-1.266-.09l.415-5.844H21.316l.586,8.2a.635.635,0,0,1-.588.678l-.046,0" transform="translate(-16.827 -87.501)" fill="#fff"/>
        <path id="Trazado_874085" data-name="Trazado 874085" d="M39.23,170.152H27.63a3.186,3.186,0,0,1-3.165-2.95L24,160.678a.635.635,0,1,1,1.266-.09l.463,6.523a1.912,1.912,0,0,0,1.9,1.771h11.6a.635.635,0,0,1,0,1.269" transform="translate(-20.192 -134.616)" fill="#fff"/>
        <path id="Trazado_874086" data-name="Trazado 874086" d="M16.6,127.347a14.527,14.527,0,0,1-8.68-2.667,9.8,9.8,0,0,1-4.029-8.138.652.652,0,0,1,.652-.652H7.214a.652.652,0,0,1,0,1.3h-2c.323,4.38,3.916,8.849,11.381,8.849a14.778,14.778,0,0,0,4.254-.611.652.652,0,1,1,.375,1.249,16.075,16.075,0,0,1-4.63.666" transform="translate(-3.274 -97.505)" fill="#fff"/>
      </g>
    </g>
  </g>
</svg>
