<svg xmlns="http://www.w3.org/2000/svg" xmlns:xlink="http://www.w3.org/1999/xlink" width="505" height="449.279" viewBox="0 0 505 449.279">
  <defs>
    <clipPath id="clip-path">
      <rect id="Rectángulo_401302" data-name="Rectángulo 401302" width="32.302" height="27.979" fill="#5f6e62"/>
    </clipPath>
    <clipPath id="clip-path-2">
      <rect id="Rectángulo_401302-2" data-name="Rectángulo 401302" width="27.777" height="24.06" transform="translate(0 0)" fill="#5f6e62"/>
    </clipPath>
    <clipPath id="clip-path-3">
      <rect id="Rectángulo_401302-3" data-name="Rectángulo 401302" width="35.67" height="30.896" transform="translate(0)" fill="#5f6e62"/>
    </clipPath>
    <clipPath id="clip-path-4">
      <path id="Trazado_873616" data-name="Trazado 873616" d="M143.661,155.472H2.1c-1.159,0-2.1-2.609-2.1-5.826V5.826C0,2.609.939,0,2.1,0H143.661c1.159,0,2.1,2.609,2.1,5.826V149.646C145.759,152.864,144.82,155.472,143.661,155.472Z" fill="#297929" stroke="#707070" stroke-width="1"/>
    </clipPath>
    <radialGradient id="radial-gradient" cx="0.5" cy="0.5" r="0.5" gradientUnits="objectBoundingBox">
      <stop offset="0" stop-color="#fff" stop-opacity="0"/>
      <stop offset="1" stop-color="#f9a545"/>
    </radialGradient>
    <clipPath id="clip-path-5">
      <rect id="Rectángulo_401480" data-name="Rectángulo 401480" width="488" height="449.279" fill="none"/>
    </clipPath>
    <clipPath id="clip-path-7">
      <rect id="Rectángulo_401475" data-name="Rectángulo 401475" width="5.071" height="4.722" fill="none"/>
    </clipPath>
    <clipPath id="clip-path-8">
      <rect id="Rectángulo_401476" data-name="Rectángulo 401476" width="5.079" height="4.443" fill="none"/>
    </clipPath>
    <clipPath id="clip-path-9">
      <rect id="Rectángulo_401477" data-name="Rectángulo 401477" width="6.988" height="6.86" fill="none"/>
    </clipPath>
    <clipPath id="clip-path-10">
      <rect id="Rectángulo_401478" data-name="Rectángulo 401478" width="5.52" height="7.661" fill="none"/>
    </clipPath>
  </defs>
  <g id="_36" data-name="36" transform="translate(-180 -1895.3)">
    <g id="Grupo_1099412" data-name="Grupo 1099412" transform="translate(-14.781 76.281)">
      <ellipse id="Elipse_11526" data-name="Elipse 11526" cx="125" cy="125.5" rx="125" ry="125.5" transform="translate(259.781 1887.297)" fill="#dcc366"/>
      <path id="Rectángulo_401329" data-name="Rectángulo 401329" d="M200,0h29a0,0,0,0,1,0,0V434a0,0,0,0,1,0,0H0a0,0,0,0,1,0,0V200A200,200,0,0,1,200,0Z" transform="translate(194.781 1834.297)" fill="#5f6e62"/>
      <g id="Grupo_1099382" data-name="Grupo 1099382" transform="translate(272.853 2163.358)">
        <path id="Trazado_873222" data-name="Trazado 873222" d="M-11400.342-11385.93s37.675-73.634,108.865-89.175" transform="translate(11400.342 11489.822)" fill="none" stroke="#869a8a" stroke-width="2"/>
        <g id="Grupo_1099331" data-name="Grupo 1099331" transform="translate(69.682 58.81) rotate(130)">
          <g id="Grupo_1099328" data-name="Grupo 1099328" transform="translate(0 0)" clip-path="url(#clip-path)">
            <path id="Trazado_873219" data-name="Trazado 873219" d="M31.068,27.045s-20.9-38.059-29.85-23.88c0,0-10.448,14.179,29.85,23.88" transform="translate(1.233 0.628)" fill="#5f6e62"/>
            <path id="Trazado_873220" data-name="Trazado 873220" d="M23.85,18.649c-3.239-3.007-7.963-7.433-11.313-10.216C8.627,5.276,4.694,1.9,0,0L.075.022C.269.075.455.134.642.2.709.224.784.254.866.284c4.552,1.507,8.448,4.6,12.149,7.574A97.978,97.978,0,0,1,23.85,18.649" transform="translate(8.452 9.025)" fill="#5f6e62"/>
            <path id="Trazado_873221" data-name="Trazado 873221" d="M32.179,27.979l-.821-.2C19.049,24.818,3.714,19.472.564,10.835A8.272,8.272,0,0,1,1.3,3.317C2.721,1.058,4.567-.069,6.755,0,16.876.313,31.17,26.139,31.774,27.239ZM6.567.747c-1.861,0-3.386.98-4.656,2.991a7.673,7.673,0,0,0-.64,6.86c1.664,4.531,8.137,11,29.427,16.254C28.234,22.539,15.5,1.017,6.732.749l-.165,0" transform="translate(0 0.001)" fill="#5f6e62"/>
          </g>
        </g>
        <g id="Grupo_1099332" data-name="Grupo 1099332" transform="matrix(0.309, 0.951, -0.951, 0.309, 52.035, 22.063)">
          <g id="Grupo_1099328-2" data-name="Grupo 1099328" transform="translate(0 0)" clip-path="url(#clip-path-2)">
            <path id="Trazado_873219-2" data-name="Trazado 873219" d="M26.716,23.256S8.748-9.471,1.048,2.721c0,0-8.984,12.192,25.668,20.535" transform="translate(1.06 0.54)" fill="#5f6e62"/>
            <path id="Trazado_873220-2" data-name="Trazado 873220" d="M20.509,16.036c-2.785-2.586-6.847-6.391-9.728-8.785C7.418,4.537,4.036,1.636,0,0L.064.019c.167.045.327.1.488.154C.61.193.674.218.744.244,4.659,1.54,8.009,4.2,11.191,6.757a84.253,84.253,0,0,1,9.318,9.279" transform="translate(7.268 7.76)" fill="#5f6e62"/>
            <path id="Trazado_873221-2" data-name="Trazado 873221" d="M27.672,24.059l-.706-.169C16.381,21.341,3.194,16.744.485,9.317a7.113,7.113,0,0,1,.63-6.465A5.26,5.26,0,0,1,5.809,0c8.7.266,20.994,22.475,21.513,23.42ZM5.647.642a4.664,4.664,0,0,0-4,2.572,6.6,6.6,0,0,0-.551,5.9c1.431,3.9,7,9.462,25.3,13.977C24.279,19.382,13.33.875,5.789.644l-.142,0" transform="translate(0 0.001)" fill="#5f6e62"/>
          </g>
        </g>
        <g id="Grupo_1099333" data-name="Grupo 1099333" transform="matrix(-0.616, 0.788, -0.788, -0.616, 119.181, 19.022)">
          <g id="Grupo_1099328-3" data-name="Grupo 1099328" transform="translate(0 0)" clip-path="url(#clip-path-3)">
            <path id="Trazado_873219-3" data-name="Trazado 873219" d="M34.307,29.864S11.234-12.162,1.345,3.495c0,0-11.537,15.657,32.962,26.369" transform="translate(1.361 0.693)" fill="#5f6e62"/>
            <path id="Trazado_873220-3" data-name="Trazado 873220" d="M26.336,20.593c-3.576-3.321-8.793-8.207-12.493-11.281C9.526,5.826,5.183,2.1,0,0L.082.025C.3.082.5.148.709.222.783.247.865.28.956.313,5.983,1.978,10.284,5.4,14.371,8.677A108.191,108.191,0,0,1,26.336,20.593" transform="translate(9.333 9.965)" fill="#5f6e62"/>
            <path id="Trazado_873221-3" data-name="Trazado 873221" d="M35.534,30.9l-.906-.218C21.035,27.4,4.1,21.5.622,11.965a9.135,9.135,0,0,1,.808-8.3C3,1.168,5.043-.076,7.46,0c11.176.342,26.959,28.86,27.626,30.074ZM7.252.824c-2.055,0-3.739,1.082-5.141,3.3A8.473,8.473,0,0,0,1.4,11.7c1.838,5,8.985,12.151,32.495,17.948C31.177,24.889,17.117,1.123,7.434.827l-.182,0" transform="translate(0 0.001)" fill="#5f6e62"/>
          </g>
        </g>
      </g>
    </g>
    <g id="Enmascarar_grupo_1098681" data-name="Enmascarar grupo 1098681" transform="translate(180.199 2189.106)" clip-path="url(#clip-path-4)">
      <path id="Sustracción_21" data-name="Sustracción 21" d="M105.015,210.031A105.789,105.789,0,0,1,83.851,207.9,104.453,104.453,0,0,1,46.3,192.1a105.318,105.318,0,0,1-38.047-46.2A104.524,104.524,0,0,1,2.133,126.18a106.046,106.046,0,0,1,0-42.328A104.453,104.453,0,0,1,17.935,46.3a105.322,105.322,0,0,1,46.2-38.048A104.471,104.471,0,0,1,83.851,2.134a106.027,106.027,0,0,1,42.328,0,104.44,104.44,0,0,1,37.551,15.8,105.327,105.327,0,0,1,38.048,46.2A104.477,104.477,0,0,1,207.9,83.852a106.027,106.027,0,0,1,0,42.328,104.432,104.432,0,0,1-15.8,37.551,105.315,105.315,0,0,1-46.2,38.047,104.493,104.493,0,0,1-19.712,6.119A105.782,105.782,0,0,1,105.015,210.031Zm0-168.1A63.529,63.529,0,0,0,92.3,43.208,62.75,62.75,0,0,0,69.74,52.7,63.276,63.276,0,0,0,46.883,80.458,62.776,62.776,0,0,0,43.206,92.3a63.7,63.7,0,0,0,0,25.43A62.75,62.75,0,0,0,52.7,140.29a63.271,63.271,0,0,0,27.758,22.858A62.746,62.746,0,0,0,92.3,166.824a63.7,63.7,0,0,0,25.43,0,62.744,62.744,0,0,0,22.559-9.493,63.273,63.273,0,0,0,22.857-27.758,62.758,62.758,0,0,0,3.676-11.843,63.7,63.7,0,0,0,0-25.43,62.739,62.739,0,0,0-9.493-22.559,63.271,63.271,0,0,0-27.757-22.858,62.793,62.793,0,0,0-11.843-3.676A63.528,63.528,0,0,0,105.015,41.926Z" transform="translate(133.838 217.958) rotate(180)" fill="url(#radial-gradient)"/>
    </g>
    <g id="Grupo_1099547" data-name="Grupo 1099547" transform="translate(197 1895.3)">
      <g id="Grupo_1099546" data-name="Grupo 1099546" clip-path="url(#clip-path-5)">
        <g id="Grupo_1099545" data-name="Grupo 1099545">
          <g id="Grupo_1099544" data-name="Grupo 1099544" clip-path="url(#clip-path-5)">
            <path id="Trazado_873752" data-name="Trazado 873752" d="M117.162,133.958c0-13.175,3.994-23.854,24.946-23.854s24.946,10.679,24.946,23.854a22.93,22.93,0,0,1-2.881,11.116,21.6,21.6,0,0,0,6-14.71c0-13.175-4.492-23.854-28.063-23.854s-28.063,10.679-28.063,23.854a21.6,21.6,0,0,0,6,14.71,22.929,22.929,0,0,1-2.881-11.116" transform="translate(231.84 216.524)" fill="#4e444d"/>
            <path id="Trazado_873753" data-name="Trazado 873753" d="M174.023,121.14c0-4.9-13.63-8.88-30.441-8.88s-30.444,3.976-30.444,8.88,13.63,8.88,30.444,8.88,30.441-3.976,30.441-8.88" transform="translate(229.996 228.214)" fill="#4e444d"/>
            <path id="Trazado_873754" data-name="Trazado 873754" d="M57.9,118.72,22.011,205.664l71.774.861,3.542-77.715Z" transform="translate(44.746 241.346)" fill="#dddbd9"/>
            <path id="Trazado_873755" data-name="Trazado 873755" d="M75.7,144.209l.7-15.4L36.974,118.72l-4.668,11.313c17.269,2.05,32.513,7.267,43.392,14.176" transform="translate(65.675 241.346)" fill="#d0ccc7"/>
            <path id="Trazado_873756" data-name="Trazado 873756" d="M138.739,155.526c0-11.986-6.624-21.7-14.8-21.7s-14.8,9.717-14.8,21.7,6.627,21.7,14.8,21.7,14.8-9.717,14.8-21.7" transform="translate(221.873 272.049)" fill="#3a323a"/>
            <path id="Trazado_873757" data-name="Trazado 873757" d="M82.326,46.367l-30.647.855a194.882,194.882,0,0,1-3.112,40.465l27.111,6.839c14.27-16.814,6.648-48.159,6.648-48.159" transform="translate(98.732 94.26)" fill="#f7918e"/>
            <path id="Trazado_873758" data-name="Trazado 873758" d="M82.326,46.367l-30.647.855s.164,3.521.039,9.184a40.358,40.358,0,0,1,4.959-.315c11.907,0,21.561,5.113,21.561,11.416S68.584,78.922,56.677,78.922a39.538,39.538,0,0,1-6.618-.552c-.4,3.027-.892,6.151-1.492,9.317l27.111,6.839c14.27-16.814,6.648-48.159,6.648-48.159" transform="translate(98.732 94.26)" fill="#e26f71"/>
            <path id="Trazado_873759" data-name="Trazado 873759" d="M63.9,134.85l8.717,2.927A150.874,150.874,0,0,0,70.8,162.313l-7.637-2.026c3.209-5.629.743-25.437.743-25.437" transform="translate(128.396 274.137)" fill="#d5af9e"/>
            <path id="Trazado_873760" data-name="Trazado 873760" d="M54.812,159.5H92.768s-1.856-14.406-9.226-16.657-4.025,9-19.881,10.579c-4.922.488-8.926,4.5-8.85,6.078" transform="translate(111.425 289.781)" fill="#ecd3c6"/>
            <path id="Trazado_873761" data-name="Trazado 873761" d="M83.986,134.85l-8.45,2.927A155.1,155.1,0,0,1,77.3,162.313l7.4-2.026c-3.106-5.629-.719-25.437-.719-25.437" transform="translate(153.557 274.137)" fill="#d5af9e"/>
            <path id="Trazado_873762" data-name="Trazado 873762" d="M111.307,159.5H74.521s1.8-14.406,8.941-16.657,3.9,9,19.268,10.579c4.771.488,8.65,4.5,8.577,6.078" transform="translate(151.494 289.781)" fill="#ecd3c6"/>
            <path id="Trazado_873763" data-name="Trazado 873763" d="M83.817,104.827c-16.168,4.437-32.137,3.661-34.615-2.5-2.445-6.075,1.08-19.662.943-26.777-.133-6.985-10.388-41.587,13.706-54.016,22.619-11.668,19.966,83.29,19.966,83.29" transform="translate(97.305 41.765)" fill="#ef966c"/>
            <path id="Trazado_873764" data-name="Trazado 873764" d="M62.662,21.538a26.957,26.957,0,0,0-10.06,8.78C53.709,34.6,54.725,39.39,55.559,44.5c3.036,18.671,6.311,30.72,2.623,31.318-1.732.282-7.655.743-9.733-4.537a38.622,38.622,0,0,1,.51,4.27,46.6,46.6,0,0,1-.358,5.62,27.075,27.075,0,0,1,5.141-.488c9.924,0,17.97,5.2,17.97,11.625s-8.046,11.628-17.97,11.628a27.174,27.174,0,0,1-5.074-.479c3.9,5.107,18.84,5.52,33.959,1.371,0,0,2.654-94.96-19.966-83.29" transform="translate(98.494 41.765)" fill="#ea7d5b"/>
            <path id="Trazado_873765" data-name="Trazado 873765" d="M53.1,32.625c-9.02,28.752,18.6,80.053,18.6,80.053l2.818,26.5,1.128,249.177,27.906,6.766L120.753,186.53s41.153-19.168,41.153-20.86-1.125-68.213-2.818-80.05S120.471,22.2,113.144,18.813s-41.435-4.792-45.945-3.1S53.1,32.625,53.1,32.625" transform="translate(104.276 30.486)" fill="#c1ddc7"/>
            <path id="Trazado_873766" data-name="Trazado 873766" d="M113.143,18.813c-7.327-3.382-41.435-4.792-45.945-3.1S53.1,32.625,53.1,32.625c-3.454,11.009-1.529,25.319,2.153,38.794,14.9,46.755,29.362,41.681,50.416,41.681,20.093,0,37.887-15.089,48.881-38.293-10.436-19.314-35.509-53.27-41.411-55.993" transform="translate(104.277 30.486)" fill="#8eb195"/>
            <path id="Trazado_873767" data-name="Trazado 873767" d="M131.45,83.436C129.758,71.6,92.832,20.015,85.5,16.63a12.783,12.783,0,0,0-1.529-.561C97.612,33.508,117.532,64.083,118.8,72.984c1.744,12.259,3.169,81.148,3.175,82.9s-54.789,26.771-54.789,26.771l-2.293,207.6,11.031,2.675L93.114,184.347s41.153-19.168,41.153-20.857-1.125-68.216-2.818-80.053" transform="translate(131.915 32.667)" fill="#8cb194"/>
            <path id="Trazado_873768" data-name="Trazado 873768" d="M64.9,94.675l10.57,4.862L86.041,306.08l27.063-6.342s23.253-177.722,21.139-223.95S64.9,94.675,64.9,94.675" transform="translate(131.939 120.367)" fill="#c1ddc7"/>
            <path id="Trazado_873769" data-name="Trazado 873769" d="M109.227,83.58c-.564-12.35-6.475-29.213-13.812-29.034.206,1.31-1.783,19.329-1.692,20.86C96.5,121.964,80.193,290.372,78.04,311.178l8.356-1.956S111.341,129.807,109.227,83.58" transform="translate(158.648 110.884)" fill="#8cb194"/>
            <path id="Trazado_873770" data-name="Trazado 873770" d="M74.055,101.12l45.381-23.96S97.9,42.345,99.956,16.35c-12.838-1.483-30.623-1.826-33.793-.637-4.261,1.6-13.038,15.246-14,16.76C48.481,64.282,74.055,101.12,74.055,101.12" transform="translate(105.311 30.487)" fill="#ef966c"/>
            <path id="Trazado_873771" data-name="Trazado 873771" d="M75.465,87.657S50.486,51.65,53.48,20.093c-.661,1-1.131,1.729-1.313,2.017C48.481,53.919,74.055,90.757,74.055,90.757L119.436,66.8s-.4-.646-1.065-1.8Z" transform="translate(105.311 40.847)" fill="#e7705c"/>
            <path id="Trazado_873772" data-name="Trazado 873772" d="M103.06,40.251c-2.293-8-3.706-16.32-3.106-23.9-12.838-1.483-30.623-1.829-33.793-.64-4.261,1.6-13.035,15.249-14,16.76a65.812,65.812,0,0,0,.77,18.789c10.691,1.316,25.134-.795,39.986-6.524,3.548-1.368,6.933-2.875,10.139-4.486" transform="translate(105.313 30.485)" fill="#e7705c"/>
            <path id="Trazado_873773" data-name="Trazado 873773" d="M94.7,89.928c.867-23.2-5.207-33.313-5.207-33.313C87.462,51.176,106.557,23.65,113.5,25.785s12.729,13.687,13.308,22.086-6.945,42.4-6.945,42.4Z" transform="translate(181.617 52.179)" fill="#f7918e"/>
            <path id="Trazado_873774" data-name="Trazado 873774" d="M126.808,47.874c-.579-8.4-6.363-19.95-13.308-22.089S87.462,51.179,89.488,56.617a32.027,32.027,0,0,1,2.684,7.076c2.587-1.371,16.165-11.558,19.738-12.453,9.89-2.478,11.273,3.1,9.593,11.158-.789,3.782-5.957,8.7-15.847,11.173a41.932,41.932,0,0,1-11.41,1.341A104.778,104.778,0,0,1,94.7,89.931l25.17.343s7.522-34,6.942-42.4" transform="translate(181.617 52.179)" fill="#e26f71"/>
            <path id="Trazado_873775" data-name="Trazado 873775" d="M70.973,100.427c3.379-9.4,13.035-27.357,13.035-27.357S64.959,51.776,50.735,58.09c-3.4,17.421-6.008,34.172-1.516,44.9Z" transform="translate(95.197 115.713)" fill="#ecd3c6"/>
            <path id="Trazado_873776" data-name="Trazado 873776" d="M71.413,58.909c.006.379.015.758.015,1.143,0,20.236-8.9,36.644-19.872,36.644a11.381,11.381,0,0,1-4.285-.864,25.738,25.738,0,0,0,1.043,3.118l21.755-2.566C73.451,86.982,83.1,69.03,83.1,69.03A72.027,72.027,0,0,0,71.413,58.909" transform="translate(96.097 119.756)" fill="#cec4cc"/>
            <path id="Trazado_873777" data-name="Trazado 873777" d="M66.6,45.326l5.286-13S55.392,22.073,52.853,19.113l-.846,4.228S55.6,33.911,66.6,45.326" transform="translate(105.725 38.855)" fill="#ddd9d7"/>
            <path id="Trazado_873778" data-name="Trazado 873778" d="M65.52,52.233c-8.1-7.6-14.094-14.376-14.094-14.376l9.02-29.6S77.639,19.817,84.124,29.119c0,0-4.792,36.079-18.6,23.114" transform="translate(104.544 16.796)" fill="#d55c6b"/>
            <path id="Trazado_873779" data-name="Trazado 873779" d="M67.513,13.466l7.045,3.946s3.667,15.786.846,29.88L58.211,44.753c4.464-9.329,9.545-20.214,9.3-31.287" transform="translate(118.337 27.375)" fill="#ddd9d7"/>
            <path id="Trazado_873780" data-name="Trazado 873780" d="M74.036,52.23c-9.872-3.16-28.961-15.856-31.287-19.45S50.992,8.047,55.853,6.988,73.4,12.7,77.208,15.444s11.625,13.742,12.05,16.49-4.652,23.678-15.222,20.3" transform="translate(86.232 13.981)" fill="#f7918e"/>
            <path id="Trazado_873781" data-name="Trazado 873781" d="M74.949,27.934a42.4,42.4,0,0,1,8.283-5.944,36.589,36.589,0,0,0-6.026-6.545C73.4,12.7,60.716,5.93,55.854,6.989S40.423,29.186,42.749,32.78c1.635,2.529,11.574,9.563,20.757,14.613.843-6.214,4.871-13.454,11.443-19.459" transform="translate(86.234 13.981)" fill="#e26f71"/>
            <path id="Trazado_873782" data-name="Trazado 873782" d="M83.272,25.69l-7.188-2.114-6.2-.136S54.945,20.407,47.757,12.373s11.2-8.456,11.2-8.456c9.032,4.47,17.709,12.7,24.312,21.773" transform="translate(93.698 7.963)" fill="#12263f"/>
            <path id="Trazado_873783" data-name="Trazado 873783" d="M50.169,47.334S35.448,26.85,35.821,22.859c.379-4.052,22.434-25.9,34.1-22.5C73.6,1.431,82.282,13.041,82.282,13.041,71.776,17.093,60.618,31.387,50.169,47.334" transform="translate(72.806 0)" fill="#ecd3c6"/>
            <path id="Trazado_873784" data-name="Trazado 873784" d="M55.913.357C52.213-.72,47.47.748,42.7,3.377c4.21,5.386,7.146,14.17,7.782,24.336,5.978-7.051,11.986-12.432,17.8-14.673,0,0-8.683-11.61-12.368-12.684" transform="translate(86.809 0.001)" fill="#ddb4a2"/>
            <path id="Trazado_873785" data-name="Trazado 873785" d="M86.16,4.265C72.054,9.539,36.52,45.418,34.212,53.8c-2.25,8.159,14.943-1.544,22.174-9.927,5.568-23.326,29.774-39.6,29.774-39.6" transform="translate(69.14 8.67)" fill="#fddbb4"/>
            <path id="Trazado_873786" data-name="Trazado 873786" d="M60,5.288,49.567,18.96l7.613,4.789L63.521,8.387Z" transform="translate(100.765 10.75)" fill="#ddb4a2"/>
            <path id="Trazado_873787" data-name="Trazado 873787" d="M41.39,35.533C39.231,28.779,54.231,7.215,61.75,9.108S76.581,16.7,77.5,19.286,72.241,30.22,70.318,30.538s-9.032-1.344-9.723-.321,4.8,5.132,4.756,5.978-4.252,8.022-5.987,8.774-16.526-4.91-17.973-9.435" transform="translate(83.714 18.277)" fill="#ecd3c6"/>
            <path id="Trazado_873788" data-name="Trazado 873788" d="M47.49,16.026c-.564,1.268,10.852,12.684,11.7,12.4s3.382-6.342,3.382-6.342-14.382-7.631-15.08-6.06" transform="translate(96.501 32.146)" fill="#d55c6b"/>
            <path id="Trazado_873789" data-name="Trazado 873789" d="M60.987,12.4C59.344,8.873,56.214,6.574,54,7.265s-2.681,4.119-1.037,7.649,4.777,5.829,6.994,5.135,2.678-4.116,1.034-7.646" transform="translate(105.661 14.52)" fill="#e26f71"/>
            <path id="Trazado_873790" data-name="Trazado 873790" d="M204.843,139.306H112.952v14.8a6.9,6.9,0,0,0,6.906,6.906h84.985Z" transform="translate(229.62 283.195)" fill="#3a323a"/>
            <path id="Trazado_873791" data-name="Trazado 873791" d="M217.322,114.119H128.531a22.551,22.551,0,0,0-22.55,22.55v54.683a8.455,8.455,0,0,0,8.456,8.456H231.416a8.455,8.455,0,0,0,8.456-8.456V136.669a22.551,22.551,0,0,0-22.55-22.55" transform="translate(215.449 231.993)" fill="#5f5260"/>
            <path id="Trazado_873792" data-name="Trazado 873792" d="M217.322,114.119H128.531a22.551,22.551,0,0,0-22.55,22.55v48.714c18.116,7.249,41.8,7.989,65.614.449,35.852-11.349,60.691-37.872,62.705-63.973a22.479,22.479,0,0,0-16.978-7.74" transform="translate(215.449 231.993)" fill="#ef966c"/>
            <path id="Trazado_873793" data-name="Trazado 873793" d="M180.745,128.279c-31.451,12.289-56.054,30.635-67.027,48.02a92.345,92.345,0,0,0,41.445-3.664c29.968-9.487,51.019-31.257,53.892-53.085a198.837,198.837,0,0,0-28.309,8.729" transform="translate(231.178 243.033)" fill="#d8785e"/>
            <path id="Trazado_873794" data-name="Trazado 873794" d="M107.472,134.162v3.709a95.849,95.849,0,0,0,29.449,2.214c23.666-1.817,43.947-11.665,55.72-25.267H126.816a19.344,19.344,0,0,0-19.344,19.344" transform="translate(218.48 233.414)" fill="#f1c492"/>
            <path id="Trazado_873795" data-name="Trazado 873795" d="M127.635,150.85c0-4.4-2.432-7.973-5.435-7.973s-5.438,3.57-5.438,7.973,2.432,7.974,5.438,7.974,5.435-3.57,5.435-7.974" transform="translate(237.366 290.455)" fill="#4e444d"/>
            <path id="Trazado_873796" data-name="Trazado 873796" d="M167.085,155.526c0-11.986-6.627-21.7-14.8-21.7s-14.8,9.717-14.8,21.7,6.627,21.7,14.8,21.7,14.8-9.717,14.8-21.7" transform="translate(279.498 272.049)" fill="#4e444d"/>
            <path id="Trazado_873797" data-name="Trazado 873797" d="M182.933,114.119v49.045a8.457,8.457,0,0,1-8.456,8.459h-68.5V175h72.159a8.455,8.455,0,0,0,8.456-8.456v-52.43Z" transform="translate(215.451 231.993)" fill="#4e444d"/>
            <path id="Trazado_873798" data-name="Trazado 873798" d="M141.515,112.8l.37,2.293a5.462,5.462,0,0,0-.37-2.293" transform="translate(287.686 229.307)" fill="#ecd3c6"/>
            <path id="Trazado_873800" data-name="Trazado 873800" d="M82.437,53.523l-40.025,174.2,5.074,5.638L85.254,63.953Z" transform="translate(86.218 108.807)" fill="#5f5260"/>
            <path id="Trazado_873801" data-name="Trazado 873801" d="M57.264,104.121l8.956-40.168L63.4,53.523l-11.625,50.6Z" transform="translate(105.253 108.806)" fill="#4e444d"/>
            <path id="Trazado_873802" data-name="Trazado 873802" d="M47.495,103.664l-5.083,22.128,5.074,5.635,6.19-27.763Z" transform="translate(86.218 210.738)" fill="#4e444d"/>
            <path id="Trazado_873803" data-name="Trazado 873803" d="M54.893,93.269l3.922,2.969A4.711,4.711,0,0,0,65.76,94.8L80.994,67.763a4.711,4.711,0,0,0-1.471-6.217L65.363,51.995a4.884,4.884,0,0,0-7.567,3.37L53.071,88.857a4.717,4.717,0,0,0,1.823,4.413" transform="translate(107.795 103.994)" fill="#5f5260"/>
            <path id="Trazado_873804" data-name="Trazado 873804" d="M68.426,109l-36.7,29.756L85.452,153.08Z" transform="translate(64.487 221.591)" fill="#5f5260"/>
            <path id="Trazado_873805" data-name="Trazado 873805" d="M99.032,76.373C76.74,64.221,67.486,23.737,70.01,17.341s32.631-.6,44.262,8.253c14.3,10.888,37.82,14.145,44.55,21.27s-25.1,39.7-28.928,37.514c-14.722-8.386-30.863-8-30.863-8" transform="translate(141.502 29.742)" fill="#ef966c"/>
            <path id="Trazado_873806" data-name="Trazado 873806" d="M145.757,40.218C138.918,58.1,128.512,69.865,120.378,67.73c-8.859-2.326-11.962-20.3-7.7-41.514a58.129,58.129,0,0,1-9.984-5.951,34.082,34.082,0,0,0-4.862-3.012c.88,1.541,1.723,3.124,2.484,4.792,8.447,18.476,6.26,37.587-4.886,42.682-5.972,2.73-13.305.849-20.123-4.3A41.14,41.14,0,0,0,87.45,71.045s16.141-.382,30.863,8c3.828,2.184,35.658-30.39,28.925-37.514a12.222,12.222,0,0,0-1.48-1.316" transform="translate(153.084 35.074)" fill="#ea7d5b"/>
            <path id="Trazado_873807" data-name="Trazado 873807" d="M117.567,145.925c-4.219,0-7.649-4.956-7.649-11.049s3.43-11.052,7.649-11.052,7.649,4.959,7.649,11.052-3.43,11.049-7.649,11.049m.846-20.408c-3.285,0-5.957,4.2-5.957,9.36s2.672,9.36,5.957,9.36,5.957-4.2,5.957-9.36-2.672-9.36-5.957-9.36" transform="translate(223.453 251.722)" fill="#4e444d"/>
            <path id="Trazado_873808" data-name="Trazado 873808" d="M120.182,132.127c0-3.84-2.074-6.951-4.634-6.951s-4.634,3.112-4.634,6.951,2.074,6.951,4.634,6.951,4.634-3.112,4.634-6.951" transform="translate(225.475 254.471)" fill="#4e444d"/>
            <path id="Trazado_873809" data-name="Trazado 873809" d="M226.179,300.163c-13.59,0-22.832-3.357-29.1-10.573-13.2-15.195-11.37-47.344-3.379-101.357,4.771-32.24-4.4-64.661-25.825-91.29C149.89,74.588,124.571,58.086,101.794,53.88c-9.881-1.829-33.368-3.488-38.042,20.427l-8.3-1.729c4.228-21.64,22.092-31.73,47.768-26.984,48.836,9.02,110.07,68.161,98.854,143.99-7.446,50.31-9.605,81.91,1.365,94.548,4.507,5.186,11.695,7.6,22.616,7.6,4.207-.064,4.334,8.365.124,8.428" transform="translate(112.726 90.344)" fill="#5f5260"/>
            <path id="Trazado_873810" data-name="Trazado 873810" d="M94.818,54.825a54.7,54.7,0,0,0-7.406,4.762A136.673,136.673,0,0,1,102.9,75.834a123.705,123.705,0,0,1,21.246,38.757q4.481.66,9.193.974c-7.237-24.239-21.512-45.048-38.524-60.74" transform="translate(177.7 111.454)" fill="#4e444d"/>
            <path id="Trazado_873811" data-name="Trazado 873811" d="M89.125,82.25c1.656-11.871.995-38.017.995-38.017s33.113-8.353,41.39,6.594L110.65,91.637Z" transform="translate(181.182 85.19)" fill="#ecd3c6"/>
            <path id="Trazado_873812" data-name="Trazado 873812" d="M106.063,41.931a53.573,53.573,0,0,1,1.162,11.128c0,15.444-6.333,28.521-15.1,33.11l12.417,5.414,20.863-40.808c-3.488-6.293-11.376-8.45-19.344-8.844" transform="translate(187.285 85.242)" fill="#cec4cc"/>
            <path id="Trazado_873813" data-name="Trazado 873813" d="M171.051,171.453c5.872-10.36-9.041,5.941-13.951,5.074-3.091-.546,5.214-6.906,2.253-7.752-3.03-.864-5.347,5.7-5.92,6.906-3.909,8.277-7.649,6.581-9.563,2.675-1.146-3.8,15.483-15.359,7.785-16.281-3.464-.412-14.048,5.938-19.5,16.848-.943,1.89-8.234,1.5-10.039-.276.655-1.222-.764-1.853-.919-.358-17.979,11.143-12.171-1.99-19.429-1.371-4.043.346-5.923,5.854-9.957,6.305a11.872,11.872,0,0,1-10.724-4.492c-2.175-2.939-2.711-6.745-3.066-10.385s-.64-7.425-2.435-10.609-5.62-5.568-9.1-4.44c-2.693.873-4.4,3.536-5.344,6.205a21.278,21.278,0,0,0,1.592,17.421c-1.41-1.046-1.974-2.866-3.066-4.237s-3.448-2.159-4.477-.734a3.407,3.407,0,0,0-.437,2.114,24.965,24.965,0,0,0,1.45,7.755,25.977,25.977,0,0,0-5.511-9.017c-1.1-1.168-2.687-2.317-4.179-1.726-2.827,1.122-.81,5.829-2.6,8.286-5.211-5.2-7.458-12.565-10.539-19.253a75.644,75.644,0,0,0-22.932-28.5c-2.805-2.123-7.179-3.9-9.444-1.21-1.368,1.629-1.071,4.04-.616,6.117a83.507,83.507,0,0,0,22.856,41.4,42.122,42.122,0,0,0,13.054,9.038H158.843c2.766-9.584,9.811-11.276,12.207-15.5" transform="translate(-0.001 262.321)" fill="#d0ccc7"/>
            <path id="Trazado_873814" data-name="Trazado 873814" d="M156.988,172.291c-3.087-.546,5.214-6.906,2.253-7.752-3.03-.864-5.347,5.7-5.917,6.906-3.909,8.277-7.652,6.581-9.566,2.675-1.143-3.794,15.422-15.316,7.822-16.275a40.526,40.526,0,0,1-5.377,8.707c-8.243,10.251-19.5,14.882-25.14,10.348a6.882,6.882,0,0,1-.74-.716,11.121,11.121,0,0,1-9.141,4.561,10.7,10.7,0,0,1-10.53-7.519,21.323,21.323,0,0,1-9.86,7.795c-9.9,3.746-21.279-.67-29.089-10.166.279.625.579,1.237.919,1.832-1.407-1.046-1.974-2.866-3.066-4.237s-3.448-2.156-4.474-.734a3.433,3.433,0,0,0-.44,2.114,24.969,24.969,0,0,0,1.453,7.755,26.069,26.069,0,0,0-5.511-9.017c-1.1-1.168-2.69-2.317-4.179-1.726-.042.018-.073.039-.112.058.182,5.966-1.14,10.206-4.131,11.755-7.879,4.085-24.315-11.986-36.71-35.9-2.044-3.937-3.843-7.84-5.4-11.637.064.391.133.783.218,1.159a83.5,83.5,0,0,0,22.853,41.4,42.135,42.135,0,0,0,13.057,9.038H158.735c2.763-9.584,9.808-11.276,12.2-15.5,5.872-10.36-9.041,5.941-13.951,5.074" transform="translate(0.11 266.558)" fill="#beb5ae"/>
            <path id="Trazado_873815" data-name="Trazado 873815" d="M50.072,159.193c2.448,1.368,5.365.564,7.382-1.128s3.357-4.134,4.816-6.405a54.047,54.047,0,0,1,5.453-7.124,18.4,18.4,0,0,1,4.61-3.918,8.046,8.046,0,0,1,5.866-.9,1.7,1.7,0,0,1,.828.412,2.042,2.042,0,0,1,.282,1.85,12.083,12.083,0,0,1-6.709,8.6c-8.88,3.712-15.016,11.476-15.016,11.476l-7.264-.406Z" transform="translate(101.791 283.587)" fill="#beb5ae"/>
            <path id="Trazado_873816" data-name="Trazado 873816" d="M75.481,85.048,62.8,78.26,75.8,78.4l16-10.77L78.45,85.257Z" transform="translate(127.672 137.478)" fill="#4a9179"/>
            <path id="Trazado_873817" data-name="Trazado 873817" d="M163.415,152.93c0-9.848-5.441-17.83-12.156-17.83S139.1,143.083,139.1,152.93s5.441,17.83,12.156,17.83,12.156-7.983,12.156-17.83" transform="translate(282.783 274.645)" fill="#5f5260"/>
            <path id="Trazado_873818" data-name="Trazado 873818" d="M125.366,149.35c0-3.169-1.75-5.735-3.912-5.735s-3.909,2.566-3.909,5.735,1.75,5.735,3.909,5.735,3.912-2.566,3.912-5.735" transform="translate(238.955 291.955)" fill="#5f5260"/>
            <path id="Trazado_873819" data-name="Trazado 873819" d="M78.513,61.541,64.353,51.99a4.864,4.864,0,0,0-6.888,1.547l11.446,5.8a4.312,4.312,0,0,1,2.044,5.48l-10.761,26.3a4.31,4.31,0,0,1-6.145,2.1l-.528-.3a4.463,4.463,0,0,0,.361.358L57.8,96.234a4.71,4.71,0,0,0,6.945-1.444L79.984,67.758a4.713,4.713,0,0,0-1.471-6.217" transform="translate(108.805 103.998)" fill="#4e444d"/>
            <path id="Trazado_873820" data-name="Trazado 873820" d="M53.6,106.88l-7.188-.846-4.649,13.742,9.723,3.594Z" transform="translate(84.896 215.556)" fill="#d8785e"/>
            <path id="Trazado_873821" data-name="Trazado 873821" d="M37.884,117.166l-6.163,5,53.734,14.321-2.86-7.4Z" transform="translate(64.486 238.188)" fill="#d8785e"/>
            <path id="Trazado_873822" data-name="Trazado 873822" d="M67.094,59.221a4.721,4.721,0,1,0-4.722,4.722,4.722,4.722,0,0,0,4.722-4.722" transform="translate(117.203 110.791)" fill="#4e444d"/>
            <path id="Trazado_873823" data-name="Trazado 873823" d="M64.389,58.134a3.1,3.1,0,1,0-3.1,3.1,3.1,3.1,0,0,0,3.1-3.1" transform="translate(118.288 111.879)" fill="#ef966c"/>
            <path id="Trazado_873824" data-name="Trazado 873824" d="M151.263,130.848h-9.957c-.285,0-.519.631-.519,1.41s.234,1.407.519,1.407h9.957c.285,0,.519-.631.519-1.407s-.234-1.41-.519-1.41" transform="translate(286.206 266.001)" fill="#3a323a"/>
            <path id="Trazado_873825" data-name="Trazado 873825" d="M151.263,129.21h-9.957c-.285,0-.519.631-.519,1.41s.234,1.407.519,1.407h9.957c.285,0,.519-.631.519-1.407s-.234-1.41-.519-1.41" transform="translate(286.206 262.671)" fill="#3a323a"/>
            <path id="Trazado_873826" data-name="Trazado 873826" d="M151.263,127.572h-9.957c-.285,0-.519.631-.519,1.41s.234,1.407.519,1.407h9.957c.285,0,.519-.631.519-1.407s-.234-1.41-.519-1.41" transform="translate(286.206 259.341)" fill="#3a323a"/>
            <path id="Trazado_873827" data-name="Trazado 873827" d="M151.263,125.934h-9.957c-.285,0-.519.631-.519,1.41s.234,1.407.519,1.407h9.957c.285,0,.519-.631.519-1.407s-.234-1.41-.519-1.41" transform="translate(286.206 256.012)" fill="#3a323a"/>
            <path id="Trazado_873828" data-name="Trazado 873828" d="M151.263,124.3h-9.957c-.285,0-.519.631-.519,1.41s.234,1.407.519,1.407h9.957c.285,0,.519-.631.519-1.407s-.234-1.41-.519-1.41" transform="translate(286.206 252.682)" fill="#3a323a"/>
            <path id="Trazado_873829" data-name="Trazado 873829" d="M155.491,130.848h-9.957c-.285,0-.519.631-.519,1.41s.234,1.407.519,1.407h9.957c.285,0,.519-.631.519-1.407s-.234-1.41-.519-1.41" transform="translate(294.801 266.001)" fill="#3a323a"/>
            <path id="Trazado_873830" data-name="Trazado 873830" d="M155.491,129.21h-9.957c-.285,0-.519.631-.519,1.41s.234,1.407.519,1.407h9.957c.285,0,.519-.631.519-1.407s-.234-1.41-.519-1.41" transform="translate(294.801 262.671)" fill="#3a323a"/>
            <path id="Trazado_873831" data-name="Trazado 873831" d="M155.491,127.572h-9.957c-.285,0-.519.631-.519,1.41s.234,1.407.519,1.407h9.957c.285,0,.519-.631.519-1.407s-.234-1.41-.519-1.41" transform="translate(294.801 259.341)" fill="#3a323a"/>
            <path id="Trazado_873832" data-name="Trazado 873832" d="M155.491,125.934h-9.957c-.285,0-.519.631-.519,1.41s.234,1.407.519,1.407h9.957c.285,0,.519-.631.519-1.407s-.234-1.41-.519-1.41" transform="translate(294.801 256.012)" fill="#3a323a"/>
            <path id="Trazado_873833" data-name="Trazado 873833" d="M155.491,124.3h-9.957c-.285,0-.519.631-.519,1.41s.234,1.407.519,1.407h9.957c.285,0,.519-.631.519-1.407s-.234-1.41-.519-1.41" transform="translate(294.801 252.682)" fill="#3a323a"/>
            <path id="Trazado_873834" data-name="Trazado 873834" d="M142.968,115.338c0-.449-1.483-.813-3.312-.813s-3.309.364-3.309.813,1.48.813,3.309.813,3.312-.364,3.312-.813" transform="translate(277.18 232.818)" fill="#3a323a"/>
            <path id="Trazado_873835" data-name="Trazado 873835" d="M145.666,115.338c0-.449-1.483-.813-3.312-.813s-3.309.364-3.309.813,1.48.813,3.309.813,3.312-.364,3.312-.813" transform="translate(282.665 232.818)" fill="#3a323a"/>
            <path id="Trazado_873836" data-name="Trazado 873836" d="M148.364,115.338c0-.449-1.483-.813-3.312-.813s-3.309.364-3.309.813,1.48.813,3.309.813,3.312-.364,3.312-.813" transform="translate(288.15 232.818)" fill="#3a323a"/>
            <path id="Trazado_873837" data-name="Trazado 873837" d="M144.5,116.175c0-.449-1.483-.813-3.312-.813s-3.309.364-3.309.813,1.48.813,3.309.813,3.312-.364,3.312-.813" transform="translate(280.297 234.52)" fill="#3a323a"/>
            <path id="Trazado_873838" data-name="Trazado 873838" d="M147.2,116.175c0-.449-1.483-.813-3.312-.813s-3.309.364-3.309.813,1.477.813,3.309.813,3.312-.364,3.312-.813" transform="translate(285.783 234.52)" fill="#3a323a"/>
            <path id="Trazado_873839" data-name="Trazado 873839" d="M149.9,116.175c0-.449-1.483-.813-3.312-.813s-3.309.364-3.309.813,1.48.813,3.309.813,3.312-.364,3.312-.813" transform="translate(291.268 234.52)" fill="#3a323a"/>
            <path id="Trazado_873840" data-name="Trazado 873840" d="M171.5,114.119h-1.692v7.188h-60.87q-.755.81-1.428,1.692H171.5Z" transform="translate(218.563 231.993)" fill="#4e444d"/>
            <rect id="Rectángulo_401473" data-name="Rectángulo 401473" width="1.832" height="8.174" transform="translate(365.826 346.112)" fill="#4e444d"/>
            <rect id="Rectángulo_401474" data-name="Rectángulo 401474" width="1.832" height="8.174" transform="translate(345.284 346.112)" fill="#4e444d"/>
            <path id="Trazado_873841" data-name="Trazado 873841" d="M147.825,135.867c-2.7,0-5.113,2.232-6.806,5.775,1.459,6.151,4.674,10.436,8.416,10.436,2.693,0,5.113-2.235,6.806-5.775-1.459-6.154-4.674-10.436-8.416-10.436" transform="translate(286.678 276.204)" fill="#766977"/>
            <path id="Trazado_873842" data-name="Trazado 873842" d="M101.051,19.036c-13.2-4.595-29.231-6.284-31.042-1.692-1.086,2.748.012,11.807,3.385,22.2,12.468-6.087,22.2-13.363,27.657-20.508" transform="translate(141.502 29.742)" fill="#e7705c"/>
            <path id="Trazado_873843" data-name="Trazado 873843" d="M58.206,11.079c-1-2.147-2.9-3.545-4.252-3.124s-1.629,2.505-.628,4.649,2.9,3.545,4.249,3.124,1.632-2.5.631-4.649" transform="translate(107.188 16.02)" fill="#c45797"/>
            <path id="Trazado_873844" data-name="Trazado 873844" d="M56.985,11.119c-.77-1.641-2.229-2.708-3.26-2.387s-1.243,1.914-.473,3.555,2.232,2.708,3.26,2.384,1.243-1.911.473-3.552" transform="translate(107.313 17.636)" fill="#e26f71"/>
            <path id="Trazado_873845" data-name="Trazado 873845" d="M42.405,32.943C40.88,28.169,54.34,8.8,59.653,10.138s10.485,5.365,11.131,7.2-3.151,8.092-4.51,8.316c-.737.121-5.687-1.356-8.034-.422a3.925,3.925,0,0,0-2.256,3.955c.188.849,3.391,3.627,3.36,4.225s-3.006,5.672-4.234,6.205-11.683-3.473-12.7-6.672" transform="translate(85.962 20.476)" fill="#96ceba"/>
            <path id="Trazado_873846" data-name="Trazado 873846" d="M46.494,33.083c-1.334-4.176,8.8-19.523,14.916-22.4-.579-.206-1.165-.391-1.756-.54C54.34,8.8,40.88,28.167,42.405,32.944c1.022,3.2,11.48,7.2,12.708,6.669a2.48,2.48,0,0,0,.695-.564c-3.552-1.24-8.619-3.788-9.314-5.966" transform="translate(85.962 20.478)" fill="#65aa8a"/>
            <path id="Trazado_873847" data-name="Trazado 873847" d="M49.141,15.121a28.7,28.7,0,0,0,3.2.482,1.519,1.519,0,0,0,.643-.379,12.79,12.79,0,0,0-3.84-.1" transform="translate(99.899 30.524)" fill="#65aa8a"/>
            <path id="Trazado_873848" data-name="Trazado 873848" d="M48.127,16.151c-.443,1.052,9.132,10.242,9.824,10s2.672-5.271,2.672-5.271-11.947-6.029-12.5-4.725" transform="translate(97.807 32.458)" fill="#f7918e"/>
            <path id="Trazado_873849" data-name="Trazado 873849" d="M61.006,46c-1.068-1.389-2.405-2.15-2.993-1.7s-.2,1.941.867,3.33,2.408,2.153,2.993,1.7.2-1.941-.867-3.33" transform="translate(117.38 89.794)" fill="#4a9179"/>
            <path id="Trazado_873850" data-name="Trazado 873850" d="M79.338,37.241c-1.068-1.389-2.405-2.15-2.993-1.7s-.2,1.941.867,3.333,2.408,2.15,2.993,1.7.2-1.941-.867-3.33" transform="translate(154.647 71.986)" fill="#4a9179"/>
            <path id="Trazado_873851" data-name="Trazado 873851" d="M55.987,19.061c.415-.688.949-1.119,1.195-.961s.106.843-.309,1.532-.949,1.116-1.195.961-.106-.843.309-1.532" transform="translate(112.94 36.729)" fill="#d55c6b"/>
            <path id="Trazado_873852" data-name="Trazado 873852" d="M52.34,25.92,57.4,15.684s6.281,3.809,3.4,8.4S52.34,25.92,52.34,25.92" transform="translate(106.402 31.884)" fill="#373137"/>
            <path id="Trazado_873853" data-name="Trazado 873853" d="M55.606,24.947a7.6,7.6,0,0,1-3.021-.573l4.331-8.459a9.114,9.114,0,0,1,2.269,2.041Z" transform="translate(106.9 32.354)" fill="#ecd3c6"/>
            <g id="Grupo_1099534" data-name="Grupo 1099534" transform="translate(144.352 38.815)" opacity="0.38" style="mix-blend-mode: multiply;isolation: isolate">
              <g id="Grupo_1099533" data-name="Grupo 1099533">
                <g id="Grupo_1099532" data-name="Grupo 1099532" clip-path="url(#clip-path-7)">
                  <path id="Trazado_873854" data-name="Trazado 873854" d="M48.8,16.682c-1.192-.995-1.559-2.484-.822-3.324s2.3-.719,3.488.276,1.559,2.487.822,3.327-2.3.716-3.488-.279" transform="translate(-47.595 -12.797)" fill="#373137"/>
                </g>
              </g>
            </g>
            <g id="Grupo_1099537" data-name="Grupo 1099537" transform="translate(137.235 48.169)" opacity="0.38" style="mix-blend-mode: multiply;isolation: isolate">
              <g id="Grupo_1099536" data-name="Grupo 1099536">
                <g id="Grupo_1099535" data-name="Grupo 1099535" clip-path="url(#clip-path-8)">
                  <path id="Trazado_873855" data-name="Trazado 873855" d="M46.474,19.644c-1.2-.886-1.583-2.293-.858-3.142s2.287-.822,3.488.061,1.583,2.293.858,3.145-2.287.822-3.488-.064" transform="translate(-45.249 -15.883)" fill="#373137"/>
                </g>
              </g>
            </g>
            <g id="Grupo_1099540" data-name="Grupo 1099540" transform="translate(139.247 33.271)" opacity="0.38" style="mix-blend-mode: multiply;isolation: isolate">
              <g id="Grupo_1099539" data-name="Grupo 1099539">
                <g id="Grupo_1099538" data-name="Grupo 1099538" clip-path="url(#clip-path-9)">
                  <path id="Trazado_873856" data-name="Trazado 873856" d="M46.3,14.67l3.291-3.294a1.908,1.908,0,0,1,2.593.243,1.775,1.775,0,0,1,.331,2.508L49.223,17.42a1.9,1.9,0,0,1-2.593-.243A1.772,1.772,0,0,1,46.3,14.67" transform="translate(-45.912 -10.97)" fill="#4e444d"/>
                </g>
              </g>
            </g>
            <g id="Grupo_1099543" data-name="Grupo 1099543" transform="translate(131.991 44.723)" opacity="0.38" style="mix-blend-mode: multiply;isolation: isolate">
              <g id="Grupo_1099542" data-name="Grupo 1099542">
                <g id="Grupo_1099541" data-name="Grupo 1099541" clip-path="url(#clip-path-10)">
                  <path id="Trazado_873857" data-name="Trazado 873857" d="M43.593,20.148l1.553-4.392a1.89,1.89,0,0,1,2.441-.886A1.789,1.789,0,0,1,48.968,17l-1.553,4.392a1.9,1.9,0,0,1-2.445.889,1.791,1.791,0,0,1-1.377-2.135" transform="translate(-43.52 -14.746)" fill="#4e444d"/>
                </g>
              </g>
            </g>
          </g>
        </g>
      </g>
    </g>
  </g>
</svg>
