<svg xmlns="http://www.w3.org/2000/svg" xmlns:xlink="http://www.w3.org/1999/xlink" width="70" height="70" viewBox="0 0 70 70">
  <defs>
    <clipPath id="clip-path">
      <rect id="Rectángulo_401446" data-name="Rectángulo 401446" width="44" height="44" transform="translate(0 0.152)" fill="none"/>
    </clipPath>
  </defs>
  <g id="_37" data-name="37" transform="translate(-820 -1587)">
    <circle id="Elipse_11554" data-name="Elipse 11554" cx="35" cy="35" r="35" transform="translate(820 1587)" fill="#869a8a"/>
    <g id="Grupo_1099526" data-name="Grupo 1099526" transform="translate(833 1599.848)">
      <g id="Grupo_1099525" data-name="Grupo 1099525" clip-path="url(#clip-path)">
        <path id="Trazado_873744" data-name="Trazado 873744" d="M33.47,39a2.137,2.137,0,0,0,2.136,2.136h4.985a2.849,2.849,0,1,1,0,5.7H22.076a2.136,2.136,0,0,0,0,4.273,3.56,3.56,0,0,1,3.561,3.561v.712H0V43.273H7.121a2.136,2.136,0,0,0,0-4.273Z" transform="translate(0 -11.227)" fill="#f9a545"/>
        <rect id="Rectángulo_401442" data-name="Rectángulo 401442" width="38" height="3" transform="translate(3 15.152)" fill="#f9a545"/>
        <path id="Trazado_873745" data-name="Trazado 873745" d="M42.016,15.667h2.136V9.97a2.139,2.139,0,0,0-2.136-2.136H11.394V6.409a.712.712,0,0,1,.712-.712h23.5a2.849,2.849,0,0,0,0-5.7H8.546A5.115,5.115,0,0,0,3.561,4.985V7.833H2.136A2.139,2.139,0,0,0,0,9.97v5.7H2.136V28.485H7.121a1.424,1.424,0,0,1,0,2.849H0v1.424H7.121A2.851,2.851,0,0,0,9.97,29.91a2.819,2.819,0,0,0-.4-1.424H32.859a2.845,2.845,0,0,0,2.747,2.136h4.985a2.136,2.136,0,1,1,0,4.273H22.076a2.849,2.849,0,1,0,0,5.7,2.851,2.851,0,0,1,2.849,2.849v.712h1.424V43.44a4.277,4.277,0,0,0-4.273-4.273,1.424,1.424,0,0,1,0-2.849H40.592a3.561,3.561,0,1,0,0-7.121H35.607a1.42,1.42,0,0,1-1.226-.712h7.636ZM1.424,14.243V9.97a.712.712,0,0,1,.712-.712H4.985V4.985A3.7,3.7,0,0,1,8.546,1.424H35.607a1.424,1.424,0,0,1,0,2.849h-23.5A2.139,2.139,0,0,0,9.97,6.409V7.833H7.833V9.258H42.016a.712.712,0,0,1,.712.712v4.273H1.424ZM40.592,27.061H37.031v-5.7H35.607v5.7H32.046v-5.7H30.622v5.7H18.515V24.213H17.091v2.849H13.531v-5.7H12.106v5.7H8.546v-5.7H7.121v5.7H3.561V15.667H40.592Z"/>
        <rect id="Rectángulo_401443" data-name="Rectángulo 401443" width="2" height="2" transform="translate(17 21.152)" fill="#333"/>
        <path id="Trazado_873746" data-name="Trazado 873746" d="M4.849,50A2.849,2.849,0,1,0,7.7,52.849,2.851,2.851,0,0,0,4.849,50m0,4.273a1.424,1.424,0,1,1,1.424-1.424,1.427,1.427,0,0,1-1.424,1.424" transform="translate(-0.576 -14.393)" fill="#333"/>
        <path id="Trazado_873747" data-name="Trazado 873747" d="M21.136,43a2.136,2.136,0,1,0,2.136,2.136A2.139,2.139,0,0,0,21.136,43m0,2.849a.712.712,0,1,1,.712-.712.712.712,0,0,1-.712.712" transform="translate(-5.469 -12.378)" fill="#333"/>
        <rect id="Rectángulo_401444" data-name="Rectángulo 401444" width="1" height="1" transform="translate(40 11.152)" fill="#333"/>
        <rect id="Rectángulo_401445" data-name="Rectángulo 401445" width="1" height="1" transform="translate(37 11.152)" fill="#333"/>
      </g>
    </g>
  </g>
</svg>
