<svg xmlns="http://www.w3.org/2000/svg" xmlns:xlink="http://www.w3.org/1999/xlink" width="74" height="74" viewBox="0 0 74 74">
  <defs>
    <clipPath id="clip-path">
      <rect id="Rectángulo_401596" data-name="Rectángulo 401596" width="57" height="57" transform="translate(0 -0.047)" fill="#f1e7c2"/>
    </clipPath>
  </defs>
  <g id="_41" data-name="41" transform="translate(-526 -2672)">
    <g id="Grupo_1099668" data-name="Grupo 1099668">
      <circle id="Elipse_11588" data-name="Elipse 11588" cx="37" cy="37" r="37" transform="translate(526 2672)" fill="#5f6e62"/>
    </g>
    <g id="Grupo_1099674" data-name="Grupo 1099674">
      <g id="Grupo_1099670" data-name="Grupo 1099670" transform="translate(538 2679.047)">
        <g id="Grupo_1099669" data-name="Grupo 1099669" clip-path="url(#clip-path)">
          <path id="Trazado_874113" data-name="Trazado 874113" d="M50.229,42.7H44.89a.89.89,0,0,1-.89-.89V28.458a12.458,12.458,0,0,1,24.917,0v1.78a.89.89,0,0,1-.89.89H62.688a.89.89,0,0,1-.89-.89v-1.78a5.339,5.339,0,0,0-10.679,0V41.807a.89.89,0,0,1-.89.89m-4.449-1.78h3.56V28.458a7.119,7.119,0,0,1,14.238,0v.89h3.56v-.89a10.679,10.679,0,0,0-21.357,0Z" transform="translate(-34.211 -12.44)" fill="#f1e7c2"/>
          <path id="Trazado_874114" data-name="Trazado 874114" d="M56.89,144.908a.89.89,0,0,1-.89-.89V128.89a.89.89,0,0,1,1.78,0v15.128a.89.89,0,0,1-.89.89" transform="translate(-43.542 -99.523)" fill="#f1e7c2"/>
          <path id="Trazado_874115" data-name="Trazado 874115" d="M22.238,205.789H8.89A.89.89,0,0,1,8,204.9v-.89a4.455,4.455,0,0,1,4.449-4.449h.89a2.673,2.673,0,0,0,2.67-2.67.89.89,0,0,1,.89-.89h5.339a.89.89,0,0,1,.89.89V204.9a.89.89,0,0,1-.89.89M9.78,204.009H21.348V197.78H17.7a4.458,4.458,0,0,1-4.36,3.56h-.89a2.673,2.673,0,0,0-2.67,2.67" transform="translate(-6.22 -152.395)" fill="#f1e7c2"/>
          <path id="Trazado_874116" data-name="Trazado 874116" d="M120.889,116.449a.89.89,0,0,1-.74-1.384l1.78-2.67a.89.89,0,0,1,1.481.987l-1.78,2.67a.889.889,0,0,1-.741.4" transform="translate(-93.303 -87.082)" fill="#f1e7c2"/>
          <path id="Trazado_874117" data-name="Trazado 874117" d="M140.889,116.449a.89.89,0,0,1-.74-1.384l1.78-2.67a.89.89,0,0,1,1.481.987l-1.78,2.67a.889.889,0,0,1-.741.4" transform="translate(-108.853 -87.082)" fill="#f1e7c2"/>
          <path id="Trazado_874118" data-name="Trazado 874118" d="M97.789,171.578a9.789,9.789,0,1,1,9.789-9.789,9.8,9.8,0,0,1-9.789,9.789m0-17.8a8.009,8.009,0,1,0,8.009,8.009,8.018,8.018,0,0,0-8.009-8.009" transform="translate(-68.422 -118.184)" fill="#f1e7c2"/>
          <path id="Trazado_874119" data-name="Trazado 874119" d="M128.89,199.119a.89.89,0,0,1,0-1.78,4.455,4.455,0,0,0,4.449-4.449.89.89,0,0,1,1.78,0,6.236,6.236,0,0,1-6.229,6.229" transform="translate(-99.523 -149.285)" fill="#f1e7c2"/>
          <path id="Trazado_874120" data-name="Trazado 874120" d="M125.789,81.339a.89.89,0,0,1-.89-.89V77.78H117.78v2.67a.89.89,0,0,1-1.78,0V77.78A1.782,1.782,0,0,1,117.78,76H124.9a1.782,1.782,0,0,1,1.78,1.78v2.67a.89.89,0,0,1-.89.89" transform="translate(-90.193 -59.092)" fill="#f1e7c2"/>
          <path id="Trazado_874121" data-name="Trazado 874121" d="M156.657,198.679H146.29a.89.89,0,1,1,0-1.78h10.367a4.455,4.455,0,0,0,4.449-4.449v-3.56a.89.89,0,0,1,1.78,0v3.56a6.236,6.236,0,0,1-6.229,6.229" transform="translate(-113.052 -146.175)" fill="#f1e7c2"/>
          <path id="Trazado_874122" data-name="Trazado 874122" d="M154.688,111.578a.89.89,0,0,1-.89-.89V107.4a2.688,2.688,0,0,0-.516-1.587l-8.033-10.95a2.685,2.685,0,0,0-2.157-1.087h-6.2a.89.89,0,0,1,0-1.78h6.2a4.473,4.473,0,0,1,3.591,1.813l8.037,10.956a4.462,4.462,0,0,1,.857,2.635v3.284a.89.89,0,0,1-.89.89" transform="translate(-105.744 -71.532)" fill="#f1e7c2"/>
          <path id="Trazado_874123" data-name="Trazado 874123" d="M100.89,109.673a.89.89,0,0,1-.89-.89V96.449A4.454,4.454,0,0,1,104.449,92h.89a.89.89,0,0,1,0,1.78h-.89a2.673,2.673,0,0,0-2.67,2.67v12.334a.89.89,0,0,1-.89.89" transform="translate(-77.753 -71.532)" fill="#f1e7c2"/>
          <path id="Trazado_874124" data-name="Trazado 874124" d="M219.56,176.9h-2.67a.89.89,0,0,1,0-1.78h2.67V169.78h-2.67a.89.89,0,0,1,0-1.78h2.67a1.782,1.782,0,0,1,1.78,1.78v5.339a1.782,1.782,0,0,1-1.78,1.78" transform="translate(-167.946 -130.625)" fill="#f1e7c2"/>
          <path id="Trazado_874125" data-name="Trazado 874125" d="M176.375,108.018h-6.2A2.675,2.675,0,0,1,168,106.9l-3.587-5.023a2.653,2.653,0,0,1-.5-1.544l-.022-7.442A.89.89,0,0,1,164.78,92h0a.89.89,0,0,1,.89.887l.022,7.442a.886.886,0,0,0,.166.514l3.588,5.023a.891.891,0,0,0,.724.373h6.2a.89.89,0,0,1,0,1.78" transform="translate(-127.431 -71.532)" fill="#f1e7c2"/>
        </g>
      </g>
    </g>
  </g>
</svg>
