<svg xmlns="http://www.w3.org/2000/svg" xmlns:xlink="http://www.w3.org/1999/xlink" width="74" height="74" viewBox="0 0 74 74">
  <defs>
    <clipPath id="clip-path">
      <rect id="Rectángulo_401594" data-name="Rectángulo 401594" width="58" height="58" fill="#f1e7c2"/>
    </clipPath>
  </defs>
  <g id="_42" data-name="42" transform="translate(-736 -2672)">
    <circle id="Elipse_11589" data-name="Elipse 11589" cx="37" cy="37" r="37" transform="translate(736 2672)" fill="#5f6e62"/>
    <g id="Grupo_1099663" data-name="Grupo 1099663" transform="translate(744 2680)">
      <g id="Grupo_1099662" data-name="Grupo 1099662" clip-path="url(#clip-path)">
        <path id="Trazado_874095" data-name="Trazado 874095" d="M59.938,66.75A19.96,19.96,0,0,1,40,46.813a17.929,17.929,0,0,1,.409-3.707.906.906,0,0,1,1.773.376,16.14,16.14,0,0,0-.37,3.33,18.125,18.125,0,1,0,36.25,0c0-5.346-3.219-12.08-9.309-19.475a90.246,90.246,0,0,0-8.816-9.221,90.086,90.086,0,0,0-9.425,9.969A.906.906,0,1,1,49.1,26.951,90.5,90.5,0,0,1,59.348,16.218a.907.907,0,0,1,1.18,0,90.4,90.4,0,0,1,9.625,9.967c6.451,7.834,9.722,14.774,9.722,20.627A19.96,19.96,0,0,1,59.938,66.75" transform="translate(-30.938 -12.375)" fill="#f1e7c2"/>
        <path id="Trazado_874096" data-name="Trazado 874096" d="M136.905,186.633a.906.906,0,0,1-.158-1.8,14.512,14.512,0,0,0,10.654-8.3.906.906,0,0,1,1.65.749,16.324,16.324,0,0,1-11.986,9.34.925.925,0,0,1-.161.014" transform="translate(-105.188 -136.124)" fill="#f1e7c2"/>
        <path id="Trazado_874097" data-name="Trazado 874097" d="M191.846,152.531a.928.928,0,0,1-.161-.014.907.907,0,0,1-.732-1.052,14.57,14.57,0,0,0,.226-2.559.906.906,0,0,1,1.813,0,16.39,16.39,0,0,1-.254,2.878.907.907,0,0,1-.891.747" transform="translate(-147.679 -114.469)" fill="#f1e7c2"/>
        <path id="Trazado_874098" data-name="Trazado 874098" d="M90.344,132.688a.906.906,0,0,1-.884-.706c-.794-3.515-1.239-3.959-4.753-4.754a.906.906,0,0,1,0-1.768c3.515-.794,3.959-1.239,4.753-4.754a.906.906,0,0,1,1.768,0c.794,3.515,1.239,3.959,4.753,4.754a.906.906,0,0,1,0,1.768c-3.515.794-3.959,1.239-4.753,4.754a.906.906,0,0,1-.884.706m-2.375-6.344a4.5,4.5,0,0,1,2.375,2.375,4.5,4.5,0,0,1,2.375-2.375,4.5,4.5,0,0,1-2.375-2.375,4.5,4.5,0,0,1-2.375,2.375" transform="translate(-64.969 -92.813)" fill="#f1e7c2"/>
        <path id="Trazado_874099" data-name="Trazado 874099" d="M183.25,30.5a.907.907,0,0,1-.884-.707c-.935-4.142-1.518-4.724-5.66-5.659a.906.906,0,0,1,0-1.768c4.142-.936,4.724-1.518,5.66-5.659a.906.906,0,0,1,1.768,0c.936,4.142,1.518,4.724,5.66,5.659a.906.906,0,0,1,0,1.768c-4.142.936-4.724,1.518-5.66,5.659a.906.906,0,0,1-.884.707M180.1,23.25A5.316,5.316,0,0,1,183.25,26.4,5.316,5.316,0,0,1,186.4,23.25,5.316,5.316,0,0,1,183.25,20.1,5.316,5.316,0,0,1,180.1,23.25" transform="translate(-136.125 -12.375)" fill="#f1e7c2"/>
        <path id="Trazado_874100" data-name="Trazado 874100" d="M26.875,73.75a.907.907,0,0,1-.884-.706c-1.519-6.724-2.56-7.765-9.285-9.285a.906.906,0,0,1,0-1.768c6.724-1.519,7.766-2.56,9.285-9.284a.906.906,0,0,1,1.768,0c1.519,6.724,2.56,7.765,9.285,9.284a.906.906,0,0,1,0,1.768c-6.724,1.519-7.766,2.56-9.285,9.285a.906.906,0,0,1-.884.706M20.432,62.875c3.656,1.192,5.25,2.786,6.443,6.442,1.192-3.656,2.786-5.25,6.442-6.442-3.656-1.192-5.25-2.786-6.442-6.442-1.193,3.656-2.787,5.25-6.443,6.442" transform="translate(-12.375 -40.219)" fill="#f1e7c2"/>
      </g>
    </g>
  </g>
</svg>
