<svg xmlns="http://www.w3.org/2000/svg" xmlns:xlink="http://www.w3.org/1999/xlink" width="74" height="74" viewBox="0 0 74 74">
  <defs>
    <clipPath id="clip-path">
      <rect id="Rectángulo_401593" data-name="Rectángulo 401593" width="57" height="57" fill="#f1e7c2"/>
    </clipPath>
  </defs>
  <g id="_43" data-name="43" transform="translate(-946 -2672)">
    <circle id="Elipse_11590" data-name="Elipse 11590" cx="37" cy="37" r="37" transform="translate(946 2672)" fill="#5f6e62"/>
    <g id="Grupo_1099661" data-name="Grupo 1099661" transform="translate(960 2681)">
      <g id="Grupo_1099660" data-name="Grupo 1099660" clip-path="url(#clip-path)">
        <path id="Trazado_874087" data-name="Trazado 874087" d="M38.266,115.625H16.891a.891.891,0,0,1-.891-.891V92.469c0-4.567,1.729-8.332,5.6-12.208a.891.891,0,0,1,.63-.261H32.922a.891.891,0,0,1,.63.261c3.876,3.876,5.6,7.641,5.6,12.208v22.266a.891.891,0,0,1-.891.891m-20.484-1.781H37.375V92.469c0-3.956-1.491-7.265-4.825-10.687H22.607c-3.334,3.422-4.825,6.731-4.825,10.688Z" transform="translate(-12.438 -62.188)" fill="#f1e7c2"/>
        <path id="Trazado_874088" data-name="Trazado 874088" d="M44.89,109.391a.891.891,0,0,1-.684-1.461l1.976-2.371a9.815,9.815,0,0,0,2.271-6.272v-18.4a.891.891,0,0,1,1.781,0v18.4a11.6,11.6,0,0,1-2.683,7.412l-1.976,2.371a.889.889,0,0,1-.685.32" transform="translate(-34.203 -62.188)" fill="#f1e7c2"/>
        <path id="Trazado_874089" data-name="Trazado 874089" d="M58.234,50.688H52.891A.891.891,0,0,1,52,49.8V43.563a3.563,3.563,0,0,1,7.125,0V49.8a.891.891,0,0,1-.891.891m-4.453-1.781h3.563V43.563a1.781,1.781,0,0,0-3.562,0Z" transform="translate(-40.422 -31.094)" fill="#f1e7c2"/>
        <path id="Trazado_874090" data-name="Trazado 874090" d="M32.919,135.563a5.122,5.122,0,0,1-3.167-1.04,3.572,3.572,0,0,0-4.357,0,5.333,5.333,0,0,1-6.329,0,3.362,3.362,0,0,0-2.175-.741.891.891,0,0,1,0-1.781,5.112,5.112,0,0,1,3.164,1.04,3.566,3.566,0,0,0,4.352,0,5.339,5.339,0,0,1,6.333,0,3.575,3.575,0,0,0,4.359,0A5.122,5.122,0,0,1,38.266,132a.891.891,0,0,1,0,1.781,3.371,3.371,0,0,0-2.18.741,5.122,5.122,0,0,1-3.167,1.04" transform="translate(-12.438 -102.609)" fill="#f1e7c2"/>
        <path id="Trazado_874091" data-name="Trazado 874091" d="M48.5,34.7a.884.884,0,0,1-.138-.011,14.576,14.576,0,0,1-10.2-7.114H33.359a.891.891,0,0,1,0-1.781H38.7a.891.891,0,0,1,.8.492,12.915,12.915,0,0,0,8.585,6.541L49,31.464a12.886,12.886,0,0,1-6.712-9.055.89.89,0,0,1,.244-.8l1.52-1.521v-2.3H21.781v3.563A4.458,4.458,0,0,0,26.234,25.8h1.781a.891.891,0,0,1,0,1.781H26.234A6.242,6.242,0,0,1,20,21.344V16.891A.891.891,0,0,1,20.891,16H44.938a.891.891,0,0,1,.891.891v3.563a.891.891,0,0,1-.261.63L44.13,22.52c.829,3.515,2.921,6.009,6.55,7.824a.891.891,0,0,1,.343,1.291l-1.781,2.672a.891.891,0,0,1-.741.4" transform="translate(-15.547 -12.438)" fill="#f1e7c2"/>
        <path id="Trazado_874092" data-name="Trazado 874092" d="M144.891,21.344a.891.891,0,0,1-.891-.891V16.891a.891.891,0,0,1,1.781,0v3.563a.891.891,0,0,1-.891.891" transform="translate(-111.938 -12.438)" fill="#f1e7c2"/>
        <path id="Trazado_874093" data-name="Trazado 874093" d="M183.125,46.25a.891.891,0,0,1-.869-.694c-.92-4.071-1.491-4.642-5.562-5.562a.89.89,0,0,1,0-1.737c4.071-.92,4.642-1.492,5.562-5.562a.891.891,0,0,1,1.737,0c.92,4.071,1.491,4.642,5.562,5.562a.89.89,0,0,1,0,1.737c-4.071.92-4.642,1.492-5.562,5.562a.891.891,0,0,1-.869.694m-3.1-7.125a5.226,5.226,0,0,1,3.1,3.1,5.225,5.225,0,0,1,3.1-3.1,5.225,5.225,0,0,1-3.1-3.1,5.226,5.226,0,0,1-3.1,3.1" transform="translate(-136.813 -24.875)" fill="#f1e7c2"/>
        <path id="Trazado_874094" data-name="Trazado 874094" d="M148.906,121.813a.891.891,0,0,1-.869-.694c-1.214-5.374-1.969-6.129-7.343-7.343a.89.89,0,0,1,0-1.737c5.374-1.214,6.129-1.969,7.343-7.343a.891.891,0,0,1,1.737,0c1.214,5.374,1.969,6.129,7.343,7.343a.89.89,0,0,1,0,1.737c-5.374,1.214-6.129,1.969-7.343,7.343a.891.891,0,0,1-.869.694m-4.673-8.906a6.751,6.751,0,0,1,4.673,4.673,6.751,6.751,0,0,1,4.674-4.673,6.751,6.751,0,0,1-4.674-4.673,6.751,6.751,0,0,1-4.673,4.673" transform="translate(-108.828 -80.844)" fill="#f1e7c2"/>
      </g>
    </g>
  </g>
</svg>
