<svg xmlns="http://www.w3.org/2000/svg" xmlns:xlink="http://www.w3.org/1999/xlink" width="89" height="100.831" viewBox="0 0 89 100.831">
  <defs>
    <clipPath id="clip-path">
      <rect id="Rectángulo_401505" data-name="Rectángulo 401505" width="64" height="83" transform="translate(0 -0.264)" fill="none"/>
    </clipPath>
  </defs>
  <g id="_46" data-name="46" transform="translate(-335.258 -3427)">
    <g id="Grupo_1099558" data-name="Grupo 1099558" transform="translate(-916.075 3025.831)">
      <g id="Grupo_1098742" data-name="Grupo 1098742" transform="translate(48.013 24.258)">
        <rect id="Rectángulo_400898" data-name="Rectángulo 400898" width="89" height="89" rx="44.5" transform="translate(1203.32 388.742)" fill="#fff" opacity="0.859"/>
        <rect id="Rectángulo_400907" data-name="Rectángulo 400907" width="89" height="89" rx="44.5" transform="translate(1203.32 388.742)" fill="none"/>
      </g>
    </g>
    <g id="Grupo_1099578" data-name="Grupo 1099578" transform="translate(349 3427.263)">
      <g id="Grupo_1099577" data-name="Grupo 1099577" clip-path="url(#clip-path)">
        <path id="Trazado_873893" data-name="Trazado 873893" d="M51.453,12.727v5.368a.47.47,0,0,1-.134.013H38V6H51.453Z" transform="translate(-31.61 -4.991)" fill="#ebedf0"/>
        <path id="Trazado_873894" data-name="Trazado 873894" d="M67.884,167.32v42.162a5.385,5.385,0,0,1-1.574,3.807l-4.924,4.924a5.385,5.385,0,0,1-3.807,1.574H16.305a5.385,5.385,0,0,1-3.807-1.574L7.574,213.29A5.385,5.385,0,0,1,6,209.482V167.32a6.627,6.627,0,0,0,5.381,1.345c5.112,0,5.112-2.691,10.224-2.691s5.1,2.691,10.212,2.691,5.112-2.691,10.224-2.691,5.112,2.691,10.238,2.691,5.112-2.691,10.224-2.691a10.83,10.83,0,0,1,5.381,1.345M50.4,196.917v-8.072H40.978v-9.417H32.906v9.417H23.489v8.072h9.417v9.417h8.072v-9.417Z" transform="translate(-4.991 -138.06)" fill="#c1ddc7"/>
        <path id="Trazado_873895" data-name="Trazado 873895" d="M52.588,82.737H11.314a6.436,6.436,0,0,1-4.521-1.869L1.869,75.943A6.437,6.437,0,0,1,0,71.422v-49.7a6.4,6.4,0,0,1,1.407-4l4.2-5.245a1.009,1.009,0,0,1,.788-.379H19.681a1.023,1.023,0,0,1,.138-.013A2.331,2.331,0,0,0,21.7,11.014l5.126-8.058A6.394,6.394,0,0,1,32.221,0h18.3a6.392,6.392,0,0,1,5.4,2.951l7,11a6.47,6.47,0,0,1,.992,3.435V71.422a6.437,6.437,0,0,1-1.869,4.521l-4.924,4.924a6.436,6.436,0,0,1-4.521,1.869M6.875,14.126,2.981,18.994a4.372,4.372,0,0,0-.963,2.733v49.7A4.4,4.4,0,0,0,3.3,74.516L8.22,79.44a4.4,4.4,0,0,0,3.094,1.279H52.588a4.4,4.4,0,0,0,3.094-1.279l4.924-4.924a4.4,4.4,0,0,0,1.278-3.094V17.381a4.447,4.447,0,0,0-.681-2.358L54.212,4.039a4.381,4.381,0,0,0-3.7-2.021h-18.3a4.383,4.383,0,0,0-3.7,2.025L23.4,12.1a4.379,4.379,0,0,1-3.437,2.011,1.581,1.581,0,0,1-.252.017Zm12.66-1.983h0" fill="#303e58"/>
        <path id="Trazado_873896" data-name="Trazado 873896" d="M191.055,40.745H169.086a2.36,2.36,0,0,1-1.98-3.624l2.164-3.414A3.712,3.712,0,0,1,172.4,32h15.337a3.707,3.707,0,0,1,3.119,1.7l2.184,3.424a2.36,2.36,0,0,1-1.981,3.623M172.4,34.018a1.719,1.719,0,0,0-1.426.778L168.808,38.2l0,.008a.316.316,0,0,0-.008.331l.011.02a.327.327,0,0,0,.28.164h21.969a.323.323,0,0,0,.28-.164l.011-.02a.316.316,0,0,0-.008-.331l-2.183-3.422a1.693,1.693,0,0,0-1.422-.771Zm-4.439,3.646h0Z" transform="translate(-138.695 -26.619)" fill="#303e58"/>
        <path id="Trazado_873897" data-name="Trazado 873897" d="M33.009,14.126A1.009,1.009,0,0,1,32,13.117V1.009A1.009,1.009,0,0,1,33.009,0H46.462a1.009,1.009,0,0,1,1.009,1.009V7.736a1.009,1.009,0,1,1-2.018,0V2.018H34.018v11.1a1.009,1.009,0,0,1-1.009,1.009" transform="translate(-26.619)" fill="#303e58"/>
        <path id="Trazado_873898" data-name="Trazado 873898" d="M122.5,268.924h-8.072a1.009,1.009,0,0,1-1.009-1.009v-8.408h-8.408A1.009,1.009,0,0,1,104,258.5v-8.072a1.009,1.009,0,0,1,1.009-1.009h8.408v-8.408A1.009,1.009,0,0,1,114.426,240H122.5a1.009,1.009,0,0,1,1.009,1.009v8.408h8.408a1.009,1.009,0,0,1,1.009,1.009V258.5a1.009,1.009,0,0,1-1.009,1.009h-8.408v8.408a1.009,1.009,0,0,1-1.009,1.009m-7.063-2.018h6.054V258.5a1.009,1.009,0,0,1,1.009-1.009h8.408v-6.054H122.5a1.009,1.009,0,0,1-1.009-1.009v-8.408h-6.054v8.408a1.009,1.009,0,0,1-1.009,1.009h-8.408v6.054h8.408a1.009,1.009,0,0,1,1.009,1.009Z" transform="translate(-86.511 -199.641)" fill="#303e58"/>
      </g>
    </g>
  </g>
</svg>
