<svg xmlns="http://www.w3.org/2000/svg" xmlns:xlink="http://www.w3.org/1999/xlink" width="89" height="100.831" viewBox="0 0 89 100.831">
  <defs>
    <clipPath id="clip-path">
      <rect id="Rectángulo_401507" data-name="Rectángulo 401507" width="56" height="81" transform="translate(0 0.001)" fill="none"/>
    </clipPath>
  </defs>
  <g id="_48" data-name="48" transform="translate(-1178.257 -3427)">
    <g id="Grupo_1099560" data-name="Grupo 1099560" transform="translate(-0.524 -394.169)">
      <g id="Grupo_1099366" data-name="Grupo 1099366" transform="translate(-72.552 3420)">
        <g id="Grupo_1098742" data-name="Grupo 1098742" transform="translate(48.013 24.258)">
          <rect id="Rectángulo_400898" data-name="Rectángulo 400898" width="89" height="89" rx="44.5" transform="translate(1203.32 388.742)" fill="#f9a545" opacity="0.859"/>
          <rect id="Rectángulo_400907" data-name="Rectángulo 400907" width="89" height="89" rx="44.5" transform="translate(1203.32 388.742)" fill="none"/>
        </g>
      </g>
    </g>
    <g id="Grupo_1099581" data-name="Grupo 1099581" transform="translate(1206 3427.494)">
      <rect id="Rectángulo_401506" data-name="Rectángulo 401506" width="5" height="7" transform="translate(30 4.506)" fill="#fff"/>
      <g id="Grupo_1099580" data-name="Grupo 1099580" transform="translate(0 -0.494)">
        <g id="Grupo_1099579" data-name="Grupo 1099579" clip-path="url(#clip-path)">
          <path id="Trazado_873899" data-name="Trazado 873899" d="M160.849,87.666s-7.128-4.948-9.139-10.444a13.114,13.114,0,0,1-1.227-4.569A5.174,5.174,0,0,1,153.016,72h1.854l1.306,3.917c2.18,4.557,8.59,9.139,8.59,9.139Z" transform="translate(-125.927 -59.866)" fill="#fff"/>
          <path id="Trazado_873900" data-name="Trazado 873900" d="M63.306,120h11.75v7.833H62V120Z" transform="translate(-51.882 -100.032)" fill="#fff"/>
          <path id="Trazado_873901" data-name="Trazado 873901" d="M48.11,32v6.528H45.5a5.175,5.175,0,0,0-2.532.653,5.238,5.238,0,0,0-2.69,4.569v2.611H29.833V45.055a5.221,5.221,0,0,0-5.222-5.222H22L27.536,34.3A7.825,7.825,0,0,1,33.084,32Z" transform="translate(-18.41 -26.393)" fill="#f9a545"/>
          <path id="Trazado_873902" data-name="Trazado 873902" d="M36.81,220.221H9.277a3.285,3.285,0,0,1-2.323-.966A3.327,3.327,0,0,1,6,216.931c0-27.39,2.937-40.054,9.139-48.931H28.194s2.611,1.736,2.611,3.917c0,1.906-1.306,2.063-1.306,3.917,0,2.206,1.306,2.115,1.306,3.917s-1.306,2.115-1.306,3.917c0,6.371,9.817.691,10.444,33.226a3.183,3.183,0,0,1-.8,2.35,3.281,3.281,0,0,1-2.338.979" transform="translate(-5.021 -140.199)" fill="#c1ddc7"/>
          <path id="Trazado_873903" data-name="Trazado 873903" d="M330.979,42a.979.979,0,1,1-.979.979.986.986,0,0,1,.979-.979" transform="translate(-276.147 -34.761)" fill="#979faf"/>
          <path id="Trazado_873904" data-name="Trazado 873904" d="M328.979,0a.986.986,0,0,1,.979.979.979.979,0,1,1-1.958,0A.986.986,0,0,1,328.979,0" transform="translate(-274.474 0.385)" fill="#979faf"/>
          <path id="Trazado_873905" data-name="Trazado 873905" d="M328.979,83.844a.979.979,0,1,1-.979.979.978.978,0,0,1,.979-.979" transform="translate(-274.474 -69.777)" fill="#979faf"/>
          <path id="Trazado_873906" data-name="Trazado 873906" d="M300.389,69.686a1.195,1.195,0,1,1-1.188-1.2,1.193,1.193,0,0,1,1.188,1.2" transform="translate(-249.369 -56.924)" fill="#979faf"/>
          <path id="Trazado_873907" data-name="Trazado 873907" d="M300.868,40.641a1.2,1.2,0,1,1-1.188,1.2,1.2,1.2,0,0,1,1.188-1.2" transform="translate(-250.775 -33.624)" fill="#979faf"/>
          <path id="Trazado_873908" data-name="Trazado 873908" d="M299.2,12.641a1.2,1.2,0,1,1-1.2,1.2,1.2,1.2,0,0,1,1.2-1.2" transform="translate(-249.369 -10.193)" fill="#979faf"/>
          <path id="Trazado_873909" data-name="Trazado 873909" d="M270.833,54.535a1.416,1.416,0,1,1-2.833,0,1.416,1.416,0,0,1,2.833,0" transform="translate(-224.265 -44.071)" fill="#979faf"/>
          <path id="Trazado_873910" data-name="Trazado 873910" d="M270.833,26.769a1.416,1.416,0,1,1-1.423-1.41,1.416,1.416,0,0,1,1.423,1.41" transform="translate(-224.265 -20.836)" fill="#979faf"/>
          <path id="Trazado_873911" data-name="Trazado 873911" d="M241.264,39.632A1.632,1.632,0,1,1,239.632,38a1.633,1.633,0,0,1,1.632,1.632" transform="translate(-199.161 -31.414)" fill="#979faf"/>
          <path id="Trazado_873912" data-name="Trazado 873912" d="M33.378,361.129h-.019a.979.979,0,0,1-.96-1c.106-5.552.33-10.325.683-14.592a.979.979,0,1,1,1.952.162c-.35,4.225-.571,8.958-.676,14.468a.979.979,0,0,1-.979.96" transform="translate(-27.112 -288.014)" fill="#fff"/>
          <path id="Trazado_873913" data-name="Trazado 873913" d="M42.261,286.49a1,1,0,0,1-.136-.009.979.979,0,0,1-.836-1.1c.152-1.094.325-2.2.514-3.285a.979.979,0,0,1,1.929.337c-.186,1.063-.355,2.145-.5,3.217a.979.979,0,0,1-.969.845" transform="translate(-34.544 -234.994)" fill="#fff"/>
          <path id="Trazado_873914" data-name="Trazado 873914" d="M31.789,176.012H4.256a4.292,4.292,0,0,1-3.016-1.254A4.336,4.336,0,0,1,0,171.744c0-13.685.719-23.725,2.262-31.6,1.45-7.4,3.691-13.083,7.053-17.9a.979.979,0,0,1,.8-.418H22.194v-5.875H11.1v1.632a.979.979,0,1,1-1.958,0v-2.611a.979.979,0,0,1,.979-.979H23.173a.979.979,0,0,1,.979.979v7.342c.845.674,2.611,2.33,2.611,4.408a4.216,4.216,0,0,1-.814,2.517,2.243,2.243,0,0,0-.491,1.4,2.378,2.378,0,0,0,.53,1.628,3.636,3.636,0,0,1,.775,2.288,4.321,4.321,0,0,1-.8,2.472,2.455,2.455,0,0,0-.507,1.444c0,1.522.639,2.081,1.912,3.2,3.026,2.649,8.09,7.083,8.532,30.011a4.108,4.108,0,0,1-1.074,3.052,4.277,4.277,0,0,1-3.039,1.275M10.632,123.791c-5.219,7.69-8.674,18.985-8.674,47.952a2.358,2.358,0,0,0,.673,1.637,2.315,2.315,0,0,0,1.624.673H31.789a2.306,2.306,0,0,0,1.639-.685,2.211,2.211,0,0,0,.516-1.65c-.425-22.058-5.082-26.135-7.864-28.571-1.384-1.212-2.58-2.259-2.58-4.669a4.322,4.322,0,0,1,.8-2.473,2.455,2.455,0,0,0,.507-1.444,1.748,1.748,0,0,0-.432-1.181,4.3,4.3,0,0,1-.874-2.736,4.129,4.129,0,0,1,.8-2.456,2.321,2.321,0,0,0,.5-1.46c0-1.2-1.267-2.416-1.947-2.937Z" transform="translate(0 -95.012)" fill="#303e58"/>
          <path id="Trazado_873915" data-name="Trazado 873915" d="M35.256,42.319a.979.979,0,0,1-.979-.979V38.729a6.23,6.23,0,0,1,3.191-5.423,6.15,6.15,0,0,1,3.011-.778h6.854V27.958H28.063a6.822,6.822,0,0,0-4.856,2.011l-3.864,3.864h.247a6.208,6.208,0,0,1,6.2,6.2V41.34a.979.979,0,0,1-1.958,0V40.034a4.248,4.248,0,0,0-4.243-4.243H16.979a.979.979,0,0,1-.692-1.672l5.536-5.536A8.768,8.768,0,0,1,28.063,26H48.312a.979.979,0,0,1,.979.979v6.528a.979.979,0,0,1-.979.979H40.478a4.19,4.19,0,0,0-2.052.527,4.27,4.27,0,0,0-2.191,3.716V41.34a.979.979,0,0,1-.979.979" transform="translate(-13.389 -21.372)" fill="#303e58"/>
          <path id="Trazado_873916" data-name="Trazado 873916" d="M176.979,34.486a.979.979,0,0,1-.979-.979V26.979a.979.979,0,0,1,1.958,0v6.528a.979.979,0,0,1-.979.979" transform="translate(-147.279 -21.372)" fill="#303e58"/>
          <path id="Trazado_873917" data-name="Trazado 873917" d="M162.116,103.707a.977.977,0,0,1-.558-.175c-.3-.209-7.407-5.191-9.5-10.912a.979.979,0,1,1,1.839-.673c1.569,4.29,6.593,8.34,8.245,9.586l2.2-1.468c-1.988-1.568-6.069-5.076-7.786-8.664a.979.979,0,1,1,1.767-.845c2.044,4.273,8.215,8.72,8.277,8.765a.979.979,0,0,1-.026,1.611l-3.917,2.611a.977.977,0,0,1-.543.165" transform="translate(-127.194 -74.927)" fill="#303e58"/>
        </g>
      </g>
    </g>
  </g>
</svg>
