<svg xmlns="http://www.w3.org/2000/svg" width="70.007" height="80.128" viewBox="0 0 70.007 80.128">
  <g id="_49" data-name="49" transform="translate(-32.337)">
    <path id="Trazado_873918" data-name="Trazado 873918" d="M122.708,83.537v3.374l-3.029,56.032a6.748,6.748,0,0,1-6.738,6.383h-41.2a6.748,6.748,0,0,1-6.738-6.383L61.979,86.911V83.537Z" transform="translate(-25.003 -70.463)" fill="#f9a545"/>
    <path id="Trazado_873919" data-name="Trazado 873919" d="M370.1,83.537v3.374l-3.029,56.032a6.748,6.748,0,0,1-6.738,6.383h-5.061a6.748,6.748,0,0,0,6.738-6.383l3.029-56.032V83.537Z" transform="translate(-272.4 -70.463)" fill="#feedda"/>
    <path id="Trazado_873920" data-name="Trazado 873920" d="M93.581,58.166a5.764,5.764,0,0,1-4.943,8.73H59.681a5.764,5.764,0,0,1-4.943-8.73L68.8,34.729a5.764,5.764,0,0,1,4.943-2.8h.834a5.764,5.764,0,0,1,4.943,2.8Zm10.943-43.334H97.776V11.458A3.374,3.374,0,0,0,94.4,8.084H53.916a3.374,3.374,0,0,0-3.374,3.374v3.374H43.795a3.374,3.374,0,0,0-3.374,3.374v1.687a3.374,3.374,0,0,0,3.374,3.374h60.729a3.374,3.374,0,0,0,3.374-3.374V18.206A3.374,3.374,0,0,0,104.524,14.832Z" transform="translate(-6.819 -6.819)" fill="#fddbb4"/>
    <path id="Trazado_873921" data-name="Trazado 873921" d="M93.581,58.166a5.764,5.764,0,0,1,.821,2.966h0A5.764,5.764,0,0,1,88.638,66.9H83.577a5.764,5.764,0,0,0,5.764-5.764h0a5.763,5.763,0,0,0-.821-2.966L74.458,34.729a5.761,5.761,0,0,0-2.829-2.4,5.755,5.755,0,0,1,2.114-.4h.834a5.764,5.764,0,0,1,4.943,2.8Zm10.943-43.334H97.776V11.458A3.374,3.374,0,0,0,94.4,8.084H89.341a3.374,3.374,0,0,1,3.374,3.374v3.374H43.795a3.374,3.374,0,0,0-3.374,3.374v1.687H107.9V18.206A3.374,3.374,0,0,0,104.524,14.832Z" transform="translate(-6.819 -6.819)" fill="#f9a545"/>
    <path id="Trazado_873922" data-name="Trazado 873922" d="M237.85,223.191a2.53,2.53,0,1,1-2.53-2.53A2.53,2.53,0,0,1,237.85,223.191Zm-1.56-21.086h-1.941a2.866,2.866,0,0,0-2.844,3.222l.97,7.763a2.866,2.866,0,0,0,5.688,0l.97-7.763A2.867,2.867,0,0,0,236.29,202.105Z" transform="translate(-167.979 -170.475)" fill="#f7c343"/>
    <path id="Trazado_873923" data-name="Trazado 873923" d="M235.7,223.223a1.607,1.607,0,1,1-1.455-2.288A2.528,2.528,0,0,1,235.7,223.223Zm-1.455-21.081a2.864,2.864,0,0,0-2.739,3.216l.97,7.763a1.83,1.83,0,1,0,3.538,0l.97-7.763A2.864,2.864,0,0,0,234.245,202.142Z" transform="translate(-167.979 -170.507)" fill="#c1ddc7"/>
    <path id="Trazado_873924" data-name="Trazado 873924" d="M84.811,50.555a1.265,1.265,0,0,1,2.17-1.3l.865,1.442a7.029,7.029,0,0,1-6.028,10.646H60.593a1.265,1.265,0,1,1,0-2.53H81.819A4.5,4.5,0,0,0,85.677,52ZM71.44,42.771a4.132,4.132,0,0,1-8.2,0l-.97-7.762a4.132,4.132,0,0,1,4.1-4.644h1.941a4.132,4.132,0,0,1,4.1,4.644Zm-1.929-9.335a1.58,1.58,0,0,0-1.2-.541H66.37a1.6,1.6,0,0,0-1.589,1.8l.97,7.762a1.6,1.6,0,0,0,3.178,0l.97-7.763A1.581,1.581,0,0,0,69.511,33.436Zm32.833-22.05v1.687a4.648,4.648,0,0,1-3.432,4.48L95.939,72.548a8.013,8.013,0,0,1-8,7.58h-41.2a8.014,8.014,0,0,1-8-7.58L35.769,17.553a4.648,4.648,0,0,1-3.432-4.48V11.387a4.644,4.644,0,0,1,4.639-4.639h5.483V4.639A4.644,4.644,0,0,1,47.1,0H87.583a4.644,4.644,0,0,1,4.639,4.639V6.748H97.7A4.644,4.644,0,0,1,102.344,11.387Zm-2.53,0A2.111,2.111,0,0,0,97.7,9.278h-13.5a1.265,1.265,0,0,1,0-2.53h5.483V4.639A2.111,2.111,0,0,0,87.583,2.53H47.1a2.111,2.111,0,0,0-2.109,2.109V6.748h34.16a1.265,1.265,0,1,1,0,2.53H36.976a2.111,2.111,0,0,0-2.109,2.109v1.687a2.111,2.111,0,0,0,2.1,2.109h6.754a1.265,1.265,0,1,1,0,2.53H38.311l2.957,54.7A5.483,5.483,0,0,0,46.743,77.6h41.2a5.483,5.483,0,0,0,5.475-5.187l2.957-54.7H48.784a1.265,1.265,0,1,1,0-2.53H97.711a2.111,2.111,0,0,0,2.1-2.109V11.387ZM45.832,54.313a7.038,7.038,0,0,0,7.03,7.03h2.67a1.265,1.265,0,1,0,0-2.53h-2.67A4.5,4.5,0,0,1,49,52L57.8,37.341a1.265,1.265,0,1,0-2.17-1.3L46.834,50.7A7.032,7.032,0,0,0,45.832,54.313Zm25.3-1.6a3.8,3.8,0,1,1-3.8-3.8A3.8,3.8,0,0,1,71.136,52.716Zm-2.53,0a1.265,1.265,0,1,0-1.265,1.265A1.266,1.266,0,0,0,68.606,52.716Zm-9.507-20a1.265,1.265,0,0,0,1.736-.434l2.231-3.719a4.522,4.522,0,0,1,3.858-2.184h.834a4.522,4.522,0,0,1,3.858,2.184L81.944,45.776a1.265,1.265,0,1,0,2.17-1.3L73.785,27.26a7.066,7.066,0,0,0-6.028-3.413h-.834A7.065,7.065,0,0,0,60.9,27.26l-2.231,3.719A1.265,1.265,0,0,0,59.1,32.715Z"/>
  </g>
</svg>
