<svg xmlns="http://www.w3.org/2000/svg" xmlns:xlink="http://www.w3.org/1999/xlink" width="295" height="163.932" viewBox="0 0 295 163.932">
  <defs>
    <clipPath id="clip-path">
      <rect id="Rectángulo_401528" data-name="Rectángulo 401528" width="138.352" height="151.279" fill="none"/>
    </clipPath>
  </defs>
  <g id="_59" data-name="59" transform="translate(-1125 -5631)">
    <g id="Grupo_1099612" data-name="Grupo 1099612" transform="translate(105 319.932)">
      <rect id="Rectángulo_401529" data-name="Rectángulo 401529" width="295" height="141" rx="8" transform="translate(1020 5334)" fill="#f9a545"/>
    </g>
    <g id="Grupo_1099679" data-name="Grupo 1099679" transform="translate(1203.324 5631)">
      <g id="Grupo_1099603" data-name="Grupo 1099603" clip-path="url(#clip-path)">
        <path id="Trazado_873925" data-name="Trazado 873925" d="M37.937,5.771C60.12-3.791,94.993-4.129,114.4,25.6c12.6,19.3.654,30.539-10.211,42.584A40.691,40.691,0,0,0,94.8,105.033c2.085,9.134.958,23.127-22.025,29.324C37.19,143.952-2.866,108.93.161,63.934,1.815,39.356,14.8,15.743,37.937,5.771" transform="translate(0 0)" fill="#f1e7c2"/>
        <path id="Trazado_873926" data-name="Trazado 873926" d="M155.159,231.9a.454.454,0,0,1-.214.453.863.863,0,0,1-.958.023c-.083-.061-2.056-1.558-4.616-6.394-.133-.251.045-.547.4-.664a.742.742,0,0,1,.876.243c2.445,4.619,4.327,6.072,4.346,6.087a.425.425,0,0,1,.169.252" transform="translate(-116.67 -176.002)" fill="#5c7a40"/>
        <path id="Trazado_873927" data-name="Trazado 873927" d="M131.313,147.55c1.175-1.967-.4-2.782-.852-2.052s-.85.723-1.321-.127,1.309-3.436.647-3.993-.655.645-1.2.748-.807-.588-1.353-2.8c-.692-2.8-1.527-2.09-1.527-2.09s-1.143.516-.282,2.922c.752,2.1.616,2.954.128,3.305s-.993-.63-1.294.352,2.245,1.661,2.224,2.727-.339,1.388-1.019,1.158-1.611,1.688.18,2.348,2.314,1.216,2.049,2.295-1.094-.307-1.429.416.155,1.58,1.861,2.057c1.29.361,1.856,2.045,2.055,2.844a.326.326,0,0,0,.439.269.51.51,0,0,0,.243-.57,5.365,5.365,0,0,1,.461-3.953c1.184-1.75,1.217-2.839.638-3.159s-.664,1.47-1.338.8-.485-1.535.69-3.5" transform="translate(-97.064 -107.16)" fill="#5c7a40"/>
        <path id="Trazado_873928" data-name="Trazado 873928" d="M148.643,247.327a.455.455,0,0,0,.455-.21.862.862,0,0,0,.03-.958c-.061-.083-1.541-2.069-6.356-4.668-.25-.134-.548.041-.667.391a.742.742,0,0,0,.236.878c4.6,2.482,6.037,4.377,6.051,4.4a.426.426,0,0,0,.251.171" transform="translate(-110.989 -188.642)" fill="#5c7a40"/>
        <path id="Trazado_873929" data-name="Trazado 873929" d="M64.465,222.977c-1.977,1.159-2.779-.419-2.045-.868s.73-.844-.116-1.322-3.447,1.281-4,.615.65-.65.758-1.195-.581-.811-2.789-1.376c-2.8-.715-2.077-1.544-2.077-1.544s.525-1.139,2.924-.258c2.094.769,2.948.64,3.3.155s-.622-1,.362-1.291,1.643,2.259,2.709,2.246,1.39-.327,1.167-1.01,1.7-1.6,2.346.2,1.2,2.323,2.278,2.068-.3-1.1.427-1.425,1.579.168,2.042,1.878c.35,1.293,2.029,1.873,2.827,2.078a.326.326,0,0,1,.266.442.51.51,0,0,1-.572.238,5.364,5.364,0,0,0-3.957.429c-1.76,1.169-2.849,1.194-3.164.612s1.475-.652.815-1.331-1.531-.5-3.507.661" transform="translate(-42.28 -168.659)" fill="#5c7a40"/>
        <path id="Trazado_873930" data-name="Trazado 873930" d="M173.464,228.1a.454.454,0,0,1-.335.373.862.862,0,0,1-.924-.253c-.062-.082-1.524-2.081-2.592-7.448-.055-.278.2-.512.57-.522a.742.742,0,0,1,.77.484c1.02,5.125,2.407,7.057,2.421,7.076a.424.424,0,0,1,.089.29" transform="translate(-132.514 -172.081)" fill="#5c7a40"/>
        <path id="Trazado_873931" data-name="Trazado 873931" d="M164.58,141.545c1.689-1.548.417-2.779-.228-2.21s-1.021.449-1.229-.5,2.239-2.917,1.764-3.64-.812.43-1.365.373-.6-.794-.494-3.071c.14-2.884-.865-2.44-.865-2.44s-1.243.167-1.107,2.719c.119,2.228-.256,3.006-.824,3.2s-.771-.888-1.341-.034,1.676,2.235,1.349,3.25-.722,1.232-1.308.818-2.027,1.156-.5,2.3,1.869,1.827,1.306,2.786-.96-.607-1.488-.011-.3,1.559,1.194,2.5c1.133.715,1.193,2.49,1.155,3.313-.011.239.141.409.344.384a.509.509,0,0,0,.4-.477,5.366,5.366,0,0,1,1.574-3.655c1.635-1.338,1.979-2.372,1.516-2.844s-1.057,1.218-1.512.387-.026-1.61,1.664-3.158" transform="translate(-123.252 -101.595)" fill="#5c7a40"/>
        <path id="Trazado_873932" data-name="Trazado 873932" d="M181.223,283.91l.227-.206c1.858-.419-.508-6.155-.95-7.454l-6.887-22.734c-2.286-5.618-6.66-4.805-6.66-4.805-3.393,1.129-6.754,5.7-4.741,8.787l13.026,19.956c.792,1.213,4.04,6.9,5.985,6.457" transform="translate(-126.262 -194.286)" fill="#f5cd7d"/>
        <path id="Trazado_873933" data-name="Trazado 873933" d="M208.608,298.162a.47.47,0,0,0,.528-.121,2.132,2.132,0,0,1,1.607-.734.373.373,0,0,1,.3.28.409.409,0,0,0,.661.238.873.873,0,0,0,.34-.9,1.215,1.215,0,0,0-.909-.917,3.057,3.057,0,0,0-2.5,1.034.85.85,0,0,0-.215.931.411.411,0,0,0,.183.191" transform="translate(-162.794 -231.243)" fill="#d17a41"/>
        <path id="Trazado_873934" data-name="Trazado 873934" d="M202.262,338.379c.246.123.57-.056.725-.4.26-.578.768-.981,1.109-.88.264.078.576-.148.7-.5s.006-.708-.257-.786c-.824-.243-1.9.515-2.44,1.726a.642.642,0,0,0,.166.844" transform="translate(-157.835 -262.333)" fill="#d17a41"/>
        <path id="Trazado_873935" data-name="Trazado 873935" d="M239.108,372.593a.44.44,0,0,0,.454-.06c.51-.358.613-.207.647-.157.168.246.5.226.733-.044a.815.815,0,0,0,.127-.933c-.222-.325-.757-.757-1.854.011a.871.871,0,0,0-.322.909.439.439,0,0,0,.216.274" transform="translate(-186.623 -289.847)" fill="#d17a41"/>
        <path id="Trazado_873936" data-name="Trazado 873936" d="M164.717,278.316a.532.532,0,0,0,.648-.263,2.839,2.839,0,0,1,2.477-1.567.73.73,0,0,0,.64-.638c.072-.365-.1-.67-.379-.682-1.3-.056-2.465.673-3.476,2.168a.751.751,0,0,0-.006.913.386.386,0,0,0,.1.068" transform="translate(-128.501 -214.986)" fill="#d17a41"/>
        <path id="Trazado_873937" data-name="Trazado 873937" d="M221.979,159.592a1.909,1.909,0,0,1-1.76.1,3.664,3.664,0,0,0-1.6-.364c-1,.058-4.544.445-5.4,3.325a13.781,13.781,0,0,0,1.093,9.728c1.879,3.878,4.923,5.92,6.189,5.712s2.077-1.158,2.948-1.178,2.516,1.3,4.925.064,3.674-7.5,3.772-9.551c.029-.614.257-4.824-2.052-6.956a6.412,6.412,0,0,0-7.228-1.281c-.336.161-.63.293-.882.4" transform="translate(-166.238 -123.899)" fill="#659451"/>
        <path id="Trazado_873938" data-name="Trazado 873938" d="M246.688,167.845l-.044.008a2,2,0,0,1-1.378-.345.336.336,0,0,1,.4-.543,1.326,1.326,0,0,0,.879.222,1.172,1.172,0,0,0,.745-.526.336.336,0,0,1,.547.391,1.822,1.822,0,0,1-1.147.792" transform="translate(-191.52 -130.103)" fill="#4a2a1a"/>
        <path id="Trazado_873939" data-name="Trazado 873939" d="M249.034,148.577a.46.46,0,0,1-.214-.22,4.371,4.371,0,0,1-.134-2.982l.659-1.634.358-1.014a.535.535,0,0,1,.75-.363,2.276,2.276,0,0,1,.28.164c.7.471.652.169.852.508s-.739.481-.859.477a1.845,1.845,0,0,0-.869.57,5.547,5.547,0,0,0-.488.929,4.186,4.186,0,0,0-.106,2.5l.24.9Z" transform="translate(-194.14 -111.188)" fill="#4a2a1a"/>
        <path id="Trazado_873940" data-name="Trazado 873940" d="M258.789,177.811a15.825,15.825,0,0,0,2.136-10.692c-.9-6.415-3.7-5.624-3.7-5.624s2.867-2.525,5.319-.71c4.011,2.968,4.091,8.075,2.929,12.216a11.393,11.393,0,0,1-2.85,4.744,2.067,2.067,0,0,1-1.592.632,4.646,4.646,0,0,1-2.238-.566" transform="translate(-200.967 -125.11)" fill="#527842"/>
        <path id="Trazado_873941" data-name="Trazado 873941" d="M399.751,229.433a1.877,1.877,0,0,0-1.65-.682,2.124,2.124,0,0,0-.418-1.819,1.9,1.9,0,0,0-2.777-.168,2.171,2.171,0,0,0-.457,2.559l-2.441,2.116,2.946,3.436,2.141-2.362a1.9,1.9,0,0,0,2.439-.151,2.159,2.159,0,0,0,.216-2.929" transform="translate(-306.277 -176.761)" fill="#804f38"/>
        <path id="Trazado_873942" data-name="Trazado 873942" d="M301.1,245.8s-15.991.026-23.2,7.942c9.892-.252,14.811,8.793,18.259,19.481,7.716-7.93,10.148-21.2,10.148-21.2,1.022-3.031-2.945-6.692-5.2-6.222" transform="translate(-217.124 -192.015)" fill="#b87351"/>
        <path id="Trazado_873943" data-name="Trazado 873943" d="M360.762,247.9c3.374,3.844-1.506,23.367-9,21.154.8,1.882,1.27,4.126,1.935,6.185,7.716-7.93,10.4-21.448,10.4-21.448.771-2.288-1.3-4.933-3.333-5.892" transform="translate(-274.835 -193.688)" fill="#a66849"/>
        <path id="Trazado_873944" data-name="Trazado 873944" d="M287.367,299.687c-2.948,3.1-9.476,1.234-14.582-4.16s-6.854-12.276-3.907-15.372,9.476-1.234,14.582,4.16,6.854,12.276,3.907,15.372" transform="translate(-208.957 -217.716)" fill="#e8c1ae"/>
        <path id="Trazado_873945" data-name="Trazado 873945" d="M291.808,307.253c-2.288,2.4-7.476.829-11.588-3.515s-5.592-9.814-3.3-12.217,7.476-.829,11.588,3.515,5.592,9.814,3.3,12.217" transform="translate(-215.514 -226.887)" fill="#fce3d6"/>
        <path id="Trazado_873946" data-name="Trazado 873946" d="M304.7,325.933c-.832.873-2.718.3-4.212-1.278s-2.032-3.567-1.2-4.441,2.717-.3,4.212,1.278,2.032,3.567,1.2,4.441" transform="translate(-233.526 -249.865)" fill="#b87351"/>
        <path id="Trazado_873947" data-name="Trazado 873947" d="M212.512,664.251c.056,1.856-13.546,3.4-30.381,3.449s-30.528-1.418-30.584-3.274,13.546-3.4,30.381-3.449,30.528,1.418,30.584,3.274" transform="translate(-118.404 -516.422)" fill="#dbe8cc"/>
        <path id="Trazado_873948" data-name="Trazado 873948" d="M216.711,446.753a3.52,3.52,0,0,1,3.253-3.445,2.647,2.647,0,0,1,.723.1l2.711-42.217-49.376,1.041,2.532,41.213c.082-.008.164-.015.249-.015a3.52,3.52,0,0,1,3.272,3.426l.847,13.57a3.987,3.987,0,0,0,.61.051l24.031-.069h0l10.173-.029c.068,0,.135-.008.2-.011Z" transform="translate(-135.963 -313.452)" fill="#a3c284"/>
        <path id="Trazado_873949" data-name="Trazado 873949" d="M216.274,426.852l2.025-4.067-52.526.15,2.237,3.217Z" transform="translate(-129.519 -330.322)" fill="#a3c284"/>
        <path id="Trazado_873950" data-name="Trazado 873950" d="M209.557,397.345l-50.052.143a3.65,3.65,0,0,1-.021-7.3l50.051-.143a3.65,3.65,0,0,1,.021,7.3" transform="translate(-121.762 -304.743)" fill="#5c7a40"/>
        <path id="Trazado_873951" data-name="Trazado 873951" d="M241.5,487.665l-30.945.089-1.757-37.5,34.244-.1Z" transform="translate(-163.135 -351.708)" fill="#8cab6d"/>
        <path id="Trazado_873952" data-name="Trazado 873952" d="M190.2,400.113,176,400.154a.99.99,0,1,1-.006-1.979l14.193-.041a.99.99,0,1,1,.006,1.979" transform="translate(-136.736 -311.063)" fill="#779e53" fill-rule="evenodd"/>
        <rect id="Rectángulo_401527" data-name="Rectángulo 401527" width="37.653" height="5.63" transform="translate(44.626 141.654) rotate(-0.164)" fill="#6d8f4d"/>
        <path id="Trazado_873953" data-name="Trazado 873953" d="M183.917,610.067h0a3.637,3.637,0,0,1-3.574-3.331l-.972-13.917a3.094,3.094,0,0,1,3.108-3.35,3.637,3.637,0,0,1,3.574,3.331l.971,13.917a3.094,3.094,0,0,1-3.108,3.35" transform="translate(-140.136 -460.553)" fill="#33691e"/>
        <path id="Trazado_873954" data-name="Trazado 873954" d="M366.222,609.532h0a3.637,3.637,0,0,0,3.555-3.351l.892-13.922a3.094,3.094,0,0,0-3.127-3.332,3.637,3.637,0,0,0-3.555,3.351L363.1,606.2a3.094,3.094,0,0,0,3.127,3.332" transform="translate(-283.682 -460.129)" fill="#33691e"/>
        <path id="Trazado_873955" data-name="Trazado 873955" d="M344.885,129.736c1.891,5.539-.121,10.276-4.131,11.645s-8.463-1.04-10.354-6.579.342-12.4,3.5-13.479c3.667-1.252,9.089,2.874,10.98,8.412" transform="translate(-257.599 -94.614)" fill="#fff"/>
        <path id="Trazado_873956" data-name="Trazado 873956" d="M358.8,163.332a3.484,3.484,0,1,1-4.923-.2,3.484,3.484,0,0,1,4.923.2" transform="translate(-275.606 -126.735)" fill="#f5cd7d"/>
        <path id="Trazado_873957" data-name="Trazado 873957" d="M259.037,60.242c.284-4.336-3.921-8.141-9.39-8.5-4.629-.3-8.68,1.96-9.989,5.29l-.182.528,3.126,1.048c2.611-5.266,10.194-3.165,10.08-.409-.085,2.048-2.166,1.915-2.408,1.9l-3.337-.218a3.639,3.639,0,0,0-.475,7.263l3.337.218a3.636,3.636,0,0,0,.428,0l0,.026c5.246.159,8.581-3.609,8.812-7.148" transform="translate(-187.103 -40.406)" fill="#e8c1ae"/>
        <path id="Trazado_873958" data-name="Trazado 873958" d="M235.034,79.275l-3.256-.831-2.155,5.017,3.116,2.9Z" transform="translate(-179.404 -61.288)" fill="#ca9"/>
        <line id="Línea_590" data-name="Línea 590" y1="4.183" x2="1.467" transform="translate(52.495 20.106)" fill="none" stroke="#a8603c" stroke-linecap="round" stroke-linejoin="round" stroke-width="1.173"/>
        <line id="Línea_591" data-name="Línea 591" y1="4.183" x2="1.467" transform="translate(51.384 18.973)" fill="none" stroke="#a8603c" stroke-linecap="round" stroke-linejoin="round" stroke-width="1.173"/>
        <line id="Línea_592" data-name="Línea 592" x2="4.246" y2="1.262" transform="translate(67.687 18.574)" fill="none" stroke="#a8603c" stroke-linecap="round" stroke-linejoin="round" stroke-width="1.173"/>
        <line id="Línea_593" data-name="Línea 593" x1="0.339" y2="5.178" transform="translate(60.897 21.66)" fill="none" stroke="#a8603c" stroke-linecap="round" stroke-linejoin="round" stroke-width="1.173"/>
        <line id="Línea_594" data-name="Línea 594" x2="3.125" y2="4.143" transform="translate(65.238 21.201)" fill="none" stroke="#a8603c" stroke-linecap="round" stroke-linejoin="round" stroke-width="1.173"/>
        <line id="Línea_595" data-name="Línea 595" x1="2.097" y2="0.981" transform="translate(67.548 14.33)" fill="none" stroke="#a8603c" stroke-linecap="round" stroke-linejoin="round" stroke-width="1.173"/>
        <line id="Línea_596" data-name="Línea 596" x1="0.968" y2="1.782" transform="translate(64.24 11.868)" fill="none" stroke="#a8603c" stroke-linecap="round" stroke-linejoin="round" stroke-width="1.173"/>
        <line id="Línea_597" data-name="Línea 597" x2="0.084" y2="1.805" transform="translate(60.11 11.415)" fill="none" stroke="#a8603c" stroke-linecap="round" stroke-linejoin="round" stroke-width="1.173"/>
        <path id="Trazado_873959" data-name="Trazado 873959" d="M502.453,409.751l9.365-.082.143-4.585-8.179,1.2Z" transform="translate(-392.567 -316.493)" fill="#d46d4e" fill-rule="evenodd"/>
        <path id="Trazado_873960" data-name="Trazado 873960" d="M492.4,670.428c-.063.934,6.751,1.691,15.219,1.691s15.383-.757,15.446-1.691-6.751-1.691-15.219-1.691-15.383.757-15.446,1.691" transform="translate(-384.711 -522.485)" fill="#dbe8cc" fill-rule="evenodd"/>
        <path id="Trazado_873961" data-name="Trazado 873961" d="M550.166,649.573l.516,3.87,1.938-.105s.229-1.536.437-3.764Z" transform="translate(-429.846 -507.512)" fill="#e3633d" fill-rule="evenodd"/>
        <path id="Trazado_873962" data-name="Trazado 873962" d="M537.991,664.63l-1.706,1.236a12.421,12.421,0,0,1-2.194.888c-.207.375.13.572.424.621l5.319-.111s1.161-.259.244-2.621c-1,.426-1.889.721-2.087-.014" transform="translate(-417.236 -519.277)" fill="#663a24" fill-rule="evenodd"/>
        <path id="Trazado_873963" data-name="Trazado 873963" d="M594.786,649.573l.724,3.87,1.932-.105s.147-1.536.236-3.764Z" transform="translate(-464.707 -507.512)" fill="#e3633d" fill-rule="evenodd"/>
        <path id="Trazado_873964" data-name="Trazado 873964" d="M583.865,664.63l-1.64,1.236a11.747,11.747,0,0,1-2.147.888c-.186.375.161.572.457.621l5.313-.111s1.147-.259.1-2.621c-.975.426-1.85.721-2.088-.014" transform="translate(-453.175 -519.277)" fill="#663a24" fill-rule="evenodd"/>
        <path id="Trazado_873965" data-name="Trazado 873965" d="M581.494,374.62a1.075,1.075,0,0,1,.24-.844c1.527-1.953-1.478-3.47-2.347-4.154-.907-.713.238-2.293-1.725-3.023a2.462,2.462,0,0,0-2.735.255,9.494,9.494,0,0,0,.179,1.929s.979.352.895,2.335-.644,3,.528,4.6,6.1-.25,6.1-.25c-.807-.036-1.065-.465-1.134-.845" transform="translate(-449.164 -286.218)" fill="#663a24" fill-rule="evenodd"/>
        <path id="Trazado_873966" data-name="Trazado 873966" d="M563.8,381.281l.432,3.05a1.027,1.027,0,0,0,.639.813,1.01,1.01,0,0,0,1.015-.165l.269-.224a1.328,1.328,0,0,0,.437-1.34l-.89-3.576Z" transform="translate(-440.498 -296.77)" fill="#d45d39" fill-rule="evenodd"/>
        <path id="Trazado_873967" data-name="Trazado 873967" d="M564.041,390.6l.218.99.821-1Z" transform="translate(-440.686 -305.171)" fill="#c24a27" fill-rule="evenodd"/>
        <path id="Trazado_873968" data-name="Trazado 873968" d="M562.218,372.029a.894.894,0,0,0-.561-1.128l-1.614-.536a.942.942,0,0,0-1.118.571,9.659,9.659,0,0,0-.66,2.551,1.082,1.082,0,0,0,.624,1.188c.495.164,2.134.18,2.571-.668a12.993,12.993,0,0,0,.758-1.977" transform="translate(-436.165 -289.334)" fill="#d45d39" fill-rule="evenodd"/>
        <path id="Trazado_873969" data-name="Trazado 873969" d="M565.8,371.588a2.118,2.118,0,0,0,1.014-1.323,2.214,2.214,0,0,0-.1-1.746,2.559,2.559,0,0,0-3.675-.852,7.9,7.9,0,0,0,2.508,4.065Z" transform="translate(-439.9 -286.901)" fill="#663a24" fill-rule="evenodd"/>
        <path id="Trazado_873970" data-name="Trazado 873970" d="M572.168,382.973a.669.669,0,0,1-.922.2.685.685,0,0,1-.022-.953.67.67,0,0,1,.922-.2.685.685,0,0,1,.022.953" transform="translate(-446.158 -298.385)" fill="#d45d39" fill-rule="evenodd"/>
        <path id="Trazado_873971" data-name="Trazado 873971" d="M575.586,368.283s.975.125,1.206,1.641" transform="translate(-449.706 -287.74)" fill="none" stroke="#fff" stroke-linecap="round" stroke-linejoin="round" stroke-width="1.011"/>
        <path id="Trazado_873972" data-name="Trazado 873972" d="M545.587,460.257l-11.616.879c-1.929.689-1.964,11.511-1.964,11.511l7.571.351c3.534-.073,7.616,2.75,8.482-3.124.989-6.714-2.472-9.618-2.472-9.618" transform="translate(-415.658 -359.6)" fill="#659451" fill-rule="evenodd"/>
        <path id="Trazado_873973" data-name="Trazado 873973" d="M536.341,395.989l1.847-.485,3.105-.271,4.427,1.5a3.245,3.245,0,0,1,1.645,4.012l-.676,3.309a11.443,11.443,0,0,0-.164,3.624c.383,3.264.968,6.293,1.443,8.516-6.236,2.381-14.549,2.551-16.55-.3.261-7.852,3.784-15.241,4.924-19.9" transform="translate(-415.197 -308.796)" fill="#b9c4ad" fill-rule="evenodd"/>
        <path id="Trazado_873974" data-name="Trazado 873974" d="M559.4,394.6s-1.419,3.339.936,3.529,3.614-3.493,3.614-3.493l-1.618-.659-1.384.1Z" transform="translate(-436.732 -307.816)" fill="#d45d39"/>
        <path id="Trazado_873975" data-name="Trazado 873975" d="M532.947,396.755a7.665,7.665,0,0,0-3.657.934c-1.51.878-2.4.832-4.214,1.5l1.664,5.406,4.346-.574Z" transform="translate(-410.243 -309.985)" fill="#b9c4ad" fill-rule="evenodd"/>
        <path id="Trazado_873976" data-name="Trazado 873976" d="M539.875,524.734l-.112-9.6-7.755.389a28.517,28.517,0,0,0,.185,3.591l1.726,13.053,1.428,14.825H540.3s.369-9.3-.2-13.258a40.233,40.233,0,0,1-.23-9" transform="translate(-415.659 -402.474)" fill="#659451" fill-rule="evenodd"/>
        <path id="Trazado_873977" data-name="Trazado 873977" d="M558.842,524.734l-.112-9.6-2.446.04a41.193,41.193,0,0,0,.159,4.321l.851,12.491-.142,15.006h2.117s.369-9.3-.2-13.258a40.237,40.237,0,0,1-.23-9" transform="translate(-434.626 -402.474)" fill="#527842" fill-rule="evenodd"/>
        <path id="Trazado_873978" data-name="Trazado 873978" d="M574.268,518.679l-.582-11.3-8.677,1.369a41.641,41.641,0,0,0,.867,4.242l2.834,13.117,2.223,14.825h4.956s-.129-9.3-.907-13.258a40.585,40.585,0,0,1-.713-9" transform="translate(-441.442 -396.418)" fill="#659451" fill-rule="evenodd"/>
        <path id="Trazado_873979" data-name="Trazado 873979" d="M561.518,517.991l-.25-2.432-1.194-.019" transform="translate(-437.587 -402.793)" fill="none" stroke="#38522d" stroke-linecap="round" stroke-linejoin="round" stroke-width="2.082"/>
        <path id="Trazado_873980" data-name="Trazado 873980" d="M541.275,457.081a3.155,3.155,0,0,1-2.46,3.713l-9.66.454.662-1.9,7.113-1.5Z" transform="translate(-413.429 -357.118)" fill="#d46d4e" fill-rule="evenodd"/>
        <path id="Trazado_873981" data-name="Trazado 873981" d="M540.8,427.3c0-.1.655-4.513.655-4.513" transform="translate(-422.527 -330.322)" fill="none" stroke="#8f9e89" stroke-linecap="round" stroke-linejoin="round" stroke-width="2.082"/>
        <path id="Trazado_873982" data-name="Trazado 873982" d="M512.419,343.822h0a1.566,1.566,0,0,1-1.556-1.566l.193-57.16a1.561,1.561,0,1,1,3.122.011l-.193,57.16a1.566,1.566,0,0,1-1.566,1.556" transform="translate(-399.138 -221.53)" fill="#663a24" fill-rule="evenodd"/>
        <path id="Trazado_873983" data-name="Trazado 873983" d="M519.919,466.757l-1.757-.125a1.471,1.471,0,0,0-.982.287l-1.144.851a.711.711,0,0,0,.04,1.169l2.217.032a2.215,2.215,0,0,0,1.417-.527l.7-.576Z" transform="translate(-402.955 -364.578)" fill="#d46d4e"/>
        <path id="Trazado_873984" data-name="Trazado 873984" d="M498.079,386.754a4.178,4.178,0,0,0,.232-.512l1.494-9.555-1.963.453-2.263,6.909-.438,1.515a1.594,1.594,0,0,0,2.938,1.191" transform="translate(-386.798 -294.306)" fill="#d46d4e" fill-rule="evenodd"/>
        <path id="Trazado_873985" data-name="Trazado 873985" d="M507.245,367.138l.066-1.76a1.47,1.47,0,0,1,.391-.945l.969-1.045a.711.711,0,0,1,1.158.166l-.207,2.208a2.215,2.215,0,0,1-.676,1.351l-.648.636Z" transform="translate(-396.311 -283.737)" fill="#d46d4e"/>
        <path id="Trazado_873986" data-name="Trazado 873986" d="M573.352,425.777l-2.733,7.629-3.739-.136,2.8-8.431Z" transform="translate(-442.904 -331.928)" fill="#d46d4e" fill-rule="evenodd"/>
        <path id="Trazado_873987" data-name="Trazado 873987" d="M576.807,419.979l-1.474,5.969-4.987-1.424,1.945-6.093Z" transform="translate(-445.612 -326.921)" fill="#b9c4ad" fill-rule="evenodd"/>
        <path id="Trazado_873988" data-name="Trazado 873988" d="M571.412,427.479c.034-.206,1.294-4.679,1.294-4.679l.212-.468" transform="translate(-446.445 -329.968)" fill="none" stroke="#8f9e89" stroke-linecap="round" stroke-linejoin="round" stroke-width="2.082"/>
        <path id="Trazado_873989" data-name="Trazado 873989" d="M485.567,271.82H467.319a3.45,3.45,0,0,1-3.44-3.44V253.506a3.45,3.45,0,0,1,3.44-3.44h18.249a3.45,3.45,0,0,1,3.44,3.44V268.38a3.45,3.45,0,0,1-3.44,3.44" transform="translate(-362.429 -195.377)" fill="#869a8a" fill-rule="evenodd"/>
        <path id="Trazado_873990" data-name="Trazado 873990" d="M498.692,269.466a8.231,8.231,0,1,1-8.23-8.23,8.23,8.23,0,0,1,8.23,8.23" transform="translate(-376.768 -204.104)" fill="#fff" fill-rule="evenodd"/>
        <line id="Línea_598" data-name="Línea 598" x2="6.329" y2="6.501" transform="translate(110.643 62.134)" fill="none" stroke="#663a24" stroke-linecap="round" stroke-linejoin="round" stroke-width="1.889"/>
        <line id="Línea_599" data-name="Línea 599" x1="6.501" y2="6.329" transform="translate(110.557 62.22)" fill="none" stroke="#663a24" stroke-linecap="round" stroke-linejoin="round" stroke-width="1.889"/>
        <circle id="Elipse_11567" data-name="Elipse 11567" cx="1.644" cy="1.644" r="1.644" transform="translate(100.856 27.495)" fill="none" stroke="#2a5241" stroke-linecap="round" stroke-linejoin="round" stroke-width="2"/>
        <circle id="Elipse_11568" data-name="Elipse 11568" cx="1.644" cy="1.644" r="1.644" transform="translate(17.279 88.578)" fill="none" stroke="#2a5241" stroke-linecap="round" stroke-linejoin="round" stroke-width="2"/>
        <circle id="Elipse_11569" data-name="Elipse 11569" cx="1.644" cy="1.644" r="1.644" transform="translate(27.056 9.932)" fill="none" stroke="#2a5241" stroke-linecap="round" stroke-linejoin="round" stroke-width="2"/>
      </g>
    </g>
  </g>
</svg>
