<svg xmlns="http://www.w3.org/2000/svg" xmlns:xlink="http://www.w3.org/1999/xlink" width="1240" height="354" viewBox="0 0 1240 354">
  <defs>
    <clipPath id="clip-path">
      <rect id="Rect치ngulo_401598" data-name="Rect치ngulo 401598" width="122.177" height="195.31" transform="translate(0 0)" fill="none"/>
    </clipPath>
  </defs>
  <g id="_65" data-name="65" transform="translate(-180 -7060)">
    <rect id="Rect치ngulo_401599" data-name="Rect치ngulo 401599" width="1240" height="354" rx="8" transform="translate(180 7060)" fill="#c1ddc7"/>
    <g id="Grupo_1099765" data-name="Grupo 1099765">
      <g id="Grupo_1099683" data-name="Grupo 1099683" transform="translate(248 7096.938)">
        <g id="Grupo_1099682" data-name="Grupo 1099682" transform="translate(0 0.001)" clip-path="url(#clip-path)">
          <path id="Trazado_874131" data-name="Trazado 874131" d="M710.234,1073.857H700.024a1.16,1.16,0,0,1-1.107-1.207q-.92-20.318,0-40.636a1.16,1.16,0,0,1,1.107-1.207h10.209a1.16,1.16,0,0,1,1.106,1.207c.626,11.521.478,25.546,0,40.636a1.16,1.16,0,0,1-1.106,1.207" transform="translate(-595.288 -878.547)" fill="#464555"/>
          <path id="Trazado_874132" data-name="Trazado 874132" d="M49.922,1073.857H39.713a1.16,1.16,0,0,1-1.106-1.207q-.92-20.318,0-40.636a1.16,1.16,0,0,1,1.106-1.207H49.922a1.16,1.16,0,0,1,1.106,1.207c.626,11.521.478,25.546,0,40.636a1.16,1.16,0,0,1-1.106,1.207" transform="translate(-32.512 -878.547)" fill="#464555"/>
          <path id="Trazado_874133" data-name="Trazado 874133" d="M59.015,1077.975H51.6a1.394,1.394,0,0,1,0-2.788h7.414a1.394,1.394,0,0,1,0,2.788" transform="translate(-42.791 -916.371)" fill="#575766"/>
          <path id="Trazado_874134" data-name="Trazado 874134" d="M59.015,1138.093H51.6a1.394,1.394,0,0,1,0-2.788h7.414a1.394,1.394,0,0,1,0,2.788" transform="translate(-42.791 -967.609)" fill="#575766"/>
          <path id="Trazado_874135" data-name="Trazado 874135" d="M59.015,1198.212H51.6a1.394,1.394,0,0,1,0-2.788h7.414a1.394,1.394,0,0,1,0,2.788" transform="translate(-42.791 -1018.847)" fill="#575766"/>
          <path id="Trazado_874136" data-name="Trazado 874136" d="M59.015,1258.331H51.6a1.394,1.394,0,0,1,0-2.788h7.414a1.394,1.394,0,0,1,0,2.788" transform="translate(-42.791 -1070.086)" fill="#575766"/>
          <path id="Trazado_874137" data-name="Trazado 874137" d="M717.745,1077.975h-7.414a1.394,1.394,0,0,1,0-2.788h7.414a1.394,1.394,0,1,1,0,2.788" transform="translate(-604.22 -916.371)" fill="#575766"/>
          <path id="Trazado_874138" data-name="Trazado 874138" d="M717.745,1138.093h-7.414a1.394,1.394,0,0,1,0-2.788h7.414a1.394,1.394,0,1,1,0,2.788" transform="translate(-604.22 -967.609)" fill="#575766"/>
          <path id="Trazado_874139" data-name="Trazado 874139" d="M717.745,1198.212h-7.414a1.394,1.394,0,0,1,0-2.788h7.414a1.394,1.394,0,1,1,0,2.788" transform="translate(-604.22 -1018.847)" fill="#575766"/>
          <path id="Trazado_874140" data-name="Trazado 874140" d="M717.745,1258.331h-7.414a1.394,1.394,0,0,1,0-2.788h7.414a1.394,1.394,0,1,1,0,2.788" transform="translate(-604.22 -1070.086)" fill="#575766"/>
          <path id="Trazado_874141" data-name="Trazado 874141" d="M166.975,193.5l-.328,5.608-.245,4.2-8.875,151.9a3.36,3.36,0,0,1-3.355,3.164H122.8l21.438-5.943a9.274,9.274,0,0,0,6.771-8.295L161.029,199.11H64.816l-.343-5.608Z" transform="translate(-54.95 -164.92)" fill="#59b390"/>
          <path id="Trazado_874142" data-name="Trazado 874142" d="M163.011,231.467l-10.153,146.92a6.582,6.582,0,0,1-4.807,5.889l-23.27,6.453H79.7a3.359,3.359,0,0,1-3.354-3.154l-9.293-151.91-.257-4.2Z" transform="translate(-56.931 -197.277)" fill="#7ec9aa"/>
          <path id="Trazado_874143" data-name="Trazado 874143" d="M146.507,193.5h8.128l2.709,32.06h-3.311Z" transform="translate(-124.866 -164.922)" fill="#38a178"/>
          <path id="Trazado_874144" data-name="Trazado 874144" d="M613.856,193.5h-8.128l-2.709,32.06h3.311Z" transform="translate(-513.946 -164.922)" fill="#38a178"/>
          <path id="Trazado_874145" data-name="Trazado 874145" d="M187.968,1.447A2.13,2.13,0,0,0,185.952,0H104.289a2.13,2.13,0,0,0-2.017,1.446l-4.339,12.8h94.374Z" transform="translate(-83.467 -0.001)" fill="#38a178"/>
          <path id="Trazado_874146" data-name="Trazado 874146" d="M119.921,110.8H2.257A2.257,2.257,0,0,1,0,108.544v-9.82a2.257,2.257,0,0,1,2.257-2.257H119.921a2.257,2.257,0,0,1,2.257,2.257v9.82a2.257,2.257,0,0,1-2.257,2.257" transform="translate(0 -82.218)" fill="#7ec9aa"/>
          <path id="Trazado_874147" data-name="Trazado 874147" d="M388.022,193.5h-4.428l2.727,32.06h3.4l2.727-32.06Z" transform="translate(-326.934 -164.922)" fill="#38a178"/>
        </g>
      </g>
      <g id="Grupo_1099684" data-name="Grupo 1099684" transform="translate(388 7096.938)">
        <g id="Grupo_1099682-2" data-name="Grupo 1099682" transform="translate(0 0.001)" clip-path="url(#clip-path)">
          <path id="Trazado_874131-2" data-name="Trazado 874131" d="M710.234,1073.857H700.024a1.16,1.16,0,0,1-1.107-1.207q-.92-20.318,0-40.636a1.16,1.16,0,0,1,1.107-1.207h10.209a1.16,1.16,0,0,1,1.106,1.207c.626,11.521.478,25.546,0,40.636a1.16,1.16,0,0,1-1.106,1.207" transform="translate(-595.288 -878.547)" fill="#464555"/>
          <path id="Trazado_874132-2" data-name="Trazado 874132" d="M49.922,1073.857H39.713a1.16,1.16,0,0,1-1.106-1.207q-.92-20.318,0-40.636a1.16,1.16,0,0,1,1.106-1.207H49.922a1.16,1.16,0,0,1,1.106,1.207c.626,11.521.478,25.546,0,40.636a1.16,1.16,0,0,1-1.106,1.207" transform="translate(-32.512 -878.547)" fill="#464555"/>
          <path id="Trazado_874133-2" data-name="Trazado 874133" d="M59.015,1077.975H51.6a1.394,1.394,0,0,1,0-2.788h7.414a1.394,1.394,0,0,1,0,2.788" transform="translate(-42.791 -916.371)" fill="#575766"/>
          <path id="Trazado_874134-2" data-name="Trazado 874134" d="M59.015,1138.093H51.6a1.394,1.394,0,0,1,0-2.788h7.414a1.394,1.394,0,0,1,0,2.788" transform="translate(-42.791 -967.609)" fill="#575766"/>
          <path id="Trazado_874135-2" data-name="Trazado 874135" d="M59.015,1198.212H51.6a1.394,1.394,0,0,1,0-2.788h7.414a1.394,1.394,0,0,1,0,2.788" transform="translate(-42.791 -1018.847)" fill="#575766"/>
          <path id="Trazado_874136-2" data-name="Trazado 874136" d="M59.015,1258.331H51.6a1.394,1.394,0,0,1,0-2.788h7.414a1.394,1.394,0,0,1,0,2.788" transform="translate(-42.791 -1070.086)" fill="#575766"/>
          <path id="Trazado_874137-2" data-name="Trazado 874137" d="M717.745,1077.975h-7.414a1.394,1.394,0,0,1,0-2.788h7.414a1.394,1.394,0,1,1,0,2.788" transform="translate(-604.22 -916.371)" fill="#575766"/>
          <path id="Trazado_874138-2" data-name="Trazado 874138" d="M717.745,1138.093h-7.414a1.394,1.394,0,0,1,0-2.788h7.414a1.394,1.394,0,1,1,0,2.788" transform="translate(-604.22 -967.609)" fill="#575766"/>
          <path id="Trazado_874139-2" data-name="Trazado 874139" d="M717.745,1198.212h-7.414a1.394,1.394,0,0,1,0-2.788h7.414a1.394,1.394,0,1,1,0,2.788" transform="translate(-604.22 -1018.847)" fill="#575766"/>
          <path id="Trazado_874140-2" data-name="Trazado 874140" d="M717.745,1258.331h-7.414a1.394,1.394,0,0,1,0-2.788h7.414a1.394,1.394,0,1,1,0,2.788" transform="translate(-604.22 -1070.086)" fill="#575766"/>
          <path id="Trazado_874141-2" data-name="Trazado 874141" d="M166.975,193.5l-.328,5.608-.245,4.2-8.875,151.9a3.36,3.36,0,0,1-3.355,3.164H122.8l21.438-5.943a9.274,9.274,0,0,0,6.771-8.295L161.029,199.11H64.816l-.343-5.608Z" transform="translate(-54.95 -164.92)" fill="#e36900"/>
          <path id="Trazado_874142-2" data-name="Trazado 874142" d="M163.011,231.467l-10.153,146.92a6.582,6.582,0,0,1-4.807,5.889l-23.27,6.453H79.7a3.359,3.359,0,0,1-3.354-3.154l-9.293-151.91-.257-4.2Z" transform="translate(-56.931 -197.277)" fill="#ed9041"/>
          <path id="Trazado_874143-2" data-name="Trazado 874143" d="M146.507,193.5h8.128l2.709,32.06h-3.311Z" transform="translate(-124.866 -164.922)" fill="#e36900"/>
          <path id="Trazado_874144-2" data-name="Trazado 874144" d="M613.856,193.5h-8.128l-2.709,32.06h3.311Z" transform="translate(-513.946 -164.922)" fill="#e36900"/>
          <path id="Trazado_874145-2" data-name="Trazado 874145" d="M187.968,1.447A2.13,2.13,0,0,0,185.952,0H104.289a2.13,2.13,0,0,0-2.017,1.446l-4.339,12.8h94.374Z" transform="translate(-83.467 -0.001)" fill="#e36900"/>
          <path id="Trazado_874146-2" data-name="Trazado 874146" d="M119.921,110.8H2.257A2.257,2.257,0,0,1,0,108.544v-9.82a2.257,2.257,0,0,1,2.257-2.257H119.921a2.257,2.257,0,0,1,2.257,2.257v9.82a2.257,2.257,0,0,1-2.257,2.257" transform="translate(0 -82.218)" fill="#ea9247"/>
          <path id="Trazado_874147-2" data-name="Trazado 874147" d="M388.022,193.5h-4.428l2.727,32.06h3.4l2.727-32.06Z" transform="translate(-326.934 -164.922)" fill="#e36900"/>
        </g>
      </g>
      <g id="Grupo_1099685" data-name="Grupo 1099685" transform="translate(528 7096.938)">
        <g id="Grupo_1099682-3" data-name="Grupo 1099682" transform="translate(0 0.001)" clip-path="url(#clip-path)">
          <path id="Trazado_874131-3" data-name="Trazado 874131" d="M710.234,1073.857H700.024a1.16,1.16,0,0,1-1.107-1.207q-.92-20.318,0-40.636a1.16,1.16,0,0,1,1.107-1.207h10.209a1.16,1.16,0,0,1,1.106,1.207c.626,11.521.478,25.546,0,40.636a1.16,1.16,0,0,1-1.106,1.207" transform="translate(-595.288 -878.547)" fill="#464555"/>
          <path id="Trazado_874132-3" data-name="Trazado 874132" d="M49.922,1073.857H39.713a1.16,1.16,0,0,1-1.106-1.207q-.92-20.318,0-40.636a1.16,1.16,0,0,1,1.106-1.207H49.922a1.16,1.16,0,0,1,1.106,1.207c.626,11.521.478,25.546,0,40.636a1.16,1.16,0,0,1-1.106,1.207" transform="translate(-32.512 -878.547)" fill="#464555"/>
          <path id="Trazado_874133-3" data-name="Trazado 874133" d="M59.015,1077.975H51.6a1.394,1.394,0,0,1,0-2.788h7.414a1.394,1.394,0,0,1,0,2.788" transform="translate(-42.791 -916.371)" fill="#575766"/>
          <path id="Trazado_874134-3" data-name="Trazado 874134" d="M59.015,1138.093H51.6a1.394,1.394,0,0,1,0-2.788h7.414a1.394,1.394,0,0,1,0,2.788" transform="translate(-42.791 -967.609)" fill="#575766"/>
          <path id="Trazado_874135-3" data-name="Trazado 874135" d="M59.015,1198.212H51.6a1.394,1.394,0,0,1,0-2.788h7.414a1.394,1.394,0,0,1,0,2.788" transform="translate(-42.791 -1018.847)" fill="#575766"/>
          <path id="Trazado_874136-3" data-name="Trazado 874136" d="M59.015,1258.331H51.6a1.394,1.394,0,0,1,0-2.788h7.414a1.394,1.394,0,0,1,0,2.788" transform="translate(-42.791 -1070.086)" fill="#575766"/>
          <path id="Trazado_874137-3" data-name="Trazado 874137" d="M717.745,1077.975h-7.414a1.394,1.394,0,0,1,0-2.788h7.414a1.394,1.394,0,1,1,0,2.788" transform="translate(-604.22 -916.371)" fill="#575766"/>
          <path id="Trazado_874138-3" data-name="Trazado 874138" d="M717.745,1138.093h-7.414a1.394,1.394,0,0,1,0-2.788h7.414a1.394,1.394,0,1,1,0,2.788" transform="translate(-604.22 -967.609)" fill="#575766"/>
          <path id="Trazado_874139-3" data-name="Trazado 874139" d="M717.745,1198.212h-7.414a1.394,1.394,0,0,1,0-2.788h7.414a1.394,1.394,0,1,1,0,2.788" transform="translate(-604.22 -1018.847)" fill="#575766"/>
          <path id="Trazado_874140-3" data-name="Trazado 874140" d="M717.745,1258.331h-7.414a1.394,1.394,0,0,1,0-2.788h7.414a1.394,1.394,0,1,1,0,2.788" transform="translate(-604.22 -1070.086)" fill="#575766"/>
          <path id="Trazado_874141-3" data-name="Trazado 874141" d="M166.975,193.5l-.328,5.608-.245,4.2-8.875,151.9a3.36,3.36,0,0,1-3.355,3.164H122.8l21.438-5.943a9.274,9.274,0,0,0,6.771-8.295L161.029,199.11H64.816l-.343-5.608Z" transform="translate(-54.95 -164.92)" fill="#cbbd5f"/>
          <path id="Trazado_874142-3" data-name="Trazado 874142" d="M163.011,231.467l-10.153,146.92a6.582,6.582,0,0,1-4.807,5.889l-23.27,6.453H79.7a3.359,3.359,0,0,1-3.354-3.154l-9.293-151.91-.257-4.2Z" transform="translate(-56.931 -197.277)" fill="#f0e9b4"/>
          <path id="Trazado_874143-3" data-name="Trazado 874143" d="M146.507,193.5h8.128l2.709,32.06h-3.311Z" transform="translate(-124.866 -164.922)" fill="#c9bb67"/>
          <path id="Trazado_874144-3" data-name="Trazado 874144" d="M613.856,193.5h-8.128l-2.709,32.06h3.311Z" transform="translate(-513.946 -164.922)" fill="#c9bb67"/>
          <path id="Trazado_874145-3" data-name="Trazado 874145" d="M187.968,1.447A2.13,2.13,0,0,0,185.952,0H104.289a2.13,2.13,0,0,0-2.017,1.446l-4.339,12.8h94.374Z" transform="translate(-83.467 -0.001)" fill="#cabc63"/>
          <path id="Trazado_874146-3" data-name="Trazado 874146" d="M119.921,110.8H2.257A2.257,2.257,0,0,1,0,108.544v-9.82a2.257,2.257,0,0,1,2.257-2.257H119.921a2.257,2.257,0,0,1,2.257,2.257v9.82a2.257,2.257,0,0,1-2.257,2.257" transform="translate(0 -82.218)" fill="#ede6b4"/>
          <path id="Trazado_874147-3" data-name="Trazado 874147" d="M388.022,193.5h-4.428l2.727,32.06h3.4l2.727-32.06Z" transform="translate(-326.934 -164.922)" fill="#c9bb67"/>
        </g>
      </g>
      <g id="Grupo_1099686" data-name="Grupo 1099686" transform="translate(669 7096.938)">
        <g id="Grupo_1099682-4" data-name="Grupo 1099682" transform="translate(0 0.001)" clip-path="url(#clip-path)">
          <path id="Trazado_874131-4" data-name="Trazado 874131" d="M710.234,1073.857H700.024a1.16,1.16,0,0,1-1.107-1.207q-.92-20.318,0-40.636a1.16,1.16,0,0,1,1.107-1.207h10.209a1.16,1.16,0,0,1,1.106,1.207c.626,11.521.478,25.546,0,40.636a1.16,1.16,0,0,1-1.106,1.207" transform="translate(-595.288 -878.547)" fill="#464555"/>
          <path id="Trazado_874132-4" data-name="Trazado 874132" d="M49.922,1073.857H39.713a1.16,1.16,0,0,1-1.106-1.207q-.92-20.318,0-40.636a1.16,1.16,0,0,1,1.106-1.207H49.922a1.16,1.16,0,0,1,1.106,1.207c.626,11.521.478,25.546,0,40.636a1.16,1.16,0,0,1-1.106,1.207" transform="translate(-32.512 -878.547)" fill="#464555"/>
          <path id="Trazado_874133-4" data-name="Trazado 874133" d="M59.015,1077.975H51.6a1.394,1.394,0,0,1,0-2.788h7.414a1.394,1.394,0,0,1,0,2.788" transform="translate(-42.791 -916.371)" fill="#575766"/>
          <path id="Trazado_874134-4" data-name="Trazado 874134" d="M59.015,1138.093H51.6a1.394,1.394,0,0,1,0-2.788h7.414a1.394,1.394,0,0,1,0,2.788" transform="translate(-42.791 -967.609)" fill="#575766"/>
          <path id="Trazado_874135-4" data-name="Trazado 874135" d="M59.015,1198.212H51.6a1.394,1.394,0,0,1,0-2.788h7.414a1.394,1.394,0,0,1,0,2.788" transform="translate(-42.791 -1018.847)" fill="#575766"/>
          <path id="Trazado_874136-4" data-name="Trazado 874136" d="M59.015,1258.331H51.6a1.394,1.394,0,0,1,0-2.788h7.414a1.394,1.394,0,0,1,0,2.788" transform="translate(-42.791 -1070.086)" fill="#575766"/>
          <path id="Trazado_874137-4" data-name="Trazado 874137" d="M717.745,1077.975h-7.414a1.394,1.394,0,0,1,0-2.788h7.414a1.394,1.394,0,1,1,0,2.788" transform="translate(-604.22 -916.371)" fill="#575766"/>
          <path id="Trazado_874138-4" data-name="Trazado 874138" d="M717.745,1138.093h-7.414a1.394,1.394,0,0,1,0-2.788h7.414a1.394,1.394,0,1,1,0,2.788" transform="translate(-604.22 -967.609)" fill="#575766"/>
          <path id="Trazado_874139-4" data-name="Trazado 874139" d="M717.745,1198.212h-7.414a1.394,1.394,0,0,1,0-2.788h7.414a1.394,1.394,0,1,1,0,2.788" transform="translate(-604.22 -1018.847)" fill="#575766"/>
          <path id="Trazado_874140-4" data-name="Trazado 874140" d="M717.745,1258.331h-7.414a1.394,1.394,0,0,1,0-2.788h7.414a1.394,1.394,0,1,1,0,2.788" transform="translate(-604.22 -1070.086)" fill="#575766"/>
          <path id="Trazado_874141-4" data-name="Trazado 874141" d="M166.975,193.5l-.328,5.608-.245,4.2-8.875,151.9a3.36,3.36,0,0,1-3.355,3.164H122.8l21.438-5.943a9.274,9.274,0,0,0,6.771-8.295L161.029,199.11H64.816l-.343-5.608Z" transform="translate(-54.95 -164.92)" fill="#989898"/>
          <path id="Trazado_874142-4" data-name="Trazado 874142" d="M163.011,231.467l-10.153,146.92a6.582,6.582,0,0,1-4.807,5.889l-23.27,6.453H79.7a3.359,3.359,0,0,1-3.354-3.154l-9.293-151.91-.257-4.2Z" transform="translate(-56.931 -197.277)" fill="#dededb"/>
          <path id="Trazado_874143-4" data-name="Trazado 874143" d="M146.507,193.5h8.128l2.709,32.06h-3.311Z" transform="translate(-124.866 -164.922)" fill="#999"/>
          <path id="Trazado_874144-4" data-name="Trazado 874144" d="M613.856,193.5h-8.128l-2.709,32.06h3.311Z" transform="translate(-513.946 -164.922)" fill="#999"/>
          <path id="Trazado_874145-4" data-name="Trazado 874145" d="M187.968,1.447A2.13,2.13,0,0,0,185.952,0H104.289a2.13,2.13,0,0,0-2.017,1.446l-4.339,12.8h94.374Z" transform="translate(-83.467 -0.001)" fill="#999"/>
          <path id="Trazado_874146-4" data-name="Trazado 874146" d="M119.921,110.8H2.257A2.257,2.257,0,0,1,0,108.544v-9.82a2.257,2.257,0,0,1,2.257-2.257H119.921a2.257,2.257,0,0,1,2.257,2.257v9.82a2.257,2.257,0,0,1-2.257,2.257" transform="translate(0 -82.218)" fill="#dcdcd9"/>
          <path id="Trazado_874147-4" data-name="Trazado 874147" d="M388.022,193.5h-4.428l2.727,32.06h3.4l2.727-32.06Z" transform="translate(-326.934 -164.922)" fill="#989898"/>
        </g>
      </g>
      <g id="Grupo_1099687" data-name="Grupo 1099687" transform="translate(809 7096.938)">
        <g id="Grupo_1099682-5" data-name="Grupo 1099682" transform="translate(0 0.001)" clip-path="url(#clip-path)">
          <path id="Trazado_874131-5" data-name="Trazado 874131" d="M710.234,1073.857H700.024a1.16,1.16,0,0,1-1.107-1.207q-.92-20.318,0-40.636a1.16,1.16,0,0,1,1.107-1.207h10.209a1.16,1.16,0,0,1,1.106,1.207c.626,11.521.478,25.546,0,40.636a1.16,1.16,0,0,1-1.106,1.207" transform="translate(-595.288 -878.547)" fill="#464555"/>
          <path id="Trazado_874132-5" data-name="Trazado 874132" d="M49.922,1073.857H39.713a1.16,1.16,0,0,1-1.106-1.207q-.92-20.318,0-40.636a1.16,1.16,0,0,1,1.106-1.207H49.922a1.16,1.16,0,0,1,1.106,1.207c.626,11.521.478,25.546,0,40.636a1.16,1.16,0,0,1-1.106,1.207" transform="translate(-32.512 -878.547)" fill="#464555"/>
          <path id="Trazado_874133-5" data-name="Trazado 874133" d="M59.015,1077.975H51.6a1.394,1.394,0,0,1,0-2.788h7.414a1.394,1.394,0,0,1,0,2.788" transform="translate(-42.791 -916.371)" fill="#575766"/>
          <path id="Trazado_874134-5" data-name="Trazado 874134" d="M59.015,1138.093H51.6a1.394,1.394,0,0,1,0-2.788h7.414a1.394,1.394,0,0,1,0,2.788" transform="translate(-42.791 -967.609)" fill="#575766"/>
          <path id="Trazado_874135-5" data-name="Trazado 874135" d="M59.015,1198.212H51.6a1.394,1.394,0,0,1,0-2.788h7.414a1.394,1.394,0,0,1,0,2.788" transform="translate(-42.791 -1018.847)" fill="#575766"/>
          <path id="Trazado_874136-5" data-name="Trazado 874136" d="M59.015,1258.331H51.6a1.394,1.394,0,0,1,0-2.788h7.414a1.394,1.394,0,0,1,0,2.788" transform="translate(-42.791 -1070.086)" fill="#575766"/>
          <path id="Trazado_874137-5" data-name="Trazado 874137" d="M717.745,1077.975h-7.414a1.394,1.394,0,0,1,0-2.788h7.414a1.394,1.394,0,1,1,0,2.788" transform="translate(-604.22 -916.371)" fill="#575766"/>
          <path id="Trazado_874138-5" data-name="Trazado 874138" d="M717.745,1138.093h-7.414a1.394,1.394,0,0,1,0-2.788h7.414a1.394,1.394,0,1,1,0,2.788" transform="translate(-604.22 -967.609)" fill="#575766"/>
          <path id="Trazado_874139-5" data-name="Trazado 874139" d="M717.745,1198.212h-7.414a1.394,1.394,0,0,1,0-2.788h7.414a1.394,1.394,0,1,1,0,2.788" transform="translate(-604.22 -1018.847)" fill="#575766"/>
          <path id="Trazado_874140-5" data-name="Trazado 874140" d="M717.745,1258.331h-7.414a1.394,1.394,0,0,1,0-2.788h7.414a1.394,1.394,0,1,1,0,2.788" transform="translate(-604.22 -1070.086)" fill="#575766"/>
          <path id="Trazado_874141-5" data-name="Trazado 874141" d="M166.975,193.5l-.328,5.608-.245,4.2-8.875,151.9a3.36,3.36,0,0,1-3.355,3.164H122.8l21.438-5.943a9.274,9.274,0,0,0,6.771-8.295L161.029,199.11H64.816l-.343-5.608Z" transform="translate(-54.95 -164.92)" fill="#569cb5"/>
          <path id="Trazado_874142-5" data-name="Trazado 874142" d="M163.011,231.467l-10.153,146.92a6.582,6.582,0,0,1-4.807,5.889l-23.27,6.453H79.7a3.359,3.359,0,0,1-3.354-3.154l-9.293-151.91-.257-4.2Z" transform="translate(-56.931 -197.277)" fill="#8fc4d7"/>
          <path id="Trazado_874143-5" data-name="Trazado 874143" d="M146.507,193.5h8.128l2.709,32.06h-3.311Z" transform="translate(-124.866 -164.922)" fill="#569cb5"/>
          <path id="Trazado_874144-5" data-name="Trazado 874144" d="M613.856,193.5h-8.128l-2.709,32.06h3.311Z" transform="translate(-513.946 -164.922)" fill="#569cb5"/>
          <path id="Trazado_874145-5" data-name="Trazado 874145" d="M187.968,1.447A2.13,2.13,0,0,0,185.952,0H104.289a2.13,2.13,0,0,0-2.017,1.446l-4.339,12.8h94.374Z" transform="translate(-83.467 -0.001)" fill="#569cb5"/>
          <path id="Trazado_874146-5" data-name="Trazado 874146" d="M119.921,110.8H2.257A2.257,2.257,0,0,1,0,108.544v-9.82a2.257,2.257,0,0,1,2.257-2.257H119.921a2.257,2.257,0,0,1,2.257,2.257v9.82a2.257,2.257,0,0,1-2.257,2.257" transform="translate(0 -82.218)" fill="#91c3d5"/>
          <path id="Trazado_874147-5" data-name="Trazado 874147" d="M388.022,193.5h-4.428l2.727,32.06h3.4l2.727-32.06Z" transform="translate(-326.934 -164.922)" fill="#569cb5"/>
          <path id="Trazado_874148" data-name="Trazado 874148" d="M348.147,634.9l2.674,4.633-3.847,6.663-5.49-3.17,5.232-9.062c.049-.085.1-.168.158-.247a2.991,2.991,0,0,1,1.273,1.183" transform="translate(-291.043 -540.109)" fill="#fff"/>
          <path id="Trazado_874149" data-name="Trazado 874149" d="M397.654,631.772l-2.116,7.889-7.89-2.113,2.258-1.3-2.8-4.855-.758-1.314-2.4-4.158a3.921,3.921,0,0,0-1.425-1.425,3.434,3.434,0,0,1,2.152-.757h3.345A3.442,3.442,0,0,1,391,625.458l4.4,7.618Z" transform="translate(-326.018 -531.605)" fill="#fff"/>
          <path id="Trazado_874150" data-name="Trazado 874150" d="M470.063,746.019l-5.35-.014-3.83-6.673,5.5-3.156,5.21,9.076c.049.085.094.172.135.261a2.989,2.989,0,0,1-1.662.506" transform="translate(-392.806 -627.435)" fill="#fff"/>
          <path id="Trazado_874151" data-name="Trazado 874151" d="M408.908,802.95l-5.76-5.791,5.789-5.762L408.93,794l5.606.014,1.517,0,4.8.012a3.925,3.925,0,0,0,1.948-.517,3.434,3.434,0,0,1-.426,2.241l-1.68,2.893a3.442,3.442,0,0,1-2.985,1.714l-8.8-.022Z" transform="translate(-343.599 -674.5)" fill="#fff"/>
          <path id="Trazado_874152" data-name="Trazado 874152" d="M313.186,813.489l2.682-4.629,7.694.012-.009,6.339-10.465-.016c-.1,0-.2,0-.293-.013a2.99,2.99,0,0,1,.391-1.693" transform="translate(-266.586 -689.383)" fill="#fff"/>
          <path id="Trazado_874153" data-name="Trazado 874153" d="M282.868,724.642l7.893-2.1,2.1,7.892-2.255-1.307-2.81,4.851-.761,1.313-2.407,4.154a3.923,3.923,0,0,0-.524,1.945,3.434,3.434,0,0,1-1.73-1.488L280.71,737a3.443,3.443,0,0,1,.005-3.442l4.409-7.612Z" transform="translate(-238.855 -615.814)" fill="#fff"/>
          <path id="Trazado_874154" data-name="Trazado 874154" d="M348.147,634.9l2.674,4.633-3.847,6.663-5.49-3.17,5.232-9.062c.049-.085.1-.168.158-.247a2.991,2.991,0,0,1,1.273,1.183" transform="translate(-291.043 -540.109)" fill="#12263f"/>
          <path id="Trazado_874155" data-name="Trazado 874155" d="M397.654,631.772l-2.116,7.889-7.89-2.113,2.258-1.3-2.8-4.855-.758-1.314-2.4-4.158a3.921,3.921,0,0,0-1.425-1.425,3.434,3.434,0,0,1,2.152-.757h3.345A3.442,3.442,0,0,1,391,625.458l4.4,7.618Z" transform="translate(-326.018 -531.604)" fill="#12263f"/>
          <path id="Trazado_874156" data-name="Trazado 874156" d="M470.063,746.019l-5.35-.014-3.83-6.673,5.5-3.156,5.21,9.076c.049.085.094.172.135.261a2.989,2.989,0,0,1-1.662.506" transform="translate(-392.806 -627.435)" fill="#12263f"/>
          <path id="Trazado_874157" data-name="Trazado 874157" d="M408.908,802.95l-5.76-5.791,5.789-5.762L408.93,794l5.606.014,1.517,0,4.8.012a3.925,3.925,0,0,0,1.948-.517,3.434,3.434,0,0,1-.426,2.241l-1.68,2.893a3.442,3.442,0,0,1-2.985,1.714l-8.8-.022Z" transform="translate(-343.599 -674.5)" fill="#12263f"/>
          <path id="Trazado_874158" data-name="Trazado 874158" d="M313.186,813.489l2.682-4.629,7.694.012-.009,6.339-10.465-.016c-.1,0-.2,0-.293-.013a2.99,2.99,0,0,1,.391-1.693" transform="translate(-266.586 -689.383)" fill="#12263f"/>
          <path id="Trazado_874159" data-name="Trazado 874159" d="M282.868,724.642l7.893-2.1,2.1,7.892-2.255-1.307-2.81,4.851-.761,1.313-2.407,4.154a3.923,3.923,0,0,0-.524,1.945,3.434,3.434,0,0,1-1.73-1.488L280.71,737a3.443,3.443,0,0,1,.005-3.442l4.409-7.612Z" transform="translate(-238.855 -615.814)" fill="#12263f"/>
        </g>
      </g>
      <g id="Grupo_1099688" data-name="Grupo 1099688" transform="translate(949 7096.938)">
        <g id="Grupo_1099682-6" data-name="Grupo 1099682" transform="translate(0 0.001)" clip-path="url(#clip-path)">
          <path id="Trazado_874131-6" data-name="Trazado 874131" d="M710.234,1073.857H700.024a1.16,1.16,0,0,1-1.107-1.207q-.92-20.318,0-40.636a1.16,1.16,0,0,1,1.107-1.207h10.209a1.16,1.16,0,0,1,1.106,1.207c.626,11.521.478,25.546,0,40.636a1.16,1.16,0,0,1-1.106,1.207" transform="translate(-595.288 -878.547)" fill="#464555"/>
          <path id="Trazado_874132-6" data-name="Trazado 874132" d="M49.922,1073.857H39.713a1.16,1.16,0,0,1-1.106-1.207q-.92-20.318,0-40.636a1.16,1.16,0,0,1,1.106-1.207H49.922a1.16,1.16,0,0,1,1.106,1.207c.626,11.521.478,25.546,0,40.636a1.16,1.16,0,0,1-1.106,1.207" transform="translate(-32.512 -878.547)" fill="#464555"/>
          <path id="Trazado_874133-6" data-name="Trazado 874133" d="M59.015,1077.975H51.6a1.394,1.394,0,0,1,0-2.788h7.414a1.394,1.394,0,0,1,0,2.788" transform="translate(-42.791 -916.371)" fill="#575766"/>
          <path id="Trazado_874134-6" data-name="Trazado 874134" d="M59.015,1138.093H51.6a1.394,1.394,0,0,1,0-2.788h7.414a1.394,1.394,0,0,1,0,2.788" transform="translate(-42.791 -967.609)" fill="#575766"/>
          <path id="Trazado_874135-6" data-name="Trazado 874135" d="M59.015,1198.212H51.6a1.394,1.394,0,0,1,0-2.788h7.414a1.394,1.394,0,0,1,0,2.788" transform="translate(-42.791 -1018.847)" fill="#575766"/>
          <path id="Trazado_874136-6" data-name="Trazado 874136" d="M59.015,1258.331H51.6a1.394,1.394,0,0,1,0-2.788h7.414a1.394,1.394,0,0,1,0,2.788" transform="translate(-42.791 -1070.086)" fill="#575766"/>
          <path id="Trazado_874137-6" data-name="Trazado 874137" d="M717.745,1077.975h-7.414a1.394,1.394,0,0,1,0-2.788h7.414a1.394,1.394,0,1,1,0,2.788" transform="translate(-604.22 -916.371)" fill="#575766"/>
          <path id="Trazado_874138-6" data-name="Trazado 874138" d="M717.745,1138.093h-7.414a1.394,1.394,0,0,1,0-2.788h7.414a1.394,1.394,0,1,1,0,2.788" transform="translate(-604.22 -967.609)" fill="#575766"/>
          <path id="Trazado_874139-6" data-name="Trazado 874139" d="M717.745,1198.212h-7.414a1.394,1.394,0,0,1,0-2.788h7.414a1.394,1.394,0,1,1,0,2.788" transform="translate(-604.22 -1018.847)" fill="#575766"/>
          <path id="Trazado_874140-6" data-name="Trazado 874140" d="M717.745,1258.331h-7.414a1.394,1.394,0,0,1,0-2.788h7.414a1.394,1.394,0,1,1,0,2.788" transform="translate(-604.22 -1070.086)" fill="#575766"/>
          <path id="Trazado_874141-6" data-name="Trazado 874141" d="M166.975,193.5l-.328,5.608-.245,4.2-8.875,151.9a3.36,3.36,0,0,1-3.355,3.164H122.8l21.438-5.943a9.274,9.274,0,0,0,6.771-8.295L161.029,199.11H64.816l-.343-5.608Z" transform="translate(-54.95 -164.92)" fill="#cbcbcb"/>
          <path id="Trazado_874142-6" data-name="Trazado 874142" d="M163.011,231.467l-10.153,146.92a6.582,6.582,0,0,1-4.807,5.889l-23.27,6.453H79.7a3.359,3.359,0,0,1-3.354-3.154l-9.293-151.91-.257-4.2Z" transform="translate(-56.931 -197.277)" fill="#fdfdfd"/>
          <path id="Trazado_874143-6" data-name="Trazado 874143" d="M146.507,193.5h8.128l2.709,32.06h-3.311Z" transform="translate(-124.866 -164.922)" fill="#cacaca"/>
          <path id="Trazado_874144-6" data-name="Trazado 874144" d="M613.856,193.5h-8.128l-2.709,32.06h3.311Z" transform="translate(-513.946 -164.922)" fill="#cacaca"/>
          <path id="Trazado_874145-6" data-name="Trazado 874145" d="M187.968,1.447A2.13,2.13,0,0,0,185.952,0H104.289a2.13,2.13,0,0,0-2.017,1.446l-4.339,12.8h94.374Z" transform="translate(-83.467 -0.001)" fill="#cacaca"/>
          <path id="Trazado_874146-6" data-name="Trazado 874146" d="M119.921,110.8H2.257A2.257,2.257,0,0,1,0,108.544v-9.82a2.257,2.257,0,0,1,2.257-2.257H119.921a2.257,2.257,0,0,1,2.257,2.257v9.82a2.257,2.257,0,0,1-2.257,2.257" transform="translate(0 -82.218)" fill="#fdfdfd"/>
          <path id="Trazado_874147-6" data-name="Trazado 874147" d="M388.022,193.5h-4.428l2.727,32.06h3.4l2.727-32.06Z" transform="translate(-326.934 -164.922)" fill="#cacaca"/>
          <path id="Trazado_874148-2" data-name="Trazado 874148" d="M348.147,634.9l2.674,4.633-3.847,6.663-5.49-3.17,5.232-9.062c.049-.085.1-.168.158-.247a2.991,2.991,0,0,1,1.273,1.183" transform="translate(-291.043 -540.109)" fill="#12263f"/>
          <path id="Trazado_874149-2" data-name="Trazado 874149" d="M397.654,631.772l-2.116,7.889-7.89-2.113,2.258-1.3-2.8-4.855-.758-1.314-2.4-4.158a3.921,3.921,0,0,0-1.425-1.425,3.434,3.434,0,0,1,2.152-.757h3.345A3.442,3.442,0,0,1,391,625.458l4.4,7.618Z" transform="translate(-326.018 -531.605)" fill="#12263f"/>
          <path id="Trazado_874150-2" data-name="Trazado 874150" d="M470.063,746.019l-5.35-.014-3.83-6.673,5.5-3.156,5.21,9.076c.049.085.094.172.135.261a2.989,2.989,0,0,1-1.662.506" transform="translate(-392.806 -627.435)" fill="#12263f"/>
          <path id="Trazado_874151-2" data-name="Trazado 874151" d="M408.908,802.95l-5.76-5.791,5.789-5.762L408.93,794l5.606.014,1.517,0,4.8.012a3.925,3.925,0,0,0,1.948-.517,3.434,3.434,0,0,1-.426,2.241l-1.68,2.893a3.442,3.442,0,0,1-2.985,1.714l-8.8-.022Z" transform="translate(-343.599 -674.5)" fill="#12263f"/>
          <path id="Trazado_874152-2" data-name="Trazado 874152" d="M313.186,813.489l2.682-4.629,7.694.012-.009,6.339-10.465-.016c-.1,0-.2,0-.293-.013a2.99,2.99,0,0,1,.391-1.693" transform="translate(-266.586 -689.383)" fill="#12263f"/>
          <path id="Trazado_874153-2" data-name="Trazado 874153" d="M282.868,724.642l7.893-2.1,2.1,7.892-2.255-1.307-2.81,4.851-.761,1.313-2.407,4.154a3.923,3.923,0,0,0-.524,1.945,3.434,3.434,0,0,1-1.73-1.488L280.71,737a3.443,3.443,0,0,1,.005-3.442l4.409-7.612Z" transform="translate(-238.855 -615.814)" fill="#12263f"/>
        </g>
      </g>
      <g id="Grupo_1099689" data-name="Grupo 1099689" transform="translate(1090 7096.938)">
        <g id="Grupo_1099682-7" data-name="Grupo 1099682" transform="translate(0 0.001)" clip-path="url(#clip-path)">
          <path id="Trazado_874131-7" data-name="Trazado 874131" d="M710.234,1073.857H700.024a1.16,1.16,0,0,1-1.107-1.207q-.92-20.318,0-40.636a1.16,1.16,0,0,1,1.107-1.207h10.209a1.16,1.16,0,0,1,1.106,1.207c.626,11.521.478,25.546,0,40.636a1.16,1.16,0,0,1-1.106,1.207" transform="translate(-595.288 -878.547)" fill="#464555"/>
          <path id="Trazado_874132-7" data-name="Trazado 874132" d="M49.922,1073.857H39.713a1.16,1.16,0,0,1-1.106-1.207q-.92-20.318,0-40.636a1.16,1.16,0,0,1,1.106-1.207H49.922a1.16,1.16,0,0,1,1.106,1.207c.626,11.521.478,25.546,0,40.636a1.16,1.16,0,0,1-1.106,1.207" transform="translate(-32.512 -878.547)" fill="#464555"/>
          <path id="Trazado_874133-7" data-name="Trazado 874133" d="M59.015,1077.975H51.6a1.394,1.394,0,0,1,0-2.788h7.414a1.394,1.394,0,0,1,0,2.788" transform="translate(-42.791 -916.371)" fill="#575766"/>
          <path id="Trazado_874134-7" data-name="Trazado 874134" d="M59.015,1138.093H51.6a1.394,1.394,0,0,1,0-2.788h7.414a1.394,1.394,0,0,1,0,2.788" transform="translate(-42.791 -967.609)" fill="#575766"/>
          <path id="Trazado_874135-7" data-name="Trazado 874135" d="M59.015,1198.212H51.6a1.394,1.394,0,0,1,0-2.788h7.414a1.394,1.394,0,0,1,0,2.788" transform="translate(-42.791 -1018.847)" fill="#575766"/>
          <path id="Trazado_874136-7" data-name="Trazado 874136" d="M59.015,1258.331H51.6a1.394,1.394,0,0,1,0-2.788h7.414a1.394,1.394,0,0,1,0,2.788" transform="translate(-42.791 -1070.086)" fill="#575766"/>
          <path id="Trazado_874137-7" data-name="Trazado 874137" d="M717.745,1077.975h-7.414a1.394,1.394,0,0,1,0-2.788h7.414a1.394,1.394,0,1,1,0,2.788" transform="translate(-604.22 -916.371)" fill="#575766"/>
          <path id="Trazado_874138-7" data-name="Trazado 874138" d="M717.745,1138.093h-7.414a1.394,1.394,0,0,1,0-2.788h7.414a1.394,1.394,0,1,1,0,2.788" transform="translate(-604.22 -967.609)" fill="#575766"/>
          <path id="Trazado_874139-7" data-name="Trazado 874139" d="M717.745,1198.212h-7.414a1.394,1.394,0,0,1,0-2.788h7.414a1.394,1.394,0,1,1,0,2.788" transform="translate(-604.22 -1018.847)" fill="#575766"/>
          <path id="Trazado_874140-7" data-name="Trazado 874140" d="M717.745,1258.331h-7.414a1.394,1.394,0,0,1,0-2.788h7.414a1.394,1.394,0,1,1,0,2.788" transform="translate(-604.22 -1070.086)" fill="#575766"/>
          <path id="Trazado_874141-7" data-name="Trazado 874141" d="M166.975,193.5l-.328,5.608-.245,4.2-8.875,151.9a3.36,3.36,0,0,1-3.355,3.164H122.8l21.438-5.943a9.274,9.274,0,0,0,6.771-8.295L161.029,199.11H64.816l-.343-5.608Z" transform="translate(-54.95 -164.92)" fill="#6c0a0a"/>
          <path id="Trazado_874142-7" data-name="Trazado 874142" d="M163.011,231.467l-10.153,146.92a6.582,6.582,0,0,1-4.807,5.889l-23.27,6.453H79.7a3.359,3.359,0,0,1-3.354-3.154l-9.293-151.91-.257-4.2Z" transform="translate(-56.931 -197.277)" fill="#955858"/>
          <path id="Trazado_874143-7" data-name="Trazado 874143" d="M146.507,193.5h8.128l2.709,32.06h-3.311Z" transform="translate(-124.866 -164.922)" fill="#6c0a0a"/>
          <path id="Trazado_874144-7" data-name="Trazado 874144" d="M613.856,193.5h-8.128l-2.709,32.06h3.311Z" transform="translate(-513.946 -164.922)" fill="#6f1212"/>
          <path id="Trazado_874145-7" data-name="Trazado 874145" d="M187.968,1.447A2.13,2.13,0,0,0,185.952,0H104.289a2.13,2.13,0,0,0-2.017,1.446l-4.339,12.8h94.374Z" transform="translate(-83.467 -0.001)" fill="#965d5d"/>
          <path id="Trazado_874146-7" data-name="Trazado 874146" d="M119.921,110.8H2.257A2.257,2.257,0,0,1,0,108.544v-9.82a2.257,2.257,0,0,1,2.257-2.257H119.921a2.257,2.257,0,0,1,2.257,2.257v9.82a2.257,2.257,0,0,1-2.257,2.257" transform="translate(0 -82.218)" fill="#965d5d"/>
          <path id="Trazado_874147-7" data-name="Trazado 874147" d="M388.022,193.5h-4.428l2.727,32.06h3.4l2.727-32.06Z" transform="translate(-326.934 -164.922)" fill="#6f1212"/>
          <path id="Trazado_874148-3" data-name="Trazado 874148" d="M348.147,634.9l2.674,4.633-3.847,6.663-5.49-3.17,5.232-9.062c.049-.085.1-.168.158-.247a2.991,2.991,0,0,1,1.273,1.183" transform="translate(-291.043 -540.109)" fill="#12263f"/>
          <path id="Trazado_874149-3" data-name="Trazado 874149" d="M397.654,631.772l-2.116,7.889-7.89-2.113,2.258-1.3-2.8-4.855-.758-1.314-2.4-4.158a3.921,3.921,0,0,0-1.425-1.425,3.434,3.434,0,0,1,2.152-.757h3.345A3.442,3.442,0,0,1,391,625.458l4.4,7.618Z" transform="translate(-326.018 -531.605)" fill="#12263f"/>
          <path id="Trazado_874150-3" data-name="Trazado 874150" d="M470.063,746.019l-5.35-.014-3.83-6.673,5.5-3.156,5.21,9.076c.049.085.094.172.135.261a2.989,2.989,0,0,1-1.662.506" transform="translate(-392.806 -627.435)" fill="#12263f"/>
          <path id="Trazado_874151-3" data-name="Trazado 874151" d="M408.908,802.95l-5.76-5.791,5.789-5.762L408.93,794l5.606.014,1.517,0,4.8.012a3.925,3.925,0,0,0,1.948-.517,3.434,3.434,0,0,1-.426,2.241l-1.68,2.893a3.442,3.442,0,0,1-2.985,1.714l-8.8-.022Z" transform="translate(-343.599 -674.5)" fill="#12263f"/>
          <path id="Trazado_874152-3" data-name="Trazado 874152" d="M313.186,813.489l2.682-4.629,7.694.012-.009,6.339-10.465-.016c-.1,0-.2,0-.293-.013a2.99,2.99,0,0,1,.391-1.693" transform="translate(-266.586 -689.383)" fill="#12263f"/>
          <path id="Trazado_874153-3" data-name="Trazado 874153" d="M282.868,724.642l7.893-2.1,2.1,7.892-2.255-1.307-2.81,4.851-.761,1.313-2.407,4.154a3.923,3.923,0,0,0-.524,1.945,3.434,3.434,0,0,1-1.73-1.488L280.71,737a3.443,3.443,0,0,1,.005-3.442l4.409-7.612Z" transform="translate(-238.855 -615.814)" fill="#12263f"/>
        </g>
      </g>
      <g id="Grupo_1099690" data-name="Grupo 1099690" transform="translate(1230 7096.938)">
        <g id="Grupo_1099682-8" data-name="Grupo 1099682" transform="translate(0 0.001)" clip-path="url(#clip-path)">
          <path id="Trazado_874131-8" data-name="Trazado 874131" d="M710.234,1073.857H700.024a1.16,1.16,0,0,1-1.107-1.207q-.92-20.318,0-40.636a1.16,1.16,0,0,1,1.107-1.207h10.209a1.16,1.16,0,0,1,1.106,1.207c.626,11.521.478,25.546,0,40.636a1.16,1.16,0,0,1-1.106,1.207" transform="translate(-595.288 -878.547)" fill="#464555"/>
          <path id="Trazado_874132-8" data-name="Trazado 874132" d="M49.922,1073.857H39.713a1.16,1.16,0,0,1-1.106-1.207q-.92-20.318,0-40.636a1.16,1.16,0,0,1,1.106-1.207H49.922a1.16,1.16,0,0,1,1.106,1.207c.626,11.521.478,25.546,0,40.636a1.16,1.16,0,0,1-1.106,1.207" transform="translate(-32.512 -878.547)" fill="#464555"/>
          <path id="Trazado_874133-8" data-name="Trazado 874133" d="M59.015,1077.975H51.6a1.394,1.394,0,0,1,0-2.788h7.414a1.394,1.394,0,0,1,0,2.788" transform="translate(-42.791 -916.371)" fill="#575766"/>
          <path id="Trazado_874134-8" data-name="Trazado 874134" d="M59.015,1138.093H51.6a1.394,1.394,0,0,1,0-2.788h7.414a1.394,1.394,0,0,1,0,2.788" transform="translate(-42.791 -967.609)" fill="#575766"/>
          <path id="Trazado_874135-8" data-name="Trazado 874135" d="M59.015,1198.212H51.6a1.394,1.394,0,0,1,0-2.788h7.414a1.394,1.394,0,0,1,0,2.788" transform="translate(-42.791 -1018.847)" fill="#575766"/>
          <path id="Trazado_874136-8" data-name="Trazado 874136" d="M59.015,1258.331H51.6a1.394,1.394,0,0,1,0-2.788h7.414a1.394,1.394,0,0,1,0,2.788" transform="translate(-42.791 -1070.086)" fill="#575766"/>
          <path id="Trazado_874137-8" data-name="Trazado 874137" d="M717.745,1077.975h-7.414a1.394,1.394,0,0,1,0-2.788h7.414a1.394,1.394,0,1,1,0,2.788" transform="translate(-604.22 -916.371)" fill="#575766"/>
          <path id="Trazado_874138-8" data-name="Trazado 874138" d="M717.745,1138.093h-7.414a1.394,1.394,0,0,1,0-2.788h7.414a1.394,1.394,0,1,1,0,2.788" transform="translate(-604.22 -967.609)" fill="#575766"/>
          <path id="Trazado_874139-8" data-name="Trazado 874139" d="M717.745,1198.212h-7.414a1.394,1.394,0,0,1,0-2.788h7.414a1.394,1.394,0,1,1,0,2.788" transform="translate(-604.22 -1018.847)" fill="#575766"/>
          <path id="Trazado_874140-8" data-name="Trazado 874140" d="M717.745,1258.331h-7.414a1.394,1.394,0,0,1,0-2.788h7.414a1.394,1.394,0,1,1,0,2.788" transform="translate(-604.22 -1070.086)" fill="#575766"/>
          <path id="Trazado_874141-8" data-name="Trazado 874141" d="M166.975,193.5l-.328,5.608-.245,4.2-8.875,151.9a3.36,3.36,0,0,1-3.355,3.164H122.8l21.438-5.943a9.274,9.274,0,0,0,6.771-8.295L161.029,199.11H64.816l-.343-5.608Z" transform="translate(-54.95 -164.92)" fill="#9f1616"/>
          <path id="Trazado_874142-8" data-name="Trazado 874142" d="M163.011,231.467l-10.153,146.92a6.582,6.582,0,0,1-4.807,5.889l-23.27,6.453H79.7a3.359,3.359,0,0,1-3.354-3.154l-9.293-151.91-.257-4.2Z" transform="translate(-56.931 -197.277)" fill="#de5b5b"/>
          <path id="Trazado_874143-8" data-name="Trazado 874143" d="M146.507,193.5h8.128l2.709,32.06h-3.311Z" transform="translate(-119.776 -164.922)" fill="#9f1616"/>
          <path id="Trazado_874144-8" data-name="Trazado 874144" d="M613.856,193.5h-8.128l-2.709,32.06h3.311Z" transform="translate(-508.856 -164.922)" fill="#9f1616"/>
          <path id="Trazado_874145-8" data-name="Trazado 874145" d="M187.968,1.447A2.13,2.13,0,0,0,185.952,0H104.289a2.13,2.13,0,0,0-2.017,1.446l-4.339,12.8h94.374Z" transform="translate(-83.467 -0.001)" fill="#9f1616"/>
          <path id="Trazado_874146-8" data-name="Trazado 874146" d="M119.921,110.8H2.257A2.257,2.257,0,0,1,0,108.544v-9.82a2.257,2.257,0,0,1,2.257-2.257H119.921a2.257,2.257,0,0,1,2.257,2.257v9.82a2.257,2.257,0,0,1-2.257,2.257" transform="translate(0 -82.218)" fill="#dc5f5f"/>
          <path id="Trazado_874147-8" data-name="Trazado 874147" d="M388.022,193.5h-4.428l2.727,32.06h3.4l2.727-32.06Z" transform="translate(-321.844 -164.922)" fill="#9f1616"/>
        </g>
      </g>
      <path id="Trazado_874394" data-name="Trazado 874394" d="M10.234-5.391a6.979,6.979,0,0,1-.578,2.934A4.371,4.371,0,0,1,8-.52,4.545,4.545,0,0,1,5.531.156,4.556,4.556,0,0,1,3.066-.52,4.438,4.438,0,0,1,1.395-2.445,6.761,6.761,0,0,1,.8-5.328v-.641a6.919,6.919,0,0,1,.59-2.937,4.433,4.433,0,0,1,1.664-1.949,4.531,4.531,0,0,1,2.465-.676,4.57,4.57,0,0,1,2.465.668,4.377,4.377,0,0,1,1.66,1.922,6.9,6.9,0,0,1,.594,2.918ZM8.258-5.984a4.973,4.973,0,0,0-.715-2.9A2.339,2.339,0,0,0,5.516-9.891a2.332,2.332,0,0,0-2,1,4.876,4.876,0,0,0-.738,2.84v.656a4.935,4.935,0,0,0,.73,2.9A2.352,2.352,0,0,0,5.531-1.469a2.325,2.325,0,0,0,2.02-1,5.041,5.041,0,0,0,.707-2.922Zm8.188-.734a4.7,4.7,0,0,0-.773-.062,1.741,1.741,0,0,0-1.758,1V0h-1.9V-8.453h1.813l.047.945a2.139,2.139,0,0,1,1.906-1.1,1.777,1.777,0,0,1,.672.109Zm.867,2.43a4.944,4.944,0,0,1,.926-3.145A2.971,2.971,0,0,1,20.7-8.609,2.784,2.784,0,0,1,22.969-7.6l.086-.852h1.711v8.2A3.406,3.406,0,0,1,23.73,2.367a3.943,3.943,0,0,1-2.793.961,4.5,4.5,0,0,1-1.816-.387A3.227,3.227,0,0,1,17.773,1.93l.9-1.141a2.713,2.713,0,0,0,2.156,1.039,2.1,2.1,0,0,0,1.492-.512,1.961,1.961,0,0,0,.547-1.5v-.57A2.8,2.8,0,0,1,20.68.156a2.964,2.964,0,0,1-2.426-1.18A5.1,5.1,0,0,1,17.313-4.289Zm1.891.164a3.4,3.4,0,0,0,.52,2,1.671,1.671,0,0,0,1.441.73,1.827,1.827,0,0,0,1.7-.984V-6.094a1.8,1.8,0,0,0-1.687-.961,1.677,1.677,0,0,0-1.457.742A3.811,3.811,0,0,0,19.2-4.125ZM31.766,0a2.93,2.93,0,0,1-.219-.789,2.955,2.955,0,0,1-2.219.945A2.982,2.982,0,0,1,27.25-.57a2.325,2.325,0,0,1-.8-1.8,2.4,2.4,0,0,1,1-2.074,4.865,4.865,0,0,1,2.871-.723h1.164v-.555a1.481,1.481,0,0,0-.367-1.051A1.456,1.456,0,0,0,30-7.164a1.672,1.672,0,0,0-1.062.324,1,1,0,0,0-.414.824h-1.9a2.107,2.107,0,0,1,.461-1.3,3.071,3.071,0,0,1,1.254-.949,4.4,4.4,0,0,1,1.77-.344,3.547,3.547,0,0,1,2.367.746,2.661,2.661,0,0,1,.906,2.1v3.813a4.321,4.321,0,0,0,.32,1.82V0ZM29.68-1.367a2.159,2.159,0,0,0,1.059-.273,1.827,1.827,0,0,0,.746-.734V-3.969H30.461a2.8,2.8,0,0,0-1.586.367,1.189,1.189,0,0,0-.531,1.039,1.109,1.109,0,0,0,.363.871A1.407,1.407,0,0,0,29.68-1.367ZM30.734-12H32.9L30.734-9.633l-1.523,0Zm6.4,3.547.055.977a3.039,3.039,0,0,1,2.461-1.133q2.641,0,2.688,3.023V0h-1.9V-5.477a1.741,1.741,0,0,0-.348-1.191,1.462,1.462,0,0,0-1.137-.387,1.829,1.829,0,0,0-1.711,1.039V0h-1.9V-8.453ZM46.289,0h-1.9V-8.453h1.9ZM44.273-10.648a1.008,1.008,0,0,1,.277-.727,1.048,1.048,0,0,1,.793-.289,1.061,1.061,0,0,1,.8.289,1,1,0,0,1,.281.727.977.977,0,0,1-.281.715,1.069,1.069,0,0,1-.8.285,1.056,1.056,0,0,1-.793-.285A.984.984,0,0,1,44.273-10.648Zm7.555,9.289a1.716,1.716,0,0,0,1.18-.414,1.415,1.415,0,0,0,.5-1.023H55.3A2.789,2.789,0,0,1,54.8-1.324a3.228,3.228,0,0,1-1.25,1.082,3.725,3.725,0,0,1-1.7.4A3.6,3.6,0,0,1,49.039-.992,4.555,4.555,0,0,1,48-4.164v-.2a4.479,4.479,0,0,1,1.031-3.09,3.571,3.571,0,0,1,2.813-1.16A3.473,3.473,0,0,1,54.3-7.73a3.148,3.148,0,0,1,1,2.309H53.508a1.738,1.738,0,0,0-.5-1.2,1.6,1.6,0,0,0-1.184-.469,1.671,1.671,0,0,0-1.422.668A3.408,3.408,0,0,0,49.9-4.391v.3a3.465,3.465,0,0,0,.5,2.051A1.669,1.669,0,0,0,51.828-1.359ZM56.375-4.3a4.984,4.984,0,0,1,.492-2.238A3.6,3.6,0,0,1,58.25-8.074,3.9,3.9,0,0,1,60.3-8.609a3.692,3.692,0,0,1,2.777,1.1,4.333,4.333,0,0,1,1.152,2.922l.008.445a5.029,5.029,0,0,1-.48,2.234A3.551,3.551,0,0,1,62.379-.383a3.925,3.925,0,0,1-2.066.539,3.667,3.667,0,0,1-2.863-1.191,4.563,4.563,0,0,1-1.074-3.176Zm1.9.164A3.406,3.406,0,0,0,58.813-2.1a1.752,1.752,0,0,0,1.5.738,1.733,1.733,0,0,0,1.5-.75,3.762,3.762,0,0,0,.535-2.2,3.362,3.362,0,0,0-.551-2.031,1.759,1.759,0,0,0-1.5-.75,1.743,1.743,0,0,0-1.477.738A3.691,3.691,0,0,0,58.273-4.141ZM70.578-2.3a.861.861,0,0,0-.418-.773,4.445,4.445,0,0,0-1.387-.469,7.129,7.129,0,0,1-1.617-.516,2.158,2.158,0,0,1-1.422-1.992,2.25,2.25,0,0,1,.922-1.828A3.644,3.644,0,0,1,69-8.609a3.792,3.792,0,0,1,2.449.75,2.38,2.38,0,0,1,.934,1.945h-1.9a1.17,1.17,0,0,0-.406-.91A1.557,1.557,0,0,0,69-7.187a1.682,1.682,0,0,0-1.02.289.911.911,0,0,0-.395.773.769.769,0,0,0,.367.68,5.049,5.049,0,0,0,1.484.488,7.027,7.027,0,0,1,1.754.586,2.484,2.484,0,0,1,.945.816A2.082,2.082,0,0,1,72.445-2.4,2.2,2.2,0,0,1,71.5-.551a4.031,4.031,0,0,1-2.477.707,4.371,4.371,0,0,1-1.852-.375A3.047,3.047,0,0,1,65.906-1.25a2.441,2.441,0,0,1-.453-1.414H67.3A1.338,1.338,0,0,0,67.8-1.629a1.973,1.973,0,0,0,1.242.363,1.92,1.92,0,0,0,1.141-.285A.883.883,0,0,0,70.578-2.3Z" transform="translate(267 7330)" fill="#12263f"/>
      <path id="Trazado_874395" data-name="Trazado 874395" d="M-28.32-5.391A6.979,6.979,0,0,1-28.9-2.457,4.371,4.371,0,0,1-30.551-.52a4.545,4.545,0,0,1-2.473.676A4.556,4.556,0,0,1-35.488-.52,4.438,4.438,0,0,1-37.16-2.445a6.761,6.761,0,0,1-.6-2.883v-.641a6.919,6.919,0,0,1,.59-2.937A4.433,4.433,0,0,1-35.5-10.855a4.531,4.531,0,0,1,2.465-.676,4.571,4.571,0,0,1,2.465.668,4.377,4.377,0,0,1,1.66,1.922,6.9,6.9,0,0,1,.594,2.918ZM-30.3-5.984a4.973,4.973,0,0,0-.715-2.9,2.339,2.339,0,0,0-2.027-1.008,2.332,2.332,0,0,0-2,1,4.876,4.876,0,0,0-.738,2.84v.656a4.935,4.935,0,0,0,.73,2.9,2.352,2.352,0,0,0,2.027,1.023,2.325,2.325,0,0,0,2.02-1A5.041,5.041,0,0,0-30.3-5.391Zm8.188-.734a4.7,4.7,0,0,0-.773-.062,1.741,1.741,0,0,0-1.758,1V0h-1.9V-8.453h1.813l.047.945a2.139,2.139,0,0,1,1.906-1.1A1.777,1.777,0,0,1-22.1-8.5Zm.867,2.43a4.944,4.944,0,0,1,.926-3.145,2.971,2.971,0,0,1,2.457-1.176A2.784,2.784,0,0,1-15.586-7.6l.086-.852h1.711v8.2a3.406,3.406,0,0,1-1.035,2.625,3.943,3.943,0,0,1-2.793.961,4.5,4.5,0,0,1-1.816-.387A3.227,3.227,0,0,1-20.781,1.93l.9-1.141a2.713,2.713,0,0,0,2.156,1.039,2.1,2.1,0,0,0,1.492-.512,1.961,1.961,0,0,0,.547-1.5v-.57a2.8,2.8,0,0,1-2.187.914A2.964,2.964,0,0,1-20.3-1.023,5.1,5.1,0,0,1-21.242-4.289Zm1.891.164a3.4,3.4,0,0,0,.52,2,1.671,1.671,0,0,0,1.441.73,1.827,1.827,0,0,0,1.7-.984V-6.094a1.8,1.8,0,0,0-1.687-.961,1.677,1.677,0,0,0-1.457.742A3.811,3.811,0,0,0-19.352-4.125ZM-6.789,0a2.93,2.93,0,0,1-.219-.789A2.955,2.955,0,0,1-9.227.156,2.982,2.982,0,0,1-11.3-.57a2.325,2.325,0,0,1-.8-1.8,2.4,2.4,0,0,1,1-2.074,4.865,4.865,0,0,1,2.871-.723H-7.07v-.555A1.481,1.481,0,0,0-7.437-6.77a1.456,1.456,0,0,0-1.117-.395,1.672,1.672,0,0,0-1.062.324,1,1,0,0,0-.414.824h-1.9a2.107,2.107,0,0,1,.461-1.3,3.071,3.071,0,0,1,1.254-.949,4.4,4.4,0,0,1,1.77-.344,3.547,3.547,0,0,1,2.367.746,2.661,2.661,0,0,1,.906,2.1v3.813a4.321,4.321,0,0,0,.32,1.82V0ZM-8.875-1.367a2.159,2.159,0,0,0,1.059-.273,1.827,1.827,0,0,0,.746-.734V-3.969H-8.094A2.8,2.8,0,0,0-9.68-3.6a1.189,1.189,0,0,0-.531,1.039,1.109,1.109,0,0,0,.363.871A1.407,1.407,0,0,0-8.875-1.367ZM-7.82-12h2.164L-7.82-9.633l-1.523,0Zm6.4,3.547.055.977A3.039,3.039,0,0,1,1.094-8.609q2.641,0,2.688,3.023V0h-1.9V-5.477a1.741,1.741,0,0,0-.348-1.191A1.462,1.462,0,0,0,.4-7.055,1.829,1.829,0,0,0-1.312-6.016V0h-1.9V-8.453ZM7.734,0h-1.9V-8.453h1.9ZM5.719-10.648A1.008,1.008,0,0,1,6-11.375a1.048,1.048,0,0,1,.793-.289,1.061,1.061,0,0,1,.8.289,1,1,0,0,1,.281.727.977.977,0,0,1-.281.715,1.069,1.069,0,0,1-.8.285A1.056,1.056,0,0,1,6-9.934.984.984,0,0,1,5.719-10.648Zm7.555,9.289a1.716,1.716,0,0,0,1.18-.414,1.415,1.415,0,0,0,.5-1.023h1.789a2.789,2.789,0,0,1-.492,1.473A3.228,3.228,0,0,1,15-.242a3.725,3.725,0,0,1-1.7.4A3.6,3.6,0,0,1,10.484-.992,4.555,4.555,0,0,1,9.445-4.164v-.2a4.479,4.479,0,0,1,1.031-3.09,3.571,3.571,0,0,1,2.813-1.16,3.473,3.473,0,0,1,2.457.879,3.148,3.148,0,0,1,1,2.309H14.953a1.738,1.738,0,0,0-.5-1.2,1.6,1.6,0,0,0-1.184-.469,1.671,1.671,0,0,0-1.422.668,3.408,3.408,0,0,0-.508,2.027v.3a3.465,3.465,0,0,0,.5,2.051A1.669,1.669,0,0,0,13.273-1.359ZM17.82-4.3a4.984,4.984,0,0,1,.492-2.238A3.6,3.6,0,0,1,19.7-8.074a3.9,3.9,0,0,1,2.047-.535,3.692,3.692,0,0,1,2.777,1.1,4.333,4.333,0,0,1,1.152,2.922l.008.445a5.029,5.029,0,0,1-.48,2.234A3.551,3.551,0,0,1,23.824-.383a3.925,3.925,0,0,1-2.066.539,3.667,3.667,0,0,1-2.863-1.191A4.563,4.563,0,0,1,17.82-4.211Zm1.9.164A3.406,3.406,0,0,0,20.258-2.1a1.752,1.752,0,0,0,1.5.738,1.733,1.733,0,0,0,1.5-.75,3.762,3.762,0,0,0,.535-2.2,3.362,3.362,0,0,0-.551-2.031,1.759,1.759,0,0,0-1.5-.75,1.743,1.743,0,0,0-1.477.738A3.691,3.691,0,0,0,19.719-4.141ZM32.023-2.3a.861.861,0,0,0-.418-.773,4.445,4.445,0,0,0-1.387-.469A7.129,7.129,0,0,1,28.6-4.055,2.158,2.158,0,0,1,27.18-6.047,2.25,2.25,0,0,1,28.1-7.875a3.644,3.644,0,0,1,2.344-.734,3.792,3.792,0,0,1,2.449.75,2.38,2.38,0,0,1,.934,1.945h-1.9a1.17,1.17,0,0,0-.406-.91,1.557,1.557,0,0,0-1.078-.363,1.682,1.682,0,0,0-1.02.289.911.911,0,0,0-.395.773.769.769,0,0,0,.367.68,5.049,5.049,0,0,0,1.484.488,7.027,7.027,0,0,1,1.754.586,2.484,2.484,0,0,1,.945.816A2.082,2.082,0,0,1,33.891-2.4a2.2,2.2,0,0,1-.945,1.848,4.031,4.031,0,0,1-2.477.707,4.371,4.371,0,0,1-1.852-.375A3.047,3.047,0,0,1,27.352-1.25,2.441,2.441,0,0,1,26.9-2.664h1.844a1.338,1.338,0,0,0,.508,1.035,1.973,1.973,0,0,0,1.242.363,1.92,1.92,0,0,0,1.141-.285A.883.883,0,0,0,32.023-2.3ZM-3.016,20H-4.992l-5.07-8.07V20h-1.977V8.625h1.977l5.086,8.1v-8.1h1.961ZM8.4,14.609a6.979,6.979,0,0,1-.578,2.934A4.371,4.371,0,0,1,6.168,19.48a4.545,4.545,0,0,1-2.473.676A4.556,4.556,0,0,1,1.23,19.48,4.438,4.438,0,0,1-.441,17.555a6.761,6.761,0,0,1-.6-2.883v-.641a6.919,6.919,0,0,1,.59-2.937A4.433,4.433,0,0,1,1.215,9.145,4.531,4.531,0,0,1,3.68,8.469a4.57,4.57,0,0,1,2.465.668A4.377,4.377,0,0,1,7.8,11.059,6.9,6.9,0,0,1,8.4,13.977Zm-1.977-.594a4.973,4.973,0,0,0-.715-2.9A2.339,2.339,0,0,0,3.68,10.109a2.332,2.332,0,0,0-2,1,4.876,4.876,0,0,0-.738,2.84v.656a4.935,4.935,0,0,0,.73,2.9A2.352,2.352,0,0,0,3.7,18.531a2.325,2.325,0,0,0,2.02-1,5.041,5.041,0,0,0,.707-2.922ZM-46.152,40a2.93,2.93,0,0,1-.219-.789,2.955,2.955,0,0,1-2.219.945,2.982,2.982,0,0,1-2.078-.727,2.325,2.325,0,0,1-.8-1.8,2.4,2.4,0,0,1,1-2.074,4.865,4.865,0,0,1,2.871-.723h1.164v-.555A1.481,1.481,0,0,0-46.8,33.23a1.456,1.456,0,0,0-1.117-.395,1.672,1.672,0,0,0-1.062.324,1,1,0,0,0-.414.824h-1.9a2.107,2.107,0,0,1,.461-1.3,3.071,3.071,0,0,1,1.254-.949,4.4,4.4,0,0,1,1.77-.344,3.547,3.547,0,0,1,2.367.746,2.661,2.661,0,0,1,.906,2.1v3.813a4.321,4.321,0,0,0,.32,1.82V40Zm-2.086-1.367a2.159,2.159,0,0,0,1.059-.273,1.827,1.827,0,0,0,.746-.734V36.031h-1.023a2.8,2.8,0,0,0-1.586.367,1.189,1.189,0,0,0-.531,1.039,1.109,1.109,0,0,0,.363.871A1.407,1.407,0,0,0-48.238,38.633Zm13.094-2.773a5.033,5.033,0,0,1-.891,3.129,2.852,2.852,0,0,1-2.391,1.168,2.871,2.871,0,0,1-2.227-.914V43.25h-1.9v-11.7h1.75l.078.859a2.788,2.788,0,0,1,2.273-1.016,2.881,2.881,0,0,1,2.426,1.152,5.167,5.167,0,0,1,.879,3.2Zm-1.891-.164a3.526,3.526,0,0,0-.5-2.008,1.638,1.638,0,0,0-1.441-.742,1.747,1.747,0,0,0-1.672.961v3.75a1.763,1.763,0,0,0,1.688.984,1.636,1.636,0,0,0,1.418-.73A3.881,3.881,0,0,0-37.035,35.7Zm7.922-2.414a4.7,4.7,0,0,0-.773-.062,1.741,1.741,0,0,0-1.758,1V40h-1.9V31.547h1.813l.047.945a2.139,2.139,0,0,1,1.906-1.1,1.777,1.777,0,0,1,.672.109Zm.563,2.414a4.984,4.984,0,0,1,.492-2.238,3.6,3.6,0,0,1,1.383-1.531,3.9,3.9,0,0,1,2.047-.535,3.692,3.692,0,0,1,2.777,1.1A4.333,4.333,0,0,1-20.7,35.414l.008.445a5.029,5.029,0,0,1-.48,2.234,3.551,3.551,0,0,1-1.375,1.523,3.925,3.925,0,0,1-2.066.539,3.667,3.667,0,0,1-2.863-1.191,4.563,4.563,0,0,1-1.074-3.176Zm1.9.164a3.406,3.406,0,0,0,.539,2.043,1.752,1.752,0,0,0,1.5.738,1.733,1.733,0,0,0,1.5-.75,3.762,3.762,0,0,0,.535-2.2,3.362,3.362,0,0,0-.551-2.031,1.759,1.759,0,0,0-1.5-.75,1.743,1.743,0,0,0-1.477.738A3.691,3.691,0,0,0-26.652,35.859Zm10.43,1.734,1.789-6.047h1.961L-15.4,40h-1.648L-20,31.547h1.969Zm8.656,2.563a3.928,3.928,0,0,1-2.926-1.137,4.124,4.124,0,0,1-1.121-3.027v-.234a5.072,5.072,0,0,1,.488-2.262,3.716,3.716,0,0,1,1.371-1.551,3.625,3.625,0,0,1,1.969-.555,3.318,3.318,0,0,1,2.668,1.1,4.658,4.658,0,0,1,.941,3.117v.766H-9.7A2.539,2.539,0,0,0-9,38.031a2.1,2.1,0,0,0,1.543.609,2.571,2.571,0,0,0,2.125-1.055l1.023.977a3.418,3.418,0,0,1-1.355,1.176A4.244,4.244,0,0,1-7.566,40.156Zm-.227-7.242a1.6,1.6,0,0,0-1.262.547,2.835,2.835,0,0,0-.613,1.523h3.617v-.141A2.307,2.307,0,0,0-6.559,33.4,1.586,1.586,0,0,0-7.793,32.914ZM.77,38.641a1.716,1.716,0,0,0,1.18-.414,1.415,1.415,0,0,0,.5-1.023H4.238a2.789,2.789,0,0,1-.492,1.473A3.228,3.228,0,0,1,2.5,39.758a3.725,3.725,0,0,1-1.7.4A3.6,3.6,0,0,1-2.02,39.008a4.555,4.555,0,0,1-1.039-3.172v-.2a4.479,4.479,0,0,1,1.031-3.09,3.571,3.571,0,0,1,2.813-1.16,3.473,3.473,0,0,1,2.457.879,3.148,3.148,0,0,1,1,2.309H2.449a1.738,1.738,0,0,0-.5-1.2A1.6,1.6,0,0,0,.77,32.914a1.671,1.671,0,0,0-1.422.668,3.408,3.408,0,0,0-.508,2.027v.3a3.465,3.465,0,0,0,.5,2.051A1.669,1.669,0,0,0,.77,38.641Zm6.773-6.172a2.971,2.971,0,0,1,2.352-1.078q2.7,0,2.742,3.086V40h-1.9V34.547a1.669,1.669,0,0,0-.379-1.238,1.549,1.549,0,0,0-1.113-.363,1.829,1.829,0,0,0-1.7,1.016V40h-1.9V28h1.9ZM19.605,40a2.93,2.93,0,0,1-.219-.789,2.955,2.955,0,0,1-2.219.945,2.982,2.982,0,0,1-2.078-.727,2.325,2.325,0,0,1-.8-1.8,2.4,2.4,0,0,1,1-2.074,4.865,4.865,0,0,1,2.871-.723h1.164v-.555a1.481,1.481,0,0,0-.367-1.051,1.456,1.456,0,0,0-1.117-.395,1.672,1.672,0,0,0-1.062.324,1,1,0,0,0-.414.824h-1.9a2.107,2.107,0,0,1,.461-1.3,3.071,3.071,0,0,1,1.254-.949,4.4,4.4,0,0,1,1.77-.344,3.547,3.547,0,0,1,2.367.746,2.661,2.661,0,0,1,.906,2.1v3.813a4.321,4.321,0,0,0,.32,1.82V40ZM17.52,38.633a2.159,2.159,0,0,0,1.059-.273,1.827,1.827,0,0,0,.746-.734V36.031H18.3a2.8,2.8,0,0,0-1.586.367,1.189,1.189,0,0,0-.531,1.039,1.109,1.109,0,0,0,.363.871A1.407,1.407,0,0,0,17.52,38.633Zm13.109-2.773a5.078,5.078,0,0,1-.879,3.133,2.863,2.863,0,0,1-2.418,1.164,2.758,2.758,0,0,1-2.312-1.07L24.926,40H23.207V28h1.9v4.359a2.748,2.748,0,0,1,2.211-.969,2.9,2.9,0,0,1,2.43,1.148,5.162,5.162,0,0,1,.883,3.211Zm-1.9-.164a3.589,3.589,0,0,0-.484-2.062,1.613,1.613,0,0,0-1.406-.687,1.763,1.763,0,0,0-1.734,1.078v3.484a1.781,1.781,0,0,0,1.75,1.1,1.6,1.6,0,0,0,1.375-.664,3.477,3.477,0,0,0,.5-2.008ZM34.238,40h-1.9V28h1.9Zm5.789.156A3.928,3.928,0,0,1,37.1,39.02a4.124,4.124,0,0,1-1.121-3.027v-.234a5.072,5.072,0,0,1,.488-2.262,3.716,3.716,0,0,1,1.371-1.551,3.625,3.625,0,0,1,1.969-.555,3.318,3.318,0,0,1,2.668,1.1,4.658,4.658,0,0,1,.941,3.117v.766H37.895a2.539,2.539,0,0,0,.7,1.656,2.1,2.1,0,0,0,1.543.609,2.571,2.571,0,0,0,2.125-1.055l1.023.977a3.418,3.418,0,0,1-1.355,1.176A4.244,4.244,0,0,1,40.027,40.156ZM39.8,32.914a1.6,1.6,0,0,0-1.262.547,2.835,2.835,0,0,0-.613,1.523h3.617v-.141a2.307,2.307,0,0,0-.508-1.441A1.586,1.586,0,0,0,39.8,32.914ZM49.629,37.7a.861.861,0,0,0-.418-.773,4.445,4.445,0,0,0-1.387-.469,7.129,7.129,0,0,1-1.617-.516,2.158,2.158,0,0,1-1.422-1.992,2.25,2.25,0,0,1,.922-1.828,3.644,3.644,0,0,1,2.344-.734,3.792,3.792,0,0,1,2.449.75,2.38,2.38,0,0,1,.934,1.945h-1.9a1.17,1.17,0,0,0-.406-.91,1.557,1.557,0,0,0-1.078-.363,1.682,1.682,0,0,0-1.02.289.911.911,0,0,0-.395.773.769.769,0,0,0,.367.68,5.049,5.049,0,0,0,1.484.488,7.027,7.027,0,0,1,1.754.586,2.484,2.484,0,0,1,.945.816A2.082,2.082,0,0,1,51.5,37.6a2.2,2.2,0,0,1-.945,1.848,4.031,4.031,0,0,1-2.477.707,4.371,4.371,0,0,1-1.852-.375,3.047,3.047,0,0,1-1.266-1.031,2.441,2.441,0,0,1-.453-1.414h1.844a1.338,1.338,0,0,0,.508,1.035,1.973,1.973,0,0,0,1.242.363,1.92,1.92,0,0,0,1.141-.285A.883.883,0,0,0,49.629,37.7Z" transform="translate(449 7330)" fill="#12263f"/>
      <path id="Trazado_874396" data-name="Trazado 874396" d="M-28.32-5.391A6.979,6.979,0,0,1-28.9-2.457,4.371,4.371,0,0,1-30.551-.52a4.545,4.545,0,0,1-2.473.676A4.556,4.556,0,0,1-35.488-.52,4.438,4.438,0,0,1-37.16-2.445a6.761,6.761,0,0,1-.6-2.883v-.641a6.919,6.919,0,0,1,.59-2.937A4.433,4.433,0,0,1-35.5-10.855a4.531,4.531,0,0,1,2.465-.676,4.571,4.571,0,0,1,2.465.668,4.377,4.377,0,0,1,1.66,1.922,6.9,6.9,0,0,1,.594,2.918ZM-30.3-5.984a4.973,4.973,0,0,0-.715-2.9,2.339,2.339,0,0,0-2.027-1.008,2.332,2.332,0,0,0-2,1,4.876,4.876,0,0,0-.738,2.84v.656a4.935,4.935,0,0,0,.73,2.9,2.352,2.352,0,0,0,2.027,1.023,2.325,2.325,0,0,0,2.02-1A5.041,5.041,0,0,0-30.3-5.391Zm8.188-.734a4.7,4.7,0,0,0-.773-.062,1.741,1.741,0,0,0-1.758,1V0h-1.9V-8.453h1.813l.047.945a2.139,2.139,0,0,1,1.906-1.1A1.777,1.777,0,0,1-22.1-8.5Zm.867,2.43a4.944,4.944,0,0,1,.926-3.145,2.971,2.971,0,0,1,2.457-1.176A2.784,2.784,0,0,1-15.586-7.6l.086-.852h1.711v8.2a3.406,3.406,0,0,1-1.035,2.625,3.943,3.943,0,0,1-2.793.961,4.5,4.5,0,0,1-1.816-.387A3.227,3.227,0,0,1-20.781,1.93l.9-1.141a2.713,2.713,0,0,0,2.156,1.039,2.1,2.1,0,0,0,1.492-.512,1.961,1.961,0,0,0,.547-1.5v-.57a2.8,2.8,0,0,1-2.187.914A2.964,2.964,0,0,1-20.3-1.023,5.1,5.1,0,0,1-21.242-4.289Zm1.891.164a3.4,3.4,0,0,0,.52,2,1.671,1.671,0,0,0,1.441.73,1.827,1.827,0,0,0,1.7-.984V-6.094a1.8,1.8,0,0,0-1.687-.961,1.677,1.677,0,0,0-1.457.742A3.811,3.811,0,0,0-19.352-4.125ZM-6.789,0a2.93,2.93,0,0,1-.219-.789A2.955,2.955,0,0,1-9.227.156,2.982,2.982,0,0,1-11.3-.57a2.325,2.325,0,0,1-.8-1.8,2.4,2.4,0,0,1,1-2.074,4.865,4.865,0,0,1,2.871-.723H-7.07v-.555A1.481,1.481,0,0,0-7.437-6.77a1.456,1.456,0,0,0-1.117-.395,1.672,1.672,0,0,0-1.062.324,1,1,0,0,0-.414.824h-1.9a2.107,2.107,0,0,1,.461-1.3,3.071,3.071,0,0,1,1.254-.949,4.4,4.4,0,0,1,1.77-.344,3.547,3.547,0,0,1,2.367.746,2.661,2.661,0,0,1,.906,2.1v3.813a4.321,4.321,0,0,0,.32,1.82V0ZM-8.875-1.367a2.159,2.159,0,0,0,1.059-.273,1.827,1.827,0,0,0,.746-.734V-3.969H-8.094A2.8,2.8,0,0,0-9.68-3.6a1.189,1.189,0,0,0-.531,1.039,1.109,1.109,0,0,0,.363.871A1.407,1.407,0,0,0-8.875-1.367ZM-7.82-12h2.164L-7.82-9.633l-1.523,0Zm6.4,3.547.055.977A3.039,3.039,0,0,1,1.094-8.609q2.641,0,2.688,3.023V0h-1.9V-5.477a1.741,1.741,0,0,0-.348-1.191A1.462,1.462,0,0,0,.4-7.055,1.829,1.829,0,0,0-1.312-6.016V0h-1.9V-8.453ZM7.734,0h-1.9V-8.453h1.9ZM5.719-10.648A1.008,1.008,0,0,1,6-11.375a1.048,1.048,0,0,1,.793-.289,1.061,1.061,0,0,1,.8.289,1,1,0,0,1,.281.727.977.977,0,0,1-.281.715,1.069,1.069,0,0,1-.8.285A1.056,1.056,0,0,1,6-9.934.984.984,0,0,1,5.719-10.648Zm7.555,9.289a1.716,1.716,0,0,0,1.18-.414,1.415,1.415,0,0,0,.5-1.023h1.789a2.789,2.789,0,0,1-.492,1.473A3.228,3.228,0,0,1,15-.242a3.725,3.725,0,0,1-1.7.4A3.6,3.6,0,0,1,10.484-.992,4.555,4.555,0,0,1,9.445-4.164v-.2a4.479,4.479,0,0,1,1.031-3.09,3.571,3.571,0,0,1,2.813-1.16,3.473,3.473,0,0,1,2.457.879,3.148,3.148,0,0,1,1,2.309H14.953a1.738,1.738,0,0,0-.5-1.2,1.6,1.6,0,0,0-1.184-.469,1.671,1.671,0,0,0-1.422.668,3.408,3.408,0,0,0-.508,2.027v.3a3.465,3.465,0,0,0,.5,2.051A1.669,1.669,0,0,0,13.273-1.359ZM17.82-4.3a4.984,4.984,0,0,1,.492-2.238A3.6,3.6,0,0,1,19.7-8.074a3.9,3.9,0,0,1,2.047-.535,3.692,3.692,0,0,1,2.777,1.1,4.333,4.333,0,0,1,1.152,2.922l.008.445a5.029,5.029,0,0,1-.48,2.234A3.551,3.551,0,0,1,23.824-.383a3.925,3.925,0,0,1-2.066.539,3.667,3.667,0,0,1-2.863-1.191A4.563,4.563,0,0,1,17.82-4.211Zm1.9.164A3.406,3.406,0,0,0,20.258-2.1a1.752,1.752,0,0,0,1.5.738,1.733,1.733,0,0,0,1.5-.75,3.762,3.762,0,0,0,.535-2.2,3.362,3.362,0,0,0-.551-2.031,1.759,1.759,0,0,0-1.5-.75,1.743,1.743,0,0,0-1.477.738A3.691,3.691,0,0,0,19.719-4.141ZM32.023-2.3a.861.861,0,0,0-.418-.773,4.445,4.445,0,0,0-1.387-.469A7.129,7.129,0,0,1,28.6-4.055,2.158,2.158,0,0,1,27.18-6.047,2.25,2.25,0,0,1,28.1-7.875a3.644,3.644,0,0,1,2.344-.734,3.792,3.792,0,0,1,2.449.75,2.38,2.38,0,0,1,.934,1.945h-1.9a1.17,1.17,0,0,0-.406-.91,1.557,1.557,0,0,0-1.078-.363,1.682,1.682,0,0,0-1.02.289.911.911,0,0,0-.395.773.769.769,0,0,0,.367.68,5.049,5.049,0,0,0,1.484.488,7.027,7.027,0,0,1,1.754.586,2.484,2.484,0,0,1,.945.816A2.082,2.082,0,0,1,33.891-2.4a2.2,2.2,0,0,1-.945,1.848,4.031,4.031,0,0,1-2.477.707,4.371,4.371,0,0,1-1.852-.375A3.047,3.047,0,0,1,27.352-1.25,2.441,2.441,0,0,1,26.9-2.664h1.844a1.338,1.338,0,0,0,.508,1.035,1.973,1.973,0,0,0,1.242.363,1.92,1.92,0,0,0,1.141-.285A.883.883,0,0,0,32.023-2.3ZM-37.543,16.3a4.107,4.107,0,0,1-1.344,2.84A4.581,4.581,0,0,1-42,20.156a4.436,4.436,0,0,1-2.395-.645A4.231,4.231,0,0,1-46,17.68a6.611,6.611,0,0,1-.586-2.758V13.859a6.659,6.659,0,0,1,.57-2.836,4.3,4.3,0,0,1,1.637-1.891,4.566,4.566,0,0,1,2.465-.664,4.4,4.4,0,0,1,3.031,1.02,4.26,4.26,0,0,1,1.336,2.887h-1.969a2.81,2.81,0,0,0-.715-1.77,2.363,2.363,0,0,0-1.684-.543,2.308,2.308,0,0,0-1.98.942,4.709,4.709,0,0,0-.707,2.764v1.009a5,5,0,0,0,.66,2.815,2.191,2.191,0,0,0,1.934.97,2.555,2.555,0,0,0,1.75-.523,2.729,2.729,0,0,0,.742-1.742Zm1.227-.6a4.984,4.984,0,0,1,.492-2.238,3.6,3.6,0,0,1,1.383-1.531,3.9,3.9,0,0,1,2.047-.535,3.692,3.692,0,0,1,2.777,1.1,4.333,4.333,0,0,1,1.152,2.922l.008.445a5.029,5.029,0,0,1-.48,2.234,3.551,3.551,0,0,1-1.375,1.523,3.925,3.925,0,0,1-2.066.539,3.667,3.667,0,0,1-2.863-1.191,4.563,4.563,0,0,1-1.074-3.176Zm1.9.164a3.406,3.406,0,0,0,.539,2.043,1.752,1.752,0,0,0,1.5.738,1.733,1.733,0,0,0,1.5-.75,3.762,3.762,0,0,0,.535-2.2,3.362,3.362,0,0,0-.551-2.031,1.759,1.759,0,0,0-1.5-.75,1.743,1.743,0,0,0-1.477.738A3.691,3.691,0,0,0-34.418,15.859Zm9.352-4.312.055.883a3.042,3.042,0,0,1,2.438-1.039,2.337,2.337,0,0,1,2.32,1.3,3,3,0,0,1,2.594-1.3,2.636,2.636,0,0,1,2.082.773,3.405,3.405,0,0,1,.7,2.281V20h-1.9V14.5a1.681,1.681,0,0,0-.352-1.18,1.539,1.539,0,0,0-1.164-.375,1.581,1.581,0,0,0-1.059.348,1.833,1.833,0,0,0-.574.91l.008,5.8h-1.9V14.438a1.354,1.354,0,0,0-1.523-1.492,1.671,1.671,0,0,0-1.617.93V20h-1.9V11.547Zm19.539,4.313a5.033,5.033,0,0,1-.891,3.129,2.852,2.852,0,0,1-2.391,1.168,2.871,2.871,0,0,1-2.227-.914V23.25h-1.9v-11.7h1.75l.078.859a2.788,2.788,0,0,1,2.273-1.016,2.881,2.881,0,0,1,2.426,1.152,5.167,5.167,0,0,1,.879,3.2ZM-7.418,15.7a3.526,3.526,0,0,0-.5-2.008,1.638,1.638,0,0,0-1.441-.742,1.747,1.747,0,0,0-1.672.961v3.75a1.763,1.763,0,0,0,1.688.984,1.636,1.636,0,0,0,1.418-.73A3.881,3.881,0,0,0-7.418,15.7Zm3.141,0a4.984,4.984,0,0,1,.492-2.238A3.6,3.6,0,0,1-2.4,11.926a3.9,3.9,0,0,1,2.047-.535,3.692,3.692,0,0,1,2.777,1.1,4.333,4.333,0,0,1,1.152,2.922l.008.445a5.029,5.029,0,0,1-.48,2.234,3.551,3.551,0,0,1-1.375,1.523,3.925,3.925,0,0,1-2.066.539A3.667,3.667,0,0,1-3.2,18.965a4.563,4.563,0,0,1-1.074-3.176Zm1.9.164A3.406,3.406,0,0,0-1.84,17.9a1.752,1.752,0,0,0,1.5.738,1.733,1.733,0,0,0,1.5-.75,3.762,3.762,0,0,0,.535-2.2,3.362,3.362,0,0,0-.551-2.031,1.759,1.759,0,0,0-1.5-.75,1.743,1.743,0,0,0-1.477.738A3.691,3.691,0,0,0-2.379,15.859ZM9.926,17.7a.861.861,0,0,0-.418-.773,4.445,4.445,0,0,0-1.387-.469A7.129,7.129,0,0,1,6.5,15.945a2.158,2.158,0,0,1-1.422-1.992A2.25,2.25,0,0,1,6,12.125a3.644,3.644,0,0,1,2.344-.734,3.792,3.792,0,0,1,2.449.75,2.38,2.38,0,0,1,.934,1.945h-1.9a1.17,1.17,0,0,0-.406-.91,1.557,1.557,0,0,0-1.078-.363,1.682,1.682,0,0,0-1.02.289.911.911,0,0,0-.395.773.769.769,0,0,0,.367.68,5.049,5.049,0,0,0,1.484.488,7.027,7.027,0,0,1,1.754.586,2.484,2.484,0,0,1,.945.816,2.082,2.082,0,0,1,.309,1.156,2.2,2.2,0,0,1-.945,1.848,4.031,4.031,0,0,1-2.477.707,4.371,4.371,0,0,1-1.852-.375A3.047,3.047,0,0,1,5.254,18.75,2.441,2.441,0,0,1,4.8,17.336H6.645a1.338,1.338,0,0,0,.508,1.035,1.973,1.973,0,0,0,1.242.363,1.92,1.92,0,0,0,1.141-.285A.883.883,0,0,0,9.926,17.7Zm5.9-8.211v2.055h1.492v1.406H15.824v4.719a1.039,1.039,0,0,0,.191.7.888.888,0,0,0,.684.215,2.924,2.924,0,0,0,.664-.078v1.469a4.676,4.676,0,0,1-1.25.18q-2.187,0-2.187-2.414V12.953H12.535V11.547h1.391V9.492ZM23.816,20a2.93,2.93,0,0,1-.219-.789,3.193,3.193,0,0,1-4.3.219,2.325,2.325,0,0,1-.8-1.8,2.4,2.4,0,0,1,1-2.074,4.865,4.865,0,0,1,2.871-.723h1.164v-.555a1.481,1.481,0,0,0-.367-1.051,1.456,1.456,0,0,0-1.117-.395,1.672,1.672,0,0,0-1.062.324,1,1,0,0,0-.414.824h-1.9a2.107,2.107,0,0,1,.461-1.3,3.071,3.071,0,0,1,1.254-.949,4.4,4.4,0,0,1,1.77-.344,3.547,3.547,0,0,1,2.367.746,2.661,2.661,0,0,1,.906,2.1v3.813a4.321,4.321,0,0,0,.32,1.82V20ZM21.73,18.633a2.16,2.16,0,0,0,1.059-.273,1.827,1.827,0,0,0,.746-.734V16.031H22.512a2.8,2.8,0,0,0-1.586.367,1.189,1.189,0,0,0-.531,1.039,1.109,1.109,0,0,0,.363.871A1.407,1.407,0,0,0,21.73,18.633ZM29.441,20h-1.9V8h1.9Zm5.789.156A3.928,3.928,0,0,1,32.3,19.02a4.124,4.124,0,0,1-1.121-3.027v-.234a5.072,5.072,0,0,1,.488-2.262,3.716,3.716,0,0,1,1.371-1.551,3.625,3.625,0,0,1,1.969-.555,3.318,3.318,0,0,1,2.668,1.1,4.658,4.658,0,0,1,.941,3.117v.766H33.1a2.539,2.539,0,0,0,.7,1.656,2.1,2.1,0,0,0,1.543.609,2.571,2.571,0,0,0,2.125-1.055l1.023.977a3.418,3.418,0,0,1-1.355,1.176A4.244,4.244,0,0,1,35.23,20.156ZM35,12.914a1.6,1.6,0,0,0-1.262.547,2.835,2.835,0,0,0-.613,1.523h3.617v-.141a2.307,2.307,0,0,0-.508-1.441A1.586,1.586,0,0,0,35,12.914ZM44.832,17.7a.861.861,0,0,0-.418-.773,4.445,4.445,0,0,0-1.387-.469,7.129,7.129,0,0,1-1.617-.516,2.158,2.158,0,0,1-1.422-1.992,2.25,2.25,0,0,1,.922-1.828,3.644,3.644,0,0,1,2.344-.734,3.792,3.792,0,0,1,2.449.75,2.38,2.38,0,0,1,.934,1.945h-1.9a1.17,1.17,0,0,0-.406-.91,1.557,1.557,0,0,0-1.078-.363,1.682,1.682,0,0,0-1.02.289.911.911,0,0,0-.395.773.769.769,0,0,0,.367.68,5.049,5.049,0,0,0,1.484.488,7.027,7.027,0,0,1,1.754.586,2.484,2.484,0,0,1,.945.816A2.082,2.082,0,0,1,46.7,17.6a2.2,2.2,0,0,1-.945,1.848,4.031,4.031,0,0,1-2.477.707,4.371,4.371,0,0,1-1.852-.375A3.047,3.047,0,0,1,40.16,18.75a2.441,2.441,0,0,1-.453-1.414h1.844a1.338,1.338,0,0,0,.508,1.035,1.973,1.973,0,0,0,1.242.363,1.92,1.92,0,0,0,1.141-.285A.883.883,0,0,0,44.832,17.7Z" transform="translate(585 7330)" fill="#12263f"/>
      <path id="Trazado_874397" data-name="Trazado 874397" d="M-19.1-4.219V0h-1.977V-11.375h4.352a4.4,4.4,0,0,1,3.027.993,3.34,3.34,0,0,1,1.121,2.628,3.229,3.229,0,0,1-1.1,2.6,4.613,4.613,0,0,1-3.074.931Zm0-1.594h2.375a2.339,2.339,0,0,0,1.609-.5,1.823,1.823,0,0,0,.555-1.434,1.967,1.967,0,0,0-.562-1.473,2.168,2.168,0,0,0-1.547-.566H-19.1ZM-6.066,0a2.93,2.93,0,0,1-.219-.789A2.955,2.955,0,0,1-8.5.156,2.982,2.982,0,0,1-10.582-.57a2.325,2.325,0,0,1-.8-1.8,2.4,2.4,0,0,1,1-2.074,4.865,4.865,0,0,1,2.871-.723h1.164v-.555A1.481,1.481,0,0,0-6.715-6.77a1.456,1.456,0,0,0-1.117-.395,1.672,1.672,0,0,0-1.062.324,1,1,0,0,0-.414.824h-1.9a2.107,2.107,0,0,1,.461-1.3,3.071,3.071,0,0,1,1.254-.949,4.4,4.4,0,0,1,1.77-.344,3.547,3.547,0,0,1,2.367.746,2.661,2.661,0,0,1,.906,2.1v3.813a4.321,4.321,0,0,0,.32,1.82V0ZM-8.152-1.367a2.159,2.159,0,0,0,1.059-.273,1.827,1.827,0,0,0,.746-.734V-3.969H-7.371A2.8,2.8,0,0,0-8.957-3.6a1.189,1.189,0,0,0-.531,1.039,1.109,1.109,0,0,0,.363.871A1.407,1.407,0,0,0-8.152-1.367ZM4.941-4.141a5.033,5.033,0,0,1-.891,3.129A2.852,2.852,0,0,1,1.66.156,2.871,2.871,0,0,1-.566-.758V3.25h-1.9v-11.7h1.75l.078.859A2.788,2.788,0,0,1,1.637-8.609,2.881,2.881,0,0,1,4.063-7.457a5.167,5.167,0,0,1,.879,3.2ZM3.051-4.3a3.526,3.526,0,0,0-.5-2.008,1.638,1.638,0,0,0-1.441-.742,1.747,1.747,0,0,0-1.672.961v3.75a1.763,1.763,0,0,0,1.688.984,1.636,1.636,0,0,0,1.418-.73A3.881,3.881,0,0,0,3.051-4.3ZM10.27.156A3.928,3.928,0,0,1,7.344-.98,4.124,4.124,0,0,1,6.223-4.008v-.234A5.072,5.072,0,0,1,6.711-6.5,3.716,3.716,0,0,1,8.082-8.055a3.625,3.625,0,0,1,1.969-.555,3.318,3.318,0,0,1,2.668,1.1,4.658,4.658,0,0,1,.941,3.117v.766H8.137a2.539,2.539,0,0,0,.7,1.656,2.1,2.1,0,0,0,1.543.609A2.571,2.571,0,0,0,12.5-2.414l1.023.977A3.418,3.418,0,0,1,12.172-.262,4.244,4.244,0,0,1,10.27.156Zm-.227-7.242a1.6,1.6,0,0,0-1.262.547,2.835,2.835,0,0,0-.613,1.523h3.617v-.141A2.307,2.307,0,0,0,11.277-6.6,1.586,1.586,0,0,0,10.043-7.086ZM17.152,0h-1.9V-12h1.9ZM-26.18,17.281l1.719-5.734h2.023L-25.8,21.281a2.73,2.73,0,0,1-2.625,2.133,3.384,3.384,0,0,1-.914-.141V21.8l.359.023a1.848,1.848,0,0,0,1.082-.262,1.734,1.734,0,0,0,.574-.878l.273-.726-2.969-8.408h2.047ZM-8.5,16.3a4.107,4.107,0,0,1-1.344,2.84,4.581,4.581,0,0,1-3.117,1.02,4.436,4.436,0,0,1-2.395-.645,4.231,4.231,0,0,1-1.6-1.832,6.611,6.611,0,0,1-.586-2.758V13.859a6.659,6.659,0,0,1,.57-2.836,4.3,4.3,0,0,1,1.637-1.891,4.566,4.566,0,0,1,2.465-.664,4.4,4.4,0,0,1,3.031,1.02A4.26,4.26,0,0,1-8.5,12.375h-1.969a2.81,2.81,0,0,0-.715-1.77,2.363,2.363,0,0,0-1.684-.543,2.308,2.308,0,0,0-1.98.942,4.709,4.709,0,0,0-.707,2.764v1.009a5,5,0,0,0,.66,2.815,2.191,2.191,0,0,0,1.934.97,2.555,2.555,0,0,0,1.75-.523,2.729,2.729,0,0,0,.742-1.742ZM-1.867,20a2.93,2.93,0,0,1-.219-.789,2.955,2.955,0,0,1-2.219.945,2.982,2.982,0,0,1-2.078-.727,2.325,2.325,0,0,1-.8-1.8,2.4,2.4,0,0,1,1-2.074,4.865,4.865,0,0,1,2.871-.723h1.164v-.555a1.481,1.481,0,0,0-.367-1.051,1.456,1.456,0,0,0-1.117-.395A1.672,1.672,0,0,0-4.7,13.16a1,1,0,0,0-.414.824h-1.9a2.107,2.107,0,0,1,.461-1.3,3.071,3.071,0,0,1,1.254-.949,4.4,4.4,0,0,1,1.77-.344,3.547,3.547,0,0,1,2.367.746,2.661,2.661,0,0,1,.906,2.1v3.813a4.321,4.321,0,0,0,.32,1.82V20Zm-2.086-1.367a2.16,2.16,0,0,0,1.059-.273,1.827,1.827,0,0,0,.746-.734V16.031H-3.172a2.8,2.8,0,0,0-1.586.367,1.189,1.189,0,0,0-.531,1.039,1.109,1.109,0,0,0,.363.871A1.407,1.407,0,0,0-3.953,18.633ZM6.164,13.281a4.7,4.7,0,0,0-.773-.062,1.741,1.741,0,0,0-1.758,1V20h-1.9V11.547H3.547l.047.945a2.139,2.139,0,0,1,1.906-1.1,1.777,1.777,0,0,1,.672.109Zm3.969-3.789v2.055h1.492v1.406H10.133v4.719a1.039,1.039,0,0,0,.191.7.888.888,0,0,0,.684.215,2.924,2.924,0,0,0,.664-.078v1.469a4.676,4.676,0,0,1-1.25.18q-2.187,0-2.187-2.414V12.953H6.844V11.547H8.234V9.492Zm2.586,6.2a4.984,4.984,0,0,1,.492-2.238,3.6,3.6,0,0,1,1.383-1.531,3.9,3.9,0,0,1,2.047-.535,3.692,3.692,0,0,1,2.777,1.1,4.333,4.333,0,0,1,1.152,2.922l.008.445a5.029,5.029,0,0,1-.48,2.234,3.551,3.551,0,0,1-1.375,1.523,3.925,3.925,0,0,1-2.066.539,3.667,3.667,0,0,1-2.863-1.191,4.563,4.563,0,0,1-1.074-3.176Zm1.9.164a3.406,3.406,0,0,0,.539,2.043,1.752,1.752,0,0,0,1.5.738,1.733,1.733,0,0,0,1.5-.75,3.762,3.762,0,0,0,.535-2.2,3.362,3.362,0,0,0-.551-2.031,1.856,1.856,0,0,0-2.973-.012A3.691,3.691,0,0,0,14.617,15.859ZM17.164,8h2.164l-2.164,2.367-1.523,0Zm6.781,3.547.055.977a3.039,3.039,0,0,1,2.461-1.133q2.641,0,2.688,3.023V20h-1.9V14.523a1.741,1.741,0,0,0-.348-1.191,1.462,1.462,0,0,0-1.137-.387,1.829,1.829,0,0,0-1.711,1.039V20h-1.9V11.547Z" transform="translate(723 7330)" fill="#12263f"/>
      <path id="Trazado_874398" data-name="Trazado 874398" d="M-30.055-4.219V0h-1.977V-11.375h4.352a4.4,4.4,0,0,1,3.027.993,3.34,3.34,0,0,1,1.121,2.628,3.229,3.229,0,0,1-1.1,2.6,4.613,4.613,0,0,1-3.074.931Zm0-1.594h2.375a2.339,2.339,0,0,0,1.609-.5,1.823,1.823,0,0,0,.555-1.434,1.967,1.967,0,0,0-.562-1.473,2.168,2.168,0,0,0-1.547-.566h-2.43ZM-19.969,0h-1.9V-12h1.9Zm7.117,0a2.93,2.93,0,0,1-.219-.789,2.955,2.955,0,0,1-2.219.945A2.982,2.982,0,0,1-17.367-.57a2.325,2.325,0,0,1-.8-1.8,2.4,2.4,0,0,1,1-2.074A4.865,4.865,0,0,1-14.3-5.164h1.164v-.555A1.481,1.481,0,0,0-13.5-6.77a1.456,1.456,0,0,0-1.117-.395,1.672,1.672,0,0,0-1.062.324,1,1,0,0,0-.414.824h-1.9a2.107,2.107,0,0,1,.461-1.3,3.071,3.071,0,0,1,1.254-.949,4.4,4.4,0,0,1,1.77-.344,3.547,3.547,0,0,1,2.367.746,2.661,2.661,0,0,1,.906,2.1v3.813a4.321,4.321,0,0,0,.32,1.82V0Zm-2.086-1.367a2.159,2.159,0,0,0,1.059-.273,1.827,1.827,0,0,0,.746-.734V-3.969h-1.023a2.8,2.8,0,0,0-1.586.367,1.189,1.189,0,0,0-.531,1.039,1.109,1.109,0,0,0,.363.871A1.407,1.407,0,0,0-14.937-1.367ZM-13.883-12h2.164l-2.164,2.367-1.523,0Zm9.375,9.7a.861.861,0,0,0-.418-.773,4.445,4.445,0,0,0-1.387-.469A7.129,7.129,0,0,1-7.93-4.055,2.158,2.158,0,0,1-9.352-6.047,2.25,2.25,0,0,1-8.43-7.875a3.644,3.644,0,0,1,2.344-.734,3.792,3.792,0,0,1,2.449.75A2.38,2.38,0,0,1-2.7-5.914H-4.6a1.17,1.17,0,0,0-.406-.91,1.557,1.557,0,0,0-1.078-.363,1.682,1.682,0,0,0-1.02.289.911.911,0,0,0-.395.773.769.769,0,0,0,.367.68,5.049,5.049,0,0,0,1.484.488,7.027,7.027,0,0,1,1.754.586,2.484,2.484,0,0,1,.945.816A2.082,2.082,0,0,1-2.641-2.4,2.2,2.2,0,0,1-3.586-.551,4.031,4.031,0,0,1-6.062.156,4.371,4.371,0,0,1-7.914-.219,3.047,3.047,0,0,1-9.18-1.25a2.441,2.441,0,0,1-.453-1.414h1.844a1.338,1.338,0,0,0,.508,1.035,1.973,1.973,0,0,0,1.242.363A1.92,1.92,0,0,0-4.9-1.551.883.883,0,0,0-4.508-2.3Zm5.9-8.211v2.055H2.883v1.406H1.391v4.719a1.039,1.039,0,0,0,.191.7.888.888,0,0,0,.684.215,2.924,2.924,0,0,0,.664-.078V-.023a4.676,4.676,0,0,1-1.25.18Q-.508.156-.508-2.258V-7.047H-1.9V-8.453H-.508v-2.055ZM6.352,0h-1.9V-8.453h1.9ZM4.336-10.648a1.008,1.008,0,0,1,.277-.727,1.048,1.048,0,0,1,.793-.289,1.061,1.061,0,0,1,.8.289,1,1,0,0,1,.281.727.977.977,0,0,1-.281.715,1.069,1.069,0,0,1-.8.285,1.056,1.056,0,0,1-.793-.285A.984.984,0,0,1,4.336-10.648Zm7.555,9.289a1.716,1.716,0,0,0,1.18-.414,1.415,1.415,0,0,0,.5-1.023h1.789a2.789,2.789,0,0,1-.492,1.473,3.228,3.228,0,0,1-1.25,1.082,3.725,3.725,0,0,1-1.7.4A3.6,3.6,0,0,1,9.1-.992,4.555,4.555,0,0,1,8.063-4.164v-.2a4.479,4.479,0,0,1,1.031-3.09,3.571,3.571,0,0,1,2.813-1.16,3.473,3.473,0,0,1,2.457.879,3.148,3.148,0,0,1,1,2.309H13.57a1.738,1.738,0,0,0-.5-1.2,1.6,1.6,0,0,0-1.184-.469,1.671,1.671,0,0,0-1.422.668,3.408,3.408,0,0,0-.508,2.027v.3a3.465,3.465,0,0,0,.5,2.051A1.669,1.669,0,0,0,11.891-1.359ZM16.438-4.3a4.984,4.984,0,0,1,.492-2.238,3.6,3.6,0,0,1,1.383-1.531,3.9,3.9,0,0,1,2.047-.535,3.692,3.692,0,0,1,2.777,1.1,4.333,4.333,0,0,1,1.152,2.922l.008.445a5.029,5.029,0,0,1-.48,2.234A3.551,3.551,0,0,1,22.441-.383a3.925,3.925,0,0,1-2.066.539,3.667,3.667,0,0,1-2.863-1.191,4.563,4.563,0,0,1-1.074-3.176Zm1.9.164A3.406,3.406,0,0,0,18.875-2.1a1.752,1.752,0,0,0,1.5.738,1.733,1.733,0,0,0,1.5-.75,3.762,3.762,0,0,0,.535-2.2,3.362,3.362,0,0,0-.551-2.031,1.759,1.759,0,0,0-1.5-.75,1.743,1.743,0,0,0-1.477.738A3.691,3.691,0,0,0,18.336-4.141ZM30.641-2.3a.861.861,0,0,0-.418-.773,4.445,4.445,0,0,0-1.387-.469,7.129,7.129,0,0,1-1.617-.516A2.158,2.158,0,0,1,25.8-6.047a2.25,2.25,0,0,1,.922-1.828,3.644,3.644,0,0,1,2.344-.734,3.792,3.792,0,0,1,2.449.75,2.38,2.38,0,0,1,.934,1.945h-1.9a1.17,1.17,0,0,0-.406-.91,1.557,1.557,0,0,0-1.078-.363,1.682,1.682,0,0,0-1.02.289.911.911,0,0,0-.395.773.769.769,0,0,0,.367.68,5.049,5.049,0,0,0,1.484.488,7.027,7.027,0,0,1,1.754.586,2.484,2.484,0,0,1,.945.816A2.082,2.082,0,0,1,32.508-2.4a2.2,2.2,0,0,1-.945,1.848,4.031,4.031,0,0,1-2.477.707,4.371,4.371,0,0,1-1.852-.375A3.047,3.047,0,0,1,25.969-1.25a2.441,2.441,0,0,1-.453-1.414h1.844a1.338,1.338,0,0,0,.508,1.035,1.973,1.973,0,0,0,1.242.363,1.92,1.92,0,0,0,1.141-.285A.883.883,0,0,0,30.641-2.3Z" transform="translate(865 7330)" fill="#12263f"/>
      <path id="Trazado_874399" data-name="Trazado 874399" d="M-15.98-2.477l2.891-8.9h2.172L-15.012,0h-1.914L-21-11.375h2.164ZM-7.8,0H-9.7V-8.453h1.9ZM-9.816-10.648a1.008,1.008,0,0,1,.277-.727,1.048,1.048,0,0,1,.793-.289,1.061,1.061,0,0,1,.8.289,1,1,0,0,1,.281.727.977.977,0,0,1-.281.715,1.069,1.069,0,0,1-.8.285,1.056,1.056,0,0,1-.793-.285A.984.984,0,0,1-9.816-10.648ZM-6.09-4.289a5.026,5.026,0,0,1,.906-3.137,2.9,2.9,0,0,1,2.43-1.184,2.759,2.759,0,0,1,2.172.938V-12h1.9V0H-.4L-.5-.875A2.8,2.8,0,0,1-2.77.156a2.887,2.887,0,0,1-2.4-1.2A5.21,5.21,0,0,1-6.09-4.289Zm1.9.164a3.519,3.519,0,0,0,.5,2.012,1.61,1.61,0,0,0,1.41.723A1.793,1.793,0,0,0-.582-2.43V-6.039A1.766,1.766,0,0,0-2.27-7.055a1.622,1.622,0,0,0-1.422.73A3.918,3.918,0,0,0-4.191-4.125ZM7.723-6.719a4.7,4.7,0,0,0-.773-.062,1.741,1.741,0,0,0-1.758,1V0h-1.9V-8.453H5.105l.047.945a2.139,2.139,0,0,1,1.906-1.1A1.777,1.777,0,0,1,7.73-8.5ZM10.941,0h-1.9V-8.453h1.9ZM8.926-10.648a1.008,1.008,0,0,1,.277-.727A1.048,1.048,0,0,1,10-11.664a1.061,1.061,0,0,1,.8.289,1,1,0,0,1,.281.727.977.977,0,0,1-.281.715,1.069,1.069,0,0,1-.8.285A1.056,1.056,0,0,1,9.2-9.934.984.984,0,0,1,8.926-10.648ZM12.652-4.3a4.984,4.984,0,0,1,.492-2.238,3.6,3.6,0,0,1,1.383-1.531,3.9,3.9,0,0,1,2.047-.535,3.692,3.692,0,0,1,2.777,1.1A4.333,4.333,0,0,1,20.5-4.586l.008.445a5.029,5.029,0,0,1-.48,2.234A3.551,3.551,0,0,1,18.656-.383,3.925,3.925,0,0,1,16.59.156a3.667,3.667,0,0,1-2.863-1.191,4.563,4.563,0,0,1-1.074-3.176Zm1.9.164A3.406,3.406,0,0,0,15.09-2.1a1.752,1.752,0,0,0,1.5.738,1.733,1.733,0,0,0,1.5-.75,3.762,3.762,0,0,0,.535-2.2,3.362,3.362,0,0,0-.551-2.031,1.759,1.759,0,0,0-1.5-.75,1.743,1.743,0,0,0-1.477.738A3.691,3.691,0,0,0,14.551-4.141Z" transform="translate(1010 7330)" fill="#12263f"/>
      <path id="Trazado_874400" data-name="Trazado 874400" d="M-25.031-11.375l3.281,8.719,3.273-8.719h2.555V0h-1.969V-3.75l.2-5.016L-21.055,0h-1.414L-25.82-8.758l.2,5.008V0h-1.969V-11.375ZM-10.047.156A3.928,3.928,0,0,1-12.973-.98a4.124,4.124,0,0,1-1.121-3.027v-.234A5.072,5.072,0,0,1-13.605-6.5a3.716,3.716,0,0,1,1.371-1.551,3.625,3.625,0,0,1,1.969-.555A3.318,3.318,0,0,1-7.6-7.508a4.658,4.658,0,0,1,.941,3.117v.766H-12.18a2.539,2.539,0,0,0,.7,1.656,2.1,2.1,0,0,0,1.543.609A2.571,2.571,0,0,0-7.812-2.414l1.023.977A3.418,3.418,0,0,1-8.145-.262,4.244,4.244,0,0,1-10.047.156Zm-.227-7.242a1.6,1.6,0,0,0-1.262.547,2.835,2.835,0,0,0-.613,1.523h3.617v-.141A2.307,2.307,0,0,0-9.039-6.6,1.586,1.586,0,0,0-10.273-7.086ZM-2.8-10.508v2.055h1.492v1.406H-2.8v4.719a1.039,1.039,0,0,0,.191.7.888.888,0,0,0,.684.215,2.924,2.924,0,0,0,.664-.078V-.023a4.676,4.676,0,0,1-1.25.18Q-4.7.156-4.7-2.258V-7.047H-6.094V-8.453H-4.7v-2.055ZM5.188,0a2.93,2.93,0,0,1-.219-.789A2.955,2.955,0,0,1,2.75.156,2.982,2.982,0,0,1,.672-.57a2.325,2.325,0,0,1-.8-1.8,2.4,2.4,0,0,1,1-2.074,4.865,4.865,0,0,1,2.871-.723H4.906v-.555A1.481,1.481,0,0,0,4.539-6.77a1.456,1.456,0,0,0-1.117-.395,1.672,1.672,0,0,0-1.062.324,1,1,0,0,0-.414.824H.047a2.107,2.107,0,0,1,.461-1.3,3.071,3.071,0,0,1,1.254-.949,4.4,4.4,0,0,1,1.77-.344A3.547,3.547,0,0,1,5.9-7.863a2.661,2.661,0,0,1,.906,2.1v3.813a4.321,4.321,0,0,0,.32,1.82V0ZM3.1-1.367A2.159,2.159,0,0,0,4.16-1.641a1.827,1.827,0,0,0,.746-.734V-3.969H3.883A2.8,2.8,0,0,0,2.3-3.6a1.189,1.189,0,0,0-.531,1.039,1.109,1.109,0,0,0,.363.871A1.407,1.407,0,0,0,3.1-1.367ZM10.813,0h-1.9V-12h1.9ZM16.6.156A3.928,3.928,0,0,1,13.676-.98a4.124,4.124,0,0,1-1.121-3.027v-.234A5.072,5.072,0,0,1,13.043-6.5a3.716,3.716,0,0,1,1.371-1.551,3.625,3.625,0,0,1,1.969-.555,3.318,3.318,0,0,1,2.668,1.1,4.658,4.658,0,0,1,.941,3.117v.766H14.469a2.539,2.539,0,0,0,.7,1.656,2.1,2.1,0,0,0,1.543.609,2.571,2.571,0,0,0,2.125-1.055l1.023.977A3.418,3.418,0,0,1,18.5-.262,4.244,4.244,0,0,1,16.6.156Zm-.227-7.242a1.6,1.6,0,0,0-1.262.547A2.835,2.835,0,0,0,14.5-5.016h3.617v-.141A2.307,2.307,0,0,0,17.609-6.6,1.586,1.586,0,0,0,16.375-7.086ZM26.2-2.3a.861.861,0,0,0-.418-.773A4.445,4.445,0,0,0,24.4-3.539a7.129,7.129,0,0,1-1.617-.516,2.158,2.158,0,0,1-1.422-1.992,2.25,2.25,0,0,1,.922-1.828,3.644,3.644,0,0,1,2.344-.734,3.792,3.792,0,0,1,2.449.75,2.38,2.38,0,0,1,.934,1.945h-1.9a1.17,1.17,0,0,0-.406-.91,1.557,1.557,0,0,0-1.078-.363,1.682,1.682,0,0,0-1.02.289.911.911,0,0,0-.395.773.769.769,0,0,0,.367.68,5.049,5.049,0,0,0,1.484.488,7.027,7.027,0,0,1,1.754.586,2.484,2.484,0,0,1,.945.816A2.082,2.082,0,0,1,28.07-2.4a2.2,2.2,0,0,1-.945,1.848,4.031,4.031,0,0,1-2.477.707A4.371,4.371,0,0,1,22.8-.219,3.047,3.047,0,0,1,21.531-1.25a2.441,2.441,0,0,1-.453-1.414h1.844a1.338,1.338,0,0,0,.508,1.035,1.973,1.973,0,0,0,1.242.363,1.92,1.92,0,0,0,1.141-.285A.883.883,0,0,0,26.2-2.3Z" transform="translate(1150 7330)" fill="#12263f"/>
      <path id="Trazado_874401" data-name="Trazado 874401" d="M-34.934-4.219V0H-36.91V-11.375h4.352a4.4,4.4,0,0,1,3.027.993A3.34,3.34,0,0,1-28.41-7.754a3.229,3.229,0,0,1-1.1,2.6,4.613,4.613,0,0,1-3.074.931Zm0-1.594h2.375a2.339,2.339,0,0,0,1.609-.5,1.823,1.823,0,0,0,.555-1.434,1.967,1.967,0,0,0-.562-1.473A2.168,2.168,0,0,0-32.5-9.781h-2.43ZM-23.145.156A3.928,3.928,0,0,1-26.07-.98a4.124,4.124,0,0,1-1.121-3.027v-.234A5.072,5.072,0,0,1-26.7-6.5a3.716,3.716,0,0,1,1.371-1.551,3.625,3.625,0,0,1,1.969-.555,3.318,3.318,0,0,1,2.668,1.1,4.658,4.658,0,0,1,.941,3.117v.766h-5.523a2.539,2.539,0,0,0,.7,1.656,2.1,2.1,0,0,0,1.543.609A2.571,2.571,0,0,0-20.91-2.414l1.023.977A3.418,3.418,0,0,1-21.242-.262,4.244,4.244,0,0,1-23.145.156Zm-.227-7.242a1.6,1.6,0,0,0-1.262.547,2.835,2.835,0,0,0-.613,1.523h3.617v-.141A2.307,2.307,0,0,0-22.137-6.6,1.586,1.586,0,0,0-23.371-7.086ZM-16.262,0h-1.9V-12h1.9Zm4.086,0h-1.9V-8.453h1.9Zm-2.016-10.648a1.008,1.008,0,0,1,.277-.727,1.048,1.048,0,0,1,.793-.289,1.061,1.061,0,0,1,.8.289,1,1,0,0,1,.281.727.977.977,0,0,1-.281.715,1.069,1.069,0,0,1-.8.285,1.056,1.056,0,0,1-.793-.285A.984.984,0,0,1-14.191-10.648Zm3.75,6.359a4.944,4.944,0,0,1,.926-3.145A2.971,2.971,0,0,1-7.059-8.609,2.784,2.784,0,0,1-4.785-7.6l.086-.852h1.711v8.2A3.406,3.406,0,0,1-4.023,2.367a3.943,3.943,0,0,1-2.793.961,4.5,4.5,0,0,1-1.816-.387A3.227,3.227,0,0,1-9.98,1.93l.9-1.141A2.713,2.713,0,0,0-6.926,1.828a2.1,2.1,0,0,0,1.492-.512,1.961,1.961,0,0,0,.547-1.5v-.57A2.8,2.8,0,0,1-7.074.156,2.964,2.964,0,0,1-9.5-1.023,5.1,5.1,0,0,1-10.441-4.289Zm1.891.164a3.4,3.4,0,0,0,.52,2,1.671,1.671,0,0,0,1.441.73,1.827,1.827,0,0,0,1.7-.984V-6.094a1.8,1.8,0,0,0-1.687-.961,1.677,1.677,0,0,0-1.457.742A3.811,3.811,0,0,0-8.551-4.125ZM3.387-6.719a4.7,4.7,0,0,0-.773-.062,1.741,1.741,0,0,0-1.758,1V0h-1.9V-8.453H.77l.047.945a2.139,2.139,0,0,1,1.906-1.1,1.777,1.777,0,0,1,.672.109ZM3.949-4.3a4.984,4.984,0,0,1,.492-2.238A3.6,3.6,0,0,1,5.824-8.074a3.9,3.9,0,0,1,2.047-.535,3.692,3.692,0,0,1,2.777,1.1A4.333,4.333,0,0,1,11.8-4.586l.008.445a5.029,5.029,0,0,1-.48,2.234A3.551,3.551,0,0,1,9.953-.383,3.925,3.925,0,0,1,7.887.156,3.667,3.667,0,0,1,5.023-1.035,4.563,4.563,0,0,1,3.949-4.211Zm1.9.164A3.406,3.406,0,0,0,6.387-2.1a1.752,1.752,0,0,0,1.5.738,1.733,1.733,0,0,0,1.5-.75,3.762,3.762,0,0,0,.535-2.2,3.362,3.362,0,0,0-.551-2.031,1.759,1.759,0,0,0-1.5-.75,1.743,1.743,0,0,0-1.477.738A3.691,3.691,0,0,0,5.848-4.141ZM18.152-2.3a.861.861,0,0,0-.418-.773,4.445,4.445,0,0,0-1.387-.469,7.129,7.129,0,0,1-1.617-.516,2.158,2.158,0,0,1-1.422-1.992,2.25,2.25,0,0,1,.922-1.828,3.644,3.644,0,0,1,2.344-.734,3.792,3.792,0,0,1,2.449.75,2.38,2.38,0,0,1,.934,1.945h-1.9a1.17,1.17,0,0,0-.406-.91,1.557,1.557,0,0,0-1.078-.363,1.682,1.682,0,0,0-1.02.289.911.911,0,0,0-.395.773.769.769,0,0,0,.367.68,5.049,5.049,0,0,0,1.484.488,7.027,7.027,0,0,1,1.754.586,2.484,2.484,0,0,1,.945.816A2.082,2.082,0,0,1,20.02-2.4a2.2,2.2,0,0,1-.945,1.848A4.031,4.031,0,0,1,16.6.156a4.371,4.371,0,0,1-1.852-.375A3.047,3.047,0,0,1,13.48-1.25a2.441,2.441,0,0,1-.453-1.414h1.844a1.338,1.338,0,0,0,.508,1.035,1.973,1.973,0,0,0,1.242.363,1.92,1.92,0,0,0,1.141-.285A.883.883,0,0,0,18.152-2.3ZM21.316-4.3a4.984,4.984,0,0,1,.492-2.238,3.6,3.6,0,0,1,1.383-1.531,3.9,3.9,0,0,1,2.047-.535,3.692,3.692,0,0,1,2.777,1.1,4.333,4.333,0,0,1,1.152,2.922l.008.445a5.029,5.029,0,0,1-.48,2.234A3.551,3.551,0,0,1,27.32-.383a3.925,3.925,0,0,1-2.066.539,3.667,3.667,0,0,1-2.863-1.191,4.563,4.563,0,0,1-1.074-3.176Zm1.9.164A3.406,3.406,0,0,0,23.754-2.1a1.752,1.752,0,0,0,1.5.738,1.733,1.733,0,0,0,1.5-.75,3.762,3.762,0,0,0,.535-2.2,3.362,3.362,0,0,0-.551-2.031,1.759,1.759,0,0,0-1.5-.75,1.743,1.743,0,0,0-1.477.738A3.691,3.691,0,0,0,23.215-4.141ZM35.52-2.3A.861.861,0,0,0,35.1-3.07a4.445,4.445,0,0,0-1.387-.469A7.129,7.129,0,0,1,32.1-4.055a2.158,2.158,0,0,1-1.422-1.992A2.25,2.25,0,0,1,31.6-7.875a3.644,3.644,0,0,1,2.344-.734,3.792,3.792,0,0,1,2.449.75,2.38,2.38,0,0,1,.934,1.945h-1.9a1.17,1.17,0,0,0-.406-.91,1.557,1.557,0,0,0-1.078-.363,1.682,1.682,0,0,0-1.02.289.911.911,0,0,0-.395.773.769.769,0,0,0,.367.68,5.049,5.049,0,0,0,1.484.488,7.027,7.027,0,0,1,1.754.586,2.484,2.484,0,0,1,.945.816A2.082,2.082,0,0,1,37.387-2.4a2.2,2.2,0,0,1-.945,1.848,4.031,4.031,0,0,1-2.477.707,4.371,4.371,0,0,1-1.852-.375A3.047,3.047,0,0,1,30.848-1.25a2.441,2.441,0,0,1-.453-1.414h1.844a1.338,1.338,0,0,0,.508,1.035,1.973,1.973,0,0,0,1.242.363,1.92,1.92,0,0,0,1.141-.285A.883.883,0,0,0,35.52-2.3Z" transform="translate(1290 7330)" fill="#12263f"/>
      <path id="Trazado_874160" data-name="Trazado 874160" d="M348.147,634.9l2.674,4.633-3.847,6.663-5.49-3.17,5.232-9.062c.049-.085.1-.168.158-.247a2.991,2.991,0,0,1,1.273,1.183" transform="translate(375.957 6556.83)" fill="#12263f"/>
      <path id="Trazado_874161" data-name="Trazado 874161" d="M397.654,631.772l-2.116,7.889-7.89-2.113,2.258-1.3-2.8-4.855-.758-1.314-2.4-4.158a3.921,3.921,0,0,0-1.425-1.425,3.434,3.434,0,0,1,2.152-.757h3.345A3.442,3.442,0,0,1,391,625.458l4.4,7.618Z" transform="translate(340.982 6565.334)" fill="#12263f"/>
      <path id="Trazado_874162" data-name="Trazado 874162" d="M470.063,746.019l-5.35-.014-3.83-6.673,5.5-3.156,5.21,9.076c.049.085.094.172.135.261a2.989,2.989,0,0,1-1.662.506" transform="translate(274.194 6469.504)" fill="#12263f"/>
      <path id="Trazado_874163" data-name="Trazado 874163" d="M408.908,802.95l-5.76-5.791,5.789-5.762L408.93,794l5.606.014,1.517,0,4.8.012a3.925,3.925,0,0,0,1.948-.517,3.434,3.434,0,0,1-.426,2.241l-1.68,2.893a3.442,3.442,0,0,1-2.985,1.714l-8.8-.022Z" transform="translate(323.401 6422.439)" fill="#12263f"/>
      <path id="Trazado_874164" data-name="Trazado 874164" d="M313.186,813.489l2.682-4.629,7.694.012-.009,6.339-10.465-.016c-.1,0-.2,0-.293-.013a2.99,2.99,0,0,1,.391-1.693" transform="translate(400.414 6407.556)" fill="#12263f"/>
      <path id="Trazado_874165" data-name="Trazado 874165" d="M282.868,724.642l7.893-2.1,2.1,7.892-2.255-1.307-2.81,4.851-.761,1.313-2.407,4.154a3.923,3.923,0,0,0-.524,1.945,3.434,3.434,0,0,1-1.73-1.488L280.71,737a3.443,3.443,0,0,1,.005-3.442l4.409-7.612Z" transform="translate(428.145 6481.125)" fill="#12263f"/>
    </g>
  </g>
</svg>
