<svg xmlns="http://www.w3.org/2000/svg" xmlns:xlink="http://www.w3.org/1999/xlink" width="97" height="97" viewBox="0 0 97 97">
  <defs>
    <clipPath id="clip-path">
      <rect id="Rectángulo_401602" data-name="Rectángulo 401602" width="66" height="66" transform="translate(0.449 0.449)" fill="#f1e7c2"/>
    </clipPath>
  </defs>
  <g id="_67" data-name="67" transform="translate(-442 -8653)">
    <circle id="Elipse_11579" data-name="Elipse 11579" cx="48.5" cy="48.5" r="48.5" transform="translate(442 8653)" fill="#5f6e62"/>
    <g id="Grupo_1099707" data-name="Grupo 1099707" transform="translate(457.551 8668.156)">
      <g id="Grupo_1099706" data-name="Grupo 1099706" transform="translate(0 0.395)" clip-path="url(#clip-path)">
        <path id="Trazado_874200" data-name="Trazado 874200" d="M128.177,138.09H101.044a1.043,1.043,0,0,1-1.023-1.248l3.11-15.553v-8.245a1.044,1.044,0,0,1,2.087,0v8.349a1.033,1.033,0,0,1-.02.2L102.317,136H126.9L124.023,121.6a1.043,1.043,0,1,1,2.046-.409l3.131,15.654a1.043,1.043,0,0,1-1.023,1.248" transform="translate(-73.91 -83.12)" fill="#f1e7c2"/>
        <path id="Trazado_874201" data-name="Trazado 874201" d="M152.943,186.087H135.964a1.044,1.044,0,1,1,0-2.087h16.979a1.044,1.044,0,0,1,0,2.087" transform="translate(-99.72 -136.335)" fill="#f1e7c2"/>
        <path id="Trazado_874202" data-name="Trazado 874202" d="M113.044,53.741A1.044,1.044,0,0,1,112,52.7V39.653a3.653,3.653,0,1,1,7.305,0v9.914a1.044,1.044,0,1,1-2.087,0V39.653a1.565,1.565,0,0,0-3.131,0V52.7a1.044,1.044,0,0,1-1.044,1.044" transform="translate(-82.779 -26.948)" fill="#f1e7c2"/>
        <path id="Trazado_874203" data-name="Trazado 874203" d="M138.262,41.741a1.044,1.044,0,0,1-1.044-1.044V27.653a1.565,1.565,0,1,0-3.131,0V40.7a1.044,1.044,0,0,1-2.087,0V27.653a3.653,3.653,0,1,1,7.305,0V40.7a1.044,1.044,0,0,1-1.044,1.044" transform="translate(-97.561 -18.079)" fill="#f1e7c2"/>
        <path id="Trazado_874204" data-name="Trazado 874204" d="M158.262,35.828a1.044,1.044,0,0,1-1.044-1.044V19.653a1.565,1.565,0,1,0-3.131,0V34.785a1.044,1.044,0,0,1-2.087,0V19.653a3.653,3.653,0,1,1,7.305,0V34.785a1.044,1.044,0,0,1-1.044,1.044" transform="translate(-112.343 -12.166)" fill="#f1e7c2"/>
        <path id="Trazado_874205" data-name="Trazado 874205" d="M178.262,48a1.044,1.044,0,0,1-1.044-1.044V27.653a1.565,1.565,0,0,0-3.131,0V40.7a1.044,1.044,0,0,1-2.087,0V27.653a3.653,3.653,0,0,1,7.305,0V46.959A1.044,1.044,0,0,1,178.262,48" transform="translate(-127.125 -18.079)" fill="#f1e7c2"/>
        <path id="Trazado_874206" data-name="Trazado 874206" d="M193.043,101.741a1.044,1.044,0,0,1-.766-1.752l9.652-10.443a2.093,2.093,0,0,0-1.58-3.458,2.031,2.031,0,0,0-1.179.367l-.023.016-5.531,3.621a1.044,1.044,0,1,1-1.143-1.746l5.52-3.614A4.135,4.135,0,0,1,200.348,84a4.18,4.18,0,0,1,3.147,6.925l-.022.024-9.664,10.457a1.042,1.042,0,0,1-.767.335" transform="translate(-141.907 -62.425)" fill="#f1e7c2"/>
        <path id="Trazado_874207" data-name="Trazado 874207" d="M72.177,189.74H45.044a1.043,1.043,0,0,1-1.023-1.248l3.131-15.654a1.043,1.043,0,1,1,2.046.409l-2.881,14.406H70.9L69.693,181.6a1.043,1.043,0,1,1,2.046-.409l1.461,7.305a1.043,1.043,0,0,1-1.023,1.248" transform="translate(-32.521 -127.465)" fill="#f1e7c2"/>
        <path id="Trazado_874208" data-name="Trazado 874208" d="M58.436,214.087H49.044a1.044,1.044,0,1,1,0-2.087h9.392a1.044,1.044,0,1,1,0,2.087" transform="translate(-35.477 -157.03)" fill="#f1e7c2"/>
        <path id="Trazado_874209" data-name="Trazado 874209" d="M82.262,63.828a1.044,1.044,0,0,1-1.044-1.044V47.653a1.565,1.565,0,1,0-3.131,0V62.785a1.044,1.044,0,0,1-2.087,0V47.653a3.653,3.653,0,1,1,7.305,0V62.785a1.044,1.044,0,0,1-1.044,1.044" transform="translate(-56.172 -32.861)" fill="#f1e7c2"/>
        <path id="Trazado_874210" data-name="Trazado 874210" d="M57.044,76A1.044,1.044,0,0,1,56,74.959V55.653a3.653,3.653,0,0,1,7.305,0V68.7a1.044,1.044,0,1,1-2.087,0V55.653a1.565,1.565,0,0,0-3.131,0V74.959A1.044,1.044,0,0,1,57.044,76" transform="translate(-41.39 -38.774)" fill="#f1e7c2"/>
        <path id="Trazado_874211" data-name="Trazado 874211" d="M27.48,129.741a1.04,1.04,0,0,1-.767-.335l-9.664-10.457-.022-.024A4.18,4.18,0,0,1,20.174,112a4.135,4.135,0,0,1,2.357.731l5.52,3.614a1.044,1.044,0,1,1-1.143,1.746l-5.531-3.621-.023-.016a2.031,2.031,0,0,0-1.179-.367,2.093,2.093,0,0,0-1.58,3.458l9.652,10.443a1.044,1.044,0,0,1-.766,1.752" transform="translate(-11.826 -83.12)" fill="#f1e7c2"/>
      </g>
    </g>
  </g>
</svg>
