<svg xmlns="http://www.w3.org/2000/svg" xmlns:xlink="http://www.w3.org/1999/xlink" width="97" height="97" viewBox="0 0 97 97">
  <defs>
    <clipPath id="clip-path">
      <rect id="Rectángulo_401600" data-name="Rectángulo 401600" width="66" height="66" transform="translate(0 0.427)" fill="#f1e7c2"/>
    </clipPath>
  </defs>
  <g id="_68" data-name="68" transform="translate(-752 -8653)">
    <circle id="Elipse_11592" data-name="Elipse 11592" cx="48.5" cy="48.5" r="48.5" transform="translate(752 8653)" fill="#5f6e62"/>
    <g id="Grupo_1099703" data-name="Grupo 1099703" transform="translate(767 8669.573)">
      <g id="Grupo_1099702" data-name="Grupo 1099702" clip-path="url(#clip-path)">
        <path id="Trazado_874172" data-name="Trazado 874172" d="M23.265,32.607H17.038A1.038,1.038,0,0,1,16,31.569V17.038A1.038,1.038,0,0,1,17.038,16h6.228A1.038,1.038,0,0,1,24.3,17.038V31.569a1.038,1.038,0,0,1-1.038,1.038m-5.19-2.076h4.152V18.076H18.076Z" transform="translate(-11.848 -11.848)" fill="#f1e7c2"/>
        <path id="Trazado_874173" data-name="Trazado 874173" d="M87.569,116.3H73.038A1.038,1.038,0,0,1,72,115.265v-6.228A1.038,1.038,0,0,1,73.038,108H87.569a1.038,1.038,0,0,1,1.038,1.038v6.228a1.038,1.038,0,0,1-1.038,1.038m-13.493-2.076H86.531v-4.152H74.076Z" transform="translate(-53.317 -79.976)" fill="#f1e7c2"/>
        <path id="Trazado_874174" data-name="Trazado 874174" d="M181.492,75.383H171.113a1.038,1.038,0,0,1-1.013-.812l-2.076-9.309a1.038,1.038,0,0,1,2.026-.452l1.895,8.5h8.715l1.895-8.5a1.038,1.038,0,0,1,2.026.452l-2.076,9.309a1.038,1.038,0,0,1-1.013.812" transform="translate(-124.407 -47.392)" fill="#f1e7c2"/>
        <path id="Trazado_874175" data-name="Trazado 874175" d="M179.721,48.3h-9.341a1.038,1.038,0,0,1,0-2.076h8.3V42.076H162.076v4.152h4.152a1.038,1.038,0,0,1,0,2.076h-5.19A1.038,1.038,0,0,1,160,47.265V41.038A1.038,1.038,0,0,1,161.038,40h18.683a1.038,1.038,0,0,1,1.038,1.038v6.228a1.038,1.038,0,0,1-1.038,1.038" transform="translate(-118.483 -29.621)" fill="#f1e7c2"/>
        <path id="Trazado_874176" data-name="Trazado 874176" d="M69.038,29.545A1.038,1.038,0,0,1,68,28.507V25.518a1.038,1.038,0,1,1,2.076,0v2.989a1.038,1.038,0,0,1-1.038,1.038" transform="translate(-50.355 -18.128)" fill="#f1e7c2"/>
        <path id="Trazado_874177" data-name="Trazado 874177" d="M112.166,78.076h-3.128a1.038,1.038,0,0,1,0-2.076h3.128a1.038,1.038,0,0,1,0,2.076" transform="translate(-79.976 -56.279)" fill="#f1e7c2"/>
        <path id="Trazado_874178" data-name="Trazado 874178" d="M97.038,43.592a1.038,1.038,0,0,1-.734-1.772l2.272-2.272a1.038,1.038,0,1,1,1.468,1.468l-2.272,2.272a1.034,1.034,0,0,1-.734.3" transform="translate(-71.09 -29.062)" fill="#f1e7c2"/>
        <path id="Trazado_874179" data-name="Trazado 874179" d="M61.8,47.872a1.038,1.038,0,0,1-1.038-1.038v-8.3A12.469,12.469,0,0,0,48.3,26.076H42.076v8.3H48.3a4.157,4.157,0,0,1,4.152,4.152v8.3a1.038,1.038,0,0,1-2.076,0v-8.3A2.078,2.078,0,0,0,48.3,36.455H41.038A1.038,1.038,0,0,1,40,35.417V25.038A1.038,1.038,0,0,1,41.038,24H48.3A14.547,14.547,0,0,1,62.834,38.531v8.3A1.038,1.038,0,0,1,61.8,47.872" transform="translate(-29.621 -17.772)" fill="#f1e7c2"/>
        <path id="Trazado_874180" data-name="Trazado 874180" d="M120.6,136.327a18.526,18.526,0,0,1-10.553-3.276,1.038,1.038,0,0,1,1.177-1.71,16.457,16.457,0,0,0,9.376,2.91,16.625,16.625,0,0,0,16.607-16.607V102.076h-8.3v15.569a8.3,8.3,0,0,1-16.607,0v-8.3a1.038,1.038,0,1,1,2.076,0v8.3a6.228,6.228,0,1,0,12.455,0V101.038A1.038,1.038,0,0,1,127.867,100h10.379a1.038,1.038,0,0,1,1.038,1.038v16.607A18.7,18.7,0,0,1,120.6,136.327" transform="translate(-81.16 -74.052)" fill="#f1e7c2"/>
        <path id="Trazado_874181" data-name="Trazado 874181" d="M81.047,142.732a1.038,1.038,0,0,1-1.032-.944c-.015-.161-.015-.32-.015-.447v-8.3a1.038,1.038,0,1,1,2.076,0v8.3c0,.084,0,.175.006.259a1.038,1.038,0,0,1-.94,1.127c-.032,0-.064,0-.1,0" transform="translate(-59.242 -97.749)" fill="#f1e7c2"/>
        <path id="Trazado_874182" data-name="Trazado 874182" d="M75.265,190.531a1.038,1.038,0,0,1-1.012-.809c-.91-4.026-1.419-4.534-5.444-5.444a1.038,1.038,0,0,1,0-2.024c4.025-.91,4.534-1.419,5.444-5.444a1.038,1.038,0,0,1,2.025,0c.91,4.026,1.419,4.534,5.444,5.444a1.038,1.038,0,0,1,0,2.024c-4.025.91-4.534,1.419-5.444,5.444a1.038,1.038,0,0,1-1.012.809m-2.72-7.265a5.156,5.156,0,0,1,2.72,2.72,5.157,5.157,0,0,1,2.72-2.72,5.157,5.157,0,0,1-2.72-2.72,5.156,5.156,0,0,1-2.72,2.72" transform="translate(-50.355 -130.331)" fill="#f1e7c2"/>
        <path id="Trazado_874183" data-name="Trazado 874183" d="M31.038,207.114A1.038,1.038,0,0,1,30,206.076v-1.038a1.038,1.038,0,0,1,2.076,0v1.038a1.038,1.038,0,0,1-1.038,1.038" transform="translate(-22.216 -151.066)" fill="#f1e7c2"/>
        <path id="Trazado_874184" data-name="Trazado 874184" d="M31.038,231.114A1.038,1.038,0,0,1,30,230.076v-1.038a1.038,1.038,0,1,1,2.076,0v1.038a1.038,1.038,0,0,1-1.038,1.038" transform="translate(-22.216 -168.838)" fill="#f1e7c2"/>
        <path id="Trazado_874185" data-name="Trazado 874185" d="M18.076,220.076H17.038a1.038,1.038,0,1,1,0-2.076h1.038a1.038,1.038,0,1,1,0,2.076" transform="translate(-11.848 -161.433)" fill="#f1e7c2"/>
        <path id="Trazado_874186" data-name="Trazado 874186" d="M42.076,220.076H41.038a1.038,1.038,0,1,1,0-2.076h1.038a1.038,1.038,0,1,1,0,2.076" transform="translate(-29.621 -161.433)" fill="#f1e7c2"/>
        <path id="Trazado_874187" data-name="Trazado 874187" d="M47.038,155.114A1.038,1.038,0,0,1,46,154.076v-1.038a1.038,1.038,0,0,1,2.076,0v1.038a1.038,1.038,0,0,1-1.038,1.038" transform="translate(-34.064 -112.559)" fill="#f1e7c2"/>
        <path id="Trazado_874188" data-name="Trazado 874188" d="M47.038,179.114A1.038,1.038,0,0,1,46,178.076v-1.038a1.038,1.038,0,0,1,2.076,0v1.038a1.038,1.038,0,0,1-1.038,1.038" transform="translate(-34.064 -130.331)" fill="#f1e7c2"/>
        <path id="Trazado_874189" data-name="Trazado 874189" d="M34.076,168.076H33.038a1.038,1.038,0,1,1,0-2.076h1.038a1.038,1.038,0,1,1,0,2.076" transform="translate(-23.697 -122.926)" fill="#f1e7c2"/>
        <path id="Trazado_874190" data-name="Trazado 874190" d="M58.076,168.076H57.038a1.038,1.038,0,1,1,0-2.076h1.038a1.038,1.038,0,1,1,0,2.076" transform="translate(-41.469 -122.926)" fill="#f1e7c2"/>
      </g>
    </g>
  </g>
</svg>
