<svg xmlns="http://www.w3.org/2000/svg" xmlns:xlink="http://www.w3.org/1999/xlink" width="97" height="97" viewBox="0 0 97 97">
  <defs>
    <clipPath id="clip-path">
      <rect id="Rectángulo_401606" data-name="Rectángulo 401606" width="58.117" height="63.276" fill="#f8f3e0"/>
    </clipPath>
  </defs>
  <g id="_70" data-name="70" transform="translate(3229 3295)">
    <g id="Grupo_1099720" data-name="Grupo 1099720" transform="translate(-4303 -11948)">
      <circle id="Elipse_11593" data-name="Elipse 11593" cx="48.5" cy="48.5" r="48.5" transform="translate(1074 8653)" fill="#5f6e62"/>
    </g>
    <g id="Grupo_1099722" data-name="Grupo 1099722" transform="translate(-3205.117 -3277.276)">
      <g id="Grupo_1099721" data-name="Grupo 1099721" clip-path="url(#clip-path)">
        <path id="Trazado_874258" data-name="Trazado 874258" d="M16.941,13.656a6.828,6.828,0,1,0-6.828-6.828,6.836,6.836,0,0,0,6.828,6.828m0-11.376a4.549,4.549,0,1,1-4.549,4.549,4.554,4.554,0,0,1,4.549-4.549" transform="translate(-5.503)" fill="#f8f3e0"/>
        <path id="Trazado_874259" data-name="Trazado 874259" d="M37.834,41.525H20.708l-.126-.148a13.084,13.084,0,0,1-2.616-4.308c-.08-.232-.15-.477-.221-.727a7.126,7.126,0,0,0-1.521-3.09,6.606,6.606,0,0,0-4.868-1.93,6.364,6.364,0,0,0-2.388.427,5.986,5.986,0,0,0-2.26,1.571H4.351A4.614,4.614,0,0,0,0,37.949v9.116A4.108,4.108,0,0,0,4.351,51.1H5.47v1.925a6.307,6.307,0,0,0,.476,2.048,5.829,5.829,0,0,1,.436,1.786V75.5a4.786,4.786,0,1,0,9.573,0V57.2a5.416,5.416,0,0,1,.144-.662,7.9,7.9,0,0,0,.311-1.912v-7.77a6.665,6.665,0,0,0,3.45,1.506h7.32a3.445,3.445,0,0,0,3.464-3.419,3.364,3.364,0,0,0-.2-1.14h7.392a1.14,1.14,0,0,0,0-2.279M4.351,48.818a1.863,1.863,0,0,1-2.072-1.753V37.949A2.376,2.376,0,0,1,4.351,35.6H5.58a5.445,5.445,0,0,0-.11,1.085V48.818Zm24.014-3.874a1.151,1.151,0,0,1-1.185,1.14H19.86c-.618,0-2.365-1.07-3.779-2.5a1.139,1.139,0,0,0-1.95.8V54.626a6.077,6.077,0,0,1-.241,1.351,5.133,5.133,0,0,0-.215,1.219V75.5a2.507,2.507,0,1,1-5.014,0V56.857A7.611,7.611,0,0,0,8.1,54.313a4.973,4.973,0,0,1-.346-1.29V36.684a2.934,2.934,0,0,1,2.084-2.827,4.138,4.138,0,0,1,1.522-.257,4.4,4.4,0,0,1,3.2,1.2,5.081,5.081,0,0,1,1,2.167c.083.289.164.571.266.866a15.325,15.325,0,0,0,3.03,5.023c.159.186.3.352.421.505a1.139,1.139,0,0,0,.9.439H27.18a1.151,1.151,0,0,1,1.185,1.14" transform="translate(0 -17.045)" fill="#f8f3e0"/>
        <path id="Trazado_874260" data-name="Trazado 874260" d="M97.97,54.846a1.139,1.139,0,0,0-1.14-1.14H93.64a1.14,1.14,0,0,0,0,2.279H96.83a1.139,1.139,0,0,0,1.14-1.14" transform="translate(-50.336 -29.226)" fill="#f8f3e0"/>
        <path id="Trazado_874261" data-name="Trazado 874261" d="M104.64,45.985h3.191a1.14,1.14,0,0,0,0-2.279H104.64a1.14,1.14,0,0,0,0,2.279" transform="translate(-56.322 -23.784)" fill="#f8f3e0"/>
        <path id="Trazado_874262" data-name="Trazado 874262" d="M107.83,63.706H104.64a1.14,1.14,0,0,0,0,2.279h3.191a1.14,1.14,0,1,0,0-2.279" transform="translate(-56.322 -34.667)" fill="#f8f3e0"/>
        <path id="Trazado_874263" data-name="Trazado 874263" d="M119.83,53.706H116.64a1.14,1.14,0,0,0,0,2.279h3.191a1.14,1.14,0,0,0,0-2.279" transform="translate(-62.853 -29.226)" fill="#f8f3e0"/>
        <path id="Trazado_874264" data-name="Trazado 874264" d="M116.64,35.985h3.191a1.14,1.14,0,0,0,0-2.279H116.64a1.14,1.14,0,0,0,0,2.279" transform="translate(-62.853 -18.342)" fill="#f8f3e0"/>
        <path id="Trazado_874265" data-name="Trazado 874265" d="M119.83,73.706H116.64a1.14,1.14,0,0,0,0,2.279h3.191a1.14,1.14,0,0,0,0-2.279" transform="translate(-62.853 -40.109)" fill="#f8f3e0"/>
      </g>
    </g>
  </g>
</svg>
