<svg xmlns="http://www.w3.org/2000/svg" xmlns:xlink="http://www.w3.org/1999/xlink" width="97" height="97" viewBox="0 0 97 97">
  <defs>
    <clipPath id="clip-path">
      <rect id="Rectángulo_401601" data-name="Rectángulo 401601" width="67" height="67" transform="translate(0 0.105)" fill="#f1e7c2"/>
    </clipPath>
  </defs>
  <g id="_71" data-name="71" transform="translate(-1074 -8653)">
    <circle id="Elipse_11593" data-name="Elipse 11593" cx="48.5" cy="48.5" r="48.5" transform="translate(1074 8653)" fill="#5f6e62"/>
    <g id="Grupo_1099705" data-name="Grupo 1099705" transform="translate(1088.824 8667.719)">
      <g id="Grupo_1099704" data-name="Grupo 1099704" transform="translate(0.176 0.176)" clip-path="url(#clip-path)">
        <path id="Trazado_874191" data-name="Trazado 874191" d="M186.628,127.562h-1.577a1.051,1.051,0,1,1,0-2.1h1.577a3.679,3.679,0,0,0,0-7.357h-1.577a1.051,1.051,0,1,1,0-2.1h1.577a5.781,5.781,0,0,1,0,11.562" transform="translate(-135.813 -85.681)" fill="#f1e7c2"/>
        <path id="Trazado_874192" data-name="Trazado 874192" d="M186.628,163.562h-1.577a1.051,1.051,0,1,1,0-2.1h1.577a3.679,3.679,0,0,0,0-7.357h-1.577a1.051,1.051,0,1,1,0-2.1h1.577a5.781,5.781,0,0,1,0,11.562" transform="translate(-135.813 -112.222)" fill="#f1e7c2"/>
        <path id="Trazado_874193" data-name="Trazado 874193" d="M104.057,199.562H73.051a1.051,1.051,0,1,1,0-2.1h31.006a3.679,3.679,0,0,0,0-7.357H102.48a1.051,1.051,0,1,1,0-2.1h1.577a5.781,5.781,0,0,1,0,11.562" transform="translate(-53.243 -138.762)" fill="#f1e7c2"/>
        <path id="Trazado_874194" data-name="Trazado 874194" d="M43.562,116.144H33.051A1.051,1.051,0,0,1,32,115.093V73.051A1.051,1.051,0,0,1,33.051,72h10.51a1.051,1.051,0,0,1,1.051,1.051v42.042a1.051,1.051,0,0,1-1.051,1.051m-9.459-2.1H42.51V74.1H34.1Z" transform="translate(-23.753 -53.243)" fill="#f1e7c2"/>
        <path id="Trazado_874195" data-name="Trazado 874195" d="M157.138,91.562h-1.577a1.051,1.051,0,1,1,0-2.1h1.577a3.679,3.679,0,0,0,0-7.357H145.051a1.051,1.051,0,0,1,0-2.1h12.087a5.781,5.781,0,0,1,0,11.562" transform="translate(-106.324 -59.141)" fill="#f1e7c2"/>
        <path id="Trazado_874196" data-name="Trazado 874196" d="M96.174,34.919a1.051,1.051,0,0,1-1.051-1.051V25.459a7.368,7.368,0,0,0-6.683-7.327L81.371,34.289a1.052,1.052,0,0,1-.963.63H73.051a1.051,1.051,0,1,1,0-2.1h6.67L86.8,16.63a1.052,1.052,0,0,1,.963-.63,9.47,9.47,0,0,1,9.459,9.459v8.408a1.051,1.051,0,0,1-1.051,1.051" transform="translate(-53.243 -11.957)" fill="#f1e7c2"/>
        <path id="Trazado_874197" data-name="Trazado 874197" d="M117.432,45.255h-4.141a1.051,1.051,0,0,1,0-2.1h4.141a2.1,2.1,0,0,0,2.1-2.1,1.051,1.051,0,1,1,2.1,0,4.209,4.209,0,0,1-4.2,4.2" transform="translate(-82.909 -29.651)" fill="#f1e7c2"/>
        <path id="Trazado_874198" data-name="Trazado 874198" d="M192.408,24.817a1.051,1.051,0,0,1-1.025-.82c-1.085-4.8-1.76-5.478-6.564-6.564a1.051,1.051,0,0,1,0-2.051c4.8-1.085,5.479-1.76,6.564-6.564a1.051,1.051,0,0,1,2.05,0c1.085,4.8,1.76,5.478,6.564,6.564a1.051,1.051,0,0,1,0,2.051c-4.8,1.085-5.479,1.76-6.564,6.564a1.051,1.051,0,0,1-1.025.82m-3.659-8.408a6.166,6.166,0,0,1,3.659,3.658,6.165,6.165,0,0,1,3.659-3.658,6.165,6.165,0,0,1-3.659-3.658,6.166,6.166,0,0,1-3.659,3.658" transform="translate(-135.813 -6.059)" fill="#f1e7c2"/>
        <path id="Trazado_874199" data-name="Trazado 874199" d="M102.51,121.021a1.051,1.051,0,0,1-1.025-.819c-1.433-6.342-2.324-7.233-8.666-8.666a1.051,1.051,0,0,1,0-2.05c6.342-1.433,7.233-2.324,8.666-8.666a1.051,1.051,0,0,1,2.05,0c1.433,6.342,2.324,7.233,8.666,8.666a1.051,1.051,0,0,1,0,2.05c-6.342,1.433-7.233,2.324-8.666,8.666a1.051,1.051,0,0,1-1.025.819M97,110.51a7.967,7.967,0,0,1,5.515,5.515,7.967,7.967,0,0,1,5.515-5.515A7.967,7.967,0,0,1,102.51,105,7.967,7.967,0,0,1,97,110.51" transform="translate(-67.987 -73.885)" fill="#f1e7c2"/>
      </g>
    </g>
  </g>
</svg>
