<svg xmlns="http://www.w3.org/2000/svg" xmlns:xlink="http://www.w3.org/1999/xlink" width="97" height="97" viewBox="0 0 97 97">
  <defs>
    <clipPath id="clip-path">
      <rect id="Rectángulo_401604" data-name="Rectángulo 401604" width="60" height="60" transform="translate(0 0.332)" fill="#f8f3e0"/>
    </clipPath>
  </defs>
  <g id="_73" data-name="73" transform="translate(3237 2923)">
    <circle id="Elipse_11593" data-name="Elipse 11593" cx="48.5" cy="48.5" r="48.5" transform="translate(-3237 -2923)" fill="#5f6e62"/>
    <g id="Grupo_1099715" data-name="Grupo 1099715" transform="translate(-3218 -2905.324)">
      <g id="Grupo_1099714" data-name="Grupo 1099714" transform="translate(0 -0.008)" clip-path="url(#clip-path)">
        <path id="Trazado_874230" data-name="Trazado 874230" d="M7.541,74.646H.943A.943.943,0,0,1,0,73.7V36.943A.943.943,0,0,1,.943,36H18.852a.943.943,0,1,1,0,1.885H1.885V72.761H7.541a.943.943,0,1,1,0,1.885" transform="translate(0 -27.511)" fill="#f8f3e0"/>
        <path id="Trazado_874231" data-name="Trazado 874231" d="M99.541,108.278h-6.6a.943.943,0,1,1,0-1.885H98.6V80.943a.943.943,0,0,1,1.885,0v26.393a.943.943,0,0,1-.943.943" transform="translate(-70.32 -61.142)" fill="#f8f3e0"/>
        <path id="Trazado_874232" data-name="Trazado 874232" d="M164.508,95.973h-3.77a.943.943,0,0,1,0-1.885h3.77a.944.944,0,0,0,.943-.943v-7.5a14.19,14.19,0,0,0-1.633-6.6l-6.146-11.653a2.821,2.821,0,0,0-2.5-1.509H141.885v18.8a.943.943,0,0,1-1.885,0V64.943a.943.943,0,0,1,.943-.943H155.17a4.7,4.7,0,0,1,4.168,2.514l6.146,11.653a16.084,16.084,0,0,1,1.851,7.476v7.5a2.831,2.831,0,0,1-2.828,2.828" transform="translate(-107.009 -48.913)" fill="#f8f3e0"/>
        <path id="Trazado_874233" data-name="Trazado 874233" d="M171.734,93.2H160.943a.943.943,0,0,1-.943-.943V80.943a.943.943,0,0,1,.943-.943h9.514a.942.942,0,0,1,.834.5l3.779,7.164a3.77,3.77,0,0,1-3.335,5.53m-9.849-1.885h9.849a1.885,1.885,0,0,0,1.667-2.765l-3.514-6.661h-8Z" transform="translate(-122.296 -61.142)" fill="#f8f3e0"/>
        <path id="Trazado_874234" data-name="Trazado 874234" d="M142.6,193.885h-5.656a.943.943,0,0,1,0-1.885H142.6a.943.943,0,0,1,0,1.885" transform="translate(-103.952 -146.75)" fill="#f8f3e0"/>
        <path id="Trazado_874235" data-name="Trazado 874235" d="M168.483,184.967a8.483,8.483,0,1,1,8.483-8.483,8.493,8.493,0,0,1-8.483,8.483m0-15.082a6.6,6.6,0,1,0,6.6,6.6,6.606,6.606,0,0,0-6.6-6.6" transform="translate(-122.296 -128.405)" fill="#f8f3e0"/>
        <path id="Trazado_874236" data-name="Trazado 874236" d="M183.77,195.541a3.77,3.77,0,1,1,3.77-3.77,3.775,3.775,0,0,1-3.77,3.77m0-5.656a1.885,1.885,0,1,0,1.885,1.885,1.887,1.887,0,0,0-1.885-1.885" transform="translate(-137.583 -143.692)" fill="#f8f3e0"/>
        <path id="Trazado_874237" data-name="Trazado 874237" d="M36.483,184.967a8.483,8.483,0,1,1,8.483-8.483,8.493,8.493,0,0,1-8.483,8.483m0-15.082a6.6,6.6,0,1,0,6.6,6.6,6.606,6.606,0,0,0-6.6-6.6" transform="translate(-21.402 -128.405)" fill="#f8f3e0"/>
        <path id="Trazado_874238" data-name="Trazado 874238" d="M51.77,195.541a3.77,3.77,0,1,1,3.77-3.77,3.775,3.775,0,0,1-3.77,3.77m0-5.656a1.885,1.885,0,1,0,1.885,1.885,1.887,1.887,0,0,0-1.885-1.885" transform="translate(-36.689 -143.692)" fill="#f8f3e0"/>
        <path id="Trazado_874239" data-name="Trazado 874239" d="M158.828,145.885h-1.885a.943.943,0,0,1,0-1.885h1.885a.943.943,0,0,1,0,1.885" transform="translate(-119.239 -110.061)" fill="#f8f3e0"/>
        <path id="Trazado_874240" data-name="Trazado 874240" d="M99.541,23.082a.943.943,0,0,1-.92-.735c-.973-4.308-1.578-4.914-5.886-5.887a.942.942,0,0,1,0-1.839c4.308-.973,4.913-1.579,5.886-5.887a.943.943,0,0,1,1.839,0c.973,4.308,1.578,4.914,5.886,5.887a.942.942,0,0,1,0,1.839c-4.308.973-4.913,1.579-5.886,5.887a.943.943,0,0,1-.92.735M96.26,15.541a5.53,5.53,0,0,1,3.281,3.281,5.53,5.53,0,0,1,3.281-3.281,5.53,5.53,0,0,1-3.281-3.281,5.53,5.53,0,0,1-3.281,3.281" transform="translate(-70.32 -6.109)" fill="#f8f3e0"/>
        <path id="Trazado_874241" data-name="Trazado 874241" d="M33.426,78.852a.943.943,0,0,1-.92-.735c-1.285-5.688-2.084-6.487-7.772-7.772a.942.942,0,0,1,0-1.839c5.688-1.285,6.487-2.084,7.772-7.772a.943.943,0,0,1,1.839,0c1.285,5.688,2.084,6.487,7.771,7.772a.942.942,0,0,1,0,1.839c-5.688,1.285-6.486,2.084-7.771,7.772a.943.943,0,0,1-.92.735M28.48,69.426a7.145,7.145,0,0,1,4.946,4.946,7.145,7.145,0,0,1,4.946-4.946,7.145,7.145,0,0,1-4.946-4.946,7.145,7.145,0,0,1-4.946,4.946" transform="translate(-18.344 -45.855)" fill="#f8f3e0"/>
      </g>
    </g>
  </g>
</svg>
