<svg xmlns="http://www.w3.org/2000/svg" xmlns:xlink="http://www.w3.org/1999/xlink" width="97" height="97" viewBox="0 0 97 97">
  <defs>
    <clipPath id="clip-path">
      <rect id="Rectángulo_401605" data-name="Rectángulo 401605" width="68" height="68" transform="translate(0 0.184)" fill="#f8f3e0"/>
    </clipPath>
  </defs>
  <g id="_74" data-name="74" transform="translate(2930 2923)">
    <circle id="Elipse_11593" data-name="Elipse 11593" cx="48.5" cy="48.5" r="48.5" transform="translate(-2930 -2923)" fill="#5f6e62"/>
    <g id="Grupo_1099718" data-name="Grupo 1099718" transform="translate(-2915 -2908.141)">
      <g id="Grupo_1099717" data-name="Grupo 1099717" transform="translate(0 -0.043)" clip-path="url(#clip-path)">
        <path id="Trazado_874242" data-name="Trazado 874242" d="M99.711,105.551a2.132,2.132,0,0,1-2.129-2.129V97.034H91.194a3.194,3.194,0,0,1-2.674-4.94L95.8,80.965a2.129,2.129,0,0,1,3.912,1.165v6.388H106.1a3.194,3.194,0,0,1,2.674,4.941l-7.28,11.129a2.122,2.122,0,0,1-1.782.965M97.582,82.129,90.3,93.259a1.065,1.065,0,0,0,.892,1.646h7.452a1.065,1.065,0,0,1,1.065,1.065v7.452l7.28-11.13a1.065,1.065,0,0,0-.892-1.646H98.646a1.065,1.065,0,0,1-1.065-1.065ZM89.411,92.676h0Z" transform="translate(-64.578 -58.66)" fill="#f8f3e0"/>
        <path id="Trazado_874243" data-name="Trazado 874243" d="M117.582,27.711a1.065,1.065,0,0,1-1.065-1.065V21.323a3.194,3.194,0,1,0-6.388,0v5.323a1.065,1.065,0,1,1-2.129,0V21.323a5.323,5.323,0,0,1,10.646,0v5.323a1.065,1.065,0,0,1-1.065,1.065" transform="translate(-79.255 -11.693)" fill="#f8f3e0"/>
        <path id="Trazado_874244" data-name="Trazado 874244" d="M113.323,207.711A5.329,5.329,0,0,1,108,202.388v-5.323a1.065,1.065,0,0,1,2.129,0v5.323a3.194,3.194,0,0,0,6.388,0v-5.323a1.065,1.065,0,0,1,2.129,0v5.323a5.329,5.329,0,0,1-5.323,5.323" transform="translate(-79.255 -143.786)" fill="#f8f3e0"/>
        <path id="Trazado_874245" data-name="Trazado 874245" d="M26.646,118.646H21.323a5.323,5.323,0,0,1,0-10.646h5.323a1.065,1.065,0,1,1,0,2.129H21.323a3.194,3.194,0,0,0,0,6.388h5.323a1.065,1.065,0,0,1,0,2.129" transform="translate(-11.742 -79.207)" fill="#f8f3e0"/>
        <path id="Trazado_874246" data-name="Trazado 874246" d="M202.388,118.646h-5.323a1.065,1.065,0,0,1,0-2.129h5.323a3.194,3.194,0,0,0,0-6.388h-5.323a1.065,1.065,0,0,1,0-2.129h5.323a5.323,5.323,0,0,1,0,10.646" transform="translate(-143.834 -79.207)" fill="#f8f3e0"/>
        <path id="Trazado_874247" data-name="Trazado 874247" d="M57.315,160.9a1.083,1.083,0,0,1-.192-.017A24.519,24.519,0,0,1,37.5,141.255a1.065,1.065,0,1,1,2.095-.382A22.377,22.377,0,0,0,57.5,158.786a1.065,1.065,0,0,1-.19,2.113" transform="translate(-27.504 -102.69)" fill="#f8f3e0"/>
        <path id="Trazado_874248" data-name="Trazado 874248" d="M159.832,58.379a1.065,1.065,0,0,1-1.046-.874,22.378,22.378,0,0,0-17.912-17.913,1.065,1.065,0,1,1,.382-2.095,24.518,24.518,0,0,1,19.625,19.625,1.065,1.065,0,0,1-.856,1.239,1.082,1.082,0,0,1-.192.017" transform="translate(-102.738 -27.457)" fill="#f8f3e0"/>
        <path id="Trazado_874249" data-name="Trazado 874249" d="M38.546,58.379a1.081,1.081,0,0,1-.192-.017,1.065,1.065,0,0,1-.856-1.239A24.518,24.518,0,0,1,57.122,37.5a1.065,1.065,0,0,1,.382,2.095A22.378,22.378,0,0,0,39.592,57.505a1.065,1.065,0,0,1-1.046.874" transform="translate(-27.504 -27.457)" fill="#f8f3e0"/>
        <path id="Trazado_874250" data-name="Trazado 874250" d="M141.062,160.9a1.065,1.065,0,0,1-.19-2.113,22.377,22.377,0,0,0,17.913-17.912,1.065,1.065,0,1,1,2.095.382,24.519,24.519,0,0,1-19.625,19.626,1.083,1.083,0,0,1-.192.017" transform="translate(-102.737 -102.69)" fill="#f8f3e0"/>
        <path id="Trazado_874251" data-name="Trazado 874251" d="M157.065,189.249a1.065,1.065,0,0,1-.475-2.018c.3-.148.6-.307.888-.472a1.065,1.065,0,1,1,1.052,1.851c-.326.185-.66.363-.992.528a1.059,1.059,0,0,1-.473.112" transform="translate(-114.479 -136.902)" fill="#f8f3e0"/>
        <path id="Trazado_874252" data-name="Trazado 874252" d="M173.148,175.674a1.065,1.065,0,0,1-.712-1.857,18.334,18.334,0,0,0,1.378-1.377,1.064,1.064,0,1,1,1.584,1.423,20.371,20.371,0,0,1-1.539,1.539,1.061,1.061,0,0,1-.711.273" transform="translate(-126.282 -126.237)" fill="#f8f3e0"/>
        <path id="Trazado_874253" data-name="Trazado 874253" d="M187.682,159.068a1.065,1.065,0,0,1-.924-1.591c.165-.29.324-.589.472-.887a1.065,1.065,0,0,1,1.907.948c-.166.333-.344.667-.529.992a1.064,1.064,0,0,1-.926.538" transform="translate(-136.949 -114.431)" fill="#f8f3e0"/>
        <path id="Trazado_874254" data-name="Trazado 874254" d="M44.759,50.337a1.061,1.061,0,0,1-.753-.312l-2.757-2.757a4.257,4.257,0,1,1,6.02-6.02l2.757,2.758a1.064,1.064,0,1,1-1.505,1.505l-2.758-2.757a2.127,2.127,0,1,0-3.008,3.009l2.757,2.757a1.065,1.065,0,0,1-.753,1.817" transform="translate(-29.354 -29.306)" fill="#f8f3e0"/>
        <path id="Trazado_874255" data-name="Trazado 874255" d="M183.239,187.5a4.232,4.232,0,0,1-3.01-1.248l-2.757-2.758a1.064,1.064,0,1,1,1.505-1.505l2.758,2.757a2.127,2.127,0,1,0,3.008-3.009l-2.757-2.757a1.064,1.064,0,1,1,1.505-1.505l2.758,2.757a4.257,4.257,0,0,1-3.01,7.269" transform="translate(-130.008 -129.96)" fill="#f8f3e0"/>
        <path id="Trazado_874256" data-name="Trazado 874256" d="M182.738,50.337a1.065,1.065,0,0,1-.753-1.817l2.757-2.757a2.127,2.127,0,1,0-3.009-3.008l-2.757,2.757a1.064,1.064,0,0,1-1.505-1.505l2.757-2.757a4.257,4.257,0,1,1,6.02,6.02l-2.758,2.757a1.061,1.061,0,0,1-.753.312" transform="translate(-130.008 -29.306)" fill="#f8f3e0"/>
        <path id="Trazado_874257" data-name="Trazado 874257" d="M44.258,187.5a4.257,4.257,0,0,1-3.01-7.268l2.758-2.757a1.064,1.064,0,0,1,1.505,1.505l-2.757,2.758a2.127,2.127,0,1,0,3.009,3.008l2.757-2.757a1.064,1.064,0,1,1,1.505,1.505l-2.757,2.758a4.232,4.232,0,0,1-3.01,1.249" transform="translate(-29.354 -129.96)" fill="#f8f3e0"/>
      </g>
    </g>
  </g>
</svg>
