<svg xmlns="http://www.w3.org/2000/svg" xmlns:xlink="http://www.w3.org/1999/xlink" width="97" height="97" viewBox="0 0 97 97">
  <defs>
    <clipPath id="clip-path">
      <rect id="Rectángulo_401611" data-name="Rectángulo 401611" width="61.109" height="60.148" fill="#5f6e62"/>
    </clipPath>
  </defs>
  <g id="_77" data-name="77" transform="translate(-699 -9603)">
    <g id="Grupo_1099725" data-name="Grupo 1099725" transform="translate(257 950)">
      <circle id="Elipse_11579" data-name="Elipse 11579" cx="48.5" cy="48.5" r="48.5" transform="translate(442 8653)" fill="#fddbb4"/>
    </g>
    <g id="Grupo_1099742" data-name="Grupo 1099742" transform="translate(715.469 9620.556)">
      <g id="Grupo_1099741" data-name="Grupo 1099741" clip-path="url(#clip-path)">
        <path id="Trazado_874333" data-name="Trazado 874333" d="M119.84,11.049a5.525,5.525,0,1,1,5.525-5.525,5.531,5.531,0,0,1-5.525,5.525m0-9.251a3.726,3.726,0,1,0,3.727,3.726A3.73,3.73,0,0,0,119.84,1.8" transform="translate(-89.284)" fill="#5f6e62"/>
        <path id="Trazado_874334" data-name="Trazado 874334" d="M15.455,119.418a4.065,4.065,0,0,1-3.171-1.521,4.069,4.069,0,0,1-7.241-2.549V98.129a3.25,3.25,0,0,1-1.289.406A3.42,3.42,0,0,1,0,95.132v-13.3a5.947,5.947,0,0,1,5.94-5.94H18.514a.9.9,0,0,1,.847,1.2,4.556,4.556,0,0,0-.271,1.537v14.45a1.8,1.8,0,0,0,.294.974.9.9,0,0,1,.139.477l0,.471c0,.01,0,.02,0,.03,0,.039,0,.08,0,.122l0,.349h0v19.848a4.075,4.075,0,0,1-4.07,4.07m-2.272-4.07a2.272,2.272,0,1,0,4.544,0V95.032c0-.016,0-.031,0-.046,0-.068,0-.139,0-.211a3.6,3.6,0,0,1-.433-1.7V78.626a6.3,6.3,0,0,1,.071-.941H5.941A4.148,4.148,0,0,0,1.8,81.827v13.3a1.622,1.622,0,0,0,1.785,1.614,1.694,1.694,0,0,0,1.459-1.722V85.889a.9.9,0,1,1,1.8,0v29.458a2.272,2.272,0,1,0,4.544,0V100.01a.9.9,0,1,1,1.8,0Z" transform="translate(0 -59.27)" fill="#5f6e62"/>
        <path id="Trazado_874335" data-name="Trazado 874335" d="M37.7,31.622a5.158,5.158,0,1,1,5.158-5.158A5.164,5.164,0,0,1,37.7,31.622m0-8.517a3.36,3.36,0,1,0,3.36,3.36A3.363,3.363,0,0,0,37.7,23.1" transform="translate(-25.416 -16.641)" fill="#5f6e62"/>
        <path id="Trazado_874336" data-name="Trazado 874336" d="M200.325,119.418a4.063,4.063,0,0,1-3.171-1.521,4.069,4.069,0,0,1-7.242-2.549V95.023a.908.908,0,0,1,.04-.266,9.633,9.633,0,0,0,.4-1.681V78.626a4.555,4.555,0,0,0-.271-1.537.9.9,0,0,1,.847-1.2H203.5a5.947,5.947,0,0,1,5.94,5.94v13.3a3.42,3.42,0,0,1-3.753,3.4,3.252,3.252,0,0,1-1.289-.407v17.219a4.075,4.075,0,0,1-4.07,4.07m-2.272-4.07a2.272,2.272,0,1,0,4.544,0V95.091c0-.023,0-.045,0-.068V85.889a.9.9,0,1,1,1.8,0v9.075c0,.022,0,.043,0,.065a1.7,1.7,0,0,0,1.459,1.716,1.622,1.622,0,0,0,1.785-1.614v-13.3a4.147,4.147,0,0,0-4.142-4.142H192.076a6.217,6.217,0,0,1,.072.941v14.45a9.58,9.58,0,0,1-.437,2.082v20.19a2.272,2.272,0,0,0,4.544,0V100.01a.9.9,0,1,1,1.8,0Z" transform="translate(-148.328 -59.27)" fill="#5f6e62"/>
        <path id="Trazado_874337" data-name="Trazado 874337" d="M95.678,106.409a4.338,4.338,0,0,1-3.445-1.7,4.342,4.342,0,0,1-7.788-2.643V83.229a3.464,3.464,0,0,1-1.484.5,3.666,3.666,0,0,1-3.992-3.62V65.658a6.39,6.39,0,0,1,6.375-6.375H99.121a6.392,6.392,0,0,1,6.376,6.375v14.45a3.665,3.665,0,0,1-3.992,3.62,3.462,3.462,0,0,1-1.484-.5v18.838a4.348,4.348,0,0,1-4.343,4.343m-3.445-5.242a.9.9,0,0,1,.9.9,2.545,2.545,0,0,0,5.091,0V80a.9.9,0,0,1,.9-.9h0a.9.9,0,0,1,.9.9,1.919,1.919,0,0,0,1.655,1.941,1.826,1.826,0,0,0,1.727-.851,1.8,1.8,0,0,0,.3-.979V65.658a4.595,4.595,0,0,0-4.576-4.577H85.344a4.594,4.594,0,0,0-4.577,4.577v14.45a1.8,1.8,0,0,0,.294.974,1.834,1.834,0,0,0,1.729.856,1.918,1.918,0,0,0,1.656-1.948.9.9,0,0,1,1.8,0v22.076a2.545,2.545,0,0,0,5.091,0,.9.9,0,0,1,.9-.9" transform="translate(-61.677 -46.302)" fill="#5f6e62"/>
        <path id="Trazado_874338" data-name="Trazado 874338" d="M204.587,31.622a5.158,5.158,0,1,1,5.158-5.158,5.164,5.164,0,0,1-5.158,5.158m0-8.517a3.36,3.36,0,1,0,3.359,3.36,3.363,3.363,0,0,0-3.359-3.36" transform="translate(-155.76 -16.641)" fill="#5f6e62"/>
        <path id="Trazado_874339" data-name="Trazado 874339" d="M136.338,193.278a.9.9,0,0,1-.9-.9V175.814a.9.9,0,0,1,1.8,0v16.564a.9.9,0,0,1-.9.9" transform="translate(-105.782 -136.614)" fill="#5f6e62"/>
        <path id="Trazado_874340" data-name="Trazado 874340" d="M104.877,111.354a.9.9,0,0,1-.9-.9V99.188a.9.9,0,1,1,1.8,0v11.267a.9.9,0,0,1-.9.9" transform="translate(-81.21 -76.767)" fill="#5f6e62"/>
        <path id="Trazado_874341" data-name="Trazado 874341" d="M167.8,111.364a.9.9,0,0,1-.9-.9V99.188a.9.9,0,0,1,1.8,0v11.277a.9.9,0,0,1-.9.9" transform="translate(-130.354 -76.767)" fill="#5f6e62"/>
      </g>
    </g>
  </g>
</svg>
