<svg xmlns="http://www.w3.org/2000/svg" xmlns:xlink="http://www.w3.org/1999/xlink" width="97" height="97" viewBox="0 0 97 97">
  <defs>
    <clipPath id="clip-path">
      <rect id="Rectángulo_401608" data-name="Rectángulo 401608" width="68.743" height="60.508" fill="#5f6e62"/>
    </clipPath>
  </defs>
  <g id="_78" data-name="78" transform="translate(-1035 -9603)">
    <g id="Grupo_1099726" data-name="Grupo 1099726" transform="translate(593 950)">
      <circle id="Elipse_11579" data-name="Elipse 11579" cx="48.5" cy="48.5" r="48.5" transform="translate(442 8653)" fill="#fddbb4"/>
    </g>
    <g id="Grupo_1099736" data-name="Grupo 1099736" transform="translate(1049.129 9619.492)" clip-path="url(#clip-path)">
      <path id="Trazado_874283" data-name="Trazado 874283" d="M8.23,19.387a.891.891,0,0,1-.891-.891V5.28a.89.89,0,0,1,.891-.891h5.407a.89.89,0,0,1,.891.891v7.233a.891.891,0,1,1-1.782,0V6.171H9.121V18.5a.891.891,0,0,1-.891.891" transform="translate(-0.801 -0.479)" fill="#5f6e62"/>
      <path id="Trazado_874284" data-name="Trazado 874284" d="M2.891,23.882a.891.891,0,0,1-.63-1.521l20.1-20.1a.891.891,0,0,1,1.261,1.26l-20.1,20.1a.888.888,0,0,1-.63.261" transform="translate(-0.218 -0.218)" fill="#5f6e62"/>
      <path id="Trazado_874285" data-name="Trazado 874285" d="M2.891,23.882a.891.891,0,0,1-.63-1.521l20.1-20.1a.891.891,0,0,1,1.261,0L38.026,16.669a.891.891,0,0,1-1.26,1.26L22.99,4.151,3.521,23.621a.888.888,0,0,1-.63.261" transform="translate(-0.218 -0.218)" fill="#5f6e62"/>
      <path id="Trazado_874286" data-name="Trazado 874286" d="M28.084,46.444a.891.891,0,0,1-.891-.891V31.6H19.935V45.553a.891.891,0,0,1-.891.891H8.23a.891.891,0,0,1-.891-.891v-20.1a.891.891,0,0,1,1.782,0V44.662h9.032V30.711a.891.891,0,0,1,.891-.891h9.04a.891.891,0,0,1,.891.891V45.553a.891.891,0,0,1-.891.891" transform="translate(-0.801 -2.681)" fill="#5f6e62"/>
      <path id="Trazado_874287" data-name="Trazado 874287" d="M50.894,53.486c-4.562,0-8.472-4.578-8.472-8.327a.894.894,0,0,1,.271-.64s7.285-7.064,7.569-7.341a.821.821,0,0,1,.135-.111.893.893,0,0,1,1.119.1l7.579,7.353a.89.89,0,0,1,.271.64c0,3.749-3.909,8.327-8.471,8.327m-6.672-7.967c.246,2.568,3.029,6.185,6.672,6.185s6.426-3.617,6.672-6.185l-6.691-6.491c-.608.629-1.591,1.583-3.15,3.094Z" transform="translate(-4.63 -4.029)" fill="#5f6e62"/>
      <path id="Trazado_874288" data-name="Trazado 874288" d="M68.369,60.452H63.1a.891.891,0,0,1,0-1.782h5.265a.891.891,0,0,1,0,1.782" transform="translate(-6.79 -6.403)" fill="#5f6e62"/>
      <path id="Trazado_874289" data-name="Trazado 874289" d="M74.339,65.438a.89.89,0,0,1-.887-.828l-.837-11.881a4.15,4.15,0,0,0-3.228-4.183l-9.208-1.608a.89.89,0,1,1,.306-1.754l9.2,1.6a5.865,5.865,0,0,1,4.714,5.878l.834,11.819a.892.892,0,0,1-.826.951l-.063,0" transform="translate(-6.488 -4.93)" fill="#5f6e62"/>
      <path id="Trazado_874290" data-name="Trazado 874290" d="M27.591,65.438l-.063,0a.892.892,0,0,1-.826-.951L27.539,52.6a5.7,5.7,0,0,1,4.722-5.816l9.183-1.6a.89.89,0,1,1,.306,1.754l-9.2,1.605a3.933,3.933,0,0,0-3.237,4.123l-.84,11.944a.89.89,0,0,1-.887.828" transform="translate(-2.914 -4.93)" fill="#5f6e62"/>
      <path id="Trazado_874291" data-name="Trazado 874291" d="M38.493,44.137a.891.891,0,0,1-.891-.891l-.008-16.815a12.779,12.779,0,1,1,25.547,0V43.243a.891.891,0,0,1-1.782,0V26.431a11,11,0,1,0-21.984,0l.008,16.815a.891.891,0,0,1-.891.891" transform="translate(-4.103 -1.449)" fill="#5f6e62"/>
      <path id="Trazado_874292" data-name="Trazado 874292" d="M50.807,43.625c-5.151,0-9.187-6.258-9.187-14.248a.891.891,0,0,1,1.782,0c0,6.875,3.322,12.467,7.406,12.467s7.406-5.592,7.406-12.467a.891.891,0,0,1,1.782,0c0,7.99-4.036,14.248-9.187,14.248" transform="translate(-4.543 -3.109)" fill="#5f6e62"/>
      <path id="Trazado_874293" data-name="Trazado 874293" d="M56.111,30.026c-4.9,0-9.367-2.6-11.125-6.48a.891.891,0,0,1,1.623-.736c1.473,3.251,5.292,5.434,9.5,5.434a12.089,12.089,0,0,0,3.121-.4.891.891,0,0,1,.46,1.721,13.868,13.868,0,0,1-3.58.464" transform="translate(-4.901 -2.432)" fill="#5f6e62"/>
    </g>
  </g>
</svg>
