<svg xmlns="http://www.w3.org/2000/svg" xmlns:xlink="http://www.w3.org/1999/xlink" width="97" height="97" viewBox="0 0 97 97">
  <defs>
    <clipPath id="clip-path">
      <rect id="Rectángulo_401610" data-name="Rectángulo 401610" width="70.182" height="73.6" fill="#5f6e62"/>
    </clipPath>
  </defs>
  <g id="_80" data-name="80" transform="translate(2909 2053)">
    <g id="Grupo_1099728" data-name="Grupo 1099728" transform="translate(-3351 -10706)">
      <circle id="Elipse_11579" data-name="Elipse 11579" cx="48.5" cy="48.5" r="48.5" transform="translate(442 8653)" fill="#fddbb4"/>
    </g>
    <g id="Grupo_1099740" data-name="Grupo 1099740" transform="translate(-2895.591 -2043.164)">
      <g id="Grupo_1099739" data-name="Grupo 1099739" clip-path="url(#clip-path)">
        <path id="Trazado_874303" data-name="Trazado 874303" d="M153.534,100.848a3.093,3.093,0,1,1,3.093-3.093,3.1,3.1,0,0,1-3.093,3.093m0-4.389a1.3,1.3,0,1,0,1.3,1.3,1.3,1.3,0,0,0-1.3-1.3" transform="translate(-117.509 -73.94)" fill="#5f6e62"/>
        <path id="Trazado_874304" data-name="Trazado 874304" d="M105.273,153.707a4.191,4.191,0,1,1,4.19-4.191,4.2,4.2,0,0,1-4.19,4.191m0-6.583a2.393,2.393,0,1,0,2.392,2.393,2.4,2.4,0,0,0-2.392-2.393" transform="translate(-78.956 -113.514)" fill="#5f6e62"/>
        <path id="Trazado_874305" data-name="Trazado 874305" d="M183.169,170.076a5.428,5.428,0,1,1,5.428-5.428,5.434,5.434,0,0,1-5.428,5.428m0-9.059a3.631,3.631,0,1,0,3.631,3.63,3.634,3.634,0,0,0-3.631-3.63" transform="translate(-138.833 -124.367)" fill="#5f6e62"/>
        <path id="Trazado_874306" data-name="Trazado 874306" d="M81.839,110.5a22.868,22.868,0,1,1,22.868-22.868A22.893,22.893,0,0,1,81.839,110.5m0-43.938a21.07,21.07,0,1,0,21.07,21.07,21.094,21.094,0,0,0-21.07-21.07" transform="translate(-46.062 -50.589)" fill="#5f6e62"/>
        <path id="Trazado_874307" data-name="Trazado 874307" d="M172.05,38.024c-.026,0-.051,0-.077,0a.9.9,0,0,1-.82-.971L172.1,25.88a.9.9,0,0,1,1.791.151L172.945,37.2a.9.9,0,0,1-.895.823" transform="translate(-133.685 -19.572)" fill="#5f6e62"/>
        <path id="Trazado_874308" data-name="Trazado 874308" d="M167.627,7.294q-.156,0-.313-.013A3.646,3.646,0,0,1,165.27.861a3.646,3.646,0,1,1,4.7,5.572,3.617,3.617,0,0,1-2.345.86M167.62,1.8a1.848,1.848,0,0,0-.155,3.69,1.848,1.848,0,1,0,.311-3.684c-.053,0-.105-.007-.157-.007m2.738,2.08h0Z" transform="translate(-128.081 -0.001)" fill="#5f6e62"/>
        <path id="Trazado_874309" data-name="Trazado 874309" d="M128.726,62.734a.9.9,0,0,1-.86-.639l-2.635-8.715a.9.9,0,1,1,1.72-.52l2.635,8.715a.9.9,0,0,1-.861,1.159" transform="translate(-97.788 -40.79)" fill="#5f6e62"/>
        <path id="Trazado_874310" data-name="Trazado 874310" d="M115.181,38.53a3.131,3.131,0,1,1,.9-.134,3.135,3.135,0,0,1-.9.134m0-4.463a1.333,1.333,0,1,0,1.276.947,1.324,1.324,0,0,0-1.276-.947" transform="translate(-87.522 -25.205)" fill="#5f6e62"/>
        <path id="Trazado_874311" data-name="Trazado 874311" d="M57.453,131.075a.9.9,0,0,1-.3-.05l-8.6-3a.9.9,0,0,1,.592-1.7l8.6,3a.9.9,0,0,1-.3,1.748" transform="translate(-37.46 -98.636)" fill="#5f6e62"/>
        <path id="Trazado_874312" data-name="Trazado 874312" d="M31.267,118.981a3.136,3.136,0,1,1,1.359-.313,3.128,3.128,0,0,1-1.359.313m0-4.465a1.335,1.335,0,1,0,.44.075,1.328,1.328,0,0,0-.44-.075" transform="translate(-21.975 -88.043)" fill="#5f6e62"/>
        <path id="Trazado_874313" data-name="Trazado 874313" d="M76.238,226.927a.9.9,0,0,1-.631-1.539L82.09,219a.9.9,0,1,1,1.262,1.28l-6.483,6.392a.9.9,0,0,1-.631.259" transform="translate(-58.847 -170.856)" fill="#5f6e62"/>
        <path id="Trazado_874314" data-name="Trazado 874314" d="M61.017,251.164a3.127,3.127,0,1,1,2.2-.9,3.123,3.123,0,0,1-2.2.9m0-4.461a1.321,1.321,0,0,0-.935.384h0a1.333,1.333,0,1,0,.945-.384Zm-1.566-.256h0Z" transform="translate(-45.215 -191.295)" fill="#5f6e62"/>
        <path id="Trazado_874315" data-name="Trazado 874315" d="M211.8,235.078a.9.9,0,0,1-.717-.356l-5.494-7.26a.9.9,0,0,1,1.433-1.085l5.494,7.26a.9.9,0,0,1-.716,1.441" transform="translate(-160.442 -176.544)" fill="#5f6e62"/>
        <path id="Trazado_874316" data-name="Trazado 874316" d="M229.6,263.386a3.127,3.127,0,0,1-2.5-1.24h0a3.133,3.133,0,1,1,2.5,1.24m-1.067-2.325a1.333,1.333,0,1,0,.259-1.867,1.335,1.335,0,0,0-.259,1.867" transform="translate(-176.89 -200.843)" fill="#5f6e62"/>
        <path id="Trazado_874317" data-name="Trazado 874317" d="M235.859,156.949a.9.9,0,0,1-.052-1.8l9.088-.541a.9.9,0,1,1,.106,1.795l-9.088.541-.054,0" transform="translate(-183.528 -120.766)" fill="#5f6e62"/>
        <path id="Trazado_874318" data-name="Trazado 874318" d="M279.586,150.07a3.129,3.129,0,1,1,.19-.005h0c-.064,0-.127.005-.191.005m.007-4.463-.081,0a1.332,1.332,0,1,0,.158,2.66h0a1.333,1.333,0,0,0-.077-2.663" transform="translate(-215.943 -112.329)" fill="#5f6e62"/>
        <path id="Trazado_874319" data-name="Trazado 874319" d="M204.579,78.317a.9.9,0,0,1-.731-1.421l5.288-7.411a.9.9,0,1,1,1.464,1.044l-5.288,7.411a.9.9,0,0,1-.733.377" transform="translate(-159.095 -53.981)" fill="#5f6e62"/>
        <path id="Trazado_874320" data-name="Trazado 874320" d="M226.69,56.873a3.129,3.129,0,1,1,2.552-1.311,3.115,3.115,0,0,1-2.552,1.311m.007-4.462a1.334,1.334,0,1,0,.771.248,1.322,1.322,0,0,0-.771-.248" transform="translate(-174.626 -39.534)" fill="#5f6e62"/>
        <path id="Trazado_874321" data-name="Trazado 874321" d="M82.332,64.216a.9.9,0,0,1-.717-.355L74.841,54.93a.9.9,0,0,1,1.432-1.086l6.773,8.931a.9.9,0,0,1-.716,1.442" transform="translate(-58.316 -41.779)" fill="#5f6e62"/>
        <path id="Trazado_874322" data-name="Trazado 874322" d="M58.18,38.235a3.644,3.644,0,1,1,2.2-.739,3.643,3.643,0,0,1-2.2.739m-.007-5.492a1.848,1.848,0,1,0,1.475.731,1.837,1.837,0,0,0-1.475-.731" transform="translate(-42.594 -24.172)" fill="#5f6e62"/>
        <path id="Trazado_874323" data-name="Trazado 874323" d="M25.516,194.452a.9.9,0,0,1-.247-1.763l10.776-3.082a.9.9,0,1,1,.494,1.728l-10.776,3.082a.909.909,0,0,1-.248.035" transform="translate(-19.229 -148.074)" fill="#5f6e62"/>
        <path id="Trazado_874324" data-name="Trazado 874324" d="M3.647,201.847a3.647,3.647,0,1,1,1-.141,3.652,3.652,0,0,1-1,.141m0-5.495a1.848,1.848,0,1,0,1.778,1.34,1.842,1.842,0,0,0-1.778-1.34m-.755-.793h0Z" transform="translate(0 -151.967)" fill="#5f6e62"/>
        <path id="Trazado_874325" data-name="Trazado 874325" d="M114.865,261.647a.9.9,0,0,1-.85-1.19l3.629-10.6a.9.9,0,1,1,1.7.582l-3.629,10.6a.9.9,0,0,1-.85.608" transform="translate(-89.019 -194.684)" fill="#5f6e62"/>
        <path id="Trazado_874326" data-name="Trazado 874326" d="M101,304.3a3.654,3.654,0,1,1,1.6-.374,3.652,3.652,0,0,1-1.6.374m0-5.5a1.851,1.851,0,0,0-1.75,1.25h0a1.848,1.848,0,1,0,1.75-1.25m-2.6.959h0Z" transform="translate(-76.037 -231.994)" fill="#5f6e62"/>
        <path id="Trazado_874327" data-name="Trazado 874327" d="M177.64,265.514a.9.9,0,0,1-.884-.743l-1.949-11.038a.9.9,0,0,1,1.77-.312l1.949,11.038a.9.9,0,0,1-.886,1.055" transform="translate(-136.531 -197.366)" fill="#5f6e62"/>
        <path id="Trazado_874328" data-name="Trazado 874328" d="M176.973,310.2a3.648,3.648,0,1,1,.636-.056,3.652,3.652,0,0,1-.636.056m-1.818-3.324a1.848,1.848,0,1,0,.305-1.382,1.85,1.85,0,0,0-.305,1.382" transform="translate(-135.386 -236.604)" fill="#5f6e62"/>
        <path id="Trazado_874329" data-name="Trazado 874329" d="M243.115,223.079a.894.894,0,0,1-.5-.155l-9.279-6.287a.9.9,0,1,1,1.008-1.488l9.279,6.287a.9.9,0,0,1-.505,1.643" transform="translate(-181.947 -167.932)" fill="#5f6e62"/>
        <path id="Trazado_874330" data-name="Trazado 874330" d="M276.813,245.5a3.659,3.659,0,1,1,.7-.067,3.677,3.677,0,0,1-.7.067m.01-5.495a1.847,1.847,0,1,0,1.034.317,1.847,1.847,0,0,0-1.034-.317" transform="translate(-213.377 -186.065)" fill="#5f6e62"/>
        <path id="Trazado_874331" data-name="Trazado 874331" d="M242.061,116.517a.9.9,0,0,1-.352-1.726l10.316-4.383a.9.9,0,0,1,.7,1.654l-10.316,4.383a.9.9,0,0,1-.351.072" transform="translate(-188.371 -86.184)" fill="#5f6e62"/>
        <path id="Trazado_874332" data-name="Trazado 874332" d="M290.93,100.175a3.654,3.654,0,1,1,1.425-.292,3.642,3.642,0,0,1-1.425.292M292,99.055h0Zm-1.077-4.377a1.848,1.848,0,1,0,1.7,1.126,1.835,1.835,0,0,0-1.7-1.126" transform="translate(-224.395 -72.549)" fill="#5f6e62"/>
      </g>
    </g>
  </g>
</svg>
