<svg xmlns="http://www.w3.org/2000/svg" xmlns:xlink="http://www.w3.org/1999/xlink" width="97" height="97" viewBox="0 0 97 97">
  <defs>
    <clipPath id="clip-path">
      <rect id="Rectángulo_401614" data-name="Rectángulo 401614" width="65.425" height="60.115" fill="#5f6e62"/>
    </clipPath>
  </defs>
  <g id="_81" data-name="81" transform="translate(2563 2053)">
    <g id="Grupo_1099729" data-name="Grupo 1099729" transform="translate(-3005 -10706)">
      <circle id="Elipse_11579" data-name="Elipse 11579" cx="48.5" cy="48.5" r="48.5" transform="translate(442 8653)" fill="#fddbb4"/>
    </g>
    <g id="Grupo_1099748" data-name="Grupo 1099748" transform="translate(-2542.456 -2037.115)">
      <g id="Grupo_1099747" data-name="Grupo 1099747" clip-path="url(#clip-path)">
        <path id="Trazado_874359" data-name="Trazado 874359" d="M.923,215.539A.923.923,0,0,1,.7,213.72l5.037-1.251a.92.92,0,0,1,.445,0l5.036,1.251a.923.923,0,0,1-.445,1.792l-4.814-1.2-4.814,1.2a.933.933,0,0,1-.223.027" transform="translate(0 -156.405)" fill="#5f6e62"/>
        <path id="Trazado_874360" data-name="Trazado 874360" d="M142.328,38.429a.923.923,0,0,1-.923-.923V18.167a6.91,6.91,0,0,1,.325-2.095l2.657-8.361V.925a.923.923,0,0,1,1.846,0V7.855a.929.929,0,0,1-.043.28l-2.7,8.5a5.065,5.065,0,0,0-.238,1.535V37.506a.923.923,0,0,1-.923.923" transform="translate(-104.106 -0.001)" fill="#5f6e62"/>
        <path id="Trazado_874361" data-name="Trazado 874361" d="M36.168,3.1a.923.923,0,0,1-.223-.027l-4.814-1.2-4.813,1.2a.92.92,0,0,1-.445,0l-4.813-1.2-4.811,1.2a.918.918,0,0,1-.445,0l-4.813-1.2L6.18,3.071a.92.92,0,0,1-.445,0L.7,1.82A.923.923,0,1,1,1.146.028l4.812,1.2,4.812-1.2a.924.924,0,0,1,.445,0l4.813,1.2,4.81-1.2a.925.925,0,0,1,.445,0l4.813,1.2,4.813-1.2a.925.925,0,0,1,.445,0l4.814,1.2,4.814-1.2a.923.923,0,0,1,.445,1.792L36.39,3.072a.923.923,0,0,1-.223.027" transform="translate(0 -0.001)" fill="#5f6e62"/>
        <path id="Trazado_874362" data-name="Trazado 874362" d="M.924,59.136A.923.923,0,0,1,0,58.213V51.283a.928.928,0,0,1,.041-.271l2.717-8.835a5.06,5.06,0,0,0,.224-1.49V18.167a5.061,5.061,0,0,0-.238-1.535l-2.7-8.5A.929.929,0,0,1,0,7.855V.925a.923.923,0,1,1,1.846,0V7.711L4.5,16.073a6.905,6.905,0,0,1,.325,2.095V40.686a6.915,6.915,0,0,1-.305,2.033l-2.676,8.7v6.791a.923.923,0,0,1-.923.923" transform="translate(-0.001 -0.001)" fill="#5f6e62"/>
        <path id="Trazado_874363" data-name="Trazado 874363" d="M41.574,28.118H1.85a.923.923,0,0,1,0-1.846H41.574a.923.923,0,0,1,0,1.846" transform="translate(-0.682 -19.342)" fill="#5f6e62"/>
        <path id="Trazado_874364" data-name="Trazado 874364" d="M11.5,192.943H1.85a.923.923,0,1,1,0-1.846H11.5a.923.923,0,1,1,0,1.846" transform="translate(-0.682 -140.69)" fill="#5f6e62"/>
        <path id="Trazado_874365" data-name="Trazado 874365" d="M50.366,93.131A10.307,10.307,0,1,1,60.672,82.825,10.318,10.318,0,0,1,50.366,93.131m0-18.767a8.46,8.46,0,1,0,8.46,8.46,8.47,8.47,0,0,0-8.46-8.46" transform="translate(-29.492 -53.39)" fill="#5f6e62"/>
        <path id="Trazado_874366" data-name="Trazado 874366" d="M222.186,186.04a2.972,2.972,0,0,1-1.49-.4l-3.262-1.883a.923.923,0,0,1,.923-1.6l3.262,1.883a1.133,1.133,0,0,0,1.7-.981v-3.767a1.133,1.133,0,0,0-1.7-.981l-1.184.683a.923.923,0,0,1-.923-1.6l1.184-.683a2.979,2.979,0,0,1,4.469,2.58v3.767a2.991,2.991,0,0,1-2.979,2.984" transform="translate(-159.741 -129.8)" fill="#5f6e62"/>
        <path id="Trazado_874367" data-name="Trazado 874367" d="M97.99,179.1H66.239a.923.923,0,0,1,0-1.846H97.99a6.9,6.9,0,1,0,0-13.79H71.314a.923.923,0,1,1,0-1.846H97.99a8.742,8.742,0,1,1,0,17.483" transform="translate(-48.087 -118.989)" fill="#5f6e62"/>
        <path id="Trazado_874368" data-name="Trazado 874368" d="M58.111,179.1c-2.518,0-3.835-4.4-3.835-8.742s1.317-8.742,3.835-8.742,3.835,4.4,3.835,8.742-1.317,8.742-3.835,8.742m0-15.637c-.595,0-1.989,2.346-1.989,6.9s1.394,6.9,1.989,6.9,1.989-2.346,1.989-6.9-1.394-6.9-1.989-6.9" transform="translate(-39.959 -118.989)" fill="#5f6e62"/>
        <path id="Trazado_874369" data-name="Trazado 874369" d="M133.495,192.326a.912.912,0,0,1-.15-.012.923.923,0,0,1-.762-1.06,8.286,8.286,0,0,1,16.2-.709.923.923,0,1,1-1.789.457,6.44,6.44,0,0,0-12.59.55.924.924,0,0,1-.91.774" transform="translate(-97.602 -135.7)" fill="#5f6e62"/>
      </g>
    </g>
  </g>
</svg>
