<svg xmlns="http://www.w3.org/2000/svg" xmlns:xlink="http://www.w3.org/1999/xlink" width="97" height="97" viewBox="0 0 97 97">
  <defs>
    <clipPath id="clip-path">
      <rect id="Rectángulo_401616" data-name="Rectángulo 401616" width="79.379" height="47.98" fill="#5f6e62"/>
    </clipPath>
  </defs>
  <g id="_83" data-name="83" transform="translate(2909 1718)">
    <g id="Grupo_1099753" data-name="Grupo 1099753">
      <g id="Grupo_1099731" data-name="Grupo 1099731" transform="translate(-3351 -10371)">
        <circle id="Elipse_11579" data-name="Elipse 11579" cx="48.5" cy="48.5" r="48.5" transform="translate(442 8653)" fill="#fddbb4"/>
      </g>
      <g id="Grupo_1099752" data-name="Grupo 1099752" transform="translate(-2900.189 -1693.49)">
        <g id="Grupo_1099751" data-name="Grupo 1099751" clip-path="url(#clip-path)">
          <path id="Trazado_874388" data-name="Trazado 874388" d="M101.661,82.486H79.689a2.756,2.756,0,0,1-2.436-4.041,7.245,7.245,0,0,1,6.417-3.868c.232,0,.472.013.735.039l4.064.061a20.448,20.448,0,0,1,4.675-11.011l1.181-1.4a1.052,1.052,0,0,1,1.611,1.355l-1.18,1.4A18.34,18.34,0,0,0,90.489,75.8a1.063,1.063,0,0,1-1.066.995l-5.1-.076c-.031,0-.062,0-.093-.005a5.451,5.451,0,0,0-.565-.032,5.145,5.145,0,0,0-4.556,2.747.651.651,0,0,0,.575.954h21.972a3.393,3.393,0,0,0,2.718-1.359,5.527,5.527,0,0,1,4.4-2.2,1.379,1.379,0,0,0,1.381-1.4c-.011-.947-.02-2.1-.02-3.349v-1.56a19.025,19.025,0,0,0-23.9-18.438,35.263,35.263,0,0,1-16.681.284,1.052,1.052,0,1,1,.465-2.052A33.15,33.15,0,0,0,85.7,50.047a21.13,21.13,0,0,1,26.543,20.474v1.56c0,1.237.009,2.384.02,3.324a3.485,3.485,0,0,1-3.486,3.526,3.412,3.412,0,0,0-2.714,1.358,5.5,5.5,0,0,1-4.4,2.2" transform="translate(-48.066 -34.506)" fill="#5f6e62"/>
          <path id="Trazado_874389" data-name="Trazado 874389" d="M1.052,49.325a1.052,1.052,0,0,1-.722-1.818,15.272,15.272,0,0,1,14.444-3.594,1.052,1.052,0,0,1-.558,2.03,13.155,13.155,0,0,0-12.442,3.1,1.048,1.048,0,0,1-.722.287" transform="translate(0 -30.335)" fill="#5f6e62"/>
          <path id="Trazado_874390" data-name="Trazado 874390" d="M20.545,86.676H13.424A2.209,2.209,0,0,1,11.692,83.1a9.486,9.486,0,0,1,7.479-3.617h.785V77.223a10.244,10.244,0,0,1-7.074-9.715l-2.75-.615A13.663,13.663,0,0,1,.048,57.519a1.052,1.052,0,1,1,2.015-.608,11.555,11.555,0,0,0,8.529,7.928l3.572.8a1.053,1.053,0,0,1,.823,1.027v.79a8.15,8.15,0,0,0,6.267,7.95,1.052,1.052,0,0,1,.807,1.023v4.1a1.053,1.053,0,0,1-1.052,1.052H19.171A7.394,7.394,0,0,0,13.342,84.4a.1.1,0,0,0,.082.17h7.121a4.717,4.717,0,0,0,3.65-1.721,25.359,25.359,0,0,0,4.315-7.58l.563-1.566a1.052,1.052,0,1,1,1.981.713l-.563,1.566a27.461,27.461,0,0,1-4.671,8.208,6.816,6.816,0,0,1-5.274,2.486" transform="translate(-0.002 -39.277)" fill="#5f6e62"/>
          <path id="Trazado_874391" data-name="Trazado 874391" d="M52.984,38.78a1.052,1.052,0,0,1-.888-1.616c1.2-1.884,1.176-4.073-.044-4.879a2.319,2.319,0,0,0-2.122-.092,5.25,5.25,0,0,0-2.449,2.061,6.237,6.237,0,0,0-.714,1.545,1.052,1.052,0,1,1-2.01-.624,8.354,8.354,0,0,1,.967-2.081,7.361,7.361,0,0,1,3.466-2.873,4.356,4.356,0,0,1,4.023.307c2.207,1.46,2.5,4.869.66,7.762a1.051,1.051,0,0,1-.889.489" transform="translate(-31.267 -20.893)" fill="#5f6e62"/>
          <path id="Trazado_874392" data-name="Trazado 874392" d="M215.952,41.721a1.053,1.053,0,0,1-.525-1.965,9.763,9.763,0,0,0,4.606-6.172,9.642,9.642,0,0,0-1.318-7.6,21.507,21.507,0,0,1-1.947-19.782,13.543,13.543,0,0,1,3.152-4.65,5.478,5.478,0,0,1,8.847,1.738l.808,1.859a1.052,1.052,0,1,1-1.93.839l-.809-1.859a3.374,3.374,0,0,0-5.448-1.07,11.454,11.454,0,0,0-2.669,3.928,19.4,19.4,0,0,0,1.756,17.845,11.726,11.726,0,0,1,1.6,9.238,11.875,11.875,0,0,1-5.605,7.507,1.048,1.048,0,0,1-.523.14" transform="translate(-150.285 0)" fill="#5f6e62"/>
          <path id="Trazado_874393" data-name="Trazado 874393" d="M38.006,59.952H36.1a1.052,1.052,0,1,1,0-2.1h1.91a1.052,1.052,0,1,1,0,2.1" transform="translate(-24.507 -40.454)" fill="#5f6e62"/>
        </g>
      </g>
    </g>
  </g>
</svg>
