<svg xmlns="http://www.w3.org/2000/svg" xmlns:xlink="http://www.w3.org/1999/xlink" width="97" height="97" viewBox="0 0 97 97">
  <defs>
    <clipPath id="clip-path">
      <rect id="Rectángulo_401613" data-name="Rectángulo 401613" width="65" height="65" transform="translate(0 -0.023)" fill="#5f6e62"/>
    </clipPath>
  </defs>
  <g id="_84" data-name="84" transform="translate(2563 1718)">
    <g id="Grupo_1099732" data-name="Grupo 1099732" transform="translate(-3005 -10371)">
      <circle id="Elipse_11579" data-name="Elipse 11579" cx="48.5" cy="48.5" r="48.5" transform="translate(442 8653)" fill="#fddbb4"/>
    </g>
    <g id="Grupo_1099746" data-name="Grupo 1099746" transform="translate(-2547.37 -1702.617)">
      <g id="Grupo_1099745" data-name="Grupo 1099745" transform="translate(0.37 0.641)" clip-path="url(#clip-path)">
        <path id="Trazado_874352" data-name="Trazado 874352" d="M282.108,305.473a1.057,1.057,0,0,1-1.057-1.057V301.37a5.279,5.279,0,0,0-.269-1.66A15.554,15.554,0,0,1,280,294.9c0-2.379,2.816-7.968,8.2-10.165a5.345,5.345,0,0,0,1.515-.942l7.091-6.3a4.045,4.045,0,0,1,4.518-.6,3.642,3.642,0,0,1,1.561,5.017,1.062,1.062,0,0,1-.178.237l-8.215,8.215a1.057,1.057,0,1,1-1.5-1.5l8.1-8.095a1.528,1.528,0,0,0-.713-1.988,1.941,1.941,0,0,0-2.168.287l-7.091,6.3A7.382,7.382,0,0,1,289,286.693c-4.813,1.965-6.884,6.907-6.884,8.208a13.413,13.413,0,0,0,.675,4.146,7.386,7.386,0,0,1,.376,2.323v3.046a1.057,1.057,0,0,1-1.057,1.057" transform="translate(-243.314 -240.497)" fill="#5f6e62"/>
        <path id="Trazado_874353" data-name="Trazado 874353" d="M60.643,305.474a1.057,1.057,0,0,1-1.057-1.057V301.37a7.388,7.388,0,0,1,.376-2.323,13.412,13.412,0,0,0,.675-4.145c0-1.3-2.071-6.243-6.884-8.208a7.382,7.382,0,0,1-2.121-1.319l-7.091-6.3a1.941,1.941,0,0,0-2.168-.287,1.528,1.528,0,0,0-.713,1.988l8.095,8.095a1.057,1.057,0,0,1-1.5,1.5l-8.215-8.215a1.066,1.066,0,0,1-.179-.237,3.642,3.642,0,0,1,1.56-5.017,4.046,4.046,0,0,1,4.519.6l7.091,6.3a5.349,5.349,0,0,0,1.515.942c5.384,2.2,8.2,7.786,8.2,10.165a15.552,15.552,0,0,1-.782,4.809,5.281,5.281,0,0,0-.269,1.66v3.046a1.057,1.057,0,0,1-1.057,1.057" transform="translate(-34.523 -240.497)" fill="#5f6e62"/>
        <path id="Trazado_874354" data-name="Trazado 874354" d="M385.217,239.118a1.057,1.057,0,0,1-1.057-1.057v-3.669c0-1,1.082-2.509,5.383-7.994,1.766-2.253,3.593-4.582,5.014-6.591,2.14-3.026,2.265-3.821,2.269-3.949V202.643a.529.529,0,0,0-.529-.529,1.806,1.806,0,0,0-1.79,1.658l-.782,10.1-.02.33a1.057,1.057,0,0,1-2.11-.131l.021-.338c0-.005,0-.011,0-.016l.783-10.107A3.931,3.931,0,0,1,396.3,200a2.646,2.646,0,0,1,2.643,2.643v13.216c0,1.848-2.922,5.707-7.733,11.844-2.076,2.648-4.652,5.933-4.933,6.768v3.59a1.057,1.057,0,0,1-1.057,1.057" transform="translate(-333.709 -174.141)" fill="#5f6e62"/>
        <path id="Trazado_874355" data-name="Trazado 874355" d="M13.723,239.118a1.057,1.057,0,0,1-1.057-1.057v-3.59c-.281-.835-2.857-4.12-4.933-6.768C2.922,221.566,0,217.707,0,215.859V202.643A2.646,2.646,0,0,1,2.643,200a3.931,3.931,0,0,1,3.9,3.607l.783,10.108c0,.005,0,.011,0,.016l.021.338a1.057,1.057,0,0,1-2.11.131l-.02-.33-.782-10.1a1.806,1.806,0,0,0-1.79-1.657.529.529,0,0,0-.529.529v13.216c0,.128.129.922,2.269,3.948C5.8,221.815,7.631,224.145,9.4,226.4c4.3,5.485,5.383,7,5.383,7.994v3.669a1.057,1.057,0,0,1-1.057,1.057" transform="translate(-0.317 -174.141)" fill="#5f6e62"/>
        <path id="Trazado_874356" data-name="Trazado 874356" d="M143.859,42.29A15.877,15.877,0,0,1,128,26.431c0-5.781,3.576-10.026,7.361-14.521,2.826-3.356,5.748-6.825,7.516-11.245a1.057,1.057,0,0,1,1.963,0c1.768,4.42,4.69,7.89,7.516,11.245,3.785,4.495,7.361,8.74,7.361,14.521A15.877,15.877,0,0,1,143.859,42.29m0-38.669a50.265,50.265,0,0,1-6.88,9.652c-3.683,4.373-6.864,8.15-6.864,13.159a13.744,13.744,0,0,0,27.488,0c0-5.009-3.181-8.786-6.864-13.159a50.263,50.263,0,0,1-6.88-9.652" transform="translate(-111.401 -0.572)" fill="#5f6e62"/>
        <path id="Trazado_874357" data-name="Trazado 874357" d="M188.619,125.285a1.057,1.057,0,0,1-.855-1.678c.8-1.1,1.741-2.25,2.557-3.228a1.057,1.057,0,1,1,1.624,1.354c-1.124,1.347-1.862,2.279-2.469,3.115a1.055,1.055,0,0,1-.856.436" transform="translate(-163.092 -104.713)" fill="#5f6e62"/>
        <path id="Trazado_874358" data-name="Trazado 874358" d="M174.342,202.637a1.051,1.051,0,0,1-.471-.111A10.524,10.524,0,0,1,168,193.057a1.057,1.057,0,0,1,2.115,0,8.422,8.422,0,0,0,4.7,7.576,1.057,1.057,0,0,1-.472,2" transform="translate(-146.115 -167.199)" fill="#5f6e62"/>
      </g>
    </g>
  </g>
</svg>
