<svg xmlns="http://www.w3.org/2000/svg" xmlns:xlink="http://www.w3.org/1999/xlink" width="97" height="97" viewBox="0 0 97 97">
  <defs>
    <clipPath id="clip-path">
      <rect id="Rectángulo_401609" data-name="Rectángulo 401609" width="62.221" height="69.253" fill="#5f6e62"/>
    </clipPath>
  </defs>
  <g id="_85" data-name="85" transform="translate(3230 1356)">
    <g id="Grupo_1099733" data-name="Grupo 1099733" transform="translate(-3672 -10009)">
      <circle id="Elipse_11579" data-name="Elipse 11579" cx="48.5" cy="48.5" r="48.5" transform="translate(442 8653)" fill="#fddbb4"/>
      <g id="Grupo_1099738" data-name="Grupo 1099738" transform="translate(459.073 8383.392)">
        <g id="Grupo_1099737" data-name="Grupo 1099737" transform="translate(0 280.385)" clip-path="url(#clip-path)">
          <path id="Trazado_874294" data-name="Trazado 874294" d="M85.619,30.351a9.857,9.857,0,0,1-8.758-14.38L84.875.452a.836.836,0,0,1,1.486,0l8.015,15.519a9.856,9.856,0,0,1-8.757,14.38m0-27.692-7.272,14.08a8.184,8.184,0,1,0,14.544,0Z" transform="translate(-60.325 0)" fill="#5f6e62"/>
          <path id="Trazado_874295" data-name="Trazado 874295" d="M88.119,237.2c-1.378,0-2.3-.049-2.406-.056H75.235a2.977,2.977,0,0,1-3.029-2.76,2.9,2.9,0,0,1,.272-1.4H71.146a2.977,2.977,0,0,1-3.029-2.759,2.891,2.891,0,0,1,.553-1.87,2.881,2.881,0,0,1-.574-4.449,2.93,2.93,0,0,1,1.888-.9,2.907,2.907,0,0,1-.276-1.407,2.977,2.977,0,0,1,3.029-2.76H86.141l-2.83-1.523a4.676,4.676,0,0,1-2.441-4.678,1.968,1.968,0,0,1,2.684-1.6l14.473,5.627c7.564,2.559,16.677,2.586,16.94,2.586h.008a.836.836,0,0,1,0,1.672,61.959,61.959,0,0,1-17.521-2.687l-14.514-5.642a.294.294,0,0,0-.268.018.29.29,0,0,0-.142.219,3.013,3.013,0,0,0,1.572,3.014l5.751,3.1a.836.836,0,0,1-.4,1.573H72.736a1.323,1.323,0,0,0-1.358,1.174A1.243,1.243,0,0,0,72.618,223a.836.836,0,1,1,0,1.673H70.211a1.242,1.242,0,0,0-1.241,1.31,1.323,1.323,0,0,0,1.358,1.174h.7a.836.836,0,1,1,0,1.673,1.242,1.242,0,0,0-1.24,1.311,1.324,1.324,0,0,0,1.358,1.174h3.971a.836.836,0,1,1,0,1.673,1.242,1.242,0,0,0-1.24,1.31,1.323,1.323,0,0,0,1.358,1.174H85.76c.128.006,8.2.437,13.413-1.376a24.613,24.613,0,0,1,8.085-1.282h4.786a.836.836,0,1,1,0,1.672h-4.786a22.94,22.94,0,0,0-7.536,1.19c-3.752,1.3-8.7,1.522-11.6,1.522" transform="translate(-53.589 -167.942)" fill="#5f6e62"/>
          <path id="Trazado_874296" data-name="Trazado 874296" d="M102.689,271.989H90.161a.836.836,0,1,1,0-1.673h12.528a.836.836,0,1,1,0,1.673" transform="translate(-71.132 -215.261)" fill="#5f6e62"/>
          <path id="Trazado_874297" data-name="Trazado 874297" d="M96.47,292.4H82.352a.836.836,0,0,1,0-1.673H96.47a.836.836,0,0,1,0,1.673" transform="translate(-64.914 -231.515)" fill="#5f6e62"/>
          <path id="Trazado_874298" data-name="Trazado 874298" d="M112.459,312.813H102.43a.836.836,0,1,1,0-1.673h10.029a.836.836,0,1,1,0,1.673" transform="translate(-80.902 -247.771)" fill="#5f6e62"/>
          <path id="Trazado_874299" data-name="Trazado 874299" d="M10.461,190.514a2.89,2.89,0,0,1-2.935-3.126l-1.247.468a2.976,2.976,0,0,1-3.805-1.519,2.889,2.889,0,0,1-.14-1.945,2.881,2.881,0,0,1-2.1-3.964,2.928,2.928,0,0,1,1.451-1.506,2.9,2.9,0,0,1-.753-1.22A2.976,2.976,0,0,1,2.8,174.056l12.55-4.711-3.185-.432a4.676,4.676,0,0,1-3.929-3.522,1.968,1.968,0,0,1,1.95-2.443l15.527.18a45.266,45.266,0,0,0,13.878-2.565.836.836,0,1,1,.623,1.552A46.273,46.273,0,0,1,25.726,164.8l-15.572-.18h-.008a.294.294,0,0,0-.237.111.29.29,0,0,0-.056.256,3.013,3.013,0,0,0,2.531,2.268l6.472.877a.836.836,0,0,1,.182,1.612L3.384,175.622a1.323,1.323,0,0,0-.859,1.577,1.243,1.243,0,0,0,1.622.791.836.836,0,1,1,.588,1.566h0l-2.251.845a1.243,1.243,0,0,0-.7,1.663,1.325,1.325,0,0,0,1.685.622l.655-.246a.836.836,0,1,1,.588,1.566h0a1.243,1.243,0,0,0-.7,1.663,1.324,1.324,0,0,0,1.685.622l3.718-1.4A.836.836,0,1,1,10,186.461h0a1.242,1.242,0,0,0-.7,1.662,1.324,1.324,0,0,0,1.685.622l1.267-.476a.836.836,0,1,1,.588,1.566l-1.267.476a3.153,3.153,0,0,1-1.107.2" transform="translate(0 -127.814)" fill="#5f6e62"/>
          <path id="Trazado_874300" data-name="Trazado 874300" d="M18.531,230.555a.836.836,0,0,1-.294-1.619l11.729-4.4a.836.836,0,1,1,.588,1.566l-11.729,4.4a.832.832,0,0,1-.294.054" transform="translate(-14.091 -178.76)" fill="#5f6e62"/>
          <path id="Trazado_874301" data-name="Trazado 874301" d="M18.4,254.416A.836.836,0,0,1,18.1,252.8l10.361-3.89a.836.836,0,1,1,.588,1.566l-10.361,3.89a.833.833,0,0,1-.294.054" transform="translate(-13.983 -198.17)" fill="#5f6e62"/>
          <path id="Trazado_874302" data-name="Trazado 874302" d="M44.367,278.7a.836.836,0,0,1-.294-1.619l2.03-.762a.836.836,0,1,1,.588,1.566l-2.031.762a.836.836,0,0,1-.294.054" transform="translate(-34.664 -219.996)" fill="#5f6e62"/>
        </g>
      </g>
    </g>
  </g>
</svg>
