<svg xmlns="http://www.w3.org/2000/svg" width="81" height="81" viewBox="0 0 81 81">
  <g id="a2" transform="translate(-1255.333 -197)">
    <g id="Elipse_11505" data-name="Elipse 11505" transform="translate(1255.333 197)" fill="#f8fbf9" stroke="#869a8a" stroke-width="5">
      <circle cx="40.5" cy="40.5" r="40.5" stroke="none"/>
      <circle cx="40.5" cy="40.5" r="38" fill="none"/>
    </g>
    <g id="reshot-icon-waste-YF2ATMEQXZ" transform="translate(1239.116 212.006)">
      <path id="Trazado_873918" data-name="Trazado 873918" d="M100.622,83.537v2.147l-1.927,35.655a4.294,4.294,0,0,1-4.287,4.062H68.194a4.294,4.294,0,0,1-4.287-4.062L61.979,85.684V83.537Z" transform="translate(-26.69 -75.218)" fill="#f9a545"/>
      <path id="Trazado_873919" data-name="Trazado 873919" d="M364.712,83.537v2.147l-1.927,35.655A4.294,4.294,0,0,1,358.5,125.4h-3.22a4.294,4.294,0,0,0,4.287-4.062l1.927-35.655V83.537Z" transform="translate(-290.78 -75.218)" fill="#feedda"/>
      <path id="Trazado_873920" data-name="Trazado 873920" d="M74.248,39.952A3.668,3.668,0,0,1,71.1,45.507H52.676a3.668,3.668,0,0,1-3.145-5.555l8.948-14.913a3.668,3.668,0,0,1,3.145-1.781h.53A3.668,3.668,0,0,1,65.3,25.039Zm6.963-27.574H76.917V10.231A2.147,2.147,0,0,0,74.77,8.084H49.008a2.147,2.147,0,0,0-2.147,2.147v2.147H42.568a2.147,2.147,0,0,0-2.147,2.147V15.6a2.147,2.147,0,0,0,2.147,2.147H81.211A2.147,2.147,0,0,0,83.358,15.6V14.525A2.147,2.147,0,0,0,81.211,12.378Z" transform="translate(-7.279 -7.279)" fill="#fddbb4"/>
      <path id="Trazado_873921" data-name="Trazado 873921" d="M74.248,39.952a3.668,3.668,0,0,1,.523,1.887h0A3.668,3.668,0,0,1,71.1,45.507h-3.22a3.668,3.668,0,0,0,3.668-3.668h0a3.667,3.667,0,0,0-.523-1.887L62.08,25.039a3.666,3.666,0,0,0-1.8-1.524,3.662,3.662,0,0,1,1.345-.257h.53A3.668,3.668,0,0,1,65.3,25.039Zm6.963-27.574H76.917V10.231A2.147,2.147,0,0,0,74.77,8.084H71.55A2.147,2.147,0,0,1,73.7,10.231v2.147H42.568a2.147,2.147,0,0,0-2.147,2.147V15.6H83.358V14.525A2.147,2.147,0,0,0,81.211,12.378Z" transform="translate(-7.279 -7.279)" fill="#f9a545"/>
      <path id="Trazado_873922" data-name="Trazado 873922" d="M235.534,215.523a1.61,1.61,0,1,1-1.61-1.61A1.61,1.61,0,0,1,235.534,215.523Zm-.993-13.418h-1.235a1.824,1.824,0,0,0-1.81,2.05l.617,4.939a1.824,1.824,0,0,0,3.62,0l.617-4.939A1.824,1.824,0,0,0,234.542,202.105Z" transform="translate(-179.314 -181.978)" fill="#f7c343"/>
      <path id="Trazado_873923" data-name="Trazado 873923" d="M234.166,215.556a1.022,1.022,0,1,1-.926-1.456A1.608,1.608,0,0,1,234.166,215.556Zm-.926-13.414a1.822,1.822,0,0,0-1.743,2.046l.617,4.94a1.165,1.165,0,1,0,2.251,0l.617-4.94A1.822,1.822,0,0,0,233.24,202.142Z" transform="translate(-179.314 -182.012)" fill="#c1ddc7"/>
      <path id="Trazado_873924" data-name="Trazado 873924" d="M65.728,32.169a.805.805,0,1,1,1.381-.828l.551.918a4.473,4.473,0,0,1-3.836,6.775H50.317a.805.805,0,1,1,0-1.61H63.823a2.863,2.863,0,0,0,2.455-4.336Zm-8.508-4.953a2.629,2.629,0,0,1-5.217,0l-.617-4.939a2.629,2.629,0,0,1,2.609-2.955h1.235a2.629,2.629,0,0,1,2.609,2.955Zm-1.228-5.94a1.006,1.006,0,0,0-.764-.345H53.993a1.019,1.019,0,0,0-1.011,1.145l.617,4.939a1.019,1.019,0,0,0,2.022,0l.617-4.94A1.006,1.006,0,0,0,55.992,21.276ZM76.884,7.246V8.319A2.958,2.958,0,0,1,74.7,11.17L72.809,46.164a5.1,5.1,0,0,1-5.091,4.823H41.5a5.1,5.1,0,0,1-5.091-4.823L34.521,11.17a2.957,2.957,0,0,1-2.184-2.851V7.246a2.955,2.955,0,0,1,2.952-2.952h3.489V2.952A2.955,2.955,0,0,1,41.729,0H67.492a2.955,2.955,0,0,1,2.952,2.952V4.294h3.489A2.955,2.955,0,0,1,76.884,7.246Zm-1.61,0A1.343,1.343,0,0,0,73.932,5.9H65.345a.805.805,0,0,1,0-1.61h3.489V2.952A1.343,1.343,0,0,0,67.491,1.61H41.729a1.343,1.343,0,0,0-1.342,1.342V4.294H62.124a.805.805,0,1,1,0,1.61H35.289a1.343,1.343,0,0,0-1.342,1.342V8.319a1.343,1.343,0,0,0,1.338,1.342h4.3a.805.805,0,1,1,0,1.61H36.139L38.02,46.077a3.489,3.489,0,0,0,3.484,3.3H67.717a3.489,3.489,0,0,0,3.484-3.3l1.881-34.806H42.8a.805.805,0,0,1,0-1.61H73.936a1.343,1.343,0,0,0,1.338-1.342V7.246ZM40.924,34.56A4.478,4.478,0,0,0,45.4,39.033h1.7a.805.805,0,0,0,0-1.61H45.4a2.863,2.863,0,0,1-2.455-4.336l5.6-9.326a.805.805,0,1,0-1.381-.828l-5.6,9.326A4.475,4.475,0,0,0,40.924,34.56Zm16.1-1.016a2.415,2.415,0,1,1-2.415-2.415A2.418,2.418,0,0,1,57.026,33.544Zm-1.61,0a.805.805,0,1,0-.805.805A.806.806,0,0,0,55.415,33.544Zm-6.05-12.727a.805.805,0,0,0,1.1-.276l1.42-2.366a2.877,2.877,0,0,1,2.455-1.39h.53a2.877,2.877,0,0,1,2.455,1.39L63.9,29.128a.805.805,0,1,0,1.381-.828L58.711,17.346a4.5,4.5,0,0,0-3.836-2.172h-.53a4.5,4.5,0,0,0-3.836,2.172l-1.42,2.366A.8.8,0,0,0,49.366,20.817Z"/>
    </g>
  </g>
</svg>
