<svg xmlns="http://www.w3.org/2000/svg" xmlns:xlink="http://www.w3.org/1999/xlink" width="400" height="436" viewBox="0 0 400 436">
  <defs>
    <clipPath id="clip-path">
      <path id="Trazado_873708" data-name="Trazado 873708" d="M1.209,0H82.788C83.456,0,84,1.5,84,3.358V86.237c0,1.854-.541,3.358-1.209,3.358H1.209C.541,89.594,0,88.091,0,86.237V3.358C0,1.5.541,0,1.209,0Z" transform="translate(1102.763 70)" fill="#297929" stroke="#707070" stroke-width="1"/>
    </clipPath>
    <radialGradient id="radial-gradient" cx="0.5" cy="0.5" r="0.5" gradientUnits="objectBoundingBox">
      <stop offset="0" stop-color="#fff" stop-opacity="0"/>
      <stop offset="1" stop-color="#f9a545"/>
    </radialGradient>
  </defs>
  <g id="card-n" transform="translate(-390.051 -1131.494)">
    <g id="card-n-2" data-name="card-n">
      <rect id="Rectángulo_401382" data-name="Rectángulo 401382" width="400" height="436" rx="8" transform="translate(390.051 1131.494)" fill="#fddbb4"/>
      <g id="Enmascarar_grupo_1098688" data-name="Enmascarar grupo 1098688" transform="translate(-396.76 1061.494)" clip-path="url(#clip-path)">
        <path id="Sustracción_23" data-name="Sustracción 23" d="M60.642,121.285a61.081,61.081,0,0,1-12.221-1.232,60.311,60.311,0,0,1-21.684-9.125A60.812,60.812,0,0,1,4.766,84.247,60.341,60.341,0,0,1,1.232,72.864a61.228,61.228,0,0,1,0-24.443,60.324,60.324,0,0,1,9.125-21.684A60.822,60.822,0,0,1,37.038,4.766,60.328,60.328,0,0,1,48.421,1.232a61.228,61.228,0,0,1,24.443,0,60.314,60.314,0,0,1,21.684,9.125,60.819,60.819,0,0,1,21.971,26.681,60.337,60.337,0,0,1,3.533,11.383,61.228,61.228,0,0,1,0,24.443,60.307,60.307,0,0,1-9.125,21.684,60.817,60.817,0,0,1-26.681,21.971,60.326,60.326,0,0,1-11.383,3.534A61.081,61.081,0,0,1,60.642,121.285Zm0-97.074a36.677,36.677,0,0,0-7.342.74,36.234,36.234,0,0,0-13.027,5.482,36.54,36.54,0,0,0-13.2,16.029A36.25,36.25,0,0,0,24.95,53.3a36.783,36.783,0,0,0,0,14.685,36.238,36.238,0,0,0,5.482,13.027,36.537,36.537,0,0,0,16.029,13.2A36.233,36.233,0,0,0,53.3,96.334a36.791,36.791,0,0,0,14.685,0,36.233,36.233,0,0,0,13.027-5.482,36.537,36.537,0,0,0,13.2-16.029,36.238,36.238,0,0,0,2.123-6.839,36.783,36.783,0,0,0,0-14.685,36.231,36.231,0,0,0-5.482-13.027,36.536,36.536,0,0,0-16.029-13.2,36.261,36.261,0,0,0-6.839-2.123A36.68,36.68,0,0,0,60.642,24.211Z" transform="translate(1109.708 34.269)" fill="url(#radial-gradient)"/>
      </g>
      <path id="Intersección_15" data-name="Intersección 15" d="M8676.559,11990c.519-12.494,8.125-52.6,86.218-35,0,0,106.4,27.478,110.734-40.976,0,0,3.229-75.715,66.541-66.751V11982a8,8,0,0,1-8,8Z" transform="translate(-8150.051 -10422.508)" fill="#fde8ce"/>
    </g>
  </g>
</svg>
