<svg xmlns="http://www.w3.org/2000/svg" width="119.971" height="37.834" viewBox="0 0 119.971 37.834">
  <g id="dots" transform="translate(-1007.117 -510.408)">
    <path id="Trazado_873218" data-name="Trazado 873218" d="M-60.216-2.131a2.546,2.546,0,0,1,.626-1.758,2.386,2.386,0,0,1,1.879-.7,2.458,2.458,0,0,1,1.9.7,2.494,2.494,0,0,1,.648,1.758,2.359,2.359,0,0,1-.648,1.692,2.5,2.5,0,0,1-1.9.681A2.428,2.428,0,0,1-59.59-.439,2.4,2.4,0,0,1-60.216-2.131Zm22.983,0a2.546,2.546,0,0,1,.626-1.758,2.386,2.386,0,0,1,1.879-.7,2.458,2.458,0,0,1,1.9.7,2.494,2.494,0,0,1,.648,1.758,2.359,2.359,0,0,1-.648,1.692,2.5,2.5,0,0,1-1.9.681,2.428,2.428,0,0,1-1.879-.681A2.4,2.4,0,0,1-37.233-2.131Zm22.983,0a2.546,2.546,0,0,1,.626-1.758,2.386,2.386,0,0,1,1.879-.7,2.458,2.458,0,0,1,1.9.7A2.494,2.494,0,0,1-9.2-2.131,2.359,2.359,0,0,1-9.844-.439a2.5,2.5,0,0,1-1.9.681,2.428,2.428,0,0,1-1.879-.681A2.4,2.4,0,0,1-14.249-2.131Zm22.983,0A2.546,2.546,0,0,1,9.36-3.889a2.386,2.386,0,0,1,1.879-.7,2.458,2.458,0,0,1,1.9.7,2.494,2.494,0,0,1,.648,1.758A2.359,2.359,0,0,1,13.14-.439a2.5,2.5,0,0,1-1.9.681A2.428,2.428,0,0,1,9.36-.439,2.4,2.4,0,0,1,8.734-2.131Zm22.983,0a2.546,2.546,0,0,1,.626-1.758,2.386,2.386,0,0,1,1.879-.7,2.458,2.458,0,0,1,1.9.7,2.494,2.494,0,0,1,.648,1.758,2.359,2.359,0,0,1-.648,1.692,2.5,2.5,0,0,1-1.9.681,2.428,2.428,0,0,1-1.879-.681A2.4,2.4,0,0,1,31.718-2.131Zm22.983,0a2.546,2.546,0,0,1,.626-1.758,2.386,2.386,0,0,1,1.879-.7,2.458,2.458,0,0,1,1.9.7,2.494,2.494,0,0,1,.648,1.758,2.359,2.359,0,0,1-.648,1.692,2.5,2.5,0,0,1-1.9.681,2.428,2.428,0,0,1-1.879-.681A2.4,2.4,0,0,1,54.7-2.131Z" transform="translate(1067.333 515)" fill="#f9a545"/>
    <path id="Trazado_873216" data-name="Trazado 873216" d="M-60.216-2.131a2.546,2.546,0,0,1,.626-1.758,2.386,2.386,0,0,1,1.879-.7,2.458,2.458,0,0,1,1.9.7,2.494,2.494,0,0,1,.648,1.758,2.359,2.359,0,0,1-.648,1.692,2.5,2.5,0,0,1-1.9.681A2.428,2.428,0,0,1-59.59-.439,2.4,2.4,0,0,1-60.216-2.131Zm22.983,0a2.546,2.546,0,0,1,.626-1.758,2.386,2.386,0,0,1,1.879-.7,2.458,2.458,0,0,1,1.9.7,2.494,2.494,0,0,1,.648,1.758,2.359,2.359,0,0,1-.648,1.692,2.5,2.5,0,0,1-1.9.681,2.428,2.428,0,0,1-1.879-.681A2.4,2.4,0,0,1-37.233-2.131Zm22.983,0a2.546,2.546,0,0,1,.626-1.758,2.386,2.386,0,0,1,1.879-.7,2.458,2.458,0,0,1,1.9.7A2.494,2.494,0,0,1-9.2-2.131,2.359,2.359,0,0,1-9.844-.439a2.5,2.5,0,0,1-1.9.681,2.428,2.428,0,0,1-1.879-.681A2.4,2.4,0,0,1-14.249-2.131Zm22.983,0A2.546,2.546,0,0,1,9.36-3.889a2.386,2.386,0,0,1,1.879-.7,2.458,2.458,0,0,1,1.9.7,2.494,2.494,0,0,1,.648,1.758A2.359,2.359,0,0,1,13.14-.439a2.5,2.5,0,0,1-1.9.681A2.428,2.428,0,0,1,9.36-.439,2.4,2.4,0,0,1,8.734-2.131Zm22.983,0a2.546,2.546,0,0,1,.626-1.758,2.386,2.386,0,0,1,1.879-.7,2.458,2.458,0,0,1,1.9.7,2.494,2.494,0,0,1,.648,1.758,2.359,2.359,0,0,1-.648,1.692,2.5,2.5,0,0,1-1.9.681,2.428,2.428,0,0,1-1.879-.681A2.4,2.4,0,0,1,31.718-2.131Zm22.983,0a2.546,2.546,0,0,1,.626-1.758,2.386,2.386,0,0,1,1.879-.7,2.458,2.458,0,0,1,1.9.7,2.494,2.494,0,0,1,.648,1.758,2.359,2.359,0,0,1-.648,1.692,2.5,2.5,0,0,1-1.9.681,2.428,2.428,0,0,1-1.879-.681A2.4,2.4,0,0,1,54.7-2.131Z" transform="translate(1067.333 532)" fill="#f9a545"/>
    <path id="Trazado_873217" data-name="Trazado 873217" d="M-60.216-2.131a2.546,2.546,0,0,1,.626-1.758,2.386,2.386,0,0,1,1.879-.7,2.458,2.458,0,0,1,1.9.7,2.494,2.494,0,0,1,.648,1.758,2.359,2.359,0,0,1-.648,1.692,2.5,2.5,0,0,1-1.9.681A2.428,2.428,0,0,1-59.59-.439,2.4,2.4,0,0,1-60.216-2.131Zm22.983,0a2.546,2.546,0,0,1,.626-1.758,2.386,2.386,0,0,1,1.879-.7,2.458,2.458,0,0,1,1.9.7,2.494,2.494,0,0,1,.648,1.758,2.359,2.359,0,0,1-.648,1.692,2.5,2.5,0,0,1-1.9.681,2.428,2.428,0,0,1-1.879-.681A2.4,2.4,0,0,1-37.233-2.131Zm22.983,0a2.546,2.546,0,0,1,.626-1.758,2.386,2.386,0,0,1,1.879-.7,2.458,2.458,0,0,1,1.9.7A2.494,2.494,0,0,1-9.2-2.131,2.359,2.359,0,0,1-9.844-.439a2.5,2.5,0,0,1-1.9.681,2.428,2.428,0,0,1-1.879-.681A2.4,2.4,0,0,1-14.249-2.131Zm22.983,0A2.546,2.546,0,0,1,9.36-3.889a2.386,2.386,0,0,1,1.879-.7,2.458,2.458,0,0,1,1.9.7,2.494,2.494,0,0,1,.648,1.758A2.359,2.359,0,0,1,13.14-.439a2.5,2.5,0,0,1-1.9.681A2.428,2.428,0,0,1,9.36-.439,2.4,2.4,0,0,1,8.734-2.131Zm22.983,0a2.546,2.546,0,0,1,.626-1.758,2.386,2.386,0,0,1,1.879-.7,2.458,2.458,0,0,1,1.9.7,2.494,2.494,0,0,1,.648,1.758,2.359,2.359,0,0,1-.648,1.692,2.5,2.5,0,0,1-1.9.681,2.428,2.428,0,0,1-1.879-.681A2.4,2.4,0,0,1,31.718-2.131Zm22.983,0a2.546,2.546,0,0,1,.626-1.758,2.386,2.386,0,0,1,1.879-.7,2.458,2.458,0,0,1,1.9.7,2.494,2.494,0,0,1,.648,1.758,2.359,2.359,0,0,1-.648,1.692,2.5,2.5,0,0,1-1.9.681,2.428,2.428,0,0,1-1.879-.681A2.4,2.4,0,0,1,54.7-2.131Z" transform="translate(1067.333 548)" fill="#f9a545"/>
  </g>
</svg>
